999
dxflib 3.12.2.0
  0
SECTION
  2
HEADER
  9
$ACADVER
  1
AC1015
  9
$HANDSEED
  5
FFFF
  9
$DIMADEC
 70
0
  9
$DIMASZ
 40
0.18
  9
$DIMAUNIT
 70
0
  9
$DIMAZIN
 70
0
  9
$DIMDEC
 70
4
  9
$DIMEXE
 40
0.18
  9
$DIMEXO
 40
0.0625
  9
$DIMGAP
 40
0.09
  9
$DIMLUNIT
 70
2
  9
$DIMSCALE
 40
1.0
  9
$DIMTSZ
 40
0.0
  9
$DIMTXT
 40
0.18
  9
$DIMZIN
 70
0
  9
$DWGCODEPAGE
  3
ANSI_1252
  9
$EXTMAX
 10
0.0
 20
0.0
 30
0.0
  9
$EXTMIN
 10
0.0
 20
0.0
 30
0.0
  9
$INSBASE
 10
0.0
 20
0.0
 30
0.0
  9
$INSUNITS
 70
0
  9
$LTSCALE
 40
1.0
  9
$MAXACTVP
 70
32
  9
$MEASUREMENT
 70
1
  9
$PDMODE
 70
0
  9
$PDSIZE
 40
0
  0
ENDSEC
  0
SECTION
  2
TABLES
  0
TABLE
  2
VPORT
  5
8
100
AcDbSymbolTable
 70
1
  0
VPORT
  5
30
100
AcDbSymbolTableRecord
100
AcDbViewportTableRecord
  2
*Active
 70
0
 10
0.0
 20
0.0
 11
1.0
 21
1.0
 12
286.3055555555554861
 22
148.5
 13
0.0
 23
0.0
 14
10.0
 24
10.0
 15
10.0
 25
10.0
 16
0.0
 26
0.0
 36
1.0
 17
0.0
 27
0.0
 37
0.0
 40
297.0
 41
1.92798353909465
 42
50.0
 43
0.0
 44
0.0
 50
0.0
 51
0.0
 71
0
 72
100
 73
1
 74
3
 75
1
 76
1
 77
0
 78
0
281
0
 65
1
110
0.0
120
0.0
130
0.0
111
1.0
121
0.0
131
0.0
112
0.0
122
1.0
132
0.0
 79
0
146
0.0
  0
ENDTAB
  0
TABLE
  2
LTYPE
  5
5
100
AcDbSymbolTable
 70
41
  0
LTYPE
  5
16
100
AcDbSymbolTableRecord
100
AcDbLinetypeTableRecord
  2
CONTINUOUS
 70
0
  3
Solid line
 72
65
 73
0
 40
0.0
  0
LTYPE
  5
31
100
AcDbSymbolTableRecord
100
AcDbLinetypeTableRecord
  2
ACAD_ISO15W100
 70
0
  3
ISO double-dash triple-dot __ __ . . . __ __ . .
 72
65
 73
10
 40
39.0
 49
12.0
 74
0
 49
-3.0
 74
0
 49
12.0
 74
0
 49
-3.0
 74
0
 49
0.0
 74
0
 49
-3.0
 74
0
 49
0.0
 74
0
 49
-3.0
 74
0
 49
0.0
 74
0
 49
-3.0
 74
0
  0
LTYPE
  5
32
100
AcDbSymbolTableRecord
100
AcDbLinetypeTableRecord
  2
DIVIDE
 70
0
  3
Divide ____ . . ____ . . ____ . . ____ . . ____
 72
65
 73
6
 40
31.75
 49
12.6999999999999993
 74
0
 49
-6.3499999999999996
 74
0
 49
0.0
 74
0
 49
-6.3499999999999996
 74
0
 49
0.0
 74
0
 49
-6.3499999999999996
 74
0
  0
LTYPE
  5
33
100
AcDbSymbolTableRecord
100
AcDbLinetypeTableRecord
  2
ACAD_ISO10W100
 70
0
  3
ISO dash dot __ . __ . __ . __ . __ . __ . __ . 
 72
65
 73
4
 40
18.0
 49
12.0
 74
0
 49
-3.0
 74
0
 49
0.0
 74
0
 49
-3.0
 74
0
  0
LTYPE
  5
34
100
AcDbSymbolTableRecord
100
AcDbLinetypeTableRecord
  2
ACAD_ISO04W100
 70
0
  3
ISO long-dash dot ____ . ____ . ____ . ____ . _
 72
65
 73
4
 40
30.0
 49
24.0
 74
0
 49
-3.0
 74
0
 49
0.0
 74
0
 49
-3.0
 74
0
  0
LTYPE
  5
35
100
AcDbSymbolTableRecord
100
AcDbLinetypeTableRecord
  2
CENTER2
 70
0
  3
Center (.5x) ___ _ ___ _ ___ _ ___ _ ___ _ ___
 72
65
 73
4
 40
28.5750000000000028
 49
19.0500000000000007
 74
0
 49
-3.1749999999999998
 74
0
 49
3.1749999999999998
 74
0
 49
-3.1749999999999998
 74
0
  0
LTYPE
  5
36
100
AcDbSymbolTableRecord
100
AcDbLinetypeTableRecord
  2
ACAD_ISO11W100
 70
0
  3
ISO double-dash dot __ __ . __ __ . __ __ . __ _
 72
65
 73
6
 40
33.0
 49
12.0
 74
0
 49
-3.0
 74
0
 49
12.0
 74
0
 49
-3.0
 74
0
 49
0.0
 74
0
 49
-3.0
 74
0
  0
LTYPE
  5
37
100
AcDbSymbolTableRecord
100
AcDbLinetypeTableRecord
  2
HIDDEN2
 70
0
  3
Hidden (.5x) _ _ _ _ _ _ _ _ _ _ _ _ _ _ _ _ _ 
 72
65
 73
2
 40
4.7624999999999993
 49
3.1749999999999998
 74
0
 49
-1.5874999999999999
 74
0
  0
LTYPE
  5
38
100
AcDbSymbolTableRecord
100
AcDbLinetypeTableRecord
  2
BORDERX2
 70
0
  3
Border (2x) ____  ____  .  ____  ____  .  ___
 72
65
 73
6
 40
88.8999999999999915
 49
25.3999999999999986
 74
0
 49
-12.6999999999999993
 74
0
 49
25.3999999999999986
 74
0
 49
-12.6999999999999993
 74
0
 49
0.0
 74
0
 49
-12.6999999999999993
 74
0
  0
LTYPE
  5
39
100
AcDbSymbolTableRecord
100
AcDbLinetypeTableRecord
  2
ACAD_ISO05W100
 70
0
  3
ISO long-dash double-dot ____ .. ____ .. ____ . 
 72
65
 73
6
 40
33.0
 49
24.0
 74
0
 49
-3.0
 74
0
 49
0.0
 74
0
 49
-3.0
 74
0
 49
0.0
 74
0
 49
-3.0
 74
0
  0
LTYPE
  5
3A
100
AcDbSymbolTableRecord
100
AcDbLinetypeTableRecord
  2
DASHDOTX2
 70
0
  3
Dash dot (2x) ____  .  ____  .  ____  .  ___
 72
65
 73
4
 40
50.7999999999999972
 49
25.3999999999999986
 74
0
 49
-12.6999999999999993
 74
0
 49
0.0
 74
0
 49
-12.6999999999999993
 74
0
  0
LTYPE
  5
3B
100
AcDbSymbolTableRecord
100
AcDbLinetypeTableRecord
  2
HIDDENX2
 70
0
  3
Hidden (2x) ____ ____ ____ ____ ____ ____ ____ 
 72
65
 73
2
 40
19.0499999999999972
 49
12.6999999999999993
 74
0
 49
-6.3499999999999996
 74
0
  0
LTYPE
  5
3C
100
AcDbSymbolTableRecord
100
AcDbLinetypeTableRecord
  2
CENTERX2
 70
0
  3
Center (2x) ________  __  ________  __  _____
 72
65
 73
4
 40
101.6000000000000085
 49
63.5
 74
0
 49
-12.6999999999999993
 74
0
 49
12.6999999999999993
 74
0
 49
-12.6999999999999993
 74
0
  0
LTYPE
  5
3D
100
AcDbSymbolTableRecord
100
AcDbLinetypeTableRecord
  2
BORDER2
 70
0
  3
Border (.5x) __.__.__.__.__.__.__.__.__.__.__.
 72
65
 73
6
 40
22.2249999999999979
 49
6.3499999999999996
 74
0
 49
-3.1749999999999998
 74
0
 49
6.3499999999999996
 74
0
 49
-3.1749999999999998
 74
0
 49
0.0
 74
0
 49
-3.1749999999999998
 74
0
  0
LTYPE
  5
3E
100
AcDbSymbolTableRecord
100
AcDbLinetypeTableRecord
  2
DASHDOT2
 70
0
  3
Dash dot (.5x) _._._._._._._._._._._._._._._.
 72
65
 73
4
 40
12.6999999999999993
 49
6.3499999999999996
 74
0
 49
-3.1749999999999998
 74
0
 49
0.0
 74
0
 49
-3.1749999999999998
 74
0
  0
LTYPE
  5
3F
100
AcDbSymbolTableRecord
100
AcDbLinetypeTableRecord
  2
ACAD_ISO12W100
 70
0
  3
ISO dash double-dot __ . . __ . . __ . . __ . . 
 72
65
 73
6
 40
21.0
 49
12.0
 74
0
 49
-3.0
 74
0
 49
0.0
 74
0
 49
-3.0
 74
0
 49
0.0
 74
0
 49
-3.0
 74
0
  0
LTYPE
  5
40
100
AcDbSymbolTableRecord
100
AcDbLinetypeTableRecord
  2
ACAD_ISO07W100
 70
0
  3
ISO dot . . . . . . . . . . . . . . . . . . . . 
 72
65
 73
2
 40
3.0
 49
0.0
 74
0
 49
-3.0
 74
0
  0
LTYPE
  5
41
100
AcDbSymbolTableRecord
100
AcDbLinetypeTableRecord
  2
HIDDEN
 70
0
  3
Hidden __ __ __ __ __ __ __ __ __ __ __ __ __ __
 72
65
 73
2
 40
9.5249999999999986
 49
6.3499999999999996
 74
0
 49
-3.1749999999999998
 74
0
  0
LTYPE
  5
42
100
AcDbSymbolTableRecord
100
AcDbLinetypeTableRecord
  2
ACAD_ISO06W100
 70
0
  3
ISO long-dash triple-dot ____ ... ____ ... ____
 72
65
 73
8
 40
36.0
 49
24.0
 74
0
 49
-3.0
 74
0
 49
0.0
 74
0
 49
-3.0
 74
0
 49
0.0
 74
0
 49
-3.0
 74
0
 49
0.0
 74
0
 49
-3.0
 74
0
  0
LTYPE
  5
43
100
AcDbSymbolTableRecord
100
AcDbLinetypeTableRecord
  2
CENTER
 70
0
  3
Center ____ _ ____ _ ____ _ ____ _ ____ _ ____
 72
65
 73
4
 40
50.8000000000000043
 49
31.75
 74
0
 49
-6.3499999999999996
 74
0
 49
6.3499999999999996
 74
0
 49
-6.3499999999999996
 74
0
  0
LTYPE
  5
44
100
AcDbSymbolTableRecord
100
AcDbLinetypeTableRecord
  2
DOTX2
 70
0
  3
Dot (2x) .  .  .  .  .  .  .  .  .  .  .  .  .  .
 72
65
 73
2
 40
12.6999999999999993
 49
0.0
 74
0
 49
-12.6999999999999993
 74
0
  0
LTYPE
  5
45
100
AcDbSymbolTableRecord
100
AcDbLinetypeTableRecord
  2
PHANTOM
 70
0
  3
Phantom ______  __  __  ______  __  __  ______ 
 72
65
 73
6
 40
63.5000000000000071
 49
31.75
 74
0
 49
-6.3499999999999996
 74
0
 49
6.3499999999999996
 74
0
 49
-6.3499999999999996
 74
0
 49
6.3499999999999996
 74
0
 49
-6.3499999999999996
 74
0
  0
LTYPE
  5
46
100
AcDbSymbolTableRecord
100
AcDbLinetypeTableRecord
  2
ACAD_ISO08W100
 70
0
  3
ISO long-dash short-dash ____ __ ____ __ ____ _
 72
65
 73
4
 40
36.0
 49
24.0
 74
0
 49
-3.0
 74
0
 49
6.0
 74
0
 49
-3.0
 74
0
  0
LTYPE
  5
47
100
AcDbSymbolTableRecord
100
AcDbLinetypeTableRecord
  2
DASHEDX2
 70
0
  3
Dashed (2x) ____  ____  ____  ____  ____  ___
 72
65
 73
2
 40
38.0999999999999943
 49
25.3999999999999986
 74
0
 49
-12.6999999999999993
 74
0
  0
LTYPE
  5
48
100
AcDbSymbolTableRecord
100
AcDbLinetypeTableRecord
  2
ACAD_ISO02W100
 70
0
  3
ISO dash __ __ __ __ __ __ __ __ __ __ __ __ __
 72
65
 73
2
 40
15.0
 49
12.0
 74
0
 49
-3.0
 74
0
  0
LTYPE
  5
49
100
AcDbSymbolTableRecord
100
AcDbLinetypeTableRecord
  2
PHANTOM2
 70
0
  3
Phantom (.5x) ___ _ _ ___ _ _ ___ _ _ ___ _ _
 72
65
 73
6
 40
31.7500000000000036
 49
15.875
 74
0
 49
-3.1749999999999998
 74
0
 49
3.1749999999999998
 74
0
 49
-3.1749999999999998
 74
0
 49
3.1749999999999998
 74
0
 49
-3.1749999999999998
 74
0
  0
LTYPE
  5
4A
100
AcDbSymbolTableRecord
100
AcDbLinetypeTableRecord
  2
DASHED2
 70
0
  3
Dashed (.5x) _ _ _ _ _ _ _ _ _ _ _ _ _ _ _ _ _ 
 72
65
 73
2
 40
9.5249999999999986
 49
6.3499999999999996
 74
0
 49
-3.1749999999999998
 74
0
  0
LTYPE
  5
4B
100
AcDbSymbolTableRecord
100
AcDbLinetypeTableRecord
  2
ACAD_ISO09W100
 70
0
  3
ISO long-dash double-short-dash ____ __ __ ____
 72
65
 73
6
 40
45.0
 49
24.0
 74
0
 49
-3.0
 74
0
 49
6.0
 74
0
 49
-3.0
 74
0
 49
6.0
 74
0
 49
-3.0
 74
0
  0
LTYPE
  5
4C
100
AcDbSymbolTableRecord
100
AcDbLinetypeTableRecord
  2
ACAD_ISO13W100
 70
0
  3
ISO double-dash double-dot __ __ . . __ __ . . _
 72
65
 73
8
 40
36.0
 49
12.0
 74
0
 49
-3.0
 74
0
 49
12.0
 74
0
 49
-3.0
 74
0
 49
0.0
 74
0
 49
-3.0
 74
0
 49
0.0
 74
0
 49
-3.0
 74
0
  0
LTYPE
  5
4D
100
AcDbSymbolTableRecord
100
AcDbLinetypeTableRecord
  2
DOT2
 70
0
  3
Dot (.5x) ........................................
 72
65
 73
2
 40
3.1749999999999998
 49
0.0
 74
0
 49
-3.1749999999999998
 74
0
  0
LTYPE
  5
4E
100
AcDbSymbolTableRecord
100
AcDbLinetypeTableRecord
  2
DASHED
 70
0
  3
Dashed __ __ __ __ __ __ __ __ __ __ __ __ __ _
 72
65
 73
2
 40
19.0499999999999972
 49
12.6999999999999993
 74
0
 49
-6.3499999999999996
 74
0
  0
LTYPE
  5
4F
100
AcDbSymbolTableRecord
100
AcDbLinetypeTableRecord
  2
ACAD_ISO14W100
 70
0
  3
ISO dash triple-dot __ . . . __ . . . __ . . . _
 72
65
 73
8
 40
24.0
 49
12.0
 74
0
 49
-3.0
 74
0
 49
0.0
 74
0
 49
-3.0
 74
0
 49
0.0
 74
0
 49
-3.0
 74
0
 49
0.0
 74
0
 49
-3.0
 74
0
  0
LTYPE
  5
15
100
AcDbSymbolTableRecord
100
AcDbLinetypeTableRecord
  2
BYLAYER
 70
0
  3

 72
65
 73
0
 40
0.0
  0
LTYPE
  5
50
100
AcDbSymbolTableRecord
100
AcDbLinetypeTableRecord
  2
PHANTOMX2
 70
0
  3
Phantom (2x) ____________    ____    ____   _
 72
65
 73
6
 40
127.0000000000000142
 49
63.5
 74
0
 49
-12.6999999999999993
 74
0
 49
12.6999999999999993
 74
0
 49
-12.6999999999999993
 74
0
 49
12.6999999999999993
 74
0
 49
-12.6999999999999993
 74
0
  0
LTYPE
  5
14
100
AcDbSymbolTableRecord
100
AcDbLinetypeTableRecord
  2
BYBLOCK
 70
0
  3

 72
65
 73
0
 40
0.0
  0
LTYPE
  5
51
100
AcDbSymbolTableRecord
100
AcDbLinetypeTableRecord
  2
DIVIDEX2
 70
0
  3
Divide (2x) ________  .  .  ________  .  .  _
 72
65
 73
6
 40
63.5
 49
25.3999999999999986
 74
0
 49
-12.6999999999999993
 74
0
 49
0.0
 74
0
 49
-12.6999999999999993
 74
0
 49
0.0
 74
0
 49
-12.6999999999999993
 74
0
  0
LTYPE
  5
52
100
AcDbSymbolTableRecord
100
AcDbLinetypeTableRecord
  2
BORDER
 70
0
  3
Border __ __ . __ __ . __ __ . __ __ . __ __ .
 72
65
 73
6
 40
44.4499999999999957
 49
12.6999999999999993
 74
0
 49
-6.3499999999999996
 74
0
 49
12.6999999999999993
 74
0
 49
-6.3499999999999996
 74
0
 49
0.0
 74
0
 49
-6.3499999999999996
 74
0
  0
LTYPE
  5
53
100
AcDbSymbolTableRecord
100
AcDbLinetypeTableRecord
  2
DIVIDE2
 70
0
  3
Divide (.5x) __..__..__..__..__..__..__..__.._
 72
65
 73
6
 40
15.875
 49
6.3499999999999996
 74
0
 49
-3.1749999999999998
 74
0
 49
0.0
 74
0
 49
-3.1749999999999998
 74
0
 49
0.0
 74
0
 49
-3.1749999999999998
 74
0
  0
LTYPE
  5
54
100
AcDbSymbolTableRecord
100
AcDbLinetypeTableRecord
  2
DOT
 70
0
  3
Dot . . . . . . . . . . . . . . . . . . . . . . . .
 72
65
 73
2
 40
6.3499999999999996
 49
0.0
 74
0
 49
-6.3499999999999996
 74
0
  0
LTYPE
  5
55
100
AcDbSymbolTableRecord
100
AcDbLinetypeTableRecord
  2
DASHDOT
 70
0
  3
Dash dot __ . __ . __ . __ . __ . __ . __ . __
 72
65
 73
4
 40
25.3999999999999986
 49
12.6999999999999993
 74
0
 49
-6.3499999999999996
 74
0
 49
0.0
 74
0
 49
-6.3499999999999996
 74
0
  0
LTYPE
  5
56
100
AcDbSymbolTableRecord
100
AcDbLinetypeTableRecord
  2
ACAD_ISO03W100
 70
0
  3
ISO dash space __    __    __    __    __    __
 72
65
 73
2
 40
30.0
 49
12.0
 74
0
 49
-18.0
 74
0
  0
ENDTAB
  0
TABLE
  2
LAYER
  5
2
100
AcDbSymbolTable
 70
1
  0
LAYER
  5
10
100
AcDbSymbolTableRecord
100
AcDbLayerTableRecord
  2
0
 70
0
 62
7
420
16777215
  6
CONTINUOUS
370
5
390
F
  0
ENDTAB
  0
TABLE
  2
STYLE
  5
3
100
AcDbSymbolTable
 70
1
  0
STYLE
  5
57
100
AcDbSymbolTableRecord
100
AcDbTextStyleTableRecord
  2
Standard
 70
0
 40
0.0
 41
1.0
 50
0.0
 71
0
 42
2.5
  3

  4

1001
ACAD
1000
txt
1071
0
  0
ENDTAB
  0
TABLE
  2
VIEW
  5
6
100
AcDbSymbolTable
 70
0
  0
ENDTAB
  0
TABLE
  2
UCS
  5
7
100
AcDbSymbolTable
 70
0
  0
ENDTAB
  0
TABLE
  2
APPID
  5
9
100
AcDbSymbolTable
 70
1
  0
APPID
  5
12
100
AcDbSymbolTableRecord
100
AcDbRegAppTableRecord
  2
ACAD
 70
0
  0
APPID
  5
58
100
AcDbSymbolTableRecord
100
AcDbRegAppTableRecord
  2
QCAD
 70
0
  0
ENDTAB
  0
TABLE
  2
DIMSTYLE
  5
A
100
AcDbSymbolTable
 70
1
100
AcDbDimStyleTable
 71
0
  0
DIMSTYLE
105
27
100
AcDbSymbolTableRecord
100
AcDbDimStyleTableRecord
  2
Standard
 41
0.18
 42
0.0625
 43
3.75
 44
0.18
 70
0
 73
0
 74
0
 77
1
 78
8
140
0.18
141
2.5
143
0.03937007874016
147
0.09
171
3
172
1
271
2
272
2
274
3
278
44
283
0
284
8
340
57
  0
ENDTAB
  0
TABLE
  2
BLOCK_RECORD
  5
1
100
AcDbSymbolTable
 70
1
  0
BLOCK_RECORD
  5
1F
100
AcDbSymbolTableRecord
100
AcDbBlockTableRecord
  2
*Model_Space
340
22
  0
BLOCK_RECORD
  5
1B
100
AcDbSymbolTableRecord
100
AcDbBlockTableRecord
  2
*Paper_Space
340
1E
  0
BLOCK_RECORD
  5
23
100
AcDbSymbolTableRecord
100
AcDbBlockTableRecord
  2
*Paper_Space0
340
26
  0
BLOCK_RECORD
  5
59
100
AcDbSymbolTableRecord
100
AcDbBlockTableRecord
  2
POCKET010
340
0
  0
BLOCK_RECORD
  5
5A
100
AcDbSymbolTableRecord
100
AcDbBlockTableRecord
  2
POCKET013
340
0
  0
ENDTAB
  0
ENDSEC
  0
SECTION
  2
BLOCKS
  0
BLOCK
  5
20
100
AcDbEntity
  8
0
100
AcDbBlockBegin
  2
*Model_Space
 70
0
 10
0.0
 20
0.0
 30
0.0
  3
*Model_Space
  1

  0
ENDBLK
  5
21
100
AcDbEntity
  8
0
100
AcDbBlockEnd
  0
BLOCK
  5
1C
100
AcDbEntity
 67
1
  8
0
100
AcDbBlockBegin
  2
*Paper_Space
 70
0
 10
0.0
 20
0.0
 30
0.0
  3
*Paper_Space
  1

  0
ENDBLK
  5
1D
100
AcDbEntity
 67
1
  8
0
100
AcDbBlockEnd
  0
BLOCK
  5
24
100
AcDbEntity
  8
0
100
AcDbBlockBegin
  2
*Paper_Space0
 70
0
 10
0.0
 20
0.0
 30
0.0
  3
*Paper_Space0
  1

  0
ENDBLK
  5
25
100
AcDbEntity
  8
0
100
AcDbBlockEnd
  0
BLOCK
  5
5B
100
AcDbEntity
  8
0
100
AcDbBlockBegin
  2
POCKET010
 70
0
 10
0.0
 20
0.0
 30
0.0
  3
POCKET010
  1

  0
LINE
  5
5C
100
AcDbEntity
  8
0
 62
0
370
-1
 48
1.0
  6
BYLAYER
100
AcDbLine
 10
-122.0
 20
-60.0
 30
0.0
 11
-122.0
 21
-20.0
 31
0.0
  0
LINE
  5
5D
100
AcDbEntity
  8
0
 62
0
370
-1
 48
1.0
  6
BYLAYER
100
AcDbLine
 10
-122.0
 20
-20.0
 30
0.0
 11
-125.0
 21
-20.0
 31
0.0
  0
LINE
  5
5E
100
AcDbEntity
  8
0
 62
0
370
-1
 48
1.0
  6
BYLAYER
100
AcDbLine
 10
-122.0
 20
-147.0
 30
0.0
 11
-122.0
 21
-100.0
 31
0.0
  0
LINE
  5
5F
100
AcDbEntity
  8
0
 62
0
370
-1
 48
1.0
  6
BYLAYER
100
AcDbLine
 10
-100.0
 20
-147.0
 30
0.0
 11
-122.0
 21
-147.0
 31
0.0
  0
LINE
  5
60
100
AcDbEntity
  8
0
 62
0
370
-1
 48
1.0
  6
BYLAYER
100
AcDbLine
 10
-122.0
 20
-100.0
 30
0.0
 11
-125.0
 21
-100.0
 31
0.0
  0
LINE
  5
61
100
AcDbEntity
  8
0
 62
0
370
-1
 48
1.0
  6
BYLAYER
100
AcDbLine
 10
-100.0
 20
-147.0
 30
0.0
 11
-100.0
 21
-150.0
 31
0.0
  0
LINE
  5
62
100
AcDbEntity
  8
0
 62
0
370
-1
 48
1.0
  6
BYLAYER
100
AcDbLine
 10
-125.0
 20
-100.0
 30
0.0
 11
-125.0
 21
-60.0
 31
0.0
  0
LINE
  5
63
100
AcDbEntity
  8
0
 62
0
370
-1
 48
1.0
  6
BYLAYER
100
AcDbLine
 10
-100.0
 20
-150.0
 30
0.0
 11
-60.0
 21
-150.0
 31
0.0
  0
LINE
  5
64
100
AcDbEntity
  8
0
 62
0
370
-1
 48
1.0
  6
BYLAYER
100
AcDbLine
 10
-125.0
 20
-60.0
 30
0.0
 11
-122.0
 21
-60.0
 31
0.0
  0
LINE
  5
65
100
AcDbEntity
  8
0
 62
0
370
-1
 48
1.0
  6
BYLAYER
100
AcDbLine
 10
-60.0
 20
-150.0
 30
0.0
 11
-60.0
 21
-147.0
 31
0.0
  0
LINE
  5
66
100
AcDbEntity
  8
0
 62
0
370
-1
 48
1.0
  6
BYLAYER
100
AcDbLine
 10
-20.0
 20
-147.0
 30
0.0
 11
-60.0
 21
-147.0
 31
0.0
  0
LINE
  5
67
100
AcDbEntity
  8
0
 62
0
370
-1
 48
1.0
  6
BYLAYER
100
AcDbLine
 10
-20.0
 20
-147.0
 30
0.0
 11
-20.0
 21
-150.0
 31
0.0
  0
LINE
  5
68
100
AcDbEntity
  8
0
 62
0
370
-1
 48
1.0
  6
BYLAYER
100
AcDbLine
 10
-125.0
 20
-20.0
 30
0.0
 11
-125.0
 21
20.0
 31
0.0
  0
LINE
  5
69
100
AcDbEntity
  8
0
 62
0
370
-1
 48
1.0
  6
BYLAYER
100
AcDbLine
 10
-20.0
 20
-150.0
 30
0.0
 11
20.0
 21
-150.0
 31
0.0
  0
LINE
  5
6A
100
AcDbEntity
  8
0
 62
0
370
-1
 48
1.0
  6
BYLAYER
100
AcDbLine
 10
-125.0
 20
20.0
 30
0.0
 11
-122.0
 21
20.0
 31
0.0
  0
LINE
  5
6B
100
AcDbEntity
  8
0
 62
0
370
-1
 48
1.0
  6
BYLAYER
100
AcDbLine
 10
20.0
 20
-150.0
 30
0.0
 11
20.0
 21
-147.0
 31
0.0
  0
LINE
  5
6C
100
AcDbEntity
  8
0
 62
0
370
-1
 48
1.0
  6
BYLAYER
100
AcDbLine
 10
-122.0
 20
20.0
 30
0.0
 11
-122.0
 21
60.0
 31
0.0
  0
LINE
  5
6D
100
AcDbEntity
  8
0
 62
0
370
-1
 48
1.0
  6
BYLAYER
100
AcDbLine
 10
60.0
 20
-147.0
 30
0.0
 11
20.0
 21
-147.0
 31
0.0
  0
LINE
  5
6E
100
AcDbEntity
  8
0
 62
0
370
-1
 48
1.0
  6
BYLAYER
100
AcDbLine
 10
-125.0
 20
60.0
 30
0.0
 11
-122.0
 21
60.0
 31
0.0
  0
LINE
  5
6F
100
AcDbEntity
  8
0
 62
0
370
-1
 48
1.0
  6
BYLAYER
100
AcDbLine
 10
60.0
 20
-147.0
 30
0.0
 11
60.0
 21
-150.0
 31
0.0
  0
LINE
  5
70
100
AcDbEntity
  8
0
 62
0
370
-1
 48
1.0
  6
BYLAYER
100
AcDbLine
 10
-125.0
 20
100.0
 30
0.0
 11
-125.0
 21
60.0
 31
0.0
  0
LINE
  5
71
100
AcDbEntity
  8
0
 62
0
370
-1
 48
1.0
  6
BYLAYER
100
AcDbLine
 10
60.0
 20
-150.0
 30
0.0
 11
100.0
 21
-150.0
 31
0.0
  0
LINE
  5
72
100
AcDbEntity
  8
0
 62
0
370
-1
 48
1.0
  6
BYLAYER
100
AcDbLine
 10
-122.0
 20
100.0
 30
0.0
 11
-125.0
 21
100.0
 31
0.0
  0
LINE
  5
73
100
AcDbEntity
  8
0
 62
0
370
-1
 48
1.0
  6
BYLAYER
100
AcDbLine
 10
100.0
 20
-150.0
 30
0.0
 11
100.0
 21
-147.0
 31
0.0
  0
LINE
  5
74
100
AcDbEntity
  8
0
 62
0
370
-1
 48
1.0
  6
BYLAYER
100
AcDbLine
 10
-122.0
 20
100.0
 30
0.0
 11
-122.0
 21
147.0
 31
0.0
  0
LINE
  5
75
100
AcDbEntity
  8
0
 62
0
370
-1
 48
1.0
  6
BYLAYER
100
AcDbLine
 10
122.0
 20
-147.0
 30
0.0
 11
100.0
 21
-147.0
 31
0.0
  0
LINE
  5
76
100
AcDbEntity
  8
0
 62
0
370
-1
 48
1.0
  6
BYLAYER
100
AcDbLine
 10
-122.0
 20
147.0
 30
0.0
 11
-100.0
 21
147.0
 31
0.0
  0
LINE
  5
77
100
AcDbEntity
  8
0
 62
0
370
-1
 48
1.0
  6
BYLAYER
100
AcDbLine
 10
122.0
 20
-100.0
 30
0.0
 11
122.0
 21
-147.0
 31
0.0
  0
LINE
  5
78
100
AcDbEntity
  8
0
 62
0
370
-1
 48
1.0
  6
BYLAYER
100
AcDbLine
 10
-100.0
 20
147.0
 30
0.0
 11
-100.0
 21
150.0
 31
0.0
  0
LINE
  5
79
100
AcDbEntity
  8
0
 62
0
370
-1
 48
1.0
  6
BYLAYER
100
AcDbLine
 10
122.0
 20
-100.0
 30
0.0
 11
125.0
 21
-100.0
 31
0.0
  0
LINE
  5
7A
100
AcDbEntity
  8
0
 62
0
370
-1
 48
1.0
  6
BYLAYER
100
AcDbLine
 10
-100.0
 20
150.0
 30
0.0
 11
-60.0
 21
150.0
 31
0.0
  0
LINE
  5
7B
100
AcDbEntity
  8
0
 62
0
370
-1
 48
1.0
  6
BYLAYER
100
AcDbLine
 10
125.0
 20
-100.0
 30
0.0
 11
125.0
 21
-60.0
 31
0.0
  0
LINE
  5
7C
100
AcDbEntity
  8
0
 62
0
370
-1
 48
1.0
  6
BYLAYER
100
AcDbLine
 10
-60.0
 20
150.0
 30
0.0
 11
-60.0
 21
147.0
 31
0.0
  0
LINE
  5
7D
100
AcDbEntity
  8
0
 62
0
370
-1
 48
1.0
  6
BYLAYER
100
AcDbLine
 10
125.0
 20
-60.0
 30
0.0
 11
122.0
 21
-60.0
 31
0.0
  0
LINE
  5
7E
100
AcDbEntity
  8
0
 62
0
370
-1
 48
1.0
  6
BYLAYER
100
AcDbLine
 10
-60.0
 20
147.0
 30
0.0
 11
-20.0
 21
147.0
 31
0.0
  0
LINE
  5
7F
100
AcDbEntity
  8
0
 62
0
370
-1
 48
1.0
  6
BYLAYER
100
AcDbLine
 10
122.0
 20
-20.0
 30
0.0
 11
122.0
 21
-60.0
 31
0.0
  0
LINE
  5
80
100
AcDbEntity
  8
0
 62
0
370
-1
 48
1.0
  6
BYLAYER
100
AcDbLine
 10
-20.0
 20
147.0
 30
0.0
 11
-20.0
 21
150.0
 31
0.0
  0
LINE
  5
81
100
AcDbEntity
  8
0
 62
0
370
-1
 48
1.0
  6
BYLAYER
100
AcDbLine
 10
122.0
 20
-20.0
 30
0.0
 11
125.0
 21
-20.0
 31
0.0
  0
LINE
  5
82
100
AcDbEntity
  8
0
 62
0
370
-1
 48
1.0
  6
BYLAYER
100
AcDbLine
 10
-20.0
 20
150.0
 30
0.0
 11
20.0
 21
150.0
 31
0.0
  0
LINE
  5
83
100
AcDbEntity
  8
0
 62
0
370
-1
 48
1.0
  6
BYLAYER
100
AcDbLine
 10
125.0
 20
-20.0
 30
0.0
 11
125.0
 21
20.0
 31
0.0
  0
LINE
  5
84
100
AcDbEntity
  8
0
 62
0
370
-1
 48
1.0
  6
BYLAYER
100
AcDbLine
 10
20.0
 20
150.0
 30
0.0
 11
20.0
 21
147.0
 31
0.0
  0
LINE
  5
85
100
AcDbEntity
  8
0
 62
0
370
-1
 48
1.0
  6
BYLAYER
100
AcDbLine
 10
125.0
 20
20.0
 30
0.0
 11
122.0
 21
20.0
 31
0.0
  0
LINE
  5
86
100
AcDbEntity
  8
0
 62
0
370
-1
 48
1.0
  6
BYLAYER
100
AcDbLine
 10
20.0
 20
147.0
 30
0.0
 11
60.0
 21
147.0
 31
0.0
  0
LINE
  5
87
100
AcDbEntity
  8
0
 62
0
370
-1
 48
1.0
  6
BYLAYER
100
AcDbLine
 10
122.0
 20
60.0
 30
0.0
 11
122.0
 21
20.0
 31
0.0
  0
LINE
  5
88
100
AcDbEntity
  8
0
 62
0
370
-1
 48
1.0
  6
BYLAYER
100
AcDbLine
 10
60.0
 20
147.0
 30
0.0
 11
60.0
 21
150.0
 31
0.0
  0
LINE
  5
89
100
AcDbEntity
  8
0
 62
0
370
-1
 48
1.0
  6
BYLAYER
100
AcDbLine
 10
125.0
 20
60.0
 30
0.0
 11
122.0
 21
60.0
 31
0.0
  0
LINE
  5
8A
100
AcDbEntity
  8
0
 62
0
370
-1
 48
1.0
  6
BYLAYER
100
AcDbLine
 10
60.0
 20
150.0
 30
0.0
 11
100.0
 21
150.0
 31
0.0
  0
LINE
  5
8B
100
AcDbEntity
  8
0
 62
0
370
-1
 48
1.0
  6
BYLAYER
100
AcDbLine
 10
125.0
 20
100.0
 30
0.0
 11
125.0
 21
60.0
 31
0.0
  0
LINE
  5
8C
100
AcDbEntity
  8
0
 62
0
370
-1
 48
1.0
  6
BYLAYER
100
AcDbLine
 10
100.0
 20
150.0
 30
0.0
 11
100.0
 21
147.0
 31
0.0
  0
LINE
  5
8D
100
AcDbEntity
  8
0
 62
0
370
-1
 48
1.0
  6
BYLAYER
100
AcDbLine
 10
122.0
 20
100.0
 30
0.0
 11
125.0
 21
100.0
 31
0.0
  0
LINE
  5
8E
100
AcDbEntity
  8
0
 62
0
370
-1
 48
1.0
  6
BYLAYER
100
AcDbLine
 10
100.0
 20
147.0
 30
0.0
 11
122.0
 21
147.0
 31
0.0
  0
LINE
  5
8F
100
AcDbEntity
  8
0
 62
0
370
-1
 48
1.0
  6
BYLAYER
100
AcDbLine
 10
122.0
 20
147.0
 30
0.0
 11
122.0
 21
100.0
 31
0.0
  0
CIRCLE
  5
90
100
AcDbEntity
  8
0
 62
0
370
-1
 48
1.0
  6
BYLAYER
100
AcDbCircle
 10
-30.5
 20
-59.0
 30
0.0
 40
2.0
  0
CIRCLE
  5
91
100
AcDbEntity
  8
0
 62
0
370
-1
 48
1.0
  6
BYLAYER
100
AcDbCircle
 10
0.0
 20
20.0
 30
0.0
 40
75.0
  0
LINE
  5
92
100
AcDbEntity
  8
0
 62
0
370
-1
 48
1.0
  6
BYLAYER
100
AcDbLine
 10
3.0
 20
-98.0
 30
0.0
 11
6.0
 21
-98.0
 31
0.0
  0
LINE
  5
93
100
AcDbEntity
  8
0
 62
0
370
-1
 48
1.0
  6
BYLAYER
100
AcDbLine
 10
3.0
 20
-92.0
 30
0.0
 11
3.0
 21
-98.0
 31
0.0
  0
LINE
  5
94
100
AcDbEntity
  8
0
 62
0
370
-1
 48
1.0
  6
BYLAYER
100
AcDbLine
 10
6.0
 20
-98.0
 30
0.0
 11
6.0
 21
-92.0
 31
0.0
  0
LINE
  5
95
100
AcDbEntity
  8
0
 62
0
370
-1
 48
1.0
  6
BYLAYER
100
AcDbLine
 10
6.0
 20
-92.0
 30
0.0
 11
3.0
 21
-92.0
 31
0.0
  0
LINE
  5
96
100
AcDbEntity
  8
0
 62
0
370
-1
 48
1.0
  6
BYLAYER
100
AcDbLine
 10
-6.0
 20
-92.0
 30
0.0
 11
-3.0
 21
-92.0
 31
0.0
  0
LINE
  5
97
100
AcDbEntity
  8
0
 62
0
370
-1
 48
1.0
  6
BYLAYER
100
AcDbLine
 10
-6.0
 20
-98.0
 30
0.0
 11
-6.0
 21
-92.0
 31
0.0
  0
LINE
  5
98
100
AcDbEntity
  8
0
 62
0
370
-1
 48
1.0
  6
BYLAYER
100
AcDbLine
 10
-3.0
 20
-92.0
 30
0.0
 11
-3.0
 21
-98.0
 31
0.0
  0
LINE
  5
99
100
AcDbEntity
  8
0
 62
0
370
-1
 48
1.0
  6
BYLAYER
100
AcDbLine
 10
-3.0
 20
-98.0
 30
0.0
 11
-6.0
 21
-98.0
 31
0.0
  0
LINE
  5
9A
100
AcDbEntity
  8
0
 62
0
370
-1
 48
1.0
  6
BYLAYER
100
AcDbLine
 10
10.0
 20
-82.0
 30
0.0
 11
-10.0
 21
-82.0
 31
0.0
  0
LINE
  5
9B
100
AcDbEntity
  8
0
 62
0
370
-1
 48
1.0
  6
BYLAYER
100
AcDbLine
 10
10.0
 20
-80.0
 30
0.0
 11
10.0
 21
-82.0
 31
0.0
  0
LINE
  5
9C
100
AcDbEntity
  8
0
 62
0
370
-1
 48
1.0
  6
BYLAYER
100
AcDbLine
 10
-10.0
 20
-80.0
 30
0.0
 11
10.0
 21
-80.0
 31
0.0
  0
LINE
  5
9D
100
AcDbEntity
  8
0
 62
0
370
-1
 48
1.0
  6
BYLAYER
100
AcDbLine
 10
-10.0
 20
-82.0
 30
0.0
 11
-10.0
 21
-80.0
 31
0.0
  0
LINE
  5
9E
100
AcDbEntity
  8
0
 62
0
370
-1
 48
1.0
  6
BYLAYER
100
AcDbLine
 10
3.0
 20
-104.0
 30
0.0
 11
6.0
 21
-104.0
 31
0.0
  0
LINE
  5
9F
100
AcDbEntity
  8
0
 62
0
370
-1
 48
1.0
  6
BYLAYER
100
AcDbLine
 10
3.0
 20
-110.0
 30
0.0
 11
3.0
 21
-104.0
 31
0.0
  0
LINE
  5
A0
100
AcDbEntity
  8
0
 62
0
370
-1
 48
1.0
  6
BYLAYER
100
AcDbLine
 10
6.0
 20
-104.0
 30
0.0
 11
6.0
 21
-110.0
 31
0.0
  0
LINE
  5
A1
100
AcDbEntity
  8
0
 62
0
370
-1
 48
1.0
  6
BYLAYER
100
AcDbLine
 10
6.0
 20
-110.0
 30
0.0
 11
3.0
 21
-110.0
 31
0.0
  0
LINE
  5
A2
100
AcDbEntity
  8
0
 62
0
370
-1
 48
1.0
  6
BYLAYER
100
AcDbLine
 10
-3.0
 20
-110.0
 30
0.0
 11
-3.0
 21
-104.0
 31
0.0
  0
LINE
  5
A3
100
AcDbEntity
  8
0
 62
0
370
-1
 48
1.0
  6
BYLAYER
100
AcDbLine
 10
-6.0
 20
-110.0
 30
0.0
 11
-3.0
 21
-110.0
 31
0.0
  0
LINE
  5
A4
100
AcDbEntity
  8
0
 62
0
370
-1
 48
1.0
  6
BYLAYER
100
AcDbLine
 10
-3.0
 20
-104.0
 30
0.0
 11
-6.0
 21
-104.0
 31
0.0
  0
LINE
  5
A5
100
AcDbEntity
  8
0
 62
0
370
-1
 48
1.0
  6
BYLAYER
100
AcDbLine
 10
-6.0
 20
-104.0
 30
0.0
 11
-6.0
 21
-110.0
 31
0.0
  0
CIRCLE
  5
A6
100
AcDbEntity
  8
0
 62
0
370
-1
 48
1.0
  6
BYLAYER
100
AcDbCircle
 10
-7.0
 20
-121.5
 30
0.0
 40
2.0
  0
ENDBLK
  5
A7
100
AcDbEntity
  8
0
100
AcDbBlockEnd
  0
BLOCK
  5
A8
100
AcDbEntity
  8
0
100
AcDbBlockBegin
  2
POCKET013
 70
0
 10
0.0
 20
0.0
 30
0.0
  3
POCKET013
  1

  0
LWPOLYLINE
  5
A9
100
AcDbEntity
  8
0
 62
256
370
-1
 48
1.0
  6
BYLAYER
100
AcDbPolyline
 90
49
 70
0
 10
-6.0000001788099997
 20
-1.5
 30
0.0
 10
-5.9500094375600003
 20
-1.49916674382
 30
0.0
 10
-5.9000742364300001
 20
-1.4966679010499999
 30
0.0
 10
-5.85025005384
 20
-1.49250624792
 30
0.0
 10
-5.8005922448799998
 20
-1.48668640805
 30
0.0
 10
-5.75115597977
 20
-1.47921484734
 30
0.0
 10
-5.7019961826200003
 20
-1.47009986676
 30
0.0
 10
-5.6531674703599997
 20
-1.4593515931200001
 30
0.0
 10
-5.6047240920999997
 20
-1.44698196785
 30
0.0
 10
-5.5567198688200001
 20
-1.43300473369
 30
0.0
 10
-5.5092081336199996
 20
-1.4174354194700001
 30
0.0
 10
-5.4622416724200002
 20
-1.40029132283
 30
0.0
 10
-5.4158726653500002
 20
-1.381591491
 30
0.0
 10
-5.3701526287599997
 20
-1.3613566996499999
 30
0.0
 10
-5.3251323579800003
 20
-1.3396094298000001
 30
0.0
 10
-5.2808618709099999
 20
-1.31637384284
 30
0.0
 10
-5.2373903524200003
 20
-1.2916757536900001
 30
0.0
 10
-5.1947660997199998
 20
-1.26554260216
 30
0.0
 10
-5.1530364687199999
 20
-1.23800342236
 30
0.0
 10
-5.1122478213799996
 20
-1.20908881058
 30
0.0
 10
-5.0724454742100002
 20
-1.1788308911700001
 30
0.0
 10
-5.0336736479599997
 20
-1.1472632809300001
 30
0.0
 10
-4.9959754184399996
 20
-1.1144210517399999
 30
0.0
 10
-4.9593926686999996
 20
-1.08034069158
 30
0.0
 10
-4.92396604246
 20
-1.0450600640200001
 30
0.0
 10
-4.8897348990199996
 20
-1.0086183661200001
 30
0.0
 10
-4.8567372694399999
 20
-0.971056084918
 30
0.0
 10
-4.8250098143700004
 20
-0.932414952406
 30
0.0
 10
-4.7945877832699999
 20
-0.892737899204
 30
0.0
 10
-4.7655049752699998
 20
-0.852069006844
 30
0.0
 10
-4.7377937016000002
 20
-0.810453458802
 30
0.0
 10
-4.7114847497200003
 20
-0.767937490294
 30
0.0
 10
-4.6866073491
 20
-0.72456833691
 30
0.0
 10
-4.66318913872
 20
-0.680394182138
 30
0.0
 10
-4.64125613642
 20
-0.635464103827
 30
0.0
 10
-4.6208327099300002
 20
-0.589828019665
 30
0.0
 10
-4.6019415498600003
 20
-0.543536631715
 30
0.0
 10
-4.5846036444399996
 20
-0.496641370092
 30
0.0
 10
-4.5688382562200003
 20
-0.449194335817
 30
0.0
 10
-4.5546629006900003
 20
-0.401248242937
 30
0.0
 10
-4.5420933267699999
 20
-0.352856359954
 30
0.0
 10
-4.5311434993699997
 20
-0.304072450651
 30
0.0
 10
-4.5218255838300001
 20
-0.25495071435
 30
0.0
 10
-4.5141499324399996
 20
-0.205545725707
 30
0.0
 10
-4.5081250729100004
 20
-0.15591237407
 30
0.0
 10
-4.5037576989100003
 20
-0.106105802502
 30
0.0
 10
-4.5010526626200003
 20
-0.0561813465128
 30
0.0
 10
-4.5000129693700002
 20
-0.00619447258545
 30
0.0
 10
-4.5000001788099997
 20
0.0000000000000006
 30
0.0
  0
LWPOLYLINE
  5
AA
100
AcDbEntity
  8
0
 62
256
370
-1
 48
1.0
  6
BYLAYER
100
AcDbPolyline
 90
49
 70
0
 10
-10.5000001788000006
 20
0.000000000000001
 30
0.0
 10
-10.4991669226000006
 20
-0.0499907412551
 30
0.0
 10
-10.4966680798999992
 20
-0.0999259423851
 30
0.0
 10
-10.4925064267000003
 20
-0.14975012497
 30
0.0
 10
-10.4866865868999994
 20
-0.199407933933
 30
0.0
 10
-10.4792150262000003
 20
-0.24884419904
 30
0.0
 10
-10.4701000456000006
 20
-0.298003996193
 30
0.0
 10
-10.4593517718999998
 20
-0.346832708451
 30
0.0
 10
-10.4469821466999999
 20
-0.395276086715
 30
0.0
 10
-10.4330049124999995
 20
-0.443280309992
 30
0.0
 10
-10.4174355983000009
 20
-0.490792045194
 30
0.0
 10
-10.4002915015999999
 20
-0.537758506393
 30
0.0
 10
-10.3815916698000006
 20
-0.584127513463
 30
0.0
 10
-10.3613568785000005
 20
-0.629847550056
 30
0.0
 10
-10.3396096086
 20
-0.674867820834
 30
0.0
 10
-10.3163740215999997
 20
-0.719138307906
 30
0.0
 10
-10.2916759325000005
 20
-0.762609826397
 30
0.0
 10
-10.2655427810000006
 20
-0.805234079091
 30
0.0
 10
-10.2380036012000009
 20
-0.846963710093
 30
0.0
 10
-10.2090889893999996
 20
-0.887752357438
 30
0.0
 10
-10.1788310699999993
 20
-0.927554704605
 30
0.0
 10
-10.1472634596999995
 20
-0.966326530857
 30
0.0
 10
-10.1144212304999996
 20
-1.0040247603800001
 30
0.0
 10
-10.0803408704000006
 20
-1.0406075101200001
 30
0.0
 10
-10.0450602428
 20
-1.0760341363499999
 30
0.0
 10
-10.0086185448999991
 20
-1.1102652797899999
 30
0.0
 10
-9.9710562637300004
 20
-1.14326290937
 30
0.0
 10
-9.9324151312200009
 20
-1.1749903644399999
 30
0.0
 10
-9.8927380780200007
 20
-1.20541239554
 30
0.0
 10
-9.8520691856599996
 20
-1.2344952035400001
 30
0.0
 10
-9.8104536376200002
 20
-1.2622064772099999
 30
0.0
 10
-9.7679376691099993
 20
-1.2885154290900001
 30
0.0
 10
-9.7245685157199997
 20
-1.3133928297199999
 30
0.0
 10
-9.6803943609500003
 20
-1.33681104009
 30
0.0
 10
-9.6354642826399992
 20
-1.3587440423999999
 30
0.0
 10
-9.5898281984799993
 20
-1.37916746888
 30
0.0
 10
-9.54353681053
 20
-1.3980586289500001
 30
0.0
 10
-9.4966415489100005
 20
-1.4153965343699999
 30
0.0
 10
-9.4491945146299994
 20
-1.4311619225900001
 30
0.0
 10
-9.4012484217499992
 20
-1.44533727813
 30
0.0
 10
-9.3528565387700002
 20
-1.45790685204
 30
0.0
 10
-9.3040726294600002
 20
-1.46885667945
 30
0.0
 10
-9.2549508931600002
 20
-1.47817459498
 30
0.0
 10
-9.2055459045199992
 20
-1.4858502463700001
 30
0.0
 10
-9.1559125528800003
 20
-1.4918751058999999
 30
0.0
 10
-9.1061059813200007
 20
-1.49624247991
 30
0.0
 10
-9.0561815253300004
 20
-1.4989475161900001
 30
0.0
 10
-9.0061946513999995
 20
-1.49998720945
 30
0.0
 10
-9.0000001788099997
 20
-1.5
 30
0.0
  0
LWPOLYLINE
  5
AB
100
AcDbEntity
  8
0
 62
256
370
-1
 48
1.0
  6
BYLAYER
100
AcDbPolyline
 90
49
 70
0
 10
-9.0000001788099997
 20
9.5
 30
0.0
 10
-9.0499909200699999
 20
9.49916674382
 30
0.0
 10
-9.0999261211999993
 20
9.4966679010499995
 30
0.0
 10
-9.1497503037799994
 20
9.4925062479199998
 30
0.0
 10
-9.1994081127499996
 20
9.4866864080499997
 30
0.0
 10
-9.2488443778500002
 20
9.4792148473399997
 30
0.0
 10
-9.29800417501
 20
9.47009986676
 30
0.0
 10
-9.3468328872700006
 20
9.4593515931199992
 30
0.0
 10
-9.3952762655300006
 20
9.4469819678500002
 30
0.0
 10
-9.4432804888100002
 20
9.4330047336899998
 30
0.0
 10
-9.4907922240100007
 20
9.4174354194699994
 30
0.0
 10
-9.5377586852099991
 20
9.4002913228300002
 30
0.0
 10
-9.5841276922799992
 20
9.381591491
 30
0.0
 10
-9.6298477288700006
 20
9.3613566996500008
 30
0.0
 10
-9.6748679996500009
 20
9.3396094297999994
 30
0.0
 10
-9.7191384867200004
 20
9.3163738428399991
 30
0.0
 10
-9.76261000521
 20
9.2916757536900008
 30
0.0
 10
-9.8052342579000005
 20
9.26554260216
 30
0.0
 10
-9.8469638889100004
 20
9.2380034223600003
 30
0.0
 10
-9.8877525362499998
 20
9.2090888105800008
 30
0.0
 10
-9.9275548834199991
 20
9.1788308911699996
 30
0.0
 10
-9.9663267096699997
 20
9.1472632809299999
 30
0.0
 10
-10.0040249392000007
 20
9.1144210517400008
 30
0.0
 10
-10.0406076888999998
 20
9.08034069158
 30
0.0
 10
-10.0760343151999994
 20
9.0450600640199994
 30
0.0
 10
-10.1102654586000007
 20
9.0086183661200003
 30
0.0
 10
-10.1432630881999994
 20
8.9710560849200007
 30
0.0
 10
-10.1749905432999999
 20
8.9324149524099994
 30
0.0
 10
-10.2054125744000004
 20
8.8927378992000001
 30
0.0
 10
-10.2344953824000005
 20
8.8520690068400008
 30
0.0
 10
-10.262206656
 20
8.8104534587999996
 30
0.0
 10
-10.2885156079000009
 20
8.7679374902900005
 30
0.0
 10
-10.3133930085000003
 20
8.72456833691
 30
0.0
 10
-10.3368112188999994
 20
8.6803941821400006
 30
0.0
 10
-10.3587442212000003
 20
8.6354641038299995
 30
0.0
 10
-10.3791676476999992
 20
8.5898280196600005
 30
0.0
 10
-10.3980588078
 20
8.5435366317200003
 30
0.0
 10
-10.4153967131999998
 20
8.4966413700899999
 30
0.0
 10
-10.4311621014
 20
8.4491943358199997
 30
0.0
 10
-10.4453374569000008
 20
8.4012482429399995
 30
0.0
 10
-10.4579070308999995
 20
8.3528563599499996
 30
0.0
 10
-10.4688568583000006
 20
8.3040724506500005
 30
0.0
 10
-10.4781747737999993
 20
8.2549507143500005
 30
0.0
 10
-10.4858504252000007
 20
8.2055457257099995
 30
0.0
 10
-10.4918752847000007
 20
8.1559123740700006
 30
0.0
 10
-10.4962426587
 20
8.1061058025000001
 30
0.0
 10
-10.498947695
 20
8.0561813465099998
 30
0.0
 10
-10.4999873882999992
 20
8.0061944725899998
 30
0.0
 10
-10.5000001788000006
 20
8.0
 30
0.0
  0
LWPOLYLINE
  5
AC
100
AcDbEntity
  8
0
 62
256
370
-1
 48
1.0
  6
BYLAYER
100
AcDbPolyline
 90
49
 70
0
 10
-4.5000001788099997
 20
8.0
 30
0.0
 10
-4.5008334349899997
 20
8.0499907412600002
 30
0.0
 10
-4.5033322777600002
 20
8.0999259423899996
 30
0.0
 10
-4.5074939308999999
 20
8.1497501249699997
 30
0.0
 10
-4.51331377076
 20
8.1994079339300008
 30
0.0
 10
-4.5207853314699999
 20
8.2488441990400005
 30
0.0
 10
-4.5299003120499997
 20
8.2980039961899994
 30
0.0
 10
-4.5406485856899996
 20
8.34683270845
 30
0.0
 10
-4.5530182109700004
 20
8.3952760867199991
 30
0.0
 10
-4.5669954451299999
 20
8.4432803099899996
 30
0.0
 10
-4.5825647593400003
 20
8.4907920451900001
 30
0.0
 10
-4.5997088559800003
 20
8.5377585063900003
 30
0.0
 10
-4.6184086878099997
 20
8.5841275134600004
 30
0.0
 10
-4.6386434791599997
 20
8.6298475500599992
 30
0.0
 10
-4.6603907490200003
 20
8.6748678208300003
 30
0.0
 10
-4.6836263359799997
 20
8.7191383079100007
 30
0.0
 10
-4.7083244251199998
 20
8.7626098264000003
 30
0.0
 10
-4.7344575766599997
 20
8.8052340790900008
 30
0.0
 10
-4.7619967564500003
 20
8.8469637100899998
 30
0.0
 10
-4.7909113682399997
 20
8.8877523574400001
 30
0.0
 10
-4.8211692876500001
 20
8.9275547046000003
 30
0.0
 10
-4.8527368978899998
 20
8.96632653086
 30
0.0
 10
-4.8855791270799998
 20
9.0040247603800001
 30
0.0
 10
-4.9196594872299997
 20
9.0406075101199992
 30
0.0
 10
-4.9549401147900003
 20
9.0760341363499997
 30
0.0
 10
-4.9913818126900003
 20
9.1102652797899992
 30
0.0
 10
-5.0289440938999999
 20
9.1432629093699997
 30
0.0
 10
-5.0675852264100003
 20
9.1749903644399993
 30
0.0
 10
-5.1072622796099996
 20
9.2054123955399998
 30
0.0
 10
-5.1479311719699998
 20
9.2344952035399999
 30
0.0
 10
-5.1895467200100001
 20
9.2622064772100003
 30
0.0
 10
-5.2320626885200001
 20
9.2885154290899994
 30
0.0
 10
-5.2754318418999997
 20
9.3133928297199997
 30
0.0
 10
-5.31960599668
 20
9.3368110400899997
 30
0.0
 10
-5.3645360749900002
 20
9.3587440423999997
 30
0.0
 10
-5.41017215915
 20
9.3791674688800004
 30
0.0
 10
-5.4564635471000003
 20
9.3980586289500003
 30
0.0
 10
-5.5033588087199998
 20
9.4153965343700001
 30
0.0
 10
-5.550805843
 20
9.4311619225900003
 30
0.0
 10
-5.5987519358800002
 20
9.4453372781299993
 30
0.0
 10
-5.6471438188600001
 20
9.4579068520400007
 30
0.0
 10
-5.69592772816
 20
9.4688566794500009
 30
0.0
 10
-5.7450494644600001
 20
9.4781745949800005
 30
0.0
 10
-5.7944544531100002
 20
9.4858502463699992
 30
0.0
 10
-5.84408780474
 20
9.4918751059000002
 30
0.0
 10
-5.8938943763099996
 20
9.4962424799100003
 30
0.0
 10
-5.9438188322999999
 20
9.4989475161900003
 30
0.0
 10
-5.9938057062299999
 20
9.4999872094499995
 30
0.0
 10
-6.0000001788099997
 20
9.5
 30
0.0
  0
LINE
  5
AD
100
AcDbEntity
  8
0
 62
0
370
-1
 48
1.0
  6
BYLAYER
100
AcDbLine
 10
-29.0000001788000006
 20
-125.0
 30
0.0
 11
-29.0000001788000006
 21
-100.0
 31
0.0
  0
LINE
  5
AE
100
AcDbEntity
  8
0
 62
0
370
-1
 48
1.0
  6
BYLAYER
100
AcDbLine
 10
-29.0000001788000006
 20
-100.0
 30
0.0
 11
-26.0000001788000006
 21
-100.0
 31
0.0
  0
LINE
  5
AF
100
AcDbEntity
  8
0
 62
0
370
-1
 48
1.0
  6
BYLAYER
100
AcDbLine
 10
25.9999998211999994
 20
-125.0
 30
0.0
 11
25.9999998211999994
 21
-100.0
 31
0.0
  0
LINE
  5
B0
100
AcDbEntity
  8
0
 62
0
370
-1
 48
1.0
  6
BYLAYER
100
AcDbLine
 10
25.9999998211999994
 20
-125.0
 30
0.0
 11
-29.0000001788000006
 21
-125.0
 31
0.0
  0
LINE
  5
B1
100
AcDbEntity
  8
0
 62
0
370
-1
 48
1.0
  6
BYLAYER
100
AcDbLine
 10
25.9999998211999994
 20
-100.0
 30
0.0
 11
28.9999998211999994
 21
-100.0
 31
0.0
  0
LINE
  5
B2
100
AcDbEntity
  8
0
 62
0
370
-1
 48
1.0
  6
BYLAYER
100
AcDbLine
 10
28.9999998211999994
 20
-60.0
 30
0.0
 11
28.9999998211999994
 21
-100.0
 31
0.0
  0
LINE
  5
B3
100
AcDbEntity
  8
0
 62
0
370
-1
 48
1.0
  6
BYLAYER
100
AcDbLine
 10
28.9999998211999994
 20
-60.0
 30
0.0
 11
25.9999998211999994
 21
-60.0
 31
0.0
  0
LINE
  5
B4
100
AcDbEntity
  8
0
 62
0
370
-1
 48
1.0
  6
BYLAYER
100
AcDbLine
 10
-26.0000001788000006
 20
-100.0
 30
0.0
 11
-26.0000001788000006
 21
-60.0
 31
0.0
  0
LINE
  5
B5
100
AcDbEntity
  8
0
 62
0
370
-1
 48
1.0
  6
BYLAYER
100
AcDbLine
 10
25.9999998211999994
 20
-60.0
 30
0.0
 11
25.9999998211999994
 21
-20.0
 31
0.0
  0
LINE
  5
B6
100
AcDbEntity
  8
0
 62
0
370
-1
 48
1.0
  6
BYLAYER
100
AcDbLine
 10
-26.0000001788000006
 20
-60.0
 30
0.0
 11
-29.0000001788000006
 21
-60.0
 31
0.0
  0
LINE
  5
B7
100
AcDbEntity
  8
0
 62
0
370
-1
 48
1.0
  6
BYLAYER
100
AcDbLine
 10
25.9999998211999994
 20
-20.0
 30
0.0
 11
28.9999998211999994
 21
-20.0
 31
0.0
  0
LINE
  5
B8
100
AcDbEntity
  8
0
 62
0
370
-1
 48
1.0
  6
BYLAYER
100
AcDbLine
 10
-29.0000001788000006
 20
-60.0
 30
0.0
 11
-29.0000001788000006
 21
-20.0
 31
0.0
  0
LINE
  5
B9
100
AcDbEntity
  8
0
 62
0
370
-1
 48
1.0
  6
BYLAYER
100
AcDbLine
 10
28.9999998211999994
 20
20.0
 30
0.0
 11
28.9999998211999994
 21
-20.0
 31
0.0
  0
LINE
  5
BA
100
AcDbEntity
  8
0
 62
0
370
-1
 48
1.0
  6
BYLAYER
100
AcDbLine
 10
-29.0000001788000006
 20
-20.0
 30
0.0
 11
-26.0000001788000006
 21
-20.0
 31
0.0
  0
LINE
  5
BB
100
AcDbEntity
  8
0
 62
0
370
-1
 48
1.0
  6
BYLAYER
100
AcDbLine
 10
28.9999998211999994
 20
20.0
 30
0.0
 11
25.9999998211999994
 21
20.0
 31
0.0
  0
LINE
  5
BC
100
AcDbEntity
  8
0
 62
0
370
-1
 48
1.0
  6
BYLAYER
100
AcDbLine
 10
-26.0000001788000006
 20
-20.0
 30
0.0
 11
-26.0000001788000006
 21
20.0
 31
0.0
  0
LINE
  5
BD
100
AcDbEntity
  8
0
 62
0
370
-1
 48
1.0
  6
BYLAYER
100
AcDbLine
 10
25.9999998211999994
 20
20.0
 30
0.0
 11
25.9999998211999994
 21
60.0
 31
0.0
  0
LINE
  5
BE
100
AcDbEntity
  8
0
 62
0
370
-1
 48
1.0
  6
BYLAYER
100
AcDbLine
 10
-26.0000001788000006
 20
20.0
 30
0.0
 11
-29.0000001788000006
 21
20.0
 31
0.0
  0
LINE
  5
BF
100
AcDbEntity
  8
0
 62
0
370
-1
 48
1.0
  6
BYLAYER
100
AcDbLine
 10
25.9999998211999994
 20
60.0
 30
0.0
 11
28.9999998211999994
 21
60.0
 31
0.0
  0
LINE
  5
C0
100
AcDbEntity
  8
0
 62
0
370
-1
 48
1.0
  6
BYLAYER
100
AcDbLine
 10
-29.0000001788000006
 20
20.0
 30
0.0
 11
-29.0000001788000006
 21
60.0
 31
0.0
  0
LINE
  5
C1
100
AcDbEntity
  8
0
 62
0
370
-1
 48
1.0
  6
BYLAYER
100
AcDbLine
 10
28.9999998211999994
 20
100.0
 30
0.0
 11
28.9999998211999994
 21
60.0
 31
0.0
  0
LINE
  5
C2
100
AcDbEntity
  8
0
 62
0
370
-1
 48
1.0
  6
BYLAYER
100
AcDbLine
 10
-29.0000001788000006
 20
60.0
 30
0.0
 11
-26.0000001788000006
 21
60.0
 31
0.0
  0
LINE
  5
C3
100
AcDbEntity
  8
0
 62
0
370
-1
 48
1.0
  6
BYLAYER
100
AcDbLine
 10
28.9999998211999994
 20
100.0
 30
0.0
 11
25.9999998211999994
 21
100.0
 31
0.0
  0
LINE
  5
C4
100
AcDbEntity
  8
0
 62
0
370
-1
 48
1.0
  6
BYLAYER
100
AcDbLine
 10
-26.0000001788000006
 20
60.0
 30
0.0
 11
-26.0000001788000006
 21
100.0
 31
0.0
  0
LINE
  5
C5
100
AcDbEntity
  8
0
 62
0
370
-1
 48
1.0
  6
BYLAYER
100
AcDbLine
 10
25.9999998211999994
 20
100.0
 30
0.0
 11
25.9999998211999994
 21
125.0
 31
0.0
  0
LINE
  5
C6
100
AcDbEntity
  8
0
 62
0
370
-1
 48
1.0
  6
BYLAYER
100
AcDbLine
 10
-26.0000001788000006
 20
100.0
 30
0.0
 11
-29.0000001788000006
 21
100.0
 31
0.0
  0
LINE
  5
C7
100
AcDbEntity
  8
0
 62
0
370
-1
 48
1.0
  6
BYLAYER
100
AcDbLine
 10
-29.0000001788000006
 20
125.0
 30
0.0
 11
25.9999998211999994
 21
125.0
 31
0.0
  0
LINE
  5
C8
100
AcDbEntity
  8
0
 62
0
370
-1
 48
1.0
  6
BYLAYER
100
AcDbLine
 10
-29.0000001788000006
 20
100.0
 30
0.0
 11
-29.0000001788000006
 21
125.0
 31
0.0
  0
LINE
  5
C9
100
AcDbEntity
  8
0
 62
0
370
-1
 48
1.0
  6
BYLAYER
100
AcDbLine
 10
-9.0000001788099997
 20
-1.5
 30
0.0
 11
-6.0000001788099997
 21
-1.5
 31
0.0
  0
LINE
  5
CA
100
AcDbEntity
  8
0
 62
0
370
-1
 48
1.0
  6
BYLAYER
100
AcDbLine
 10
-10.5000001788000006
 20
8.0
 30
0.0
 11
-10.5000001788000006
 21
0.000000000000001
 31
0.0
  0
LINE
  5
CB
100
AcDbEntity
  8
0
 62
0
370
-1
 48
1.0
  6
BYLAYER
100
AcDbLine
 10
-6.0000001788099997
 20
9.5
 30
0.0
 11
-9.0000001788099997
 21
9.5
 31
0.0
  0
LINE
  5
CC
100
AcDbEntity
  8
0
 62
0
370
-1
 48
1.0
  6
BYLAYER
100
AcDbLine
 10
-4.5000001788099997
 20
0.0000000000000009
 30
0.0
 11
-4.5000001788099997
 21
8.0
 31
0.0
  0
LINE
  5
CD
100
AcDbEntity
  8
0
 62
0
370
-1
 48
1.0
  6
BYLAYER
100
AcDbLine
 10
-6.0000001788099997
 20
-2.5
 30
0.0
 11
-6.0000001788099997
 21
-34.4399999999999977
 31
0.0
  0
LINE
  5
CE
100
AcDbEntity
  8
0
 62
0
370
-1
 48
1.0
  6
BYLAYER
100
AcDbLine
 10
0.799999821186
 20
-2.5
 30
0.0
 11
-6.0000001788099997
 21
-2.5
 31
0.0
  0
LINE
  5
CF
100
AcDbEntity
  8
0
 62
0
370
-1
 48
1.0
  6
BYLAYER
100
AcDbLine
 10
0.799999821186
 20
-34.4399999999999977
 30
0.0
 11
0.799999821186
 21
-2.5
 31
0.0
  0
LINE
  5
D0
100
AcDbEntity
  8
0
 62
0
370
-1
 48
1.0
  6
BYLAYER
100
AcDbLine
 10
-6.0000001788099997
 20
-34.4399999999999977
 30
0.0
 11
0.799999821186
 21
-34.4399999999999977
 31
0.0
  0
ENDBLK
  5
D1
100
AcDbEntity
  8
0
100
AcDbBlockEnd
  0
ENDSEC
  0
SECTION
  2
ENTITIES
  0
INSERT
  5
D2
100
AcDbEntity
  8
0
 62
0
370
-1
 48
1.0
  6
BYLAYER
100
AcDbBlockReference
  2
POCKET013
 10
0.0
 20
-180.0
 30
0.0
 50
270.0
  0
INSERT
  5
D3
100
AcDbEntity
  8
0
 62
0
370
-1
 48
1.0
  6
BYLAYER
100
AcDbBlockReference
  2
POCKET010
 10
0.0
 20
0.0
 30
0.0
  0
ENDSEC
  0
SECTION
  2
OBJECTS
  0
DICTIONARY
  5
C
100
AcDbDictionary
280
0
281
1
  3
ACAD_GROUP
350
D
  3
ACAD_LAYOUT
350
1A
  3
ACAD_MLINESTYLE
350
17
  3
ACAD_PLOTSETTINGS
350
19
  3
ACAD_PLOTSTYLENAME
350
E
  3
AcDbVariableDictionary
350
D4
  3
QCAD_OBJECTS
350
D5
  0
DICTIONARY
  5
D
100
AcDbDictionary
280
0
281
1
  0
ACDBDICTIONARYWDFLT
  5
E
100
AcDbDictionary
281
1
  3
Normal
350
F
100
AcDbDictionaryWithDefault
340
F
  0
ACDBPLACEHOLDER
  5
F
  0
DICTIONARY
  5
17
100
AcDbDictionary
280
0
281
1
  3
Standard
350
18
  0
MLINESTYLE
  5
18
100
AcDbMlineStyle
  2
STANDARD
 70
0
  3

 62
256
 51
90.0
 52
90.0
 71
2
 49
0.5
 62
256
  6
BYLAYER
 49
-0.5
 62
256
  6
BYLAYER
  0
DICTIONARY
  5
19
100
AcDbDictionary
280
0
281
1
  0
DICTIONARY
  5
1A
100
AcDbDictionary
281
1
  3
Layout1
350
1E
  3
Layout2
350
26
  3
Model
350
22
  0
LAYOUT
  5
1E
100
AcDbPlotSettings
  1

  2
none_device
  4

  6

 40
0.0
 41
0.0
 42
0.0
 43
0.0
 44
0.0
 45
0.0
 46
0.0
 47
0.0
 48
0.0
 49
0.0
140
0.0
141
0.0
142
1.0
143
1.0
 70
688
 72
0
 73
0
 74
5
  7

 75
16
147
1.0
148
0.0
149
0.0
100
AcDbLayout
  1
Layout1
 70
1
 71
1
 10
0.0
 20
0.0
 11
420.0
 21
297.0
 12
0.0
 22
0.0
 32
0.0
 14
100000000000000000000.0
 24
100000000000000000000.0
 34
100000000000000000000.0
 15
-100000000000000000000.0
 25
-100000000000000000000.0
 35
-100000000000000000000.0
146
0.0
 13
0.0
 23
0.0
 33
0.0
 16
1.0
 26
0.0
 36
0.0
 17
0.0
 27
1.0
 37
0.0
 76
0
330
1B
  0
LAYOUT
  5
22
100
AcDbPlotSettings
  1

  2
none_device
  4

  6

 40
0.0
 41
0.0
 42
0.0
 43
0.0
 44
0.0
 45
0.0
 46
0.0
 47
0.0
 48
0.0
 49
0.0
140
0.0
141
0.0
142
1.0
143
1.0
 70
1712
 72
0
 73
0
 74
0
  7

 75
0
147
1.0
148
0.0
149
0.0
100
AcDbLayout
  1
Model
 70
1
 71
0
 10
0.0
 20
0.0
 11
12.0
 21
9.0
 12
0.0
 22
0.0
 32
0.0
 14
0.0
 24
0.0
 34
0.0
 15
0.0
 25
0.0
 35
0.0
146
0.0
 13
0.0
 23
0.0
 33
0.0
 16
1.0
 26
0.0
 36
0.0
 17
0.0
 27
1.0
 37
0.0
 76
0
330
1F
  0
LAYOUT
  5
26
100
AcDbPlotSettings
  1

  2
none_device
  4

  6

 40
0.0
 41
0.0
 42
0.0
 43
0.0
 44
0.0
 45
0.0
 46
0.0
 47
0.0
 48
0.0
 49
0.0
140
0.0
141
0.0
142
1.0
143
1.0
 70
688
 72
0
 73
0
 74
5
  7

 75
16
147
1.0
148
0.0
149
0.0
100
AcDbLayout
  1
Layout2
 70
1
 71
2
 10
0.0
 20
0.0
 11
12.0
 21
9.0
 12
0.0
 22
0.0
 32
0.0
 14
0.0
 24
0.0
 34
0.0
 15
0.0
 25
0.0
 35
0.0
146
0.0
 13
0.0
 23
0.0
 33
0.0
 16
1.0
 26
0.0
 36
0.0
 17
0.0
 27
1.0
 37
0.0
 76
0
330
23
  0
DICTIONARY
  5
D4
100
AcDbDictionary
281
1
  3
DIMASSOC
350
D7
  3
HIDETEXT
350
D6
  0
DICTIONARYVAR
  5
D6
100
DictionaryVariables
280
0
  1
2
  0
DICTIONARYVAR
  5
D7
100
DictionaryVariables
280
0
  1
1
  0
DICTIONARY
  5
D5
100
AcDbDictionary
281
1
  3
ColorSettings/BackgroundColor
350
D8
  3
ColorSettings/ColorMode
350
D9
  3
Grid/DisplayGrid00
350
DA
  3
Grid/DisplayGrid01
350
DB
  3
Grid/DisplayGrid02
350
DC
  3
Grid/DisplayGrid03
350
DD
  3
Grid/GridSpacingX00
350
DE
  3
Grid/GridSpacingX01
350
DF
  3
Grid/GridSpacingX02
350
E0
  3
Grid/GridSpacingX03
350
E1
  3
Grid/GridSpacingY00
350
E2
  3
Grid/GridSpacingY01
350
E3
  3
Grid/GridSpacingY02
350
E4
  3
Grid/GridSpacingY03
350
E5
  3
Grid/IsometricGrid00
350
E6
  3
Grid/IsometricGrid01
350
E7
  3
Grid/IsometricGrid02
350
E8
  3
Grid/IsometricGrid03
350
E9
  3
Grid/IsometricProjection00
350
EA
  3
Grid/IsometricProjection01
350
EB
  3
Grid/IsometricProjection02
350
EC
  3
Grid/IsometricProjection03
350
ED
  3
Grid/MetaGridSpacingX00
350
EE
  3
Grid/MetaGridSpacingX01
350
EF
  3
Grid/MetaGridSpacingX02
350
F0
  3
Grid/MetaGridSpacingX03
350
F1
  3
Grid/MetaGridSpacingY00
350
F2
  3
Grid/MetaGridSpacingY01
350
F3
  3
Grid/MetaGridSpacingY02
350
F4
  3
Grid/MetaGridSpacingY03
350
F5
  3
MultiPageSettings/Columns
350
F6
  3
MultiPageSettings/GlueMarginsBottom
350
F7
  3
MultiPageSettings/GlueMarginsLeft
350
F8
  3
MultiPageSettings/GlueMarginsRight
350
F9
  3
MultiPageSettings/GlueMarginsTop
350
FA
  3
MultiPageSettings/PrintCropMarks
350
FB
  3
MultiPageSettings/Rows
350
FC
  3
PageSettings/OffsetX
350
FD
  3
PageSettings/OffsetY
350
FE
  3
PageSettings/PageOrientation
350
FF
  3
PageSettings/PaperHeight
350
100
  3
PageSettings/PaperWidth
350
101
  3
PageSettings/Scale
350
102
  3
PageSettings/ShowPaperBorders
350
103
  3
UnitSettings/PaperUnit
350
104
  3
ViewportCenter
350
105
  3
ViewportHeight
350
106
  3
ViewportWidth
350
107
  0
XRECORD
  5
D8
330
D5
100
AcDbXrecord
280
1
1000
Blanca
  0
XRECORD
  5
D9
330
D5
100
AcDbXrecord
280
1
1000
FullColor
  0
XRECORD
  5
DA
330
D5
100
AcDbXrecord
280
1
290
1
  0
XRECORD
  5
DB
330
D5
100
AcDbXrecord
280
1
290
1
  0
XRECORD
  5
DC
330
D5
100
AcDbXrecord
280
1
290
1
  0
XRECORD
  5
DD
330
D5
100
AcDbXrecord
280
1
290
1
  0
XRECORD
  5
DE
330
D5
100
AcDbXrecord
280
1
1000
auto
  0
XRECORD
  5
DF
330
D5
100
AcDbXrecord
280
1
1000
auto
  0
XRECORD
  5
E0
330
D5
100
AcDbXrecord
280
1
1000
auto
  0
XRECORD
  5
E1
330
D5
100
AcDbXrecord
280
1
1000
auto
  0
XRECORD
  5
E2
330
D5
100
AcDbXrecord
280
1
1000
auto
  0
XRECORD
  5
E3
330
D5
100
AcDbXrecord
280
1
1000
auto
  0
XRECORD
  5
E4
330
D5
100
AcDbXrecord
280
1
1000
auto
  0
XRECORD
  5
E5
330
D5
100
AcDbXrecord
280
1
1000
auto
  0
XRECORD
  5
E6
330
D5
100
AcDbXrecord
280
1
290
0
  0
XRECORD
  5
E7
330
D5
100
AcDbXrecord
280
1
290
0
  0
XRECORD
  5
E8
330
D5
100
AcDbXrecord
280
1
290
0
  0
XRECORD
  5
E9
330
D5
100
AcDbXrecord
280
1
290
0
  0
XRECORD
  5
EA
330
D5
100
AcDbXrecord
280
1
 90
0
  0
XRECORD
  5
EB
330
D5
100
AcDbXrecord
280
1
 90
0
  0
XRECORD
  5
EC
330
D5
100
AcDbXrecord
280
1
 90
0
  0
XRECORD
  5
ED
330
D5
100
AcDbXrecord
280
1
 90
0
  0
XRECORD
  5
EE
330
D5
100
AcDbXrecord
280
1
1000
auto
  0
XRECORD
  5
EF
330
D5
100
AcDbXrecord
280
1
1000
auto
  0
XRECORD
  5
F0
330
D5
100
AcDbXrecord
280
1
1000
auto
  0
XRECORD
  5
F1
330
D5
100
AcDbXrecord
280
1
1000
auto
  0
XRECORD
  5
F2
330
D5
100
AcDbXrecord
280
1
1000
auto
  0
XRECORD
  5
F3
330
D5
100
AcDbXrecord
280
1
1000
auto
  0
XRECORD
  5
F4
330
D5
100
AcDbXrecord
280
1
1000
auto
  0
XRECORD
  5
F5
330
D5
100
AcDbXrecord
280
1
1000
auto
  0
XRECORD
  5
F6
330
D5
100
AcDbXrecord
280
1
 90
1
  0
XRECORD
  5
F7
330
D5
100
AcDbXrecord
280
1
 40
10.0
  0
XRECORD
  5
F8
330
D5
100
AcDbXrecord
280
1
 40
10.0
  0
XRECORD
  5
F9
330
D5
100
AcDbXrecord
280
1
 40
10.0
  0
XRECORD
  5
FA
330
D5
100
AcDbXrecord
280
1
 40
10.0
  0
XRECORD
  5
FB
330
D5
100
AcDbXrecord
280
1
290
0
  0
XRECORD
  5
FC
330
D5
100
AcDbXrecord
280
1
 90
1
  0
XRECORD
  5
FD
330
D5
100
AcDbXrecord
280
1
 40
0.0
  0
XRECORD
  5
FE
330
D5
100
AcDbXrecord
280
1
 40
0.0
  0
XRECORD
  5
FF
330
D5
100
AcDbXrecord
280
1
1000
Portrait
  0
XRECORD
  5
100
330
D5
100
AcDbXrecord
280
1
 40
297.0
  0
XRECORD
  5
101
330
D5
100
AcDbXrecord
280
1
 40
210.0
  0
XRECORD
  5
102
330
D5
100
AcDbXrecord
280
1
1000
1:1
  0
XRECORD
  5
103
330
D5
100
AcDbXrecord
280
1
290
1
  0
XRECORD
  5
104
330
D5
100
AcDbXrecord
280
1
 90
4
  0
XRECORD
  5
106
330
D5
100
AcDbXrecord
280
1
 40
388.5007582938386577
  0
XRECORD
  5
107
330
D5
100
AcDbXrecord
280
1
 40
751.9736492890991713
  0
ENDSEC
  0
EOF
