<?xml version="1.0" encoding="UTF-8" standalone="no"?>
<svg
   xmlns:dc="http://purl.org/dc/elements/1.1/"
   xmlns:cc="http://creativecommons.org/ns#"
   xmlns:rdf="http://www.w3.org/1999/02/22-rdf-syntax-ns#"
   xmlns:svg="http://www.w3.org/2000/svg"
   xmlns="http://www.w3.org/2000/svg"
   xmlns:xlink="http://www.w3.org/1999/xlink"
   xmlns:sodipodi="http://sodipodi.sourceforge.net/DTD/sodipodi-0.dtd"
   xmlns:inkscape="http://www.inkscape.org/namespaces/inkscape"
   width="400mm"
   height="400mm"
   version="1.1"
   id="svg257"
   sodipodi:docname="0_2Changes.svg"
   inkscape:version="0.92.0 r">
  <metadata
     id="metadata261">
    <rdf:RDF>
      <cc:Work
         rdf:about="">
        <dc:format>image/svg+xml</dc:format>
        <dc:type
           rdf:resource="http://purl.org/dc/dcmitype/StillImage" />
        <dc:title></dc:title>
      </cc:Work>
    </rdf:RDF>
  </metadata>
  <sodipodi:namedview
     pagecolor="#ffffff"
     bordercolor="#666666"
     borderopacity="1"
     objecttolerance="10"
     gridtolerance="10"
     guidetolerance="10"
     inkscape:pageopacity="0"
     inkscape:pageshadow="2"
     inkscape:window-width="1920"
     inkscape:window-height="983"
     id="namedview259"
     showgrid="false"
     inkscape:zoom="0.29732611"
     inkscape:cx="1010.1189"
     inkscape:cy="823.21112"
     inkscape:window-x="0"
     inkscape:window-y="56"
     inkscape:window-maximized="1"
     inkscape:current-layer="g255"
     units="mm" />
  <desc
     id="desc2">/home/gsegura96/GitHub/Product-Scanner/LaserCut/0_2Changes.dxf - scale = 1.000000, origin = (0.000000, 0.000000), method = manual</desc>
  <defs
     id="defs249">
    <marker
       id="DistanceX"
       orient="auto"
       refX="0"
       refY="0"
       style="overflow:visible">
      <path
         d="M 3,-3 -3,3 M 0,-5 V 5"
         style="stroke:#000000;stroke-width:0.5"
         id="path4"
         inkscape:connector-curvature="0" />
    </marker>
    <pattern
       height="8"
       id="Hatch"
       patternUnits="userSpaceOnUse"
       width="8"
       x="0"
       y="0">
      <path
         d="M8 4 l-4,4"
         linecap="square"
         stroke="#000000"
         stroke-width="0.25"
         id="path7" />
      <path
         d="M6 2 l-4,4"
         linecap="square"
         stroke="#000000"
         stroke-width="0.25"
         id="path9" />
      <path
         d="M4 0 l-4,4"
         linecap="square"
         stroke="#000000"
         stroke-width="0.25"
         id="path11" />
    </pattern>
    <symbol
       id="*Model_Space" />
    <symbol
       id="*Paper_Space" />
    <symbol
       id="*Paper_Space0" />
    <symbol
       id="POCKET010">
      <path
         d="M -461.10236,1349.2913 V 1198.1102"
         style="fill:none;stroke:#000000;stroke-linecap:round"
         id="path17"
         inkscape:connector-curvature="0" />
      <path
         d="m -461.10236,1198.1102 h -11.33858"
         style="fill:none;stroke:#000000;stroke-linecap:round"
         id="path19"
         inkscape:connector-curvature="0" />
      <path
         d="M -461.10236,1678.1102 V 1500.4724"
         style="fill:none;stroke:#000000;stroke-linecap:round"
         id="path21"
         inkscape:connector-curvature="0" />
      <path
         d="m -377.95276,1678.1102 h -83.1496"
         style="fill:none;stroke:#000000;stroke-linecap:round"
         id="path23"
         inkscape:connector-curvature="0" />
      <path
         d="m -461.10236,1500.4724 h -11.33858"
         style="fill:none;stroke:#000000;stroke-linecap:round"
         id="path25"
         inkscape:connector-curvature="0" />
      <path
         d="m -377.95276,1678.1102 v 11.3386"
         style="fill:none;stroke:#000000;stroke-linecap:round"
         id="path27"
         inkscape:connector-curvature="0" />
      <path
         d="M -472.44094,1500.4724 V 1349.2913"
         style="fill:none;stroke:#000000;stroke-linecap:round"
         id="path29"
         inkscape:connector-curvature="0" />
      <path
         d="m -377.95276,1689.4488 h 151.18111"
         style="fill:none;stroke:#000000;stroke-linecap:round"
         id="path31"
         inkscape:connector-curvature="0" />
      <path
         d="m -472.44094,1349.2913 h 11.33858"
         style="fill:none;stroke:#000000;stroke-linecap:round"
         id="path33"
         inkscape:connector-curvature="0" />
      <path
         d="m -226.77165,1689.4488 v -11.3386"
         style="fill:none;stroke:#000000;stroke-linecap:round"
         id="path35"
         inkscape:connector-curvature="0" />
      <path
         d="M -75.590551,1678.1102 H -226.77165"
         style="fill:none;stroke:#000000;stroke-linecap:round"
         id="path37"
         inkscape:connector-curvature="0" />
      <path
         d="m -75.590551,1678.1102 v 11.3386"
         style="fill:none;stroke:#000000;stroke-linecap:round"
         id="path39"
         inkscape:connector-curvature="0" />
      <path
         d="M -472.44094,1198.1102 V 1046.9291"
         style="fill:none;stroke:#000000;stroke-linecap:round"
         id="path41"
         inkscape:connector-curvature="0" />
      <path
         d="M -75.590551,1689.4488 H 75.590551"
         style="fill:none;stroke:#000000;stroke-linecap:round"
         id="path43"
         inkscape:connector-curvature="0" />
      <path
         d="m -472.44094,1046.9291 h 11.33858"
         style="fill:none;stroke:#000000;stroke-linecap:round"
         id="path45"
         inkscape:connector-curvature="0" />
      <path
         d="m 75.590551,1689.4488 v -11.3386"
         style="fill:none;stroke:#000000;stroke-linecap:round"
         id="path47"
         inkscape:connector-curvature="0" />
      <path
         d="M -461.10236,1046.9291 V 895.74803"
         style="fill:none;stroke:#000000;stroke-linecap:round"
         id="path49"
         inkscape:connector-curvature="0" />
      <path
         d="M 226.77165,1678.1102 H 75.590551"
         style="fill:none;stroke:#000000;stroke-linecap:round"
         id="path51"
         inkscape:connector-curvature="0" />
      <path
         d="m -472.44094,895.74803 h 11.33858"
         style="fill:none;stroke:#000000;stroke-linecap:round"
         id="path53"
         inkscape:connector-curvature="0" />
      <path
         d="m 226.77165,1678.1102 v 11.3386"
         style="fill:none;stroke:#000000;stroke-linecap:round"
         id="path55"
         inkscape:connector-curvature="0" />
      <path
         d="m -472.44094,744.56693 v 151.1811"
         style="fill:none;stroke:#000000;stroke-linecap:round"
         id="path57"
         inkscape:connector-curvature="0" />
      <path
         d="M 226.77165,1689.4488 H 377.95276"
         style="fill:none;stroke:#000000;stroke-linecap:round"
         id="path59"
         inkscape:connector-curvature="0" />
      <path
         d="m -461.10236,744.56693 h -11.33858"
         style="fill:none;stroke:#000000;stroke-linecap:round"
         id="path61"
         inkscape:connector-curvature="0" />
      <path
         d="m 377.95276,1689.4488 v -11.3386"
         style="fill:none;stroke:#000000;stroke-linecap:round"
         id="path63"
         inkscape:connector-curvature="0" />
      <path
         d="M -461.10236,744.56693 V 566.92913"
         style="fill:none;stroke:#000000;stroke-linecap:round"
         id="path65"
         inkscape:connector-curvature="0" />
      <path
         d="m 461.10236,1678.1102 h -83.1496"
         style="fill:none;stroke:#000000;stroke-linecap:round"
         id="path67"
         inkscape:connector-curvature="0" />
      <path
         d="m -461.10236,566.92913 h 83.1496"
         style="fill:none;stroke:#000000;stroke-linecap:round"
         id="path69"
         inkscape:connector-curvature="0" />
      <path
         d="m 461.10236,1500.4724 v 177.6378"
         style="fill:none;stroke:#000000;stroke-linecap:round"
         id="path71"
         inkscape:connector-curvature="0" />
      <path
         d="M -377.95276,566.92913 V 555.59055"
         style="fill:none;stroke:#000000;stroke-linecap:round"
         id="path73"
         inkscape:connector-curvature="0" />
      <path
         d="m 461.10236,1500.4724 h 11.33858"
         style="fill:none;stroke:#000000;stroke-linecap:round"
         id="path75"
         inkscape:connector-curvature="0" />
      <path
         d="m -377.95276,555.59055 h 151.18111"
         style="fill:none;stroke:#000000;stroke-linecap:round"
         id="path77"
         inkscape:connector-curvature="0" />
      <path
         d="M 472.44094,1500.4724 V 1349.2913"
         style="fill:none;stroke:#000000;stroke-linecap:round"
         id="path79"
         inkscape:connector-curvature="0" />
      <path
         d="m -226.77165,555.59055 v 11.33858"
         style="fill:none;stroke:#000000;stroke-linecap:round"
         id="path81"
         inkscape:connector-curvature="0" />
      <path
         d="M 472.44094,1349.2913 H 461.10236"
         style="fill:none;stroke:#000000;stroke-linecap:round"
         id="path83"
         inkscape:connector-curvature="0" />
      <path
         d="M -226.77165,566.92913 H -75.590551"
         style="fill:none;stroke:#000000;stroke-linecap:round"
         id="path85"
         inkscape:connector-curvature="0" />
      <path
         d="m 461.10236,1198.1102 v 151.1811"
         style="fill:none;stroke:#000000;stroke-linecap:round"
         id="path87"
         inkscape:connector-curvature="0" />
      <path
         d="M -75.590551,566.92913 V 555.59055"
         style="fill:none;stroke:#000000;stroke-linecap:round"
         id="path89"
         inkscape:connector-curvature="0" />
      <path
         d="m 461.10236,1198.1102 h 11.33858"
         style="fill:none;stroke:#000000;stroke-linecap:round"
         id="path91"
         inkscape:connector-curvature="0" />
      <path
         d="M -75.590551,555.59055 H 75.590551"
         style="fill:none;stroke:#000000;stroke-linecap:round"
         id="path93"
         inkscape:connector-curvature="0" />
      <path
         d="M 472.44094,1198.1102 V 1046.9291"
         style="fill:none;stroke:#000000;stroke-linecap:round"
         id="path95"
         inkscape:connector-curvature="0" />
      <path
         d="m 75.590551,555.59055 v 11.33858"
         style="fill:none;stroke:#000000;stroke-linecap:round"
         id="path97"
         inkscape:connector-curvature="0" />
      <path
         d="M 472.44094,1046.9291 H 461.10236"
         style="fill:none;stroke:#000000;stroke-linecap:round"
         id="path99"
         inkscape:connector-curvature="0" />
      <path
         d="M 75.590551,566.92913 H 226.77165"
         style="fill:none;stroke:#000000;stroke-linecap:round"
         id="path101"
         inkscape:connector-curvature="0" />
      <path
         d="M 461.10236,895.74803 V 1046.9291"
         style="fill:none;stroke:#000000;stroke-linecap:round"
         id="path103"
         inkscape:connector-curvature="0" />
      <path
         d="M 226.77165,566.92913 V 555.59055"
         style="fill:none;stroke:#000000;stroke-linecap:round"
         id="path105"
         inkscape:connector-curvature="0" />
      <path
         d="M 472.44094,895.74803 H 461.10236"
         style="fill:none;stroke:#000000;stroke-linecap:round"
         id="path107"
         inkscape:connector-curvature="0" />
      <path
         d="M 226.77165,555.59055 H 377.95276"
         style="fill:none;stroke:#000000;stroke-linecap:round"
         id="path109"
         inkscape:connector-curvature="0" />
      <path
         d="m 472.44094,744.56693 v 151.1811"
         style="fill:none;stroke:#000000;stroke-linecap:round"
         id="path111"
         inkscape:connector-curvature="0" />
      <path
         d="m 377.95276,555.59055 v 11.33858"
         style="fill:none;stroke:#000000;stroke-linecap:round"
         id="path113"
         inkscape:connector-curvature="0" />
      <path
         d="m 461.10236,744.56693 h 11.33858"
         style="fill:none;stroke:#000000;stroke-linecap:round"
         id="path115"
         inkscape:connector-curvature="0" />
      <path
         d="m 377.95276,566.92913 h 83.1496"
         style="fill:none;stroke:#000000;stroke-linecap:round"
         id="path117"
         inkscape:connector-curvature="0" />
      <path
         d="m 461.10236,566.92913 v 177.6378"
         style="fill:none;stroke:#000000;stroke-linecap:round"
         id="path119"
         inkscape:connector-curvature="0" />
      <path
         d="m -107.71653,1345.5118 a 7.55906,7.55906 0 1 0 -15.11812,0 7.55906,7.55906 0 1 0 15.11812,0 z"
         style="fill:none;stroke:#000000;stroke-linecap:round"
         id="path121"
         inkscape:connector-curvature="0" />
      <path
         d="m 283.46457,1046.9291 a 283.46457,283.46457 0 1 0 -566.92914,0 283.46457,283.46457 0 1 0 566.92914,0 z"
         style="fill:none;stroke:#000000;stroke-linecap:round"
         id="path123"
         inkscape:connector-curvature="0" />
      <path
         d="M 11.338583,1492.9134 H 22.677165"
         style="fill:none;stroke:#000000;stroke-linecap:round"
         id="path125"
         inkscape:connector-curvature="0" />
      <path
         d="m 11.338583,1470.2362 v 22.6772"
         style="fill:none;stroke:#000000;stroke-linecap:round"
         id="path127"
         inkscape:connector-curvature="0" />
      <path
         d="m 22.677165,1492.9134 v -22.6772"
         style="fill:none;stroke:#000000;stroke-linecap:round"
         id="path129"
         inkscape:connector-curvature="0" />
      <path
         d="M 22.677165,1470.2362 H 11.338583"
         style="fill:none;stroke:#000000;stroke-linecap:round"
         id="path131"
         inkscape:connector-curvature="0" />
      <path
         d="m -22.677165,1470.2362 h 11.338582"
         style="fill:none;stroke:#000000;stroke-linecap:round"
         id="path133"
         inkscape:connector-curvature="0" />
      <path
         d="m -22.677165,1492.9134 v -22.6772"
         style="fill:none;stroke:#000000;stroke-linecap:round"
         id="path135"
         inkscape:connector-curvature="0" />
      <path
         d="m -11.338583,1470.2362 v 22.6772"
         style="fill:none;stroke:#000000;stroke-linecap:round"
         id="path137"
         inkscape:connector-curvature="0" />
      <path
         d="M -11.338583,1492.9134 H -22.677165"
         style="fill:none;stroke:#000000;stroke-linecap:round"
         id="path139"
         inkscape:connector-curvature="0" />
      <path
         d="M 37.795276,1432.4409 H -37.795276"
         style="fill:none;stroke:#000000;stroke-linecap:round"
         id="path141"
         inkscape:connector-curvature="0" />
      <path
         d="m 37.795276,1424.8819 v 7.559"
         style="fill:none;stroke:#000000;stroke-linecap:round"
         id="path143"
         inkscape:connector-curvature="0" />
      <path
         d="M -37.795276,1424.8819 H 37.795276"
         style="fill:none;stroke:#000000;stroke-linecap:round"
         id="path145"
         inkscape:connector-curvature="0" />
      <path
         d="m -37.795276,1432.4409 v -7.559"
         style="fill:none;stroke:#000000;stroke-linecap:round"
         id="path147"
         inkscape:connector-curvature="0" />
      <path
         d="M 11.338583,1515.5906 H 22.677165"
         style="fill:none;stroke:#000000;stroke-linecap:round"
         id="path149"
         inkscape:connector-curvature="0" />
      <path
         d="m 11.338583,1538.2677 v -22.6771"
         style="fill:none;stroke:#000000;stroke-linecap:round"
         id="path151"
         inkscape:connector-curvature="0" />
      <path
         d="m 22.677165,1515.5906 v 22.6771"
         style="fill:none;stroke:#000000;stroke-linecap:round"
         id="path153"
         inkscape:connector-curvature="0" />
      <path
         d="M 22.677165,1538.2677 H 11.338583"
         style="fill:none;stroke:#000000;stroke-linecap:round"
         id="path155"
         inkscape:connector-curvature="0" />
      <path
         d="m -11.338583,1538.2677 v -22.6771"
         style="fill:none;stroke:#000000;stroke-linecap:round"
         id="path157"
         inkscape:connector-curvature="0" />
      <path
         d="m -22.677165,1538.2677 h 11.338582"
         style="fill:none;stroke:#000000;stroke-linecap:round"
         id="path159"
         inkscape:connector-curvature="0" />
      <path
         d="M -11.338583,1515.5906 H -22.677165"
         style="fill:none;stroke:#000000;stroke-linecap:round"
         id="path161"
         inkscape:connector-curvature="0" />
      <path
         d="m -22.677165,1515.5906 v 22.6771"
         style="fill:none;stroke:#000000;stroke-linecap:round"
         id="path163"
         inkscape:connector-curvature="0" />
      <path
         d="m -18.897638,1581.7323 a 7.559055,7.559055 0 1 0 -15.11811,0 7.559055,7.559055 0 1 0 15.11811,0 z"
         style="fill:none;stroke:#000000;stroke-linecap:round"
         id="path165"
         inkscape:connector-curvature="0" />
    </symbol>
    <symbol
       id="POCKET013">
      <path
         d="m -22.677166,1128.189 h 0.188941 l 0.188732,-0.01 0.188312,-0.016 0.187683,-0.022 0.186845,-0.028 0.185801,-0.034 0.18455,-0.041 0.183093,-0.047 0.181433,-0.053 0.179572,-0.059 0.177511,-0.065 0.175253,-0.071 0.1728,-0.076 0.170155,-0.082 0.167322,-0.088 0.164302,-0.093 0.161099,-0.099 0.157719,-0.104 0.154161,-0.1093 0.150435,-0.1144 0.146539,-0.1193 0.142481,-0.1241 0.138266,-0.1288 0.133896,-0.1334 0.129377,-0.1377 0.124716,-0.142 0.119914,-0.146 0.114981,-0.15 0.10992,-0.1537 0.104735,-0.1573 0.09944,-0.1607 0.09402,-0.1639 0.08851,-0.1669 0.0829,-0.1699 0.07719,-0.1724 0.0714,-0.175 0.06553,-0.1772 0.05959,-0.1794 0.05358,-0.1812 0.04751,-0.1829 0.04138,-0.1844 0.03522,-0.1856 0.02901,-0.1867 0.02277,-0.1876 0.01651,-0.1883 0.01022,-0.1887 0.0039,-0.1889 4.8e-5,-0.023"
         style="fill:none;stroke:#000000;stroke-linecap:round"
         id="path168"
         inkscape:connector-curvature="0" />
      <path
         d="m -39.68504,1122.5197 0.0031,0.1889 0.0094,0.1888 0.01573,0.1883 0.022,0.1877 0.02824,0.1868 0.03445,0.1858 0.04062,0.1845 0.04675,0.1831 0.05283,0.1815 0.05884,0.1795 0.0648,0.1776 0.07068,0.1752 0.07648,0.1728 0.08219,0.1702 0.08782,0.1673 0.09335,0.1643 0.09877,0.1611 0.104085,0.1577 0.109284,0.1542 0.11436,0.1504 0.119311,0.1465 0.124128,0.1425 0.128808,0.1383 0.133344,0.1339 0.137732,0.1294 0.141968,0.1247 0.146045,0.1199 0.149961,0.115 0.153709,0.1099 0.157287,0.1047 0.16069,0.1 0.163915,0.094 0.166958,0.089 0.169814,0.083 0.172483,0.077 0.17496,0.071 0.177242,0.066 0.179327,0.06 0.181214,0.054 0.182898,0.047 0.18438,0.041 0.185657,0.035 0.186728,0.029 0.18759,0.023 0.188245,0.016 0.188691,0.01 h 0.188927 l 0.02341,1e-4"
         style="fill:none;stroke:#000000;stroke-linecap:round"
         id="path170"
         inkscape:connector-curvature="0" />
      <path
         d="m -34.015749,1086.6142 h -0.188941 l -0.188732,0.01 -0.188311,0.016 -0.187683,0.022 -0.186846,0.028 -0.185801,0.034 -0.184549,0.041 -0.183094,0.047 -0.181433,0.053 -0.179572,0.059 -0.177511,0.065 -0.175253,0.071 -0.1728,0.077 -0.170155,0.082 -0.167322,0.088 -0.164302,0.093 -0.161099,0.099 -0.157718,0.1041 -0.154162,0.1093 -0.150434,0.1143 -0.146539,0.1194 -0.142482,0.1241 -0.138265,0.1288 -0.133896,0.1333 -0.129378,0.1378 -0.124715,0.1419 -0.119915,0.1461 -0.114981,0.1499 -0.109919,0.1537 -0.104736,0.1573 -0.09943,0.1607 -0.09403,0.1639 -0.08851,0.167 -0.0829,0.1698 -0.07719,0.1725 -0.0714,0.175 -0.06553,0.1772 -0.05959,0.1793 -0.05358,0.1812 -0.04751,0.1829 -0.04138,0.1844 -0.03522,0.1857 -0.02901,0.1867 -0.02277,0.1876 -0.01651,0.1882 -0.01022,0.1887 -0.0039,0.189 -4.8e-5,0.023"
         style="fill:none;stroke:#000000;stroke-linecap:round"
         id="path172"
         inkscape:connector-curvature="0" />
      <path
         d="m -17.007875,1092.2835 -0.0031,-0.189 -0.0094,-0.1887 -0.01573,-0.1883 -0.022,-0.1877 -0.02824,-0.1868 -0.03445,-0.1858 -0.04062,-0.1846 -0.04675,-0.1831 -0.05283,-0.1814 -0.05884,-0.1796 -0.0648,-0.1775 -0.07068,-0.1753 -0.07648,-0.1728 -0.08219,-0.1701 -0.08782,-0.1673 -0.09335,-0.1643 -0.09877,-0.1611 -0.104085,-0.1578 -0.109284,-0.1541 -0.11436,-0.1505 -0.119311,-0.1465 -0.124128,-0.1425 -0.128808,-0.1382 -0.133344,-0.1339 -0.137732,-0.1294 -0.141968,-0.1247 -0.146045,-0.1199 -0.149961,-0.115 -0.153709,-0.1099 -0.157287,-0.1048 -0.16069,-0.099 -0.163915,-0.094 -0.166957,-0.089 -0.169815,-0.083 -0.172483,-0.077 -0.174959,-0.071 -0.177242,-0.066 -0.179328,-0.06 -0.181213,-0.053 -0.182899,-0.047 -0.18438,-0.041 -0.185657,-0.035 -0.186727,-0.029 -0.187591,-0.023 -0.188245,-0.016 -0.188691,-0.01 h -0.188927 -0.02341"
         style="fill:none;stroke:#000000;stroke-linecap:round"
         id="path174"
         inkscape:connector-curvature="0" />
      <path
         d="m -109.6063,1594.9606 v -94.4882"
         style="fill:none;stroke:#000000;stroke-linecap:round"
         id="path176"
         inkscape:connector-curvature="0" />
      <path
         d="m -109.6063,1500.4724 h 11.338583"
         style="fill:none;stroke:#000000;stroke-linecap:round"
         id="path178"
         inkscape:connector-curvature="0" />
      <path
         d="m 98.267716,1594.9606 v -94.4882"
         style="fill:none;stroke:#000000;stroke-linecap:round"
         id="path180"
         inkscape:connector-curvature="0" />
      <path
         d="M 98.267716,1594.9606 H -109.6063"
         style="fill:none;stroke:#000000;stroke-linecap:round"
         id="path182"
         inkscape:connector-curvature="0" />
      <path
         d="M 98.267716,1500.4724 H 109.6063"
         style="fill:none;stroke:#000000;stroke-linecap:round"
         id="path184"
         inkscape:connector-curvature="0" />
      <path
         d="m 109.6063,1349.2913 v 151.1811"
         style="fill:none;stroke:#000000;stroke-linecap:round"
         id="path186"
         inkscape:connector-curvature="0" />
      <path
         d="M 109.6063,1349.2913 H 98.267716"
         style="fill:none;stroke:#000000;stroke-linecap:round"
         id="path188"
         inkscape:connector-curvature="0" />
      <path
         d="M -98.267717,1500.4724 V 1349.2913"
         style="fill:none;stroke:#000000;stroke-linecap:round"
         id="path190"
         inkscape:connector-curvature="0" />
      <path
         d="M 98.267716,1349.2913 V 1198.1102"
         style="fill:none;stroke:#000000;stroke-linecap:round"
         id="path192"
         inkscape:connector-curvature="0" />
      <path
         d="M -98.267717,1349.2913 H -109.6063"
         style="fill:none;stroke:#000000;stroke-linecap:round"
         id="path194"
         inkscape:connector-curvature="0" />
      <path
         d="M 98.267716,1198.1102 H 109.6063"
         style="fill:none;stroke:#000000;stroke-linecap:round"
         id="path196"
         inkscape:connector-curvature="0" />
      <path
         d="M -109.6063,1349.2913 V 1198.1102"
         style="fill:none;stroke:#000000;stroke-linecap:round"
         id="path198"
         inkscape:connector-curvature="0" />
      <path
         d="m 109.6063,1046.9291 v 151.1811"
         style="fill:none;stroke:#000000;stroke-linecap:round"
         id="path200"
         inkscape:connector-curvature="0" />
      <path
         d="m -109.6063,1198.1102 h 11.338583"
         style="fill:none;stroke:#000000;stroke-linecap:round"
         id="path202"
         inkscape:connector-curvature="0" />
      <path
         d="M 109.6063,1046.9291 H 98.267716"
         style="fill:none;stroke:#000000;stroke-linecap:round"
         id="path204"
         inkscape:connector-curvature="0" />
      <path
         d="M -98.267717,1198.1102 V 1046.9291"
         style="fill:none;stroke:#000000;stroke-linecap:round"
         id="path206"
         inkscape:connector-curvature="0" />
      <path
         d="M 98.267716,1046.9291 V 895.74803"
         style="fill:none;stroke:#000000;stroke-linecap:round"
         id="path208"
         inkscape:connector-curvature="0" />
      <path
         d="M -98.267717,1046.9291 H -109.6063"
         style="fill:none;stroke:#000000;stroke-linecap:round"
         id="path210"
         inkscape:connector-curvature="0" />
      <path
         d="M 98.267716,895.74803 H 109.6063"
         style="fill:none;stroke:#000000;stroke-linecap:round"
         id="path212"
         inkscape:connector-curvature="0" />
      <path
         d="M -109.6063,1046.9291 V 895.74803"
         style="fill:none;stroke:#000000;stroke-linecap:round"
         id="path214"
         inkscape:connector-curvature="0" />
      <path
         d="m 109.6063,744.56693 v 151.1811"
         style="fill:none;stroke:#000000;stroke-linecap:round"
         id="path216"
         inkscape:connector-curvature="0" />
      <path
         d="m -109.6063,895.74803 h 11.338583"
         style="fill:none;stroke:#000000;stroke-linecap:round"
         id="path218"
         inkscape:connector-curvature="0" />
      <path
         d="M 109.6063,744.56693 H 98.267716"
         style="fill:none;stroke:#000000;stroke-linecap:round"
         id="path220"
         inkscape:connector-curvature="0" />
      <path
         d="M -98.267717,895.74803 V 744.56693"
         style="fill:none;stroke:#000000;stroke-linecap:round"
         id="path222"
         inkscape:connector-curvature="0" />
      <path
         d="M 98.267716,744.56693 V 650.07874"
         style="fill:none;stroke:#000000;stroke-linecap:round"
         id="path224"
         inkscape:connector-curvature="0" />
      <path
         d="M -98.267717,744.56693 H -109.6063"
         style="fill:none;stroke:#000000;stroke-linecap:round"
         id="path226"
         inkscape:connector-curvature="0" />
      <path
         d="M -109.6063,650.07874 H 98.267716"
         style="fill:none;stroke:#000000;stroke-linecap:round"
         id="path228"
         inkscape:connector-curvature="0" />
      <path
         d="M -109.6063,744.56693 V 650.07874"
         style="fill:none;stroke:#000000;stroke-linecap:round"
         id="path230"
         inkscape:connector-curvature="0" />
      <path
         d="m -34.015749,1128.189 h 11.338583"
         style="fill:none;stroke:#000000;stroke-linecap:round"
         id="path232"
         inkscape:connector-curvature="0" />
      <path
         d="m -39.68504,1092.2835 v 30.2362"
         style="fill:none;stroke:#000000;stroke-linecap:round"
         id="path234"
         inkscape:connector-curvature="0" />
      <path
         d="M -22.677166,1086.6142 H -34.015749"
         style="fill:none;stroke:#000000;stroke-linecap:round"
         id="path236"
         inkscape:connector-curvature="0" />
      <path
         d="m -17.007875,1122.5197 v -30.2362"
         style="fill:none;stroke:#000000;stroke-linecap:round"
         id="path238"
         inkscape:connector-curvature="0" />
      <path
         d="m -22.677166,1131.9685 v 120.7181"
         style="fill:none;stroke:#000000;stroke-linecap:round"
         id="path240"
         inkscape:connector-curvature="0" />
      <path
         d="M 3.023621,1131.9685 H -22.677166"
         style="fill:none;stroke:#000000;stroke-linecap:round"
         id="path242"
         inkscape:connector-curvature="0" />
      <path
         d="M 3.023621,1252.6866 V 1131.9685"
         style="fill:none;stroke:#000000;stroke-linecap:round"
         id="path244"
         inkscape:connector-curvature="0" />
      <path
         d="M -22.677166,1252.6866 H 3.023621"
         style="fill:none;stroke:#000000;stroke-linecap:round"
         id="path246"
         inkscape:connector-curvature="0" />
    </symbol>
  </defs>
  <g
     inkscape:groupmode="layer"
     inkscape:label="0"
     id="g255"
     transform="translate(0,389.29131)">
    <use
       transform="rotate(90,376.44804,1243.3139)"
       xlink:href="#POCKET013"
       id="use251"
       x="0"
       y="0"
       width="100%"
       height="100%" />
    <use
       transform="translate(497.24229,-932.18924)"
       xlink:href="#POCKET010"
       id="use253"
       x="0"
       y="0"
       width="100%"
       height="100%" />
  </g>
</svg>
