  0
SECTION
  2
HEADER
  9
$ACADVER
  1
AC1009
  9
$INSBASE
 10
0.0
 20
0.0
 30
0.0
  9
$EXTMIN
 10
0.0
 20
0.0
 30
0.0
  9
$EXTMAX
 10
0.0
 20
0.0
 30
0.0
  0
ENDSEC
  0
SECTION
  2
TABLES
  0
TABLE
  2
VPORT
 70
0
  0
ENDTAB
  0
TABLE
  2
LTYPE
 70
1
  0
LTYPE
  2
CONTINUOUS
 70
0
  3
Solid line
 72
65
 73
0
 40
0.0
  0
ENDTAB
  0
TABLE
  2
LAYER
 70
1
  0
LAYER
  2
0
 70
64
 62
7
  6
continuous
  0
ENDTAB
  0
TABLE
  2
STYLE
 70
1
  0
STYLE
  2
STANDARD
 70
0
 40
0
 41
1.0
 50
0.0
 71
0
 42
1
 3
ARIAL.TTF
 4

  0
ENDTAB
  0
TABLE
  2
VIEW
 70
0
  0
ENDTAB
  0
ENDSEC
  0
SECTION
  2
BLOCKS
  0
BLOCK
  8
0
  2
POCKET010
 70
0
 10
0.0
 20
0.0
 30
0.0
  3
POCKET010
  0
LINE
  8
0
 62
0
 10
-122.0
 20
-60.0
 30
0.0
 11
-122.0
 21
-20.0
 31
0.0
  0
LINE
  8
0
 62
0
 10
-122.0
 20
-20.0
 30
0.0
 11
-125.0
 21
-20.0
 31
0.0
  0
LINE
  8
0
 62
0
 10
-122.0
 20
-147.0
 30
0.0
 11
-122.0
 21
-100.0
 31
0.0
  0
LINE
  8
0
 62
0
 10
-100.0
 20
-147.0
 30
0.0
 11
-122.0
 21
-147.0
 31
0.0
  0
LINE
  8
0
 62
0
 10
-122.0
 20
-100.0
 30
0.0
 11
-125.0
 21
-100.0
 31
0.0
  0
LINE
  8
0
 62
0
 10
-100.0
 20
-147.0
 30
0.0
 11
-100.0
 21
-150.0
 31
0.0
  0
LINE
  8
0
 62
0
 10
-125.0
 20
-100.0
 30
0.0
 11
-125.0
 21
-60.0
 31
0.0
  0
LINE
  8
0
 62
0
 10
-100.0
 20
-150.0
 30
0.0
 11
-60.0
 21
-150.0
 31
0.0
  0
LINE
  8
0
 62
0
 10
-125.0
 20
-60.0
 30
0.0
 11
-122.0
 21
-60.0
 31
0.0
  0
LINE
  8
0
 62
0
 10
-60.0
 20
-150.0
 30
0.0
 11
-60.0
 21
-147.0
 31
0.0
  0
LINE
  8
0
 62
0
 10
-20.0
 20
-147.0
 30
0.0
 11
-60.0
 21
-147.0
 31
0.0
  0
LINE
  8
0
 62
0
 10
-20.0
 20
-147.0
 30
0.0
 11
-20.0
 21
-150.0
 31
0.0
  0
LINE
  8
0
 62
0
 10
-125.0
 20
-20.0
 30
0.0
 11
-125.0
 21
20.0
 31
0.0
  0
LINE
  8
0
 62
0
 10
-20.0
 20
-150.0
 30
0.0
 11
20.0
 21
-150.0
 31
0.0
  0
LINE
  8
0
 62
0
 10
-125.0
 20
20.0
 30
0.0
 11
-122.0
 21
20.0
 31
0.0
  0
LINE
  8
0
 62
0
 10
20.0
 20
-150.0
 30
0.0
 11
20.0
 21
-147.0
 31
0.0
  0
LINE
  8
0
 62
0
 10
-122.0
 20
20.0
 30
0.0
 11
-122.0
 21
60.0
 31
0.0
  0
LINE
  8
0
 62
0
 10
60.0
 20
-147.0
 30
0.0
 11
20.0
 21
-147.0
 31
0.0
  0
LINE
  8
0
 62
0
 10
-125.0
 20
60.0
 30
0.0
 11
-122.0
 21
60.0
 31
0.0
  0
LINE
  8
0
 62
0
 10
60.0
 20
-147.0
 30
0.0
 11
60.0
 21
-150.0
 31
0.0
  0
LINE
  8
0
 62
0
 10
-125.0
 20
100.0
 30
0.0
 11
-125.0
 21
60.0
 31
0.0
  0
LINE
  8
0
 62
0
 10
60.0
 20
-150.0
 30
0.0
 11
100.0
 21
-150.0
 31
0.0
  0
LINE
  8
0
 62
0
 10
-122.0
 20
100.0
 30
0.0
 11
-125.0
 21
100.0
 31
0.0
  0
LINE
  8
0
 62
0
 10
100.0
 20
-150.0
 30
0.0
 11
100.0
 21
-147.0
 31
0.0
  0
LINE
  8
0
 62
0
 10
-122.0
 20
100.0
 30
0.0
 11
-122.0
 21
147.0
 31
0.0
  0
LINE
  8
0
 62
0
 10
122.0
 20
-147.0
 30
0.0
 11
100.0
 21
-147.0
 31
0.0
  0
LINE
  8
0
 62
0
 10
-122.0
 20
147.0
 30
0.0
 11
-100.0
 21
147.0
 31
0.0
  0
LINE
  8
0
 62
0
 10
122.0
 20
-100.0
 30
0.0
 11
122.0
 21
-147.0
 31
0.0
  0
LINE
  8
0
 62
0
 10
-100.0
 20
147.0
 30
0.0
 11
-100.0
 21
150.0
 31
0.0
  0
LINE
  8
0
 62
0
 10
122.0
 20
-100.0
 30
0.0
 11
125.0
 21
-100.0
 31
0.0
  0
LINE
  8
0
 62
0
 10
-100.0
 20
150.0
 30
0.0
 11
-60.0
 21
150.0
 31
0.0
  0
LINE
  8
0
 62
0
 10
125.0
 20
-100.0
 30
0.0
 11
125.0
 21
-60.0
 31
0.0
  0
LINE
  8
0
 62
0
 10
-60.0
 20
150.0
 30
0.0
 11
-60.0
 21
147.0
 31
0.0
  0
LINE
  8
0
 62
0
 10
125.0
 20
-60.0
 30
0.0
 11
122.0
 21
-60.0
 31
0.0
  0
LINE
  8
0
 62
0
 10
-60.0
 20
147.0
 30
0.0
 11
-20.0
 21
147.0
 31
0.0
  0
LINE
  8
0
 62
0
 10
122.0
 20
-20.0
 30
0.0
 11
122.0
 21
-60.0
 31
0.0
  0
LINE
  8
0
 62
0
 10
-20.0
 20
147.0
 30
0.0
 11
-20.0
 21
150.0
 31
0.0
  0
LINE
  8
0
 62
0
 10
122.0
 20
-20.0
 30
0.0
 11
125.0
 21
-20.0
 31
0.0
  0
LINE
  8
0
 62
0
 10
-20.0
 20
150.0
 30
0.0
 11
20.0
 21
150.0
 31
0.0
  0
LINE
  8
0
 62
0
 10
125.0
 20
-20.0
 30
0.0
 11
125.0
 21
20.0
 31
0.0
  0
LINE
  8
0
 62
0
 10
20.0
 20
150.0
 30
0.0
 11
20.0
 21
147.0
 31
0.0
  0
LINE
  8
0
 62
0
 10
125.0
 20
20.0
 30
0.0
 11
122.0
 21
20.0
 31
0.0
  0
LINE
  8
0
 62
0
 10
20.0
 20
147.0
 30
0.0
 11
60.0
 21
147.0
 31
0.0
  0
LINE
  8
0
 62
0
 10
122.0
 20
60.0
 30
0.0
 11
122.0
 21
20.0
 31
0.0
  0
LINE
  8
0
 62
0
 10
60.0
 20
147.0
 30
0.0
 11
60.0
 21
150.0
 31
0.0
  0
LINE
  8
0
 62
0
 10
125.0
 20
60.0
 30
0.0
 11
122.0
 21
60.0
 31
0.0
  0
LINE
  8
0
 62
0
 10
60.0
 20
150.0
 30
0.0
 11
100.0
 21
150.0
 31
0.0
  0
LINE
  8
0
 62
0
 10
125.0
 20
100.0
 30
0.0
 11
125.0
 21
60.0
 31
0.0
  0
LINE
  8
0
 62
0
 10
100.0
 20
150.0
 30
0.0
 11
100.0
 21
147.0
 31
0.0
  0
LINE
  8
0
 62
0
 10
122.0
 20
100.0
 30
0.0
 11
125.0
 21
100.0
 31
0.0
  0
LINE
  8
0
 62
0
 10
100.0
 20
147.0
 30
0.0
 11
122.0
 21
147.0
 31
0.0
  0
LINE
  8
0
 62
0
 10
122.0
 20
147.0
 30
0.0
 11
122.0
 21
100.0
 31
0.0
  0
CIRCLE
  8
0
 62
0
 10
-30.5
 20
-65.5
 30
0.0
 40
2.0
  0
CIRCLE
  8
0
 62
0
 10
0.0
 20
40.0
 30
0.0
 40
95.0
  0
LINE
  8
0
 62
0
 10
3.0
 20
-98.0
 30
0.0
 11
6.0
 21
-98.0
 31
0.0
  0
LINE
  8
0
 62
0
 10
3.0
 20
-92.0
 30
0.0
 11
3.0
 21
-98.0
 31
0.0
  0
LINE
  8
0
 62
0
 10
6.0
 20
-98.0
 30
0.0
 11
6.0
 21
-92.0
 31
0.0
  0
LINE
  8
0
 62
0
 10
6.0
 20
-92.0
 30
0.0
 11
3.0
 21
-92.0
 31
0.0
  0
LINE
  8
0
 62
0
 10
-6.0
 20
-92.0
 30
0.0
 11
-3.0
 21
-92.0
 31
0.0
  0
LINE
  8
0
 62
0
 10
-6.0
 20
-98.0
 30
0.0
 11
-6.0
 21
-92.0
 31
0.0
  0
LINE
  8
0
 62
0
 10
-3.0
 20
-92.0
 30
0.0
 11
-3.0
 21
-98.0
 31
0.0
  0
LINE
  8
0
 62
0
 10
-3.0
 20
-98.0
 30
0.0
 11
-6.0
 21
-98.0
 31
0.0
  0
LINE
  8
0
 62
0
 10
10.0
 20
-82.0
 30
0.0
 11
-10.0
 21
-82.0
 31
0.0
  0
LINE
  8
0
 62
0
 10
10.0
 20
-80.0
 30
0.0
 11
10.0
 21
-82.0
 31
0.0
  0
LINE
  8
0
 62
0
 10
-10.0
 20
-80.0
 30
0.0
 11
10.0
 21
-80.0
 31
0.0
  0
LINE
  8
0
 62
0
 10
-10.0
 20
-82.0
 30
0.0
 11
-10.0
 21
-80.0
 31
0.0
  0
LINE
  8
0
 62
0
 10
3.0
 20
-104.0
 30
0.0
 11
6.0
 21
-104.0
 31
0.0
  0
LINE
  8
0
 62
0
 10
3.0
 20
-110.0
 30
0.0
 11
3.0
 21
-104.0
 31
0.0
  0
LINE
  8
0
 62
0
 10
6.0
 20
-104.0
 30
0.0
 11
6.0
 21
-110.0
 31
0.0
  0
LINE
  8
0
 62
0
 10
6.0
 20
-110.0
 30
0.0
 11
3.0
 21
-110.0
 31
0.0
  0
LINE
  8
0
 62
0
 10
-3.0
 20
-110.0
 30
0.0
 11
-3.0
 21
-104.0
 31
0.0
  0
LINE
  8
0
 62
0
 10
-6.0
 20
-110.0
 30
0.0
 11
-3.0
 21
-110.0
 31
0.0
  0
LINE
  8
0
 62
0
 10
-3.0
 20
-104.0
 30
0.0
 11
-6.0
 21
-104.0
 31
0.0
  0
LINE
  8
0
 62
0
 10
-6.0
 20
-104.0
 30
0.0
 11
-6.0
 21
-110.0
 31
0.0
  0
CIRCLE
  8
0
 62
0
 10
-7.0
 20
-121.0
 30
0.0
 40
2.0
  0
ENDBLK
  0
ENDSEC
  0
SECTION
  2
ENTITIES
  0
INSERT
  2
POCKET010
  8
0
 62
0
 10
0.0
 20
0.0
 30
0.0
  0
ENDSEC
  0
EOF
