  0
SECTION
  2
HEADER
  9
$ACADVER
  1
AC1009
  9
$INSBASE
 10
0.0
 20
0.0
 30
0.0
  9
$EXTMIN
 10
0.0
 20
0.0
 30
0.0
  9
$EXTMAX
 10
0.0
 20
0.0
 30
0.0
  0
ENDSEC
  0
SECTION
  2
TABLES
  0
TABLE
  2
VPORT
 70
0
  0
ENDTAB
  0
TABLE
  2
LTYPE
 70
1
  0
LTYPE
  2
CONTINUOUS
 70
0
  3
Solid line
 72
65
 73
0
 40
0.0
  0
ENDTAB
  0
TABLE
  2
LAYER
 70
1
  0
LAYER
  2
0
 70
64
 62
7
  6
continuous
  0
ENDTAB
  0
TABLE
  2
STYLE
 70
1
  0
STYLE
  2
STANDARD
 70
0
 40
0
 41
1.0
 50
0.0
 71
0
 42
1
 3
ARIAL.TTF
 4

  0
ENDTAB
  0
TABLE
  2
VIEW
 70
0
  0
ENDTAB
  0
ENDSEC
  0
SECTION
  2
BLOCKS
  0
BLOCK
  8
0
  2
BODY010
 70
0
 10
0.0
 20
0.0
 30
0.0
  3
BODY010
  0
POLYLINE
  8
0
 62
0
 70
0
 66
1
 10
0.0
 20
0.0
 30
0.0
  0
VERTEX
  8
0
 10
16.0000003576
 20
12.5
 30
0.0
  0
VERTEX
  8
0
 10
15.9996878617
 20
12.5499986979
 30
0.0
  0
VERTEX
  8
0
 10
15.9987504227
 20
12.5999895837
 30
0.0
  0
VERTEX
  8
0
 10
15.9971881872
 20
12.6499648462
 30
0.0
  0
VERTEX
  8
0
 10
15.9950013992
 20
12.6999166771
 30
0.0
  0
VERTEX
  8
0
 10
15.9921904004
 20
12.7498372714
 30
0.0
  0
VERTEX
  8
0
 10
15.9887556301
 20
12.7997188291
 30
0.0
  0
VERTEX
  8
0
 10
15.9846976248
 20
12.8495535564
 30
0.0
  0
VERTEX
  8
0
 10
15.9800170187
 20
12.8993336666
 30
0.0
  0
VERTEX
  8
0
 10
15.9747145431
 20
12.9490513817
 30
0.0
  0
VERTEX
  8
0
 10
15.9687910265
 20
12.9986989335
 30
0.0
  0
VERTEX
  8
0
 10
15.9622473945
 20
13.0482685646
 30
0.0
  0
VERTEX
  8
0
 10
15.9550846694
 20
13.0977525299
 30
0.0
  0
VERTEX
  8
0
 10
15.9473039704
 20
13.1471430975
 30
0.0
  0
VERTEX
  8
0
 10
15.9389065132
 20
13.1964325504
 30
0.0
  0
VERTEX
  8
0
 10
15.92989361
 20
13.2456131871
 30
0.0
  0
VERTEX
  8
0
 10
15.920266669
 20
13.2946773232
 30
0.0
  0
VERTEX
  8
0
 10
15.9100271943
 20
13.3436172926
 30
0.0
  0
VERTEX
  8
0
 10
15.8991767859
 20
13.3924254485
 30
0.0
  0
VERTEX
  8
0
 10
15.8877171391
 20
13.4410941648
 30
0.0
  0
VERTEX
  8
0
 10
15.8756500445
 20
13.489615837
 30
0.0
  0
VERTEX
  8
0
 10
15.8629773875
 20
13.5379828838
 30
0.0
  0
VERTEX
  8
0
 10
15.8497011481
 20
13.5861877478
 30
0.0
  0
VERTEX
  8
0
 10
15.8358234009
 20
13.6342228972
 30
0.0
  0
VERTEX
  8
0
 10
15.8213463141
 20
13.6820808266
 30
0.0
  0
VERTEX
  8
0
 10
15.8062721498
 20
13.7297540583
 30
0.0
  0
VERTEX
  8
0
 10
15.7906032633
 20
13.7772351434
 30
0.0
  0
VERTEX
  8
0
 10
15.7743421028
 20
13.8245166631
 30
0.0
  0
VERTEX
  8
0
 10
15.757491209
 20
13.8715912298
 30
0.0
  0
VERTEX
  8
0
 10
15.740053215
 20
13.9184514882
 30
0.0
  0
VERTEX
  8
0
 10
15.7220308453
 20
13.9650901163
 30
0.0
  0
VERTEX
  8
0
 10
15.7034269159
 20
14.0114998272
 30
0.0
  0
VERTEX
  8
0
 10
15.6842443336
 20
14.0576733692
 30
0.0
  0
VERTEX
  8
0
 10
15.6644860958
 20
14.103603528
 30
0.0
  0
VERTEX
  8
0
 10
15.6441552894
 20
14.149283127
 30
0.0
  0
VERTEX
  8
0
 10
15.6232550913
 20
14.1947050288
 30
0.0
  0
VERTEX
  8
0
 10
15.601788767
 20
14.2398621364
 30
0.0
  0
VERTEX
  8
0
 10
15.5797596706
 20
14.2847473942
 30
0.0
  0
VERTEX
  8
0
 10
15.5571712441
 20
14.3293537887
 30
0.0
  0
VERTEX
  8
0
 10
15.5340270169
 20
14.3736743505
 30
0.0
  0
VERTEX
  8
0
 10
15.5103306052
 20
14.4177021544
 30
0.0
  0
VERTEX
  8
0
 10
15.4860857115
 20
14.4614303213
 30
0.0
  0
VERTEX
  8
0
 10
15.4612961241
 20
14.5048520187
 30
0.0
  0
VERTEX
  8
0
 10
15.4359657163
 20
14.547960462
 30
0.0
  0
VERTEX
  8
0
 10
15.4100984459
 20
14.5907489157
 30
0.0
  0
VERTEX
  8
0
 10
15.3836983546
 20
14.6332106941
 30
0.0
  0
VERTEX
  8
0
 10
15.3567695673
 20
14.6753391627
 30
0.0
  0
VERTEX
  8
0
 10
15.3293162917
 20
14.717127739
 30
0.0
  0
VERTEX
  8
0
 10
15.3013428173
 20
14.7585698936
 30
0.0
  0
VERTEX
  8
0
 10
15.2728535148
 20
14.7996591512
 30
0.0
  0
VERTEX
  8
0
 10
15.2438528356
 20
14.8403890918
 30
0.0
  0
VERTEX
  8
0
 10
15.2143453112
 20
14.8807533513
 30
0.0
  0
VERTEX
  8
0
 10
15.1843355518
 20
14.9207456229
 30
0.0
  0
VERTEX
  8
0
 10
15.1538282466
 20
14.960359658
 30
0.0
  0
VERTEX
  8
0
 10
15.1228281622
 20
14.9995892669
 30
0.0
  0
VERTEX
  8
0
 10
15.0913401422
 20
15.0384283201
 30
0.0
  0
VERTEX
  8
0
 10
15.0593691068
 20
15.076870749
 30
0.0
  0
VERTEX
  8
0
 10
15.0269200512
 20
15.114910547
 30
0.0
  0
VERTEX
  8
0
 10
14.9939980455
 20
15.1525417707
 30
0.0
  0
VERTEX
  8
0
 10
14.9606082338
 20
15.18975854
 30
0.0
  0
VERTEX
  8
0
 10
14.9267558331
 20
15.2265550401
 30
0.0
  0
VERTEX
  8
0
 10
14.8924461329
 20
15.2629255215
 30
0.0
  0
VERTEX
  8
0
 10
14.8576844939
 20
15.2988643014
 30
0.0
  0
VERTEX
  8
0
 10
14.8224763475
 20
15.3343657644
 30
0.0
  0
VERTEX
  8
0
 10
14.786827195
 20
15.3694243636
 30
0.0
  0
VERTEX
  8
0
 10
14.7507426065
 20
15.404034621
 30
0.0
  0
VERTEX
  8
0
 10
14.7142282201
 20
15.438191129
 30
0.0
  0
VERTEX
  8
0
 10
14.6772897412
 20
15.4718885505
 30
0.0
  0
VERTEX
  8
0
 10
14.6399329412
 20
15.5051216206
 30
0.0
  0
VERTEX
  8
0
 10
14.6021636571
 20
15.5378851464
 30
0.0
  0
VERTEX
  8
0
 10
14.5639877903
 20
15.5701740089
 30
0.0
  0
VERTEX
  8
0
 10
14.5254113057
 20
15.601983163
 30
0.0
  0
VERTEX
  8
0
 10
14.4864402307
 20
15.6333076385
 30
0.0
  0
VERTEX
  8
0
 10
14.4470806546
 20
15.6641425411
 30
0.0
  0
VERTEX
  8
0
 10
14.4073387272
 20
15.6944830528
 30
0.0
  0
VERTEX
  8
0
 10
14.367220658
 20
15.724324433
 30
0.0
  0
VERTEX
  8
0
 10
14.3267327155
 20
15.7536620192
 30
0.0
  0
VERTEX
  8
0
 10
14.2858812258
 20
15.7824912272
 30
0.0
  0
VERTEX
  8
0
 10
14.2446725718
 20
15.8108075527
 30
0.0
  0
VERTEX
  8
0
 10
14.2031131924
 20
15.8386065712
 30
0.0
  0
VERTEX
  8
0
 10
14.1612095811
 20
15.8658839392
 30
0.0
  0
VERTEX
  8
0
 10
14.1189682852
 20
15.8926353948
 30
0.0
  0
VERTEX
  8
0
 10
14.076395905
 20
15.9188567579
 30
0.0
  0
VERTEX
  8
0
 10
14.0334990921
 20
15.9445439316
 30
0.0
  0
VERTEX
  8
0
 10
13.9902845492
 20
15.9696929024
 30
0.0
  0
VERTEX
  8
0
 10
13.9467590284
 20
15.9942997407
 30
0.0
  0
VERTEX
  8
0
 10
13.9029293306
 20
16.0183606017
 30
0.0
  0
VERTEX
  8
0
 10
13.858802304
 20
16.0418717261
 30
0.0
  0
VERTEX
  8
0
 10
13.8143848433
 20
16.0648294402
 30
0.0
  0
VERTEX
  8
0
 10
13.7696838888
 20
16.087230157
 30
0.0
  0
VERTEX
  8
0
 10
13.7247064248
 20
16.1090703764
 30
0.0
  0
VERTEX
  8
0
 10
13.679459479
 20
16.1303466859
 30
0.0
  0
VERTEX
  8
0
 10
13.6339501212
 20
16.151055761
 30
0.0
  0
VERTEX
  8
0
 10
13.588185462
 20
16.1711943662
 30
0.0
  0
VERTEX
  8
0
 10
13.5421726521
 20
16.1907593547
 30
0.0
  0
VERTEX
  8
0
 10
13.4959188809
 20
16.2097476695
 30
0.0
  0
VERTEX
  8
0
 10
13.4494313755
 20
16.2281563439
 30
0.0
  0
VERTEX
  8
0
 10
13.4027173995
 20
16.2459825014
 30
0.0
  0
VERTEX
  8
0
 10
13.3557842518
 20
16.2632233567
 30
0.0
  0
VERTEX
  8
0
 10
13.3086392656
 20
16.279876216
 30
0.0
  0
VERTEX
  8
0
 10
13.2612898072
 20
16.2959384774
 30
0.0
  0
VERTEX
  8
0
 10
13.2137432749
 20
16.3114076311
 30
0.0
  0
VERTEX
  8
0
 10
13.1660070978
 20
16.3262812602
 30
0.0
  0
VERTEX
  8
0
 10
13.1180887345
 20
16.3405570405
 30
0.0
  0
VERTEX
  8
0
 10
13.0699956721
 20
16.3542327417
 30
0.0
  0
VERTEX
  8
0
 10
13.0217354252
 20
16.3673062268
 30
0.0
  0
VERTEX
  8
0
 10
12.9733155342
 20
16.3797754532
 30
0.0
  0
VERTEX
  8
0
 10
12.9247435647
 20
16.3916384725
 30
0.0
  0
VERTEX
  8
0
 10
12.876027106
 20
16.4028934313
 30
0.0
  0
VERTEX
  8
0
 10
12.8271737699
 20
16.4135385709
 30
0.0
  0
VERTEX
  8
0
 10
12.7781911896
 20
16.4235722281
 30
0.0
  0
VERTEX
  8
0
 10
12.7290870186
 20
16.4329928351
 30
0.0
  0
VERTEX
  8
0
 10
12.6798689292
 20
16.44179892
 30
0.0
  0
VERTEX
  8
0
 10
12.6305446118
 20
16.4499891068
 30
0.0
  0
VERTEX
  8
0
 10
12.5811217731
 20
16.4575621158
 30
0.0
  0
VERTEX
  8
0
 10
12.5316081354
 20
16.4645167638
 30
0.0
  0
VERTEX
  8
0
 10
12.4820114351
 20
16.4708519642
 30
0.0
  0
VERTEX
  8
0
 10
12.4323394215
 20
16.4765667269
 30
0.0
  0
VERTEX
  8
0
 10
12.3825998558
 20
16.4816601593
 30
0.0
  0
VERTEX
  8
0
 10
12.3328005097
 20
16.4861314653
 30
0.0
  0
VERTEX
  8
0
 10
12.2829491643
 20
16.4899799464
 30
0.0
  0
VERTEX
  8
0
 10
12.2330536087
 20
16.4932050013
 30
0.0
  0
VERTEX
  8
0
 10
12.183121639
 20
16.495806126
 30
0.0
  0
VERTEX
  8
0
 10
12.133161057
 20
16.4977829141
 30
0.0
  0
VERTEX
  8
0
 10
12.0831796688
 20
16.4991350568
 30
0.0
  0
VERTEX
  8
0
 10
12.0331852841
 20
16.4998623427
 30
0.0
  0
VERTEX
  8
0
 10
12.0000003576
 20
16.5
 30
0.0
  0
SEQEND
  8
0
  0
POLYLINE
  8
0
 62
0
 70
0
 66
1
 10
0.0
 20
0.0
 30
0.0
  0
VERTEX
  8
0
 10
12.0000003576
 20
-16.5
 30
0.0
  0
VERTEX
  8
0
 10
12.0499990556
 20
-16.4996875041
 30
0.0
  0
VERTEX
  8
0
 10
12.0999899413
 20
-16.4987500651
 30
0.0
  0
VERTEX
  8
0
 10
12.1499652039
 20
-16.4971878296
 30
0.0
  0
VERTEX
  8
0
 10
12.1999170347
 20
-16.4950010416
 30
0.0
  0
VERTEX
  8
0
 10
12.249837629
 20
-16.4921900428
 30
0.0
  0
VERTEX
  8
0
 10
12.2997191867
 20
-16.4887552724
 30
0.0
  0
VERTEX
  8
0
 10
12.349553914
 20
-16.4846972672
 30
0.0
  0
VERTEX
  8
0
 10
12.3993340242
 20
-16.4800166611
 30
0.0
  0
VERTEX
  8
0
 10
12.4490517394
 20
-16.4747141855
 30
0.0
  0
VERTEX
  8
0
 10
12.4986992912
 20
-16.4687906689
 30
0.0
  0
VERTEX
  8
0
 10
12.5482689223
 20
-16.4622470368
 30
0.0
  0
VERTEX
  8
0
 10
12.5977528875
 20
-16.4550843117
 30
0.0
  0
VERTEX
  8
0
 10
12.6471434552
 20
-16.4473036128
 30
0.0
  0
VERTEX
  8
0
 10
12.696432908
 20
-16.4389061556
 30
0.0
  0
VERTEX
  8
0
 10
12.7456135447
 20
-16.4298932524
 30
0.0
  0
VERTEX
  8
0
 10
12.7946776808
 20
-16.4202663114
 30
0.0
  0
VERTEX
  8
0
 10
12.8436176502
 20
-16.4100268367
 30
0.0
  0
VERTEX
  8
0
 10
12.8924258062
 20
-16.3991764283
 30
0.0
  0
VERTEX
  8
0
 10
12.9410945224
 20
-16.3877167815
 30
0.0
  0
VERTEX
  8
0
 10
12.9896161946
 20
-16.3756496868
 30
0.0
  0
VERTEX
  8
0
 10
13.0379832414
 20
-16.3629770298
 30
0.0
  0
VERTEX
  8
0
 10
13.0861881055
 20
-16.3497007905
 30
0.0
  0
VERTEX
  8
0
 10
13.1342232549
 20
-16.3358230433
 30
0.0
  0
VERTEX
  8
0
 10
13.1820811843
 20
-16.3213459565
 30
0.0
  0
VERTEX
  8
0
 10
13.229754416
 20
-16.3062717922
 30
0.0
  0
VERTEX
  8
0
 10
13.2772355011
 20
-16.2906029057
 30
0.0
  0
VERTEX
  8
0
 10
13.3245170208
 20
-16.2743417451
 30
0.0
  0
VERTEX
  8
0
 10
13.3715915875
 20
-16.2574908514
 30
0.0
  0
VERTEX
  8
0
 10
13.4184518458
 20
-16.2400528573
 30
0.0
  0
VERTEX
  8
0
 10
13.465090474
 20
-16.2220304876
 30
0.0
  0
VERTEX
  8
0
 10
13.5115001848
 20
-16.2034265583
 30
0.0
  0
VERTEX
  8
0
 10
13.5576737269
 20
-16.184243976
 30
0.0
  0
VERTEX
  8
0
 10
13.6036038856
 20
-16.1644857381
 30
0.0
  0
VERTEX
  8
0
 10
13.6492834846
 20
-16.1441549318
 30
0.0
  0
VERTEX
  8
0
 10
13.6947053864
 20
-16.1232547337
 30
0.0
  0
VERTEX
  8
0
 10
13.7398624941
 20
-16.1017884094
 30
0.0
  0
VERTEX
  8
0
 10
13.7847477518
 20
-16.079759313
 30
0.0
  0
VERTEX
  8
0
 10
13.8293541463
 20
-16.0571708865
 30
0.0
  0
VERTEX
  8
0
 10
13.8736747081
 20
-16.0340266593
 30
0.0
  0
VERTEX
  8
0
 10
13.917702512
 20
-16.0103302476
 30
0.0
  0
VERTEX
  8
0
 10
13.9614306789
 20
-15.9860853539
 30
0.0
  0
VERTEX
  8
0
 10
14.0048523763
 20
-15.9612957665
 30
0.0
  0
VERTEX
  8
0
 10
14.0479608197
 20
-15.9359653587
 30
0.0
  0
VERTEX
  8
0
 10
14.0907492734
 20
-15.9100980882
 30
0.0
  0
VERTEX
  8
0
 10
14.1332110518
 20
-15.8836979969
 30
0.0
  0
VERTEX
  8
0
 10
14.1753395204
 20
-15.8567692097
 30
0.0
  0
VERTEX
  8
0
 10
14.2171280966
 20
-15.8293159341
 30
0.0
  0
VERTEX
  8
0
 10
14.2585702512
 20
-15.8013424596
 30
0.0
  0
VERTEX
  8
0
 10
14.2996595088
 20
-15.7728531572
 30
0.0
  0
VERTEX
  8
0
 10
14.3403894494
 20
-15.743852478
 30
0.0
  0
VERTEX
  8
0
 10
14.3807537089
 20
-15.7143449535
 30
0.0
  0
VERTEX
  8
0
 10
14.4207459806
 20
-15.6843351942
 30
0.0
  0
VERTEX
  8
0
 10
14.4603600157
 20
-15.653827889
 30
0.0
  0
VERTEX
  8
0
 10
14.4995896245
 20
-15.6228278045
 30
0.0
  0
VERTEX
  8
0
 10
14.5384286777
 20
-15.5913397846
 30
0.0
  0
VERTEX
  8
0
 10
14.5768711066
 20
-15.5593687491
 30
0.0
  0
VERTEX
  8
0
 10
14.6149109047
 20
-15.5269196935
 30
0.0
  0
VERTEX
  8
0
 10
14.6525421283
 20
-15.4939976879
 30
0.0
  0
VERTEX
  8
0
 10
14.6897588977
 20
-15.4606078762
 30
0.0
  0
VERTEX
  8
0
 10
14.7265553977
 20
-15.4267554755
 30
0.0
  0
VERTEX
  8
0
 10
14.7629258791
 20
-15.3924457752
 30
0.0
  0
VERTEX
  8
0
 10
14.798864659
 20
-15.3576841362
 30
0.0
  0
VERTEX
  8
0
 10
14.8343661221
 20
-15.3224759899
 30
0.0
  0
VERTEX
  8
0
 10
14.8694247212
 20
-15.2868268374
 30
0.0
  0
VERTEX
  8
0
 10
14.9040349787
 20
-15.2507422489
 30
0.0
  0
VERTEX
  8
0
 10
14.9381914866
 20
-15.2142278625
 30
0.0
  0
VERTEX
  8
0
 10
14.9718889082
 20
-15.1772893835
 30
0.0
  0
VERTEX
  8
0
 10
15.0051219782
 20
-15.1399325835
 30
0.0
  0
VERTEX
  8
0
 10
15.0378855041
 20
-15.1021632995
 30
0.0
  0
VERTEX
  8
0
 10
15.0701743666
 20
-15.0639874327
 30
0.0
  0
VERTEX
  8
0
 10
15.1019835206
 20
-15.025410948
 30
0.0
  0
VERTEX
  8
0
 10
15.1333079961
 20
-14.9864398731
 30
0.0
  0
VERTEX
  8
0
 10
15.1641428987
 20
-14.947080297
 30
0.0
  0
VERTEX
  8
0
 10
15.1944834104
 20
-14.9073383695
 30
0.0
  0
VERTEX
  8
0
 10
15.2243247907
 20
-14.8672203004
 30
0.0
  0
VERTEX
  8
0
 10
15.2536623768
 20
-14.8267323579
 30
0.0
  0
VERTEX
  8
0
 10
15.2824915848
 20
-14.7858808681
 30
0.0
  0
VERTEX
  8
0
 10
15.3108079103
 20
-14.7446722142
 30
0.0
  0
VERTEX
  8
0
 10
15.3386069288
 20
-14.7031128348
 30
0.0
  0
VERTEX
  8
0
 10
15.3658842969
 20
-14.6612092235
 30
0.0
  0
VERTEX
  8
0
 10
15.3926357524
 20
-14.6189679276
 30
0.0
  0
VERTEX
  8
0
 10
15.4188571155
 20
-14.5763955473
 30
0.0
  0
VERTEX
  8
0
 10
15.4445442893
 20
-14.5334987345
 30
0.0
  0
VERTEX
  8
0
 10
15.46969326
 20
-14.4902841916
 30
0.0
  0
VERTEX
  8
0
 10
15.4943000983
 20
-14.4467586708
 30
0.0
  0
VERTEX
  8
0
 10
15.5183609594
 20
-14.402928973
 30
0.0
  0
VERTEX
  8
0
 10
15.5418720837
 20
-14.3588019463
 30
0.0
  0
VERTEX
  8
0
 10
15.5648297979
 20
-14.3143844857
 30
0.0
  0
VERTEX
  8
0
 10
15.5872305147
 20
-14.2696835312
 30
0.0
  0
VERTEX
  8
0
 10
15.609070734
 20
-14.2247060672
 30
0.0
  0
VERTEX
  8
0
 10
15.6303470435
 20
-14.1794591214
 30
0.0
  0
VERTEX
  8
0
 10
15.6510561187
 20
-14.1339497635
 30
0.0
  0
VERTEX
  8
0
 10
15.6711947238
 20
-14.0881851043
 30
0.0
  0
VERTEX
  8
0
 10
15.6907597123
 20
-14.0421722945
 30
0.0
  0
VERTEX
  8
0
 10
15.7097480272
 20
-13.9959185233
 30
0.0
  0
VERTEX
  8
0
 10
15.7281567015
 20
-13.9494310179
 30
0.0
  0
VERTEX
  8
0
 10
15.745982859
 20
-13.9027170419
 30
0.0
  0
VERTEX
  8
0
 10
15.7632237143
 20
-13.8557838941
 30
0.0
  0
VERTEX
  8
0
 10
15.7798765737
 20
-13.8086389079
 30
0.0
  0
VERTEX
  8
0
 10
15.7959388351
 20
-13.7612894496
 30
0.0
  0
VERTEX
  8
0
 10
15.8114079888
 20
-13.7137429173
 30
0.0
  0
VERTEX
  8
0
 10
15.8262816178
 20
-13.6660067402
 30
0.0
  0
VERTEX
  8
0
 10
15.8405573982
 20
-13.6180883768
 30
0.0
  0
VERTEX
  8
0
 10
15.8542330993
 20
-13.5699953145
 30
0.0
  0
VERTEX
  8
0
 10
15.8673065844
 20
-13.5217350676
 30
0.0
  0
VERTEX
  8
0
 10
15.8797758108
 20
-13.4733151766
 30
0.0
  0
VERTEX
  8
0
 10
15.8916388302
 20
-13.4247432071
 30
0.0
  0
VERTEX
  8
0
 10
15.9028937889
 20
-13.3760267484
 30
0.0
  0
VERTEX
  8
0
 10
15.9135389285
 20
-13.3271734122
 30
0.0
  0
VERTEX
  8
0
 10
15.9235725857
 20
-13.278190832
 30
0.0
  0
VERTEX
  8
0
 10
15.9329931927
 20
-13.2290866609
 30
0.0
  0
VERTEX
  8
0
 10
15.9417992776
 20
-13.1798685716
 30
0.0
  0
VERTEX
  8
0
 10
15.9499894644
 20
-13.1305442542
 30
0.0
  0
VERTEX
  8
0
 10
15.9575624734
 20
-13.0811214155
 30
0.0
  0
VERTEX
  8
0
 10
15.9645171214
 20
-13.0316077778
 30
0.0
  0
VERTEX
  8
0
 10
15.9708523218
 20
-12.9820110775
 30
0.0
  0
VERTEX
  8
0
 10
15.9765670846
 20
-12.9323390639
 30
0.0
  0
VERTEX
  8
0
 10
15.9816605169
 20
-12.8825994982
 30
0.0
  0
VERTEX
  8
0
 10
15.9861318229
 20
-12.8328001521
 30
0.0
  0
VERTEX
  8
0
 10
15.989980304
 20
-12.7829488067
 30
0.0
  0
VERTEX
  8
0
 10
15.9932053589
 20
-12.7330532511
 30
0.0
  0
VERTEX
  8
0
 10
15.9958064836
 20
-12.6831212814
 30
0.0
  0
VERTEX
  8
0
 10
15.9977832717
 20
-12.6331606993
 30
0.0
  0
VERTEX
  8
0
 10
15.9991354144
 20
-12.5831793112
 30
0.0
  0
VERTEX
  8
0
 10
15.9998627003
 20
-12.5331849265
 30
0.0
  0
VERTEX
  8
0
 10
16.0000003576
 20
-12.5
 30
0.0
  0
SEQEND
  8
0
  0
POLYLINE
  8
0
 62
0
 70
0
 66
1
 10
0.0
 20
0.0
 30
0.0
  0
VERTEX
  8
0
 10
-11.9999996424
 20
16.5
 30
0.0
  0
VERTEX
  8
0
 10
-12.0499983403
 20
16.4996875041
 30
0.0
  0
VERTEX
  8
0
 10
-12.099989226
 20
16.4987500651
 30
0.0
  0
VERTEX
  8
0
 10
-12.1499644886
 20
16.4971878296
 30
0.0
  0
VERTEX
  8
0
 10
-12.1999163195
 20
16.4950010416
 30
0.0
  0
VERTEX
  8
0
 10
-12.2498369137
 20
16.4921900428
 30
0.0
  0
VERTEX
  8
0
 10
-12.2997184715
 20
16.4887552724
 30
0.0
  0
VERTEX
  8
0
 10
-12.3495531987
 20
16.4846972672
 30
0.0
  0
VERTEX
  8
0
 10
-12.399333309
 20
16.4800166611
 30
0.0
  0
VERTEX
  8
0
 10
-12.4490510241
 20
16.4747141855
 30
0.0
  0
VERTEX
  8
0
 10
-12.4986985759
 20
16.4687906689
 30
0.0
  0
VERTEX
  8
0
 10
-12.548268207
 20
16.4622470368
 30
0.0
  0
VERTEX
  8
0
 10
-12.5977521723
 20
16.4550843117
 30
0.0
  0
VERTEX
  8
0
 10
-12.6471427399
 20
16.4473036128
 30
0.0
  0
VERTEX
  8
0
 10
-12.6964321927
 20
16.4389061556
 30
0.0
  0
VERTEX
  8
0
 10
-12.7456128294
 20
16.4298932524
 30
0.0
  0
VERTEX
  8
0
 10
-12.7946769656
 20
16.4202663114
 30
0.0
  0
VERTEX
  8
0
 10
-12.843616935
 20
16.4100268367
 30
0.0
  0
VERTEX
  8
0
 10
-12.8924250909
 20
16.3991764283
 30
0.0
  0
VERTEX
  8
0
 10
-12.9410938072
 20
16.3877167815
 30
0.0
  0
VERTEX
  8
0
 10
-12.9896154794
 20
16.3756496868
 30
0.0
  0
VERTEX
  8
0
 10
-13.0379825262
 20
16.3629770298
 30
0.0
  0
VERTEX
  8
0
 10
-13.0861873902
 20
16.3497007905
 30
0.0
  0
VERTEX
  8
0
 10
-13.1342225396
 20
16.3358230433
 30
0.0
  0
VERTEX
  8
0
 10
-13.182080469
 20
16.3213459565
 30
0.0
  0
VERTEX
  8
0
 10
-13.2297537007
 20
16.3062717922
 30
0.0
  0
VERTEX
  8
0
 10
-13.2772347858
 20
16.2906029057
 30
0.0
  0
VERTEX
  8
0
 10
-13.3245163055
 20
16.2743417451
 30
0.0
  0
VERTEX
  8
0
 10
-13.3715908722
 20
16.2574908514
 30
0.0
  0
VERTEX
  8
0
 10
-13.4184511305
 20
16.2400528573
 30
0.0
  0
VERTEX
  8
0
 10
-13.4650897587
 20
16.2220304876
 30
0.0
  0
VERTEX
  8
0
 10
-13.5114994695
 20
16.2034265583
 30
0.0
  0
VERTEX
  8
0
 10
-13.5576730116
 20
16.184243976
 30
0.0
  0
VERTEX
  8
0
 10
-13.6036031704
 20
16.1644857381
 30
0.0
  0
VERTEX
  8
0
 10
-13.6492827693
 20
16.1441549318
 30
0.0
  0
VERTEX
  8
0
 10
-13.6947046712
 20
16.1232547337
 30
0.0
  0
VERTEX
  8
0
 10
-13.7398617788
 20
16.1017884094
 30
0.0
  0
VERTEX
  8
0
 10
-13.7847470365
 20
16.079759313
 30
0.0
  0
VERTEX
  8
0
 10
-13.8293534311
 20
16.0571708865
 30
0.0
  0
VERTEX
  8
0
 10
-13.8736739928
 20
16.0340266593
 30
0.0
  0
VERTEX
  8
0
 10
-13.9177017968
 20
16.0103302476
 30
0.0
  0
VERTEX
  8
0
 10
-13.9614299637
 20
15.9860853539
 30
0.0
  0
VERTEX
  8
0
 10
-14.0048516611
 20
15.9612957665
 30
0.0
  0
VERTEX
  8
0
 10
-14.0479601044
 20
15.9359653587
 30
0.0
  0
VERTEX
  8
0
 10
-14.0907485581
 20
15.9100980882
 30
0.0
  0
VERTEX
  8
0
 10
-14.1332103365
 20
15.8836979969
 30
0.0
  0
VERTEX
  8
0
 10
-14.1753388051
 20
15.8567692097
 30
0.0
  0
VERTEX
  8
0
 10
-14.2171273814
 20
15.8293159341
 30
0.0
  0
VERTEX
  8
0
 10
-14.258569536
 20
15.8013424596
 30
0.0
  0
VERTEX
  8
0
 10
-14.2996587936
 20
15.7728531572
 30
0.0
  0
VERTEX
  8
0
 10
-14.3403887341
 20
15.743852478
 30
0.0
  0
VERTEX
  8
0
 10
-14.3807529937
 20
15.7143449535
 30
0.0
  0
VERTEX
  8
0
 10
-14.4207452653
 20
15.6843351942
 30
0.0
  0
VERTEX
  8
0
 10
-14.4603593004
 20
15.653827889
 30
0.0
  0
VERTEX
  8
0
 10
-14.4995889093
 20
15.6228278045
 30
0.0
  0
VERTEX
  8
0
 10
-14.5384279624
 20
15.5913397846
 30
0.0
  0
VERTEX
  8
0
 10
-14.5768703913
 20
15.5593687491
 30
0.0
  0
VERTEX
  8
0
 10
-14.6149101894
 20
15.5269196935
 30
0.0
  0
VERTEX
  8
0
 10
-14.652541413
 20
15.4939976879
 30
0.0
  0
VERTEX
  8
0
 10
-14.6897581824
 20
15.4606078762
 30
0.0
  0
VERTEX
  8
0
 10
-14.7265546825
 20
15.4267554755
 30
0.0
  0
VERTEX
  8
0
 10
-14.7629251639
 20
15.3924457752
 30
0.0
  0
VERTEX
  8
0
 10
-14.7988639438
 20
15.3576841362
 30
0.0
  0
VERTEX
  8
0
 10
-14.8343654068
 20
15.3224759899
 30
0.0
  0
VERTEX
  8
0
 10
-14.869424006
 20
15.2868268374
 30
0.0
  0
VERTEX
  8
0
 10
-14.9040342634
 20
15.2507422489
 30
0.0
  0
VERTEX
  8
0
 10
-14.9381907714
 20
15.2142278625
 30
0.0
  0
VERTEX
  8
0
 10
-14.9718881929
 20
15.1772893835
 30
0.0
  0
VERTEX
  8
0
 10
-15.0051212629
 20
15.1399325835
 30
0.0
  0
VERTEX
  8
0
 10
-15.0378847888
 20
15.1021632995
 30
0.0
  0
VERTEX
  8
0
 10
-15.0701736513
 20
15.0639874327
 30
0.0
  0
VERTEX
  8
0
 10
-15.1019828054
 20
15.025410948
 30
0.0
  0
VERTEX
  8
0
 10
-15.1333072809
 20
14.9864398731
 30
0.0
  0
VERTEX
  8
0
 10
-15.1641421834
 20
14.947080297
 30
0.0
  0
VERTEX
  8
0
 10
-15.1944826952
 20
14.9073383695
 30
0.0
  0
VERTEX
  8
0
 10
-15.2243240754
 20
14.8672203004
 30
0.0
  0
VERTEX
  8
0
 10
-15.2536616615
 20
14.8267323579
 30
0.0
  0
VERTEX
  8
0
 10
-15.2824908696
 20
14.7858808681
 30
0.0
  0
VERTEX
  8
0
 10
-15.310807195
 20
14.7446722142
 30
0.0
  0
VERTEX
  8
0
 10
-15.3386062136
 20
14.7031128348
 30
0.0
  0
VERTEX
  8
0
 10
-15.3658835816
 20
14.6612092235
 30
0.0
  0
VERTEX
  8
0
 10
-15.3926350371
 20
14.6189679276
 30
0.0
  0
VERTEX
  8
0
 10
-15.4188564003
 20
14.5763955473
 30
0.0
  0
VERTEX
  8
0
 10
-15.444543574
 20
14.5334987345
 30
0.0
  0
VERTEX
  8
0
 10
-15.4696925447
 20
14.4902841916
 30
0.0
  0
VERTEX
  8
0
 10
-15.494299383
 20
14.4467586708
 30
0.0
  0
VERTEX
  8
0
 10
-15.5183602441
 20
14.402928973
 30
0.0
  0
VERTEX
  8
0
 10
-15.5418713685
 20
14.3588019463
 30
0.0
  0
VERTEX
  8
0
 10
-15.5648290826
 20
14.3143844857
 30
0.0
  0
VERTEX
  8
0
 10
-15.5872297994
 20
14.2696835312
 30
0.0
  0
VERTEX
  8
0
 10
-15.6090700188
 20
14.2247060672
 30
0.0
  0
VERTEX
  8
0
 10
-15.6303463282
 20
14.1794591214
 30
0.0
  0
VERTEX
  8
0
 10
-15.6510554034
 20
14.1339497635
 30
0.0
  0
VERTEX
  8
0
 10
-15.6711940086
 20
14.0881851043
 30
0.0
  0
VERTEX
  8
0
 10
-15.6907589971
 20
14.0421722945
 30
0.0
  0
VERTEX
  8
0
 10
-15.7097473119
 20
13.9959185233
 30
0.0
  0
VERTEX
  8
0
 10
-15.7281559862
 20
13.9494310179
 30
0.0
  0
VERTEX
  8
0
 10
-15.7459821437
 20
13.9027170419
 30
0.0
  0
VERTEX
  8
0
 10
-15.7632229991
 20
13.8557838941
 30
0.0
  0
VERTEX
  8
0
 10
-15.7798758584
 20
13.8086389079
 30
0.0
  0
VERTEX
  8
0
 10
-15.7959381198
 20
13.7612894496
 30
0.0
  0
VERTEX
  8
0
 10
-15.8114072735
 20
13.7137429173
 30
0.0
  0
VERTEX
  8
0
 10
-15.8262809025
 20
13.6660067402
 30
0.0
  0
VERTEX
  8
0
 10
-15.8405566829
 20
13.6180883769
 30
0.0
  0
VERTEX
  8
0
 10
-15.854232384
 20
13.5699953145
 30
0.0
  0
VERTEX
  8
0
 10
-15.8673058692
 20
13.5217350676
 30
0.0
  0
VERTEX
  8
0
 10
-15.8797750955
 20
13.4733151766
 30
0.0
  0
VERTEX
  8
0
 10
-15.8916381149
 20
13.4247432071
 30
0.0
  0
VERTEX
  8
0
 10
-15.9028930737
 20
13.3760267484
 30
0.0
  0
VERTEX
  8
0
 10
-15.9135382133
 20
13.3271734122
 30
0.0
  0
VERTEX
  8
0
 10
-15.9235718705
 20
13.278190832
 30
0.0
  0
VERTEX
  8
0
 10
-15.9329924775
 20
13.2290866609
 30
0.0
  0
VERTEX
  8
0
 10
-15.9417985623
 20
13.1798685716
 30
0.0
  0
VERTEX
  8
0
 10
-15.9499887491
 20
13.1305442542
 30
0.0
  0
VERTEX
  8
0
 10
-15.9575617582
 20
13.0811214155
 30
0.0
  0
VERTEX
  8
0
 10
-15.9645164062
 20
13.0316077778
 30
0.0
  0
VERTEX
  8
0
 10
-15.9708516065
 20
12.9820110775
 30
0.0
  0
VERTEX
  8
0
 10
-15.9765663693
 20
12.9323390639
 30
0.0
  0
VERTEX
  8
0
 10
-15.9816598017
 20
12.8825994982
 30
0.0
  0
VERTEX
  8
0
 10
-15.9861311077
 20
12.8328001521
 30
0.0
  0
VERTEX
  8
0
 10
-15.9899795888
 20
12.7829488067
 30
0.0
  0
VERTEX
  8
0
 10
-15.9932046436
 20
12.7330532511
 30
0.0
  0
VERTEX
  8
0
 10
-15.9958057683
 20
12.6831212814
 30
0.0
  0
VERTEX
  8
0
 10
-15.9977825565
 20
12.6331606993
 30
0.0
  0
VERTEX
  8
0
 10
-15.9991346991
 20
12.5831793112
 30
0.0
  0
VERTEX
  8
0
 10
-15.9998619851
 20
12.5331849265
 30
0.0
  0
VERTEX
  8
0
 10
-15.9999996424
 20
12.5
 30
0.0
  0
SEQEND
  8
0
  0
POLYLINE
  8
0
 62
0
 70
0
 66
1
 10
0.0
 20
0.0
 30
0.0
  0
VERTEX
  8
0
 10
-15.9999996424
 20
-12.5
 30
0.0
  0
VERTEX
  8
0
 10
-15.9996871464
 20
-12.5499986979
 30
0.0
  0
VERTEX
  8
0
 10
-15.9987497075
 20
-12.5999895837
 30
0.0
  0
VERTEX
  8
0
 10
-15.9971874719
 20
-12.6499648462
 30
0.0
  0
VERTEX
  8
0
 10
-15.995000684
 20
-12.6999166771
 30
0.0
  0
VERTEX
  8
0
 10
-15.9921896852
 20
-12.7498372714
 30
0.0
  0
VERTEX
  8
0
 10
-15.9887549148
 20
-12.7997188291
 30
0.0
  0
VERTEX
  8
0
 10
-15.9846969096
 20
-12.8495535564
 30
0.0
  0
VERTEX
  8
0
 10
-15.9800163035
 20
-12.8993336666
 30
0.0
  0
VERTEX
  8
0
 10
-15.9747138279
 20
-12.9490513817
 30
0.0
  0
VERTEX
  8
0
 10
-15.9687903113
 20
-12.9986989335
 30
0.0
  0
VERTEX
  8
0
 10
-15.9622466792
 20
-13.0482685646
 30
0.0
  0
VERTEX
  8
0
 10
-15.9550839541
 20
-13.0977525299
 30
0.0
  0
VERTEX
  8
0
 10
-15.9473032551
 20
-13.1471430975
 30
0.0
  0
VERTEX
  8
0
 10
-15.938905798
 20
-13.1964325504
 30
0.0
  0
VERTEX
  8
0
 10
-15.9298928948
 20
-13.245613187
 30
0.0
  0
VERTEX
  8
0
 10
-15.9202659537
 20
-13.2946773232
 30
0.0
  0
VERTEX
  8
0
 10
-15.9100264791
 20
-13.3436172926
 30
0.0
  0
VERTEX
  8
0
 10
-15.8991760706
 20
-13.3924254485
 30
0.0
  0
VERTEX
  8
0
 10
-15.8877164238
 20
-13.4410941648
 30
0.0
  0
VERTEX
  8
0
 10
-15.8756493292
 20
-13.489615837
 30
0.0
  0
VERTEX
  8
0
 10
-15.8629766722
 20
-13.5379828838
 30
0.0
  0
VERTEX
  8
0
 10
-15.8497004329
 20
-13.5861877478
 30
0.0
  0
VERTEX
  8
0
 10
-15.8358226857
 20
-13.6342228972
 30
0.0
  0
VERTEX
  8
0
 10
-15.8213455989
 20
-13.6820808266
 30
0.0
  0
VERTEX
  8
0
 10
-15.8062714346
 20
-13.7297540583
 30
0.0
  0
VERTEX
  8
0
 10
-15.790602548
 20
-13.7772351434
 30
0.0
  0
VERTEX
  8
0
 10
-15.7743413875
 20
-13.8245166631
 30
0.0
  0
VERTEX
  8
0
 10
-15.7574904938
 20
-13.8715912298
 30
0.0
  0
VERTEX
  8
0
 10
-15.7400524997
 20
-13.9184514882
 30
0.0
  0
VERTEX
  8
0
 10
-15.72203013
 20
-13.9650901163
 30
0.0
  0
VERTEX
  8
0
 10
-15.7034262006
 20
-14.0114998272
 30
0.0
  0
VERTEX
  8
0
 10
-15.6842436184
 20
-14.0576733692
 30
0.0
  0
VERTEX
  8
0
 10
-15.6644853805
 20
-14.103603528
 30
0.0
  0
VERTEX
  8
0
 10
-15.6441545742
 20
-14.149283127
 30
0.0
  0
VERTEX
  8
0
 10
-15.6232543761
 20
-14.1947050288
 30
0.0
  0
VERTEX
  8
0
 10
-15.6017880518
 20
-14.2398621364
 30
0.0
  0
VERTEX
  8
0
 10
-15.5797589554
 20
-14.2847473942
 30
0.0
  0
VERTEX
  8
0
 10
-15.5571705289
 20
-14.3293537887
 30
0.0
  0
VERTEX
  8
0
 10
-15.5340263016
 20
-14.3736743505
 30
0.0
  0
VERTEX
  8
0
 10
-15.5103298899
 20
-14.4177021544
 30
0.0
  0
VERTEX
  8
0
 10
-15.4860849963
 20
-14.4614303213
 30
0.0
  0
VERTEX
  8
0
 10
-15.4612954089
 20
-14.5048520187
 30
0.0
  0
VERTEX
  8
0
 10
-15.435965001
 20
-14.547960462
 30
0.0
  0
VERTEX
  8
0
 10
-15.4100977306
 20
-14.5907489157
 30
0.0
  0
VERTEX
  8
0
 10
-15.3836976393
 20
-14.6332106941
 30
0.0
  0
VERTEX
  8
0
 10
-15.3567688521
 20
-14.6753391627
 30
0.0
  0
VERTEX
  8
0
 10
-15.3293155765
 20
-14.717127739
 30
0.0
  0
VERTEX
  8
0
 10
-15.301342102
 20
-14.7585698936
 30
0.0
  0
VERTEX
  8
0
 10
-15.2728527995
 20
-14.7996591512
 30
0.0
  0
VERTEX
  8
0
 10
-15.2438521204
 20
-14.8403890918
 30
0.0
  0
VERTEX
  8
0
 10
-15.2143445959
 20
-14.8807533513
 30
0.0
  0
VERTEX
  8
0
 10
-15.1843348366
 20
-14.9207456229
 30
0.0
  0
VERTEX
  8
0
 10
-15.1538275313
 20
-14.960359658
 30
0.0
  0
VERTEX
  8
0
 10
-15.1228274469
 20
-14.9995892669
 30
0.0
  0
VERTEX
  8
0
 10
-15.091339427
 20
-15.0384283201
 30
0.0
  0
VERTEX
  8
0
 10
-15.0593683915
 20
-15.076870749
 30
0.0
  0
VERTEX
  8
0
 10
-15.0269193359
 20
-15.114910547
 30
0.0
  0
VERTEX
  8
0
 10
-14.9939973302
 20
-15.1525417707
 30
0.0
  0
VERTEX
  8
0
 10
-14.9606075185
 20
-15.18975854
 30
0.0
  0
VERTEX
  8
0
 10
-14.9267551179
 20
-15.2265550401
 30
0.0
  0
VERTEX
  8
0
 10
-14.8924454176
 20
-15.2629255215
 30
0.0
  0
VERTEX
  8
0
 10
-14.8576837786
 20
-15.2988643014
 30
0.0
  0
VERTEX
  8
0
 10
-14.8224756322
 20
-15.3343657644
 30
0.0
  0
VERTEX
  8
0
 10
-14.7868264798
 20
-15.3694243636
 30
0.0
  0
VERTEX
  8
0
 10
-14.7507418913
 20
-15.404034621
 30
0.0
  0
VERTEX
  8
0
 10
-14.7142275049
 20
-15.438191129
 30
0.0
  0
VERTEX
  8
0
 10
-14.6772890259
 20
-15.4718885505
 30
0.0
  0
VERTEX
  8
0
 10
-14.6399322259
 20
-15.5051216206
 30
0.0
  0
VERTEX
  8
0
 10
-14.6021629418
 20
-15.5378851464
 30
0.0
  0
VERTEX
  8
0
 10
-14.563987075
 20
-15.5701740089
 30
0.0
  0
VERTEX
  8
0
 10
-14.5254105904
 20
-15.601983163
 30
0.0
  0
VERTEX
  8
0
 10
-14.4864395155
 20
-15.6333076385
 30
0.0
  0
VERTEX
  8
0
 10
-14.4470799393
 20
-15.6641425411
 30
0.0
  0
VERTEX
  8
0
 10
-14.4073380119
 20
-15.6944830528
 30
0.0
  0
VERTEX
  8
0
 10
-14.3672199427
 20
-15.724324433
 30
0.0
  0
VERTEX
  8
0
 10
-14.3267320002
 20
-15.7536620192
 30
0.0
  0
VERTEX
  8
0
 10
-14.2858805105
 20
-15.7824912272
 30
0.0
  0
VERTEX
  8
0
 10
-14.2446718566
 20
-15.8108075527
 30
0.0
  0
VERTEX
  8
0
 10
-14.2031124772
 20
-15.8386065712
 30
0.0
  0
VERTEX
  8
0
 10
-14.1612088658
 20
-15.8658839392
 30
0.0
  0
VERTEX
  8
0
 10
-14.11896757
 20
-15.8926353948
 30
0.0
  0
VERTEX
  8
0
 10
-14.0763951897
 20
-15.9188567579
 30
0.0
  0
VERTEX
  8
0
 10
-14.0334983768
 20
-15.9445439316
 30
0.0
  0
VERTEX
  8
0
 10
-13.9902838339
 20
-15.9696929024
 30
0.0
  0
VERTEX
  8
0
 10
-13.9467583132
 20
-15.9942997407
 30
0.0
  0
VERTEX
  8
0
 10
-13.9029286153
 20
-16.0183606017
 30
0.0
  0
VERTEX
  8
0
 10
-13.8588015887
 20
-16.0418717261
 30
0.0
  0
VERTEX
  8
0
 10
-13.8143841281
 20
-16.0648294402
 30
0.0
  0
VERTEX
  8
0
 10
-13.7696831735
 20
-16.087230157
 30
0.0
  0
VERTEX
  8
0
 10
-13.7247057096
 20
-16.1090703764
 30
0.0
  0
VERTEX
  8
0
 10
-13.6794587638
 20
-16.1303466859
 30
0.0
  0
VERTEX
  8
0
 10
-13.6339494059
 20
-16.151055761
 30
0.0
  0
VERTEX
  8
0
 10
-13.5881847467
 20
-16.1711943662
 30
0.0
  0
VERTEX
  8
0
 10
-13.5421719368
 20
-16.1907593547
 30
0.0
  0
VERTEX
  8
0
 10
-13.4959181657
 20
-16.2097476695
 30
0.0
  0
VERTEX
  8
0
 10
-13.4494306603
 20
-16.2281563439
 30
0.0
  0
VERTEX
  8
0
 10
-13.4027166842
 20
-16.2459825014
 30
0.0
  0
VERTEX
  8
0
 10
-13.3557835365
 20
-16.2632233567
 30
0.0
  0
VERTEX
  8
0
 10
-13.3086385503
 20
-16.279876216
 30
0.0
  0
VERTEX
  8
0
 10
-13.261289092
 20
-16.2959384774
 30
0.0
  0
VERTEX
  8
0
 10
-13.2137425597
 20
-16.3114076311
 30
0.0
  0
VERTEX
  8
0
 10
-13.1660063825
 20
-16.3262812602
 30
0.0
  0
VERTEX
  8
0
 10
-13.1180880192
 20
-16.3405570405
 30
0.0
  0
VERTEX
  8
0
 10
-13.0699949569
 20
-16.3542327417
 30
0.0
  0
VERTEX
  8
0
 10
-13.0217347099
 20
-16.3673062268
 30
0.0
  0
VERTEX
  8
0
 10
-12.973314819
 20
-16.3797754532
 30
0.0
  0
VERTEX
  8
0
 10
-12.9247428495
 20
-16.3916384725
 30
0.0
  0
VERTEX
  8
0
 10
-12.8760263907
 20
-16.4028934313
 30
0.0
  0
VERTEX
  8
0
 10
-12.8271730546
 20
-16.4135385709
 30
0.0
  0
VERTEX
  8
0
 10
-12.7781904743
 20
-16.4235722281
 30
0.0
  0
VERTEX
  8
0
 10
-12.7290863033
 20
-16.4329928351
 30
0.0
  0
VERTEX
  8
0
 10
-12.679868214
 20
-16.44179892
 30
0.0
  0
VERTEX
  8
0
 10
-12.6305438966
 20
-16.4499891068
 30
0.0
  0
VERTEX
  8
0
 10
-12.5811210579
 20
-16.4575621158
 30
0.0
  0
VERTEX
  8
0
 10
-12.5316074202
 20
-16.4645167638
 30
0.0
  0
VERTEX
  8
0
 10
-12.4820107198
 20
-16.4708519642
 30
0.0
  0
VERTEX
  8
0
 10
-12.4323387062
 20
-16.4765667269
 30
0.0
  0
VERTEX
  8
0
 10
-12.3825991406
 20
-16.4816601593
 30
0.0
  0
VERTEX
  8
0
 10
-12.3327997945
 20
-16.4861314653
 30
0.0
  0
VERTEX
  8
0
 10
-12.282948449
 20
-16.4899799464
 30
0.0
  0
VERTEX
  8
0
 10
-12.2330528934
 20
-16.4932050013
 30
0.0
  0
VERTEX
  8
0
 10
-12.1831209237
 20
-16.495806126
 30
0.0
  0
VERTEX
  8
0
 10
-12.1331603417
 20
-16.4977829141
 30
0.0
  0
VERTEX
  8
0
 10
-12.0831789536
 20
-16.4991350568
 30
0.0
  0
VERTEX
  8
0
 10
-12.0331845689
 20
-16.4998623427
 30
0.0
  0
VERTEX
  8
0
 10
-11.9999996424
 20
-16.5
 30
0.0
  0
SEQEND
  8
0
  0
LINE
  8
0
 62
0
 10
16.0000003576
 20
12.5
 30
0.0
 11
16.0000003576
 21
-12.5
 31
0.0
  0
LINE
  8
0
 62
0
 10
-11.9999996424
 20
16.5
 30
0.0
 11
12.0000003576
 21
16.5
 31
0.0
  0
LINE
  8
0
 62
0
 10
12.0000003576
 20
-16.5
 30
0.0
 11
-11.9999996424
 21
-16.5
 31
0.0
  0
LINE
  8
0
 62
0
 10
-15.9999996424
 20
-12.5
 30
0.0
 11
-15.9999996424
 21
12.5
 31
0.0
  0
LINE
  8
0
 62
0
 10
9.00000035763
 20
-6.0
 30
0.0
 11
9.00000035763
 21
-3.0
 31
0.0
  0
LINE
  8
0
 62
0
 10
3.00000035763
 20
-6.0
 30
0.0
 11
9.00000035763
 21
-6.0
 31
0.0
  0
LINE
  8
0
 62
0
 10
3.00000035763
 20
-3.0
 30
0.0
 11
3.00000035763
 21
-6.0
 31
0.0
  0
LINE
  8
0
 62
0
 10
9.00000035763
 20
-3.0
 30
0.0
 11
3.00000035763
 21
-3.0
 31
0.0
  0
LINE
  8
0
 62
0
 10
3.00000035763
 20
3.0
 30
0.0
 11
9.00000035763
 21
3.0
 31
0.0
  0
LINE
  8
0
 62
0
 10
3.00000035763
 20
6.0
 30
0.0
 11
3.00000035763
 21
3.0
 31
0.0
  0
LINE
  8
0
 62
0
 10
9.00000035763
 20
6.0
 30
0.0
 11
3.00000035763
 21
6.0
 31
0.0
  0
LINE
  8
0
 62
0
 10
9.00000035763
 20
3.0
 30
0.0
 11
9.00000035763
 21
6.0
 31
0.0
  0
LINE
  8
0
 62
0
 10
-8.99999964237
 20
3.0
 30
0.0
 11
-2.99999964237
 21
3.0
 31
0.0
  0
LINE
  8
0
 62
0
 10
-8.99999964237
 20
6.0
 30
0.0
 11
-8.99999964237
 21
3.0
 31
0.0
  0
LINE
  8
0
 62
0
 10
-2.99999964237
 20
6.0
 30
0.0
 11
-8.99999964237
 21
6.0
 31
0.0
  0
LINE
  8
0
 62
0
 10
-2.99999964237
 20
3.0
 30
0.0
 11
-2.99999964237
 21
6.0
 31
0.0
  0
LINE
  8
0
 62
0
 10
-8.99999964237
 20
-3.0
 30
0.0
 11
-8.99999964237
 21
-6.0
 31
0.0
  0
LINE
  8
0
 62
0
 10
-2.99999964237
 20
-3.0
 30
0.0
 11
-8.99999964237
 21
-3.0
 31
0.0
  0
LINE
  8
0
 62
0
 10
-2.99999964237
 20
-6.0
 30
0.0
 11
-2.99999964237
 21
-3.0
 31
0.0
  0
LINE
  8
0
 62
0
 10
-8.99999964237
 20
-6.0
 30
0.0
 11
-2.99999964237
 21
-6.0
 31
0.0
  0
ENDBLK
  0
ENDSEC
  0
SECTION
  2
ENTITIES
  0
INSERT
  2
BODY010
  8
0
 62
0
 10
0.0
 20
0.0
 30
0.0
  0
ENDSEC
  0
EOF
