999
dxflib 3.12.2.0
  0
SECTION
  2
HEADER
  9
$ACADVER
  1
AC1015
  9
$HANDSEED
  5
FFFF
  9
$DIMADEC
 70
0
  9
$DIMASZ
 40
0.18
  9
$DIMAUNIT
 70
0
  9
$DIMAZIN
 70
0
  9
$DIMDEC
 70
4
  9
$DIMEXE
 40
0.18
  9
$DIMEXO
 40
0.0625
  9
$DIMGAP
 40
0.09
  9
$DIMLUNIT
 70
2
  9
$DIMSCALE
 40
1.0
  9
$DIMTSZ
 40
0.0
  9
$DIMTXT
 40
0.18
  9
$DIMZIN
 70
0
  9
$DWGCODEPAGE
  3
ANSI_1252
  9
$EXTMAX
 10
0.0
 20
0.0
 30
0.0
  9
$EXTMIN
 10
0.0
 20
0.0
 30
0.0
  9
$INSBASE
 10
0.0
 20
0.0
 30
0.0
  9
$INSUNITS
 70
0
  9
$LTSCALE
 40
1.0
  9
$MAXACTVP
 70
32
  9
$MEASUREMENT
 70
1
  9
$PDMODE
 70
0
  9
$PDSIZE
 40
0
  0
ENDSEC
  0
SECTION
  2
TABLES
  0
TABLE
  2
VPORT
  5
8
100
AcDbSymbolTable
 70
1
  0
VPORT
  5
30
100
AcDbSymbolTableRecord
100
AcDbViewportTableRecord
  2
*Active
 70
0
 10
0.0
 20
0.0
 11
1.0
 21
1.0
 12
286.3055555555554861
 22
148.5
 13
0.0
 23
0.0
 14
10.0
 24
10.0
 15
10.0
 25
10.0
 16
0.0
 26
0.0
 36
1.0
 17
0.0
 27
0.0
 37
0.0
 40
297.0
 41
1.92798353909465
 42
50.0
 43
0.0
 44
0.0
 50
0.0
 51
0.0
 71
0
 72
100
 73
1
 74
3
 75
1
 76
1
 77
0
 78
0
281
0
 65
1
110
0.0
120
0.0
130
0.0
111
1.0
121
0.0
131
0.0
112
0.0
122
1.0
132
0.0
 79
0
146
0.0
  0
ENDTAB
  0
TABLE
  2
LTYPE
  5
5
100
AcDbSymbolTable
 70
41
  0
LTYPE
  5
16
100
AcDbSymbolTableRecord
100
AcDbLinetypeTableRecord
  2
CONTINUOUS
 70
0
  3
Solid line
 72
65
 73
0
 40
0.0
  0
LTYPE
  5
31
100
AcDbSymbolTableRecord
100
AcDbLinetypeTableRecord
  2
ACAD_ISO15W100
 70
0
  3
ISO double-dash triple-dot __ __ . . . __ __ . .
 72
65
 73
10
 40
39.0
 49
12.0
 74
0
 49
-3.0
 74
0
 49
12.0
 74
0
 49
-3.0
 74
0
 49
0.0
 74
0
 49
-3.0
 74
0
 49
0.0
 74
0
 49
-3.0
 74
0
 49
0.0
 74
0
 49
-3.0
 74
0
  0
LTYPE
  5
32
100
AcDbSymbolTableRecord
100
AcDbLinetypeTableRecord
  2
DIVIDE
 70
0
  3
Divide ____ . . ____ . . ____ . . ____ . . ____
 72
65
 73
6
 40
31.75
 49
12.6999999999999993
 74
0
 49
-6.3499999999999996
 74
0
 49
0.0
 74
0
 49
-6.3499999999999996
 74
0
 49
0.0
 74
0
 49
-6.3499999999999996
 74
0
  0
LTYPE
  5
33
100
AcDbSymbolTableRecord
100
AcDbLinetypeTableRecord
  2
ACAD_ISO10W100
 70
0
  3
ISO dash dot __ . __ . __ . __ . __ . __ . __ . 
 72
65
 73
4
 40
18.0
 49
12.0
 74
0
 49
-3.0
 74
0
 49
0.0
 74
0
 49
-3.0
 74
0
  0
LTYPE
  5
34
100
AcDbSymbolTableRecord
100
AcDbLinetypeTableRecord
  2
ACAD_ISO04W100
 70
0
  3
ISO long-dash dot ____ . ____ . ____ . ____ . _
 72
65
 73
4
 40
30.0
 49
24.0
 74
0
 49
-3.0
 74
0
 49
0.0
 74
0
 49
-3.0
 74
0
  0
LTYPE
  5
35
100
AcDbSymbolTableRecord
100
AcDbLinetypeTableRecord
  2
CENTER2
 70
0
  3
Center (.5x) ___ _ ___ _ ___ _ ___ _ ___ _ ___
 72
65
 73
4
 40
28.5750000000000028
 49
19.0500000000000007
 74
0
 49
-3.1749999999999998
 74
0
 49
3.1749999999999998
 74
0
 49
-3.1749999999999998
 74
0
  0
LTYPE
  5
36
100
AcDbSymbolTableRecord
100
AcDbLinetypeTableRecord
  2
ACAD_ISO11W100
 70
0
  3
ISO double-dash dot __ __ . __ __ . __ __ . __ _
 72
65
 73
6
 40
33.0
 49
12.0
 74
0
 49
-3.0
 74
0
 49
12.0
 74
0
 49
-3.0
 74
0
 49
0.0
 74
0
 49
-3.0
 74
0
  0
LTYPE
  5
37
100
AcDbSymbolTableRecord
100
AcDbLinetypeTableRecord
  2
HIDDEN2
 70
0
  3
Hidden (.5x) _ _ _ _ _ _ _ _ _ _ _ _ _ _ _ _ _ 
 72
65
 73
2
 40
4.7624999999999993
 49
3.1749999999999998
 74
0
 49
-1.5874999999999999
 74
0
  0
LTYPE
  5
38
100
AcDbSymbolTableRecord
100
AcDbLinetypeTableRecord
  2
BORDERX2
 70
0
  3
Border (2x) ____  ____  .  ____  ____  .  ___
 72
65
 73
6
 40
88.8999999999999915
 49
25.3999999999999986
 74
0
 49
-12.6999999999999993
 74
0
 49
25.3999999999999986
 74
0
 49
-12.6999999999999993
 74
0
 49
0.0
 74
0
 49
-12.6999999999999993
 74
0
  0
LTYPE
  5
39
100
AcDbSymbolTableRecord
100
AcDbLinetypeTableRecord
  2
ACAD_ISO05W100
 70
0
  3
ISO long-dash double-dot ____ .. ____ .. ____ . 
 72
65
 73
6
 40
33.0
 49
24.0
 74
0
 49
-3.0
 74
0
 49
0.0
 74
0
 49
-3.0
 74
0
 49
0.0
 74
0
 49
-3.0
 74
0
  0
LTYPE
  5
3A
100
AcDbSymbolTableRecord
100
AcDbLinetypeTableRecord
  2
DASHDOTX2
 70
0
  3
Dash dot (2x) ____  .  ____  .  ____  .  ___
 72
65
 73
4
 40
50.7999999999999972
 49
25.3999999999999986
 74
0
 49
-12.6999999999999993
 74
0
 49
0.0
 74
0
 49
-12.6999999999999993
 74
0
  0
LTYPE
  5
3B
100
AcDbSymbolTableRecord
100
AcDbLinetypeTableRecord
  2
HIDDENX2
 70
0
  3
Hidden (2x) ____ ____ ____ ____ ____ ____ ____ 
 72
65
 73
2
 40
19.0499999999999972
 49
12.6999999999999993
 74
0
 49
-6.3499999999999996
 74
0
  0
LTYPE
  5
3C
100
AcDbSymbolTableRecord
100
AcDbLinetypeTableRecord
  2
CENTERX2
 70
0
  3
Center (2x) ________  __  ________  __  _____
 72
65
 73
4
 40
101.6000000000000085
 49
63.5
 74
0
 49
-12.6999999999999993
 74
0
 49
12.6999999999999993
 74
0
 49
-12.6999999999999993
 74
0
  0
LTYPE
  5
3D
100
AcDbSymbolTableRecord
100
AcDbLinetypeTableRecord
  2
BORDER2
 70
0
  3
Border (.5x) __.__.__.__.__.__.__.__.__.__.__.
 72
65
 73
6
 40
22.2249999999999979
 49
6.3499999999999996
 74
0
 49
-3.1749999999999998
 74
0
 49
6.3499999999999996
 74
0
 49
-3.1749999999999998
 74
0
 49
0.0
 74
0
 49
-3.1749999999999998
 74
0
  0
LTYPE
  5
3E
100
AcDbSymbolTableRecord
100
AcDbLinetypeTableRecord
  2
DASHDOT2
 70
0
  3
Dash dot (.5x) _._._._._._._._._._._._._._._.
 72
65
 73
4
 40
12.6999999999999993
 49
6.3499999999999996
 74
0
 49
-3.1749999999999998
 74
0
 49
0.0
 74
0
 49
-3.1749999999999998
 74
0
  0
LTYPE
  5
3F
100
AcDbSymbolTableRecord
100
AcDbLinetypeTableRecord
  2
ACAD_ISO12W100
 70
0
  3
ISO dash double-dot __ . . __ . . __ . . __ . . 
 72
65
 73
6
 40
21.0
 49
12.0
 74
0
 49
-3.0
 74
0
 49
0.0
 74
0
 49
-3.0
 74
0
 49
0.0
 74
0
 49
-3.0
 74
0
  0
LTYPE
  5
40
100
AcDbSymbolTableRecord
100
AcDbLinetypeTableRecord
  2
ACAD_ISO07W100
 70
0
  3
ISO dot . . . . . . . . . . . . . . . . . . . . 
 72
65
 73
2
 40
3.0
 49
0.0
 74
0
 49
-3.0
 74
0
  0
LTYPE
  5
41
100
AcDbSymbolTableRecord
100
AcDbLinetypeTableRecord
  2
HIDDEN
 70
0
  3
Hidden __ __ __ __ __ __ __ __ __ __ __ __ __ __
 72
65
 73
2
 40
9.5249999999999986
 49
6.3499999999999996
 74
0
 49
-3.1749999999999998
 74
0
  0
LTYPE
  5
42
100
AcDbSymbolTableRecord
100
AcDbLinetypeTableRecord
  2
ACAD_ISO06W100
 70
0
  3
ISO long-dash triple-dot ____ ... ____ ... ____
 72
65
 73
8
 40
36.0
 49
24.0
 74
0
 49
-3.0
 74
0
 49
0.0
 74
0
 49
-3.0
 74
0
 49
0.0
 74
0
 49
-3.0
 74
0
 49
0.0
 74
0
 49
-3.0
 74
0
  0
LTYPE
  5
43
100
AcDbSymbolTableRecord
100
AcDbLinetypeTableRecord
  2
CENTER
 70
0
  3
Center ____ _ ____ _ ____ _ ____ _ ____ _ ____
 72
65
 73
4
 40
50.8000000000000043
 49
31.75
 74
0
 49
-6.3499999999999996
 74
0
 49
6.3499999999999996
 74
0
 49
-6.3499999999999996
 74
0
  0
LTYPE
  5
44
100
AcDbSymbolTableRecord
100
AcDbLinetypeTableRecord
  2
DOTX2
 70
0
  3
Dot (2x) .  .  .  .  .  .  .  .  .  .  .  .  .  .
 72
65
 73
2
 40
12.6999999999999993
 49
0.0
 74
0
 49
-12.6999999999999993
 74
0
  0
LTYPE
  5
45
100
AcDbSymbolTableRecord
100
AcDbLinetypeTableRecord
  2
PHANTOM
 70
0
  3
Phantom ______  __  __  ______  __  __  ______ 
 72
65
 73
6
 40
63.5000000000000071
 49
31.75
 74
0
 49
-6.3499999999999996
 74
0
 49
6.3499999999999996
 74
0
 49
-6.3499999999999996
 74
0
 49
6.3499999999999996
 74
0
 49
-6.3499999999999996
 74
0
  0
LTYPE
  5
46
100
AcDbSymbolTableRecord
100
AcDbLinetypeTableRecord
  2
ACAD_ISO08W100
 70
0
  3
ISO long-dash short-dash ____ __ ____ __ ____ _
 72
65
 73
4
 40
36.0
 49
24.0
 74
0
 49
-3.0
 74
0
 49
6.0
 74
0
 49
-3.0
 74
0
  0
LTYPE
  5
47
100
AcDbSymbolTableRecord
100
AcDbLinetypeTableRecord
  2
DASHEDX2
 70
0
  3
Dashed (2x) ____  ____  ____  ____  ____  ___
 72
65
 73
2
 40
38.0999999999999943
 49
25.3999999999999986
 74
0
 49
-12.6999999999999993
 74
0
  0
LTYPE
  5
48
100
AcDbSymbolTableRecord
100
AcDbLinetypeTableRecord
  2
ACAD_ISO02W100
 70
0
  3
ISO dash __ __ __ __ __ __ __ __ __ __ __ __ __
 72
65
 73
2
 40
15.0
 49
12.0
 74
0
 49
-3.0
 74
0
  0
LTYPE
  5
49
100
AcDbSymbolTableRecord
100
AcDbLinetypeTableRecord
  2
PHANTOM2
 70
0
  3
Phantom (.5x) ___ _ _ ___ _ _ ___ _ _ ___ _ _
 72
65
 73
6
 40
31.7500000000000036
 49
15.875
 74
0
 49
-3.1749999999999998
 74
0
 49
3.1749999999999998
 74
0
 49
-3.1749999999999998
 74
0
 49
3.1749999999999998
 74
0
 49
-3.1749999999999998
 74
0
  0
LTYPE
  5
4A
100
AcDbSymbolTableRecord
100
AcDbLinetypeTableRecord
  2
DASHED2
 70
0
  3
Dashed (.5x) _ _ _ _ _ _ _ _ _ _ _ _ _ _ _ _ _ 
 72
65
 73
2
 40
9.5249999999999986
 49
6.3499999999999996
 74
0
 49
-3.1749999999999998
 74
0
  0
LTYPE
  5
4B
100
AcDbSymbolTableRecord
100
AcDbLinetypeTableRecord
  2
ACAD_ISO09W100
 70
0
  3
ISO long-dash double-short-dash ____ __ __ ____
 72
65
 73
6
 40
45.0
 49
24.0
 74
0
 49
-3.0
 74
0
 49
6.0
 74
0
 49
-3.0
 74
0
 49
6.0
 74
0
 49
-3.0
 74
0
  0
LTYPE
  5
4C
100
AcDbSymbolTableRecord
100
AcDbLinetypeTableRecord
  2
ACAD_ISO13W100
 70
0
  3
ISO double-dash double-dot __ __ . . __ __ . . _
 72
65
 73
8
 40
36.0
 49
12.0
 74
0
 49
-3.0
 74
0
 49
12.0
 74
0
 49
-3.0
 74
0
 49
0.0
 74
0
 49
-3.0
 74
0
 49
0.0
 74
0
 49
-3.0
 74
0
  0
LTYPE
  5
4D
100
AcDbSymbolTableRecord
100
AcDbLinetypeTableRecord
  2
DOT2
 70
0
  3
Dot (.5x) ........................................
 72
65
 73
2
 40
3.1749999999999998
 49
0.0
 74
0
 49
-3.1749999999999998
 74
0
  0
LTYPE
  5
4E
100
AcDbSymbolTableRecord
100
AcDbLinetypeTableRecord
  2
DASHED
 70
0
  3
Dashed __ __ __ __ __ __ __ __ __ __ __ __ __ _
 72
65
 73
2
 40
19.0499999999999972
 49
12.6999999999999993
 74
0
 49
-6.3499999999999996
 74
0
  0
LTYPE
  5
4F
100
AcDbSymbolTableRecord
100
AcDbLinetypeTableRecord
  2
ACAD_ISO14W100
 70
0
  3
ISO dash triple-dot __ . . . __ . . . __ . . . _
 72
65
 73
8
 40
24.0
 49
12.0
 74
0
 49
-3.0
 74
0
 49
0.0
 74
0
 49
-3.0
 74
0
 49
0.0
 74
0
 49
-3.0
 74
0
 49
0.0
 74
0
 49
-3.0
 74
0
  0
LTYPE
  5
15
100
AcDbSymbolTableRecord
100
AcDbLinetypeTableRecord
  2
BYLAYER
 70
0
  3

 72
65
 73
0
 40
0.0
  0
LTYPE
  5
50
100
AcDbSymbolTableRecord
100
AcDbLinetypeTableRecord
  2
PHANTOMX2
 70
0
  3
Phantom (2x) ____________    ____    ____   _
 72
65
 73
6
 40
127.0000000000000142
 49
63.5
 74
0
 49
-12.6999999999999993
 74
0
 49
12.6999999999999993
 74
0
 49
-12.6999999999999993
 74
0
 49
12.6999999999999993
 74
0
 49
-12.6999999999999993
 74
0
  0
LTYPE
  5
14
100
AcDbSymbolTableRecord
100
AcDbLinetypeTableRecord
  2
BYBLOCK
 70
0
  3

 72
65
 73
0
 40
0.0
  0
LTYPE
  5
51
100
AcDbSymbolTableRecord
100
AcDbLinetypeTableRecord
  2
DIVIDEX2
 70
0
  3
Divide (2x) ________  .  .  ________  .  .  _
 72
65
 73
6
 40
63.5
 49
25.3999999999999986
 74
0
 49
-12.6999999999999993
 74
0
 49
0.0
 74
0
 49
-12.6999999999999993
 74
0
 49
0.0
 74
0
 49
-12.6999999999999993
 74
0
  0
LTYPE
  5
52
100
AcDbSymbolTableRecord
100
AcDbLinetypeTableRecord
  2
BORDER
 70
0
  3
Border __ __ . __ __ . __ __ . __ __ . __ __ .
 72
65
 73
6
 40
44.4499999999999957
 49
12.6999999999999993
 74
0
 49
-6.3499999999999996
 74
0
 49
12.6999999999999993
 74
0
 49
-6.3499999999999996
 74
0
 49
0.0
 74
0
 49
-6.3499999999999996
 74
0
  0
LTYPE
  5
53
100
AcDbSymbolTableRecord
100
AcDbLinetypeTableRecord
  2
DIVIDE2
 70
0
  3
Divide (.5x) __..__..__..__..__..__..__..__.._
 72
65
 73
6
 40
15.875
 49
6.3499999999999996
 74
0
 49
-3.1749999999999998
 74
0
 49
0.0
 74
0
 49
-3.1749999999999998
 74
0
 49
0.0
 74
0
 49
-3.1749999999999998
 74
0
  0
LTYPE
  5
54
100
AcDbSymbolTableRecord
100
AcDbLinetypeTableRecord
  2
DOT
 70
0
  3
Dot . . . . . . . . . . . . . . . . . . . . . . . .
 72
65
 73
2
 40
6.3499999999999996
 49
0.0
 74
0
 49
-6.3499999999999996
 74
0
  0
LTYPE
  5
55
100
AcDbSymbolTableRecord
100
AcDbLinetypeTableRecord
  2
DASHDOT
 70
0
  3
Dash dot __ . __ . __ . __ . __ . __ . __ . __
 72
65
 73
4
 40
25.3999999999999986
 49
12.6999999999999993
 74
0
 49
-6.3499999999999996
 74
0
 49
0.0
 74
0
 49
-6.3499999999999996
 74
0
  0
LTYPE
  5
56
100
AcDbSymbolTableRecord
100
AcDbLinetypeTableRecord
  2
ACAD_ISO03W100
 70
0
  3
ISO dash space __    __    __    __    __    __
 72
65
 73
2
 40
30.0
 49
12.0
 74
0
 49
-18.0
 74
0
  0
ENDTAB
  0
TABLE
  2
LAYER
  5
2
100
AcDbSymbolTable
 70
1
  0
LAYER
  5
10
100
AcDbSymbolTableRecord
100
AcDbLayerTableRecord
  2
0
 70
0
 62
7
420
16777215
  6
CONTINUOUS
370
5
390
F
  0
ENDTAB
  0
TABLE
  2
STYLE
  5
3
100
AcDbSymbolTable
 70
1
  0
STYLE
  5
57
100
AcDbSymbolTableRecord
100
AcDbTextStyleTableRecord
  2
Standard
 70
0
 40
0.0
 41
1.0
 50
0.0
 71
0
 42
2.5
  3

  4

1001
ACAD
1000
txt
1071
0
  0
ENDTAB
  0
TABLE
  2
VIEW
  5
6
100
AcDbSymbolTable
 70
0
  0
ENDTAB
  0
TABLE
  2
UCS
  5
7
100
AcDbSymbolTable
 70
0
  0
ENDTAB
  0
TABLE
  2
APPID
  5
9
100
AcDbSymbolTable
 70
1
  0
APPID
  5
12
100
AcDbSymbolTableRecord
100
AcDbRegAppTableRecord
  2
ACAD
 70
0
  0
APPID
  5
58
100
AcDbSymbolTableRecord
100
AcDbRegAppTableRecord
  2
QCAD
 70
0
  0
ENDTAB
  0
TABLE
  2
DIMSTYLE
  5
A
100
AcDbSymbolTable
 70
1
100
AcDbDimStyleTable
 71
0
  0
DIMSTYLE
105
27
100
AcDbSymbolTableRecord
100
AcDbDimStyleTableRecord
  2
Standard
 41
0.18
 42
0.0625
 43
3.75
 44
0.18
 70
0
 73
0
 74
0
 77
1
 78
8
140
0.18
141
2.5
143
0.03937007874016
147
0.09
171
3
172
1
271
2
272
2
274
3
278
44
283
0
284
8
340
57
  0
ENDTAB
  0
TABLE
  2
BLOCK_RECORD
  5
1
100
AcDbSymbolTable
 70
1
  0
BLOCK_RECORD
  5
1F
100
AcDbSymbolTableRecord
100
AcDbBlockTableRecord
  2
*Model_Space
340
22
  0
BLOCK_RECORD
  5
1B
100
AcDbSymbolTableRecord
100
AcDbBlockTableRecord
  2
*Paper_Space
340
1E
  0
BLOCK_RECORD
  5
23
100
AcDbSymbolTableRecord
100
AcDbBlockTableRecord
  2
*Paper_Space0
340
26
  0
BLOCK_RECORD
  5
59
100
AcDbSymbolTableRecord
100
AcDbBlockTableRecord
  2
BODY009
340
0
  0
ENDTAB
  0
ENDSEC
  0
SECTION
  2
BLOCKS
  0
BLOCK
  5
20
100
AcDbEntity
  8
0
100
AcDbBlockBegin
  2
*Model_Space
 70
0
 10
0.0
 20
0.0
 30
0.0
  3
*Model_Space
  1

  0
ENDBLK
  5
21
100
AcDbEntity
  8
0
100
AcDbBlockEnd
  0
BLOCK
  5
1C
100
AcDbEntity
 67
1
  8
0
100
AcDbBlockBegin
  2
*Paper_Space
 70
0
 10
0.0
 20
0.0
 30
0.0
  3
*Paper_Space
  1

  0
ENDBLK
  5
1D
100
AcDbEntity
 67
1
  8
0
100
AcDbBlockEnd
  0
BLOCK
  5
24
100
AcDbEntity
  8
0
100
AcDbBlockBegin
  2
*Paper_Space0
 70
0
 10
0.0
 20
0.0
 30
0.0
  3
*Paper_Space0
  1

  0
ENDBLK
  5
25
100
AcDbEntity
  8
0
100
AcDbBlockEnd
  0
BLOCK
  5
5A
100
AcDbEntity
  8
0
100
AcDbBlockBegin
  2
BODY009
 70
0
 10
0.0
 20
0.0
 30
0.0
  3
BODY009
  1

  0
LWPOLYLINE
  5
5B
100
AcDbEntity
  8
0
 62
256
370
-1
 48
1.0
  6
BYLAYER
100
AcDbPolyline
 90
127
 70
0
 10
-16.0000003576000012
 20
-12.5
 30
0.0
 10
-15.9996878617
 20
-12.5499986978999996
 30
0.0
 10
-15.9987504227000006
 20
-12.5999895836999993
 30
0.0
 10
-15.9971881872000008
 20
-12.6499648461999996
 30
0.0
 10
-15.9950013991999995
 20
-12.6999166770999992
 30
0.0
 10
-15.9921904004000002
 20
-12.7498372714000006
 30
0.0
 10
-15.9887556301
 20
-12.7997188290999997
 30
0.0
 10
-15.9846976248000008
 20
-12.8495535564000001
 30
0.0
 10
-15.9800170186999999
 20
-12.8993336666000005
 30
0.0
 10
-15.9747145430999993
 20
-12.9490513817000004
 30
0.0
 10
-15.9687910264999999
 20
-12.9986989335000001
 30
0.0
 10
-15.9622473945000003
 20
-13.0482685646000007
 30
0.0
 10
-15.9550846693999997
 20
-13.0977525298999993
 30
0.0
 10
-15.9473039704000001
 20
-13.1471430975000008
 30
0.0
 10
-15.9389065131999992
 20
-13.1964325504000008
 30
0.0
 10
-15.9298936100000006
 20
-13.245613187
 30
0.0
 10
-15.9202666690000001
 20
-13.2946773232000002
 30
0.0
 10
-15.9100271942999996
 20
-13.3436172925999994
 30
0.0
 10
-15.8991767858999999
 20
-13.3924254484999992
 30
0.0
 10
-15.8877171390999994
 20
-13.4410941648000009
 30
0.0
 10
-15.8756500445000004
 20
-13.4896158370000006
 30
0.0
 10
-15.8629773875000009
 20
-13.5379828837999998
 30
0.0
 10
-15.8497011480999994
 20
-13.5861877478000004
 30
0.0
 10
-15.8358234009000007
 20
-13.6342228972000008
 30
0.0
 10
-15.8213463140999995
 20
-13.6820808266
 30
0.0
 10
-15.8062721497999998
 20
-13.7297540582999993
 30
0.0
 10
-15.7906032632999995
 20
-13.7772351434000004
 30
0.0
 10
-15.7743421028000004
 20
-13.8245166631000007
 30
0.0
 10
-15.7574912089999994
 20
-13.8715912297999999
 30
0.0
 10
-15.7400532149999997
 20
-13.9184514882000006
 30
0.0
 10
-15.7220308453000008
 20
-13.9650901163000007
 30
0.0
 10
-15.7034269158999997
 20
-14.0114998271999998
 30
0.0
 10
-15.6842443336000006
 20
-14.0576733691999998
 30
0.0
 10
-15.6644860957999992
 20
-14.1036035280000007
 30
0.0
 10
-15.6441552894000004
 20
-14.1492831270000003
 30
0.0
 10
-15.6232550913000008
 20
-14.1947050287999996
 30
0.0
 10
-15.6017887670000004
 20
-14.2398621363999993
 30
0.0
 10
-15.5797596705999997
 20
-14.2847473942000001
 30
0.0
 10
-15.5571712440999992
 20
-14.3293537887000006
 30
0.0
 10
-15.5340270168999997
 20
-14.3736743505
 30
0.0
 10
-15.5103306052000001
 20
-14.4177021544000006
 30
0.0
 10
-15.4860857114999995
 20
-14.4614303212999999
 30
0.0
 10
-15.4612961241000004
 20
-14.5048520186999994
 30
0.0
 10
-15.4359657163000001
 20
-14.5479604620000007
 30
0.0
 10
-15.4100984458999992
 20
-14.5907489157000008
 30
0.0
 10
-15.3836983545999999
 20
-14.6332106941000006
 30
0.0
 10
-15.3567695673000006
 20
-14.6753391627000003
 30
0.0
 10
-15.3293162916999997
 20
-14.7171277390000004
 30
0.0
 10
-15.3013428173000001
 20
-14.7585698936000007
 30
0.0
 10
-15.2728535147999995
 20
-14.7996591512000002
 30
0.0
 10
-15.2438528356000003
 20
-14.8403890918000005
 30
0.0
 10
-15.2143453112000007
 20
-14.8807533512999992
 30
0.0
 10
-15.1843355518000003
 20
-14.9207456229000002
 30
0.0
 10
-15.1538282465999998
 20
-14.9603596579999998
 30
0.0
 10
-15.1228281621999994
 20
-14.9995892668999993
 30
0.0
 10
-15.0913401422
 20
-15.0384283200999995
 30
0.0
 10
-15.0593691068000002
 20
-15.0768707489999993
 30
0.0
 10
-15.0269200511999994
 20
-15.1149105469999991
 30
0.0
 10
-14.9939980454999997
 20
-15.1525417706999992
 30
0.0
 10
-14.9606082338000004
 20
-15.1897585399999997
 30
0.0
 10
-14.9267558330999996
 20
-15.2265550400999992
 30
0.0
 10
-14.8924461329
 20
-15.2629255214999997
 30
0.0
 10
-14.8576844939000008
 20
-15.2988643014000001
 30
0.0
 10
-14.8224763475000003
 20
-15.3343657643999993
 30
0.0
 10
-14.7868271950000008
 20
-15.3694243636000003
 30
0.0
 10
-14.7507426064999994
 20
-15.4040346209999992
 30
0.0
 10
-14.7142282201000008
 20
-15.4381911289999998
 30
0.0
 10
-14.6772897411999992
 20
-15.4718885504999992
 30
0.0
 10
-14.6399329411999997
 20
-15.5051216206000007
 30
0.0
 10
-14.6021636571000002
 20
-15.5378851464000007
 30
0.0
 10
-14.5639877903000006
 20
-15.5701740089000005
 30
0.0
 10
-14.5254113057000005
 20
-15.6019831629999999
 30
0.0
 10
-14.4864402306999995
 20
-15.6333076384999998
 30
0.0
 10
-14.4470806546000006
 20
-15.6641425411000004
 30
0.0
 10
-14.4073387272000009
 20
-15.6944830528000008
 30
0.0
 10
-14.3672206580000008
 20
-15.7243244329999996
 30
0.0
 10
-14.3267327155000004
 20
-15.7536620192000001
 30
0.0
 10
-14.2858812258000007
 20
-15.7824912271999995
 30
0.0
 10
-14.2446725718000007
 20
-15.8108075527
 30
0.0
 10
-14.2031131924
 20
-15.8386065711999997
 30
0.0
 10
-14.1612095810999996
 20
-15.8658839391999997
 30
0.0
 10
-14.1189682851999994
 20
-15.8926353947999992
 30
0.0
 10
-14.076395905
 20
-15.9188567579000004
 30
0.0
 10
-14.0334990920999996
 20
-15.9445439316000002
 30
0.0
 10
-13.9902845492000001
 20
-15.9696929024000003
 30
0.0
 10
-13.9467590284000007
 20
-15.9942997407000007
 30
0.0
 10
-13.9029293305999992
 20
-16.0183606016999995
 30
0.0
 10
-13.8588023039999992
 20
-16.0418717260999983
 30
0.0
 10
-13.8143848432999992
 20
-16.0648294402000005
 30
0.0
 10
-13.7696838887999995
 20
-16.0872301570000005
 30
0.0
 10
-13.7247064248000008
 20
-16.1090703763999983
 30
0.0
 10
-13.6794594790000001
 20
-16.1303466859000011
 30
0.0
 10
-13.6339501211999998
 20
-16.1510557609999985
 30
0.0
 10
-13.5881854620000002
 20
-16.1711943662000017
 30
0.0
 10
-13.5421726520999997
 20
-16.1907593546999991
 30
0.0
 10
-13.4959188808999997
 20
-16.2097476695000005
 30
0.0
 10
-13.4494313754999997
 20
-16.2281563439000003
 30
0.0
 10
-13.4027173995000002
 20
-16.2459825014000003
 30
0.0
 10
-13.3557842517999994
 20
-16.2632233566999993
 30
0.0
 10
-13.3086392656000001
 20
-16.2798762160000017
 30
0.0
 10
-13.2612898072000007
 20
-16.2959384774
 30
0.0
 10
-13.2137432749000006
 20
-16.3114076310999998
 30
0.0
 10
-13.1660070977999997
 20
-16.3262812601999983
 30
0.0
 10
-13.1180887345000006
 20
-16.3405570404999985
 30
0.0
 10
-13.0699956720999992
 20
-16.3542327416999989
 30
0.0
 10
-13.0217354251999993
 20
-16.3673062268000002
 30
0.0
 10
-12.9733155341999993
 20
-16.3797754532000006
 30
0.0
 10
-12.9247435647
 20
-16.3916384724999986
 30
0.0
 10
-12.8760271060000004
 20
-16.4028934313000008
 30
0.0
 10
-12.8271737698999999
 20
-16.4135385708999983
 30
0.0
 10
-12.7781911895999993
 20
-16.4235722280999994
 30
0.0
 10
-12.7290870185999996
 20
-16.4329928350999985
 30
0.0
 10
-12.6798689291999995
 20
-16.4417989200000001
 30
0.0
 10
-12.6305446117999995
 20
-16.4499891068000004
 30
0.0
 10
-12.5811217730999996
 20
-16.4575621157999983
 30
0.0
 10
-12.5316081354000008
 20
-16.464516763799999
 30
0.0
 10
-12.4820114351000004
 20
-16.4708519642000013
 30
0.0
 10
-12.4323394215
 20
-16.4765667268999998
 30
0.0
 10
-12.3825998558000006
 20
-16.4816601592999987
 30
0.0
 10
-12.3328005097000002
 20
-16.4861314653000015
 30
0.0
 10
-12.2829491642999997
 20
-16.4899799463999983
 30
0.0
 10
-12.2330536087000006
 20
-16.4932050013000016
 30
0.0
 10
-12.1831216389999994
 20
-16.4958061260000015
 30
0.0
 10
-12.1331610570000006
 20
-16.4977829141000001
 30
0.0
 10
-12.0831796687999997
 20
-16.4991350568000001
 30
0.0
 10
-12.0331852841
 20
-16.4998623426999984
 30
0.0
 10
-12.0000003575999994
 20
-16.5
 30
0.0
  0
LWPOLYLINE
  5
5C
100
AcDbEntity
  8
0
 62
256
370
-1
 48
1.0
  6
BYLAYER
100
AcDbPolyline
 90
127
 70
0
 10
-12.0000003575999994
 20
16.5
 30
0.0
 10
-12.0499990556000007
 20
16.4996875040999988
 30
0.0
 10
-12.0999899413000005
 20
16.4987500651000012
 30
0.0
 10
-12.1499652038000008
 20
16.4971878296000014
 30
0.0
 10
-12.1999170347000003
 20
16.4950010415999984
 30
0.0
 10
-12.2498376289999999
 20
16.4921900428000008
 30
0.0
 10
-12.2997191867000009
 20
16.4887552723999988
 30
0.0
 10
-12.3495539139999995
 20
16.4846972672000014
 30
0.0
 10
-12.3993340241999999
 20
16.4800166610999987
 30
0.0
 10
-12.4490517393999998
 20
16.4747141855000017
 30
0.0
 10
-12.4986992911999995
 20
16.4687906688999988
 30
0.0
 10
-12.5482689223000001
 20
16.4622470368000009
 30
0.0
 10
-12.5977528875000004
 20
16.4550843116999985
 30
0.0
 10
-12.6471434552000002
 20
16.447303612799999
 30
0.0
 10
-12.6964329080000002
 20
16.4389061556000016
 30
0.0
 10
-12.7456135446999994
 20
16.4298932523999994
 30
0.0
 10
-12.7946776807999996
 20
16.4202663113999989
 30
0.0
 10
-12.8436176502000006
 20
16.4100268366999984
 30
0.0
 10
-12.8924258062000003
 20
16.3991764282999988
 30
0.0
 10
-12.9410945224000002
 20
16.3877167815
 30
0.0
 10
-12.9896161945999999
 20
16.3756496867999992
 30
0.0
 10
-13.0379832413999992
 20
16.3629770297999997
 30
0.0
 10
-13.0861881054999998
 20
16.3497007904999982
 30
0.0
 10
-13.1342232549000002
 20
16.3358230432999996
 30
0.0
 10
-13.1820811842999994
 20
16.3213459565000001
 30
0.0
 10
-13.2297544159000005
 20
16.3062717922000004
 30
0.0
 10
-13.2772355010999998
 20
16.2906029056999984
 30
0.0
 10
-13.3245170208000001
 20
16.2743417450999992
 30
0.0
 10
-13.3715915873999993
 20
16.2574908514000001
 30
0.0
 10
-13.4184518457999999
 20
16.2400528573000003
 30
0.0
 10
-13.4650904740000001
 20
16.2220304876000014
 30
0.0
 10
-13.5115001847999991
 20
16.2034265582999986
 30
0.0
 10
-13.5576737268999992
 20
16.1842439760000012
 30
0.0
 10
-13.6036038856000001
 20
16.1644857381000016
 30
0.0
 10
-13.6492834845999997
 20
16.1441549317999993
 30
0.0
 10
-13.6947053864000008
 20
16.1232547337000014
 30
0.0
 10
-13.7398624941000005
 20
16.101788409400001
 30
0.0
 10
-13.7847477517999994
 20
16.0797593130000003
 30
0.0
 10
-13.8293541463
 20
16.0571708864999998
 30
0.0
 10
-13.8736747080999994
 20
16.0340266593000003
 30
0.0
 10
-13.917702512
 20
16.0103302475999989
 30
0.0
 10
-13.9614306788999993
 20
15.9860853539000001
 30
0.0
 10
-14.0048523763000006
 20
15.9612957664999993
 30
0.0
 10
-14.0479608197000001
 20
15.9359653587000007
 30
0.0
 10
-14.0907492734000002
 20
15.9100980881999998
 30
0.0
 10
-14.1332110518
 20
15.8836979969000005
 30
0.0
 10
-14.1753395203999997
 20
15.8567692096999995
 30
0.0
 10
-14.2171280965999998
 20
15.8293159341000003
 30
0.0
 10
-14.2585702512000001
 20
15.8013424596000007
 30
0.0
 10
-14.2996595087999996
 20
15.7728531572000001
 30
0.0
 10
-14.3403894493999999
 20
15.7438524780000009
 30
0.0
 10
-14.3807537089000004
 20
15.7143449534999995
 30
0.0
 10
-14.4207459805999996
 20
15.6843351942000009
 30
0.0
 10
-14.4603600156999992
 20
15.6538278890000004
 30
0.0
 10
-14.4995896245000004
 20
15.6228278045
 30
0.0
 10
-14.5384286777000007
 20
15.5913397846000006
 30
0.0
 10
-14.5768711066000005
 20
15.5593687491000008
 30
0.0
 10
-14.6149109047000003
 20
15.5269196935
 30
0.0
 10
-14.6525421283000004
 20
15.4939976879000003
 30
0.0
 10
-14.6897588977000009
 20
15.4606078761999992
 30
0.0
 10
-14.7265553977000003
 20
15.4267554755000003
 30
0.0
 10
-14.7629258791000009
 20
15.3924457752000006
 30
0.0
 10
-14.7988646589999995
 20
15.3576841361999996
 30
0.0
 10
-14.8343661221000005
 20
15.3224759898999991
 30
0.0
 10
-14.8694247211999997
 20
15.2868268373999996
 30
0.0
 10
-14.9040349787000004
 20
15.2507422489
 30
0.0
 10
-14.9381914865999992
 20
15.2142278624999996
 30
0.0
 10
-14.9718889082000004
 20
15.1772893834999998
 30
0.0
 10
-15.0051219782
 20
15.1399325835000003
 30
0.0
 10
-15.0378855041000001
 20
15.1021632995000008
 30
0.0
 10
-15.0701743665999999
 20
15.0639874326999994
 30
0.0
 10
-15.1019835205999993
 20
15.0254109479999993
 30
0.0
 10
-15.1333079960999992
 20
14.9864398731000001
 30
0.0
 10
-15.1641428986999998
 20
14.9470802969999994
 30
0.0
 10
-15.1944834104000002
 20
14.9073383694999997
 30
0.0
 10
-15.2243247907000008
 20
14.8672203003999996
 30
0.0
 10
-15.2536623767999995
 20
14.8267323578999992
 30
0.0
 10
-15.2824915848000007
 20
14.7858808680999996
 30
0.0
 10
-15.3108079102999994
 20
14.7446722141999995
 30
0.0
 10
-15.3386069288000009
 20
14.7031128348000006
 30
0.0
 10
-15.3658842968999991
 20
14.6612092235000002
 30
0.0
 10
-15.3926357524000004
 20
14.6189679276
 30
0.0
 10
-15.4188571154999998
 20
14.5763955473000006
 30
0.0
 10
-15.4445442892999996
 20
14.5334987345000002
 30
0.0
 10
-15.4696932599999997
 20
14.4902841916000007
 30
0.0
 10
-15.4943000983000001
 20
14.4467586707999995
 30
0.0
 10
-15.5183609594000007
 20
14.4029289729999999
 30
0.0
 10
-15.5418720836999995
 20
14.3588019462999998
 30
0.0
 10
-15.5648297978999999
 20
14.3143844856999998
 30
0.0
 10
-15.5872305146999999
 20
14.2696835312000001
 30
0.0
 10
-15.6090707339999994
 20
14.2247060671999996
 30
0.0
 10
-15.6303470435000005
 20
14.1794591214000008
 30
0.0
 10
-15.6510561186999997
 20
14.1339497635000004
 30
0.0
 10
-15.6711947237999993
 20
14.0881851043000008
 30
0.0
 10
-15.6907597123000002
 20
14.0421722945000003
 30
0.0
 10
-15.7097480271999999
 20
13.9959185233000003
 30
0.0
 10
-15.7281567014999997
 20
13.9494310179000003
 30
0.0
 10
-15.7459828589999997
 20
13.9027170419000008
 30
0.0
 10
-15.7632237143000005
 20
13.8557838941
 30
0.0
 10
-15.7798765736999993
 20
13.8086389079000007
 30
0.0
 10
-15.7959388350999994
 20
13.7612894495999996
 30
0.0
 10
-15.8114079887999992
 20
13.7137429172999994
 30
0.0
 10
-15.8262816177999994
 20
13.6660067402000003
 30
0.0
 10
-15.8405573981999996
 20
13.6180883768999994
 30
0.0
 10
-15.8542330993
 20
13.5699953144999998
 30
0.0
 10
-15.8673065843999996
 20
13.5217350675999999
 30
0.0
 10
-15.8797758108
 20
13.4733151765999999
 30
0.0
 10
-15.8916388301999998
 20
13.4247432071000006
 30
0.0
 10
-15.9028937889000002
 20
13.3760267483999993
 30
0.0
 10
-15.9135389284999995
 20
13.3271734122000005
 30
0.0
 10
-15.9235725857000006
 20
13.2781908319999999
 30
0.0
 10
-15.9329931926999997
 20
13.2290866609000002
 30
0.0
 10
-15.9417992775999995
 20
13.1798685716000001
 30
0.0
 10
-15.9499894643999998
 20
13.1305442542000002
 30
0.0
 10
-15.9575624733999994
 20
13.0811214155000002
 30
0.0
 10
-15.9645171214000001
 20
13.0316077777999997
 30
0.0
 10
-15.9708523218000007
 20
12.9820110774999993
 30
0.0
 10
-15.9765670845999992
 20
12.9323390639000007
 30
0.0
 10
-15.9816605168999999
 20
12.8825994981999994
 30
0.0
 10
-15.9861318228999991
 20
12.8328001521000008
 30
0.0
 10
-15.9899803039999995
 20
12.7829488067000003
 30
0.0
 10
-15.9932053588999992
 20
12.7330532510999994
 30
0.0
 10
-15.9958064835999991
 20
12.6831212814000001
 30
0.0
 10
-15.9977832716999995
 20
12.6331606992999994
 30
0.0
 10
-15.9991354143999995
 20
12.5831793112000003
 30
0.0
 10
-15.9998627002999996
 20
12.5331849265000006
 30
0.0
 10
-16.0000003576000012
 20
12.5
 30
0.0
  0
LWPOLYLINE
  5
5D
100
AcDbEntity
  8
0
 62
256
370
-1
 48
1.0
  6
BYLAYER
100
AcDbPolyline
 90
127
 70
0
 10
11.9999996424000006
 20
-16.5
 30
0.0
 10
12.0499983403000002
 20
-16.4996875040999988
 30
0.0
 10
12.0999892259999999
 20
-16.4987500651000012
 30
0.0
 10
12.1499644886000002
 20
-16.4971878296000014
 30
0.0
 10
12.1999163194999998
 20
-16.4950010415999984
 30
0.0
 10
12.2498369136999994
 20
-16.4921900428000008
 30
0.0
 10
12.2997184715000003
 20
-16.4887552723999988
 30
0.0
 10
12.3495531987000007
 20
-16.4846972672000014
 30
0.0
 10
12.3993333089999993
 20
-16.4800166610999987
 30
0.0
 10
12.4490510240999992
 20
-16.4747141855000017
 30
0.0
 10
12.4986985759000007
 20
-16.4687906688999988
 30
0.0
 10
12.5482682069999996
 20
-16.4622470368000009
 30
0.0
 10
12.5977521722999999
 20
-16.4550843116999985
 30
0.0
 10
12.6471427398999996
 20
-16.447303612799999
 30
0.0
 10
12.6964321927999997
 20
-16.4389061556000016
 30
0.0
 10
12.7456128294000006
 20
-16.4298932523999994
 30
0.0
 10
12.7946769656000008
 20
-16.4202663113999989
 30
0.0
 10
12.843616935
 20
-16.4100268366999984
 30
0.0
 10
12.8924250908999998
 20
-16.3991764282999988
 30
0.0
 10
12.9410938071999997
 20
-16.3877167815
 30
0.0
 10
12.9896154793999994
 20
-16.3756496867999992
 30
0.0
 10
13.0379825262000004
 20
-16.3629770297999997
 30
0.0
 10
13.0861873901999992
 20
-16.3497007904999982
 30
0.0
 10
13.1342225395999996
 20
-16.3358230432999996
 30
0.0
 10
13.1820804690000006
 20
-16.3213459565000001
 30
0.0
 10
13.2297537006999999
 20
-16.3062717922000004
 30
0.0
 10
13.2772347857999993
 20
-16.2906029056999984
 30
0.0
 10
13.3245163054999995
 20
-16.2743417450999992
 30
0.0
 10
13.3715908722000005
 20
-16.2574908514000001
 30
0.0
 10
13.4184511304999994
 20
-16.2400528573000003
 30
0.0
 10
13.4650897586999996
 20
-16.2220304876000014
 30
0.0
 10
13.5114994696000004
 20
-16.2034265582999986
 30
0.0
 10
13.5576730116000004
 20
-16.1842439760000012
 30
0.0
 10
13.6036031703999996
 20
-16.1644857381000016
 30
0.0
 10
13.6492827692999992
 20
-16.1441549317999993
 30
0.0
 10
13.6947046712000002
 20
-16.1232547337000014
 30
0.0
 10
13.7398617787999999
 20
-16.101788409400001
 30
0.0
 10
13.7847470365000007
 20
-16.0797593130000003
 30
0.0
 10
13.8293534310999995
 20
-16.0571708864999998
 30
0.0
 10
13.8736739928000006
 20
-16.0340266593000003
 30
0.0
 10
13.9177017967999994
 20
-16.0103302475999989
 30
0.0
 10
13.9614299637000006
 20
-15.9860853539000001
 30
0.0
 10
14.0048516611
 20
-15.9612957664999993
 30
0.0
 10
14.0479601043999995
 20
-15.9359653587000007
 30
0.0
 10
14.0907485580999996
 20
-15.9100980881999998
 30
0.0
 10
14.1332103364999995
 20
-15.8836979969000005
 30
0.0
 10
14.1753388051000009
 20
-15.8567692096999995
 30
0.0
 10
14.2171273813999992
 20
-15.8293159341000003
 30
0.0
 10
14.2585695359999995
 20
-15.8013424596000007
 30
0.0
 10
14.2996587936000008
 20
-15.7728531572000001
 30
0.0
 10
14.3403887340999994
 20
-15.7438524780000009
 30
0.0
 10
14.3807529936999998
 20
-15.7143449534999995
 30
0.0
 10
14.4207452653000008
 20
-15.6843351942000009
 30
0.0
 10
14.4603593004000004
 20
-15.6538278890000004
 30
0.0
 10
14.4995889092999999
 20
-15.6228278045
 30
0.0
 10
14.5384279624000001
 20
-15.5913397846000006
 30
0.0
 10
14.5768703913
 20
-15.5593687491000008
 30
0.0
 10
14.6149101893999998
 20
-15.5269196935
 30
0.0
 10
14.6525414129999998
 20
-15.4939976879000003
 30
0.0
 10
14.6897581824000003
 20
-15.4606078761999992
 30
0.0
 10
14.7265546824999998
 20
-15.4267554755000003
 30
0.0
 10
14.7629251639000003
 20
-15.3924457752000006
 30
0.0
 10
14.7988639438000007
 20
-15.3576841361999996
 30
0.0
 10
14.8343654067999999
 20
-15.3224759898999991
 30
0.0
 10
14.8694240059999991
 20
-15.2868268373999996
 30
0.0
 10
14.9040342633999998
 20
-15.2507422489
 30
0.0
 10
14.9381907714000004
 20
-15.2142278624999996
 30
0.0
 10
14.9718881928999998
 20
-15.1772893834999998
 30
0.0
 10
15.0051212628999995
 20
-15.1399325835000003
 30
0.0
 10
15.0378847887999996
 20
-15.1021632995000008
 30
0.0
 10
15.0701736512999993
 20
-15.0639874326999994
 30
0.0
 10
15.1019828054000005
 20
-15.0254109479999993
 30
0.0
 10
15.1333072809000004
 20
-14.9864398731000001
 30
0.0
 10
15.1641421833999992
 20
-14.9470802969999994
 30
0.0
 10
15.1944826951999996
 20
-14.9073383694999997
 30
0.0
 10
15.2243240754000002
 20
-14.8672203003999996
 30
0.0
 10
15.2536616615000007
 20
-14.8267323578999992
 30
0.0
 10
15.2824908696000001
 20
-14.7858808680999996
 30
0.0
 10
15.3108071950000006
 20
-14.7446722141999995
 30
0.0
 10
15.3386062136000003
 20
-14.7031128348000006
 30
0.0
 10
15.3658835816000003
 20
-14.6612092235000002
 30
0.0
 10
15.3926350370999998
 20
-14.6189679276
 30
0.0
 10
15.4188564002999993
 20
-14.5763955473000006
 30
0.0
 10
15.4445435740000008
 20
-14.5334987345000002
 30
0.0
 10
15.4696925447999991
 20
-14.4902841916000007
 30
0.0
 10
15.4942993829999995
 20
-14.4467586707999995
 30
0.0
 10
15.5183602441000001
 20
-14.4029289729999999
 30
0.0
 10
15.5418713685000007
 20
-14.3588019462999998
 30
0.0
 10
15.5648290825999993
 20
-14.3143844856999998
 30
0.0
 10
15.5872297993999993
 20
-14.2696835312000001
 30
0.0
 10
15.6090700188000007
 20
-14.2247060671999996
 30
0.0
 10
15.6303463281999999
 20
-14.1794591214000008
 30
0.0
 10
15.6510554033999991
 20
-14.1339497635000004
 30
0.0
 10
15.6711940086000006
 20
-14.0881851043000008
 30
0.0
 10
15.6907589970999997
 20
-14.0421722945000003
 30
0.0
 10
15.7097473118999993
 20
-13.9959185233000003
 30
0.0
 10
15.7281559862000009
 20
-13.9494310179000003
 30
0.0
 10
15.7459821436999992
 20
-13.9027170419000008
 30
0.0
 10
15.7632229990999999
 20
-13.8557838941
 30
0.0
 10
15.7798758584000005
 20
-13.8086389079000007
 30
0.0
 10
15.7959381198000006
 20
-13.7612894495999996
 30
0.0
 10
15.8114072735000004
 20
-13.7137429172999994
 30
0.0
 10
15.8262809025000006
 20
-13.6660067402000003
 30
0.0
 10
15.8405566829000009
 20
-13.6180883767999994
 30
0.0
 10
15.8542323839999995
 20
-13.5699953144999998
 30
0.0
 10
15.8673058692000009
 20
-13.5217350675999999
 30
0.0
 10
15.8797750954999994
 20
-13.4733151765999999
 30
0.0
 10
15.8916381148999992
 20
-13.4247432071000006
 30
0.0
 10
15.9028930736999996
 20
-13.3760267483999993
 30
0.0
 10
15.9135382133000007
 20
-13.3271734122000005
 30
0.0
 10
15.9235718705
 20
-13.2781908319999999
 30
0.0
 10
15.9329924774999991
 20
-13.2290866609000002
 30
0.0
 10
15.9417985623000007
 20
-13.1798685716000001
 30
0.0
 10
15.9499887490999992
 20
-13.1305442542000002
 30
0.0
 10
15.9575617582000007
 20
-13.0811214155000002
 30
0.0
 10
15.9645164061999996
 20
-13.0316077777999997
 30
0.0
 10
15.9708516065000001
 20
-12.9820110774999993
 30
0.0
 10
15.9765663693000004
 20
-12.9323390639000007
 30
0.0
 10
15.9816598016999993
 20
-12.8825994981999994
 30
0.0
 10
15.9861311077000003
 20
-12.8328001521000008
 30
0.0
 10
15.9899795888000007
 20
-12.7829488067000003
 30
0.0
 10
15.9932046436000004
 20
-12.7330532510999994
 30
0.0
 10
15.9958057683000003
 20
-12.6831212814000001
 30
0.0
 10
15.9977825565000007
 20
-12.6331606992999994
 30
0.0
 10
15.9991346991000007
 20
-12.5831793112000003
 30
0.0
 10
15.9998619851000008
 20
-12.5331849265000006
 30
0.0
 10
15.9999996424000006
 20
-12.5
 30
0.0
  0
LWPOLYLINE
  5
5E
100
AcDbEntity
  8
0
 62
256
370
-1
 48
1.0
  6
BYLAYER
100
AcDbPolyline
 90
127
 70
0
 10
15.9999996424000006
 20
12.5
 30
0.0
 10
15.9996871463999994
 20
12.5499986978999996
 30
0.0
 10
15.9987497075
 20
12.5999895836999993
 30
0.0
 10
15.9971874719000002
 20
12.6499648461999996
 30
0.0
 10
15.9950006840000007
 20
12.6999166770999992
 30
0.0
 10
15.9921896851999996
 20
12.7498372714000006
 30
0.0
 10
15.9887549147999994
 20
12.7997188290999997
 30
0.0
 10
15.9846969096000002
 20
12.8495535564000001
 30
0.0
 10
15.9800163034999994
 20
12.8993336666000005
 30
0.0
 10
15.9747138279000005
 20
12.9490513817000004
 30
0.0
 10
15.9687903112999994
 20
12.9986989335000001
 30
0.0
 10
15.9622466791999997
 20
13.0482685646000007
 30
0.0
 10
15.9550839540999991
 20
13.0977525298999993
 30
0.0
 10
15.9473032550999996
 20
13.1471430975000008
 30
0.0
 10
15.9389057980000004
 20
13.1964325504000008
 30
0.0
 10
15.9298928948
 20
13.2456131871
 30
0.0
 10
15.9202659536999995
 20
13.2946773232000002
 30
0.0
 10
15.9100264791000008
 20
13.3436172925999994
 30
0.0
 10
15.8991760706999994
 20
13.3924254484999992
 30
0.0
 10
15.8877164239000006
 20
13.4410941648000009
 30
0.0
 10
15.8756493291999998
 20
13.4896158370000006
 30
0.0
 10
15.8629766722000003
 20
13.5379828837999998
 30
0.0
 10
15.8497004329000006
 20
13.5861877478000004
 30
0.0
 10
15.8358226857000002
 20
13.6342228972000008
 30
0.0
 10
15.8213455989000007
 20
13.6820808266
 30
0.0
 10
15.8062714345999993
 20
13.7297540582999993
 30
0.0
 10
15.7906025480000007
 20
13.7772351434000004
 30
0.0
 10
15.7743413874999998
 20
13.8245166631000007
 30
0.0
 10
15.7574904938000007
 20
13.8715912297999999
 30
0.0
 10
15.7400524997000009
 20
13.9184514882000006
 30
0.0
 10
15.7220301300000003
 20
13.9650901163000007
 30
0.0
 10
15.7034262005999992
 20
14.0114998271999998
 30
0.0
 10
15.6842436184
 20
14.0576733691999998
 30
0.0
 10
15.6644853805000004
 20
14.1036035280000007
 30
0.0
 10
15.6441545741999999
 20
14.1492831270000003
 30
0.0
 10
15.6232543761000002
 20
14.1947050287999996
 30
0.0
 10
15.6017880517999998
 20
14.2398621363999993
 30
0.0
 10
15.5797589554000009
 20
14.2847473942000001
 30
0.0
 10
15.5571705289000004
 20
14.3293537887000006
 30
0.0
 10
15.5340263016000009
 20
14.3736743505
 30
0.0
 10
15.5103298898999995
 20
14.4177021544000006
 30
0.0
 10
15.4860849963000007
 20
14.4614303212999999
 30
0.0
 10
15.4612954088999999
 20
14.5048520186999994
 30
0.0
 10
15.4359650009999996
 20
14.5479604620000007
 30
0.0
 10
15.4100977306000004
 20
14.5907489157000008
 30
0.0
 10
15.3836976392999993
 20
14.6332106941000006
 30
0.0
 10
15.3567688521000001
 20
14.6753391627000003
 30
0.0
 10
15.3293155765000009
 20
14.7171277390000004
 30
0.0
 10
15.3013421019999996
 20
14.7585698936000007
 30
0.0
 10
15.2728527995000007
 20
14.7996591512000002
 30
0.0
 10
15.2438521203999997
 20
14.8403890918000005
 30
0.0
 10
15.2143445959000001
 20
14.8807533512999992
 30
0.0
 10
15.1843348365999997
 20
14.9207456229000002
 30
0.0
 10
15.1538275312999993
 20
14.9603596579999998
 30
0.0
 10
15.1228274469000006
 20
14.9995892668999993
 30
0.0
 10
15.0913394269999994
 20
15.0384283200999995
 30
0.0
 10
15.0593683914999996
 20
15.0768707489999993
 30
0.0
 10
15.0269193359000006
 20
15.1149105469999991
 30
0.0
 10
14.9939973301999991
 20
15.1525417706999992
 30
0.0
 10
14.9606075184999998
 20
15.1897585399999997
 30
0.0
 10
14.9267551179000009
 20
15.2265550400999992
 30
0.0
 10
14.8924454175999994
 20
15.2629255214999997
 30
0.0
 10
14.8576837786000002
 20
15.2988643014000001
 30
0.0
 10
14.8224756321999998
 20
15.3343657643999993
 30
0.0
 10
14.7868264798000002
 20
15.3694243636000003
 30
0.0
 10
14.7507418913000006
 20
15.4040346209999992
 30
0.0
 10
14.7142275049000002
 20
15.4381911289999998
 30
0.0
 10
14.6772890259000004
 20
15.4718885504999992
 30
0.0
 10
14.6399322259000009
 20
15.5051216206000007
 30
0.0
 10
14.6021629417999996
 20
15.5378851464000007
 30
0.0
 10
14.563987075
 20
15.5701740089000005
 30
0.0
 10
14.5254105903999999
 20
15.6019831629999999
 30
0.0
 10
14.4864395155000008
 20
15.6333076384999998
 30
0.0
 10
14.4470799393
 20
15.6641425411000004
 30
0.0
 10
14.4073380119000003
 20
15.6944830528000008
 30
0.0
 10
14.3672199427000002
 20
15.7243244329999996
 30
0.0
 10
14.3267320001999998
 20
15.7536620192000001
 30
0.0
 10
14.2858805105000002
 20
15.7824912271999995
 30
0.0
 10
14.2446718566000001
 20
15.8108075527
 30
0.0
 10
14.2031124771999995
 20
15.8386065711999997
 30
0.0
 10
14.1612088658000008
 20
15.8658839391999997
 30
0.0
 10
14.1189675700000006
 20
15.8926353947999992
 30
0.0
 10
14.0763951896999995
 20
15.9188567579000004
 30
0.0
 10
14.0334983768000008
 20
15.9445439316000002
 30
0.0
 10
13.9902838338999995
 20
15.9696929024000003
 30
0.0
 10
13.9467583132000001
 20
15.9942997407000007
 30
0.0
 10
13.9029286153000005
 20
16.0183606016999995
 30
0.0
 10
13.8588015887000005
 20
16.0418717260999983
 30
0.0
 10
13.8143841281000004
 20
16.0648294402000005
 30
0.0
 10
13.7696831735000007
 20
16.0872301570000005
 30
0.0
 10
13.7247057096000002
 20
16.1090703763999983
 30
0.0
 10
13.6794587637999996
 20
16.1303466859000011
 30
0.0
 10
13.6339494058999993
 20
16.1510557609999985
 30
0.0
 10
13.5881847466999996
 20
16.1711943662000017
 30
0.0
 10
13.5421719368000009
 20
16.1907593546999991
 30
0.0
 10
13.4959181656999991
 20
16.2097476695000005
 30
0.0
 10
13.4494306602999991
 20
16.2281563439000003
 30
0.0
 10
13.4027166841999996
 20
16.2459825014000003
 30
0.0
 10
13.3557835365000006
 20
16.2632233566999993
 30
0.0
 10
13.3086385502999995
 20
16.2798762160000017
 30
0.0
 10
13.2612890920000002
 20
16.2959384774
 30
0.0
 10
13.2137425597
 20
16.3114076310999998
 30
0.0
 10
13.1660063825000009
 20
16.3262812601999983
 30
0.0
 10
13.1180880192
 20
16.3405570404999985
 30
0.0
 10
13.0699949569000005
 20
16.3542327416999989
 30
0.0
 10
13.0217347099000005
 20
16.3673062268000002
 30
0.0
 10
12.9733148190000005
 20
16.3797754532000006
 30
0.0
 10
12.9247428494999994
 20
16.3916384724999986
 30
0.0
 10
12.8760263906999999
 20
16.4028934313000008
 30
0.0
 10
12.8271730545999993
 20
16.4135385708999983
 30
0.0
 10
12.7781904743000005
 20
16.4235722280999994
 30
0.0
 10
12.7290863033000008
 20
16.4329928350999985
 30
0.0
 10
12.6798682140000007
 20
16.4417989200000001
 30
0.0
 10
12.6305438966000008
 20
16.4499891068000004
 30
0.0
 10
12.5811210579000008
 20
16.4575621157999983
 30
0.0
 10
12.5316074202000003
 20
16.464516763799999
 30
0.0
 10
12.4820107197999999
 20
16.4708519642000013
 30
0.0
 10
12.4323387062999995
 20
16.4765667268999998
 30
0.0
 10
12.3825991406
 20
16.4816601592999987
 30
0.0
 10
12.3327997944999996
 20
16.4861314653000015
 30
0.0
 10
12.2829484489999992
 20
16.4899799463999983
 30
0.0
 10
12.2330528934
 20
16.4932050013000016
 30
0.0
 10
12.1831209237000007
 20
16.4958061260000015
 30
0.0
 10
12.1331603417
 20
16.4977829141000001
 30
0.0
 10
12.0831789535999992
 20
16.4991350568000001
 30
0.0
 10
12.0331845688999994
 20
16.4998623426999984
 30
0.0
 10
11.9999996424000006
 20
16.5
 30
0.0
  0
LINE
  5
5F
100
AcDbEntity
  8
0
 62
0
370
-1
 48
1.0
  6
BYLAYER
100
AcDbLine
 10
-16.0000003576000012
 20
-12.5
 30
0.0
 11
-16.0000003576000012
 21
12.5
 31
0.0
  0
LINE
  5
60
100
AcDbEntity
  8
0
 62
0
370
-1
 48
1.0
  6
BYLAYER
100
AcDbLine
 10
11.9999996424000006
 20
-16.5
 30
0.0
 11
-12.0000003575999994
 21
-16.5
 31
0.0
  0
LINE
  5
61
100
AcDbEntity
  8
0
 62
0
370
-1
 48
1.0
  6
BYLAYER
100
AcDbLine
 10
15.9999996424000006
 20
-11.5
 30
0.0
 11
15.9999996424000006
 21
-12.5
 31
0.0
  0
LINE
  5
62
100
AcDbEntity
  8
0
 62
0
370
-1
 48
1.0
  6
BYLAYER
100
AcDbLine
 10
15.9999996424000006
 20
-11.5
 30
0.0
 11
12.4999996424000006
 21
-11.5
 31
0.0
  0
LINE
  5
63
100
AcDbEntity
  8
0
 62
0
370
-1
 48
1.0
  6
BYLAYER
100
AcDbLine
 10
12.4999996424000006
 20
-11.5
 30
0.0
 11
12.4999996424000006
 21
-13.0
 31
0.0
  0
LINE
  5
64
100
AcDbEntity
  8
0
 62
0
370
-1
 48
1.0
  6
BYLAYER
100
AcDbLine
 10
-12.5000003575999994
 20
-13.0
 30
0.0
 11
12.4999996424000006
 21
-13.0
 31
0.0
  0
LINE
  5
65
100
AcDbEntity
  8
0
 62
0
370
-1
 48
1.0
  6
BYLAYER
100
AcDbLine
 10
-12.5000003575999994
 20
13.0
 30
0.0
 11
-12.5000003575999994
 21
-13.0
 31
0.0
  0
LINE
  5
66
100
AcDbEntity
  8
0
 62
0
370
-1
 48
1.0
  6
BYLAYER
100
AcDbLine
 10
12.4999996424000006
 20
13.0
 30
0.0
 11
-12.5000003575999994
 21
13.0
 31
0.0
  0
LINE
  5
67
100
AcDbEntity
  8
0
 62
0
370
-1
 48
1.0
  6
BYLAYER
100
AcDbLine
 10
12.4999996424000006
 20
13.0
 30
0.0
 11
12.4999996424000006
 21
11.5
 31
0.0
  0
LINE
  5
68
100
AcDbEntity
  8
0
 62
0
370
-1
 48
1.0
  6
BYLAYER
100
AcDbLine
 10
12.4999996424000006
 20
11.5
 30
0.0
 11
15.9999996424000006
 21
11.5
 31
0.0
  0
LINE
  5
69
100
AcDbEntity
  8
0
 62
0
370
-1
 48
1.0
  6
BYLAYER
100
AcDbLine
 10
15.9999996424000006
 20
12.5
 30
0.0
 11
15.9999996424000006
 21
11.5
 31
0.0
  0
LINE
  5
6A
100
AcDbEntity
  8
0
 62
0
370
-1
 48
1.0
  6
BYLAYER
100
AcDbLine
 10
-12.0000003575999994
 20
16.5
 30
0.0
 11
11.9999996424000006
 21
16.5
 31
0.0
  0
ENDBLK
  5
6B
100
AcDbEntity
  8
0
100
AcDbBlockEnd
  0
ENDSEC
  0
SECTION
  2
ENTITIES
  0
INSERT
  5
6C
100
AcDbEntity
  8
0
 62
0
370
-1
 48
1.0
  6
BYLAYER
100
AcDbBlockReference
  2
BODY009
 10
0.0
 20
0.0
 30
0.0
  0
ENDSEC
  0
SECTION
  2
OBJECTS
  0
DICTIONARY
  5
C
100
AcDbDictionary
280
0
281
1
  3
ACAD_GROUP
350
D
  3
ACAD_LAYOUT
350
1A
  3
ACAD_MLINESTYLE
350
17
  3
ACAD_PLOTSETTINGS
350
19
  3
ACAD_PLOTSTYLENAME
350
E
  3
AcDbVariableDictionary
350
6D
  3
QCAD_OBJECTS
350
6E
  0
DICTIONARY
  5
D
100
AcDbDictionary
280
0
281
1
  0
ACDBDICTIONARYWDFLT
  5
E
100
AcDbDictionary
281
1
  3
Normal
350
F
100
AcDbDictionaryWithDefault
340
F
  0
ACDBPLACEHOLDER
  5
F
  0
DICTIONARY
  5
17
100
AcDbDictionary
280
0
281
1
  3
Standard
350
18
  0
MLINESTYLE
  5
18
100
AcDbMlineStyle
  2
STANDARD
 70
0
  3

 62
256
 51
90.0
 52
90.0
 71
2
 49
0.5
 62
256
  6
BYLAYER
 49
-0.5
 62
256
  6
BYLAYER
  0
DICTIONARY
  5
19
100
AcDbDictionary
280
0
281
1
  0
DICTIONARY
  5
1A
100
AcDbDictionary
281
1
  3
Layout1
350
1E
  3
Layout2
350
26
  3
Model
350
22
  0
LAYOUT
  5
1E
100
AcDbPlotSettings
  1

  2
none_device
  4

  6

 40
0.0
 41
0.0
 42
0.0
 43
0.0
 44
0.0
 45
0.0
 46
0.0
 47
0.0
 48
0.0
 49
0.0
140
0.0
141
0.0
142
1.0
143
1.0
 70
688
 72
0
 73
0
 74
5
  7

 75
16
147
1.0
148
0.0
149
0.0
100
AcDbLayout
  1
Layout1
 70
1
 71
1
 10
0.0
 20
0.0
 11
420.0
 21
297.0
 12
0.0
 22
0.0
 32
0.0
 14
100000000000000000000.0
 24
100000000000000000000.0
 34
100000000000000000000.0
 15
-100000000000000000000.0
 25
-100000000000000000000.0
 35
-100000000000000000000.0
146
0.0
 13
0.0
 23
0.0
 33
0.0
 16
1.0
 26
0.0
 36
0.0
 17
0.0
 27
1.0
 37
0.0
 76
0
330
1B
  0
LAYOUT
  5
22
100
AcDbPlotSettings
  1

  2
none_device
  4

  6

 40
0.0
 41
0.0
 42
0.0
 43
0.0
 44
0.0
 45
0.0
 46
0.0
 47
0.0
 48
0.0
 49
0.0
140
0.0
141
0.0
142
1.0
143
1.0
 70
1712
 72
0
 73
0
 74
0
  7

 75
0
147
1.0
148
0.0
149
0.0
100
AcDbLayout
  1
Model
 70
1
 71
0
 10
0.0
 20
0.0
 11
12.0
 21
9.0
 12
0.0
 22
0.0
 32
0.0
 14
0.0
 24
0.0
 34
0.0
 15
0.0
 25
0.0
 35
0.0
146
0.0
 13
0.0
 23
0.0
 33
0.0
 16
1.0
 26
0.0
 36
0.0
 17
0.0
 27
1.0
 37
0.0
 76
0
330
1F
  0
LAYOUT
  5
26
100
AcDbPlotSettings
  1

  2
none_device
  4

  6

 40
0.0
 41
0.0
 42
0.0
 43
0.0
 44
0.0
 45
0.0
 46
0.0
 47
0.0
 48
0.0
 49
0.0
140
0.0
141
0.0
142
1.0
143
1.0
 70
688
 72
0
 73
0
 74
5
  7

 75
16
147
1.0
148
0.0
149
0.0
100
AcDbLayout
  1
Layout2
 70
1
 71
2
 10
0.0
 20
0.0
 11
12.0
 21
9.0
 12
0.0
 22
0.0
 32
0.0
 14
0.0
 24
0.0
 34
0.0
 15
0.0
 25
0.0
 35
0.0
146
0.0
 13
0.0
 23
0.0
 33
0.0
 16
1.0
 26
0.0
 36
0.0
 17
0.0
 27
1.0
 37
0.0
 76
0
330
23
  0
DICTIONARY
  5
6D
100
AcDbDictionary
281
1
  3
DIMASSOC
350
70
  3
HIDETEXT
350
6F
  0
DICTIONARYVAR
  5
6F
100
DictionaryVariables
280
0
  1
2
  0
DICTIONARYVAR
  5
70
100
DictionaryVariables
280
0
  1
1
  0
DICTIONARY
  5
6E
100
AcDbDictionary
281
1
  3
ColorSettings/BackgroundColor
350
71
  3
ColorSettings/ColorMode
350
72
  3
Grid/DisplayGrid00
350
73
  3
Grid/DisplayGrid01
350
74
  3
Grid/DisplayGrid02
350
75
  3
Grid/DisplayGrid03
350
76
  3
Grid/GridSpacingX00
350
77
  3
Grid/GridSpacingX01
350
78
  3
Grid/GridSpacingX02
350
79
  3
Grid/GridSpacingX03
350
7A
  3
Grid/GridSpacingY00
350
7B
  3
Grid/GridSpacingY01
350
7C
  3
Grid/GridSpacingY02
350
7D
  3
Grid/GridSpacingY03
350
7E
  3
Grid/IsometricGrid00
350
7F
  3
Grid/IsometricGrid01
350
80
  3
Grid/IsometricGrid02
350
81
  3
Grid/IsometricGrid03
350
82
  3
Grid/IsometricProjection00
350
83
  3
Grid/IsometricProjection01
350
84
  3
Grid/IsometricProjection02
350
85
  3
Grid/IsometricProjection03
350
86
  3
Grid/MetaGridSpacingX00
350
87
  3
Grid/MetaGridSpacingX01
350
88
  3
Grid/MetaGridSpacingX02
350
89
  3
Grid/MetaGridSpacingX03
350
8A
  3
Grid/MetaGridSpacingY00
350
8B
  3
Grid/MetaGridSpacingY01
350
8C
  3
Grid/MetaGridSpacingY02
350
8D
  3
Grid/MetaGridSpacingY03
350
8E
  3
MultiPageSettings/Columns
350
8F
  3
MultiPageSettings/GlueMarginsBottom
350
90
  3
MultiPageSettings/GlueMarginsLeft
350
91
  3
MultiPageSettings/GlueMarginsRight
350
92
  3
MultiPageSettings/GlueMarginsTop
350
93
  3
MultiPageSettings/PrintCropMarks
350
94
  3
MultiPageSettings/Rows
350
95
  3
PageSettings/OffsetX
350
96
  3
PageSettings/OffsetY
350
97
  3
PageSettings/PageOrientation
350
98
  3
PageSettings/PaperHeight
350
99
  3
PageSettings/PaperWidth
350
9A
  3
PageSettings/Scale
350
9B
  3
PageSettings/ShowPaperBorders
350
9C
  3
UnitSettings/PaperUnit
350
9D
  3
ViewportCenter
350
9E
  3
ViewportHeight
350
9F
  3
ViewportWidth
350
A0
  0
XRECORD
  5
71
330
6E
100
AcDbXrecord
280
1
1000
Blanca
  0
XRECORD
  5
72
330
6E
100
AcDbXrecord
280
1
1000
FullColor
  0
XRECORD
  5
73
330
6E
100
AcDbXrecord
280
1
290
1
  0
XRECORD
  5
74
330
6E
100
AcDbXrecord
280
1
290
1
  0
XRECORD
  5
75
330
6E
100
AcDbXrecord
280
1
290
1
  0
XRECORD
  5
76
330
6E
100
AcDbXrecord
280
1
290
1
  0
XRECORD
  5
77
330
6E
100
AcDbXrecord
280
1
1000
auto
  0
XRECORD
  5
78
330
6E
100
AcDbXrecord
280
1
1000
auto
  0
XRECORD
  5
79
330
6E
100
AcDbXrecord
280
1
1000
auto
  0
XRECORD
  5
7A
330
6E
100
AcDbXrecord
280
1
1000
auto
  0
XRECORD
  5
7B
330
6E
100
AcDbXrecord
280
1
1000
auto
  0
XRECORD
  5
7C
330
6E
100
AcDbXrecord
280
1
1000
auto
  0
XRECORD
  5
7D
330
6E
100
AcDbXrecord
280
1
1000
auto
  0
XRECORD
  5
7E
330
6E
100
AcDbXrecord
280
1
1000
auto
  0
XRECORD
  5
7F
330
6E
100
AcDbXrecord
280
1
290
0
  0
XRECORD
  5
80
330
6E
100
AcDbXrecord
280
1
290
0
  0
XRECORD
  5
81
330
6E
100
AcDbXrecord
280
1
290
0
  0
XRECORD
  5
82
330
6E
100
AcDbXrecord
280
1
290
0
  0
XRECORD
  5
83
330
6E
100
AcDbXrecord
280
1
 90
0
  0
XRECORD
  5
84
330
6E
100
AcDbXrecord
280
1
 90
0
  0
XRECORD
  5
85
330
6E
100
AcDbXrecord
280
1
 90
0
  0
XRECORD
  5
86
330
6E
100
AcDbXrecord
280
1
 90
0
  0
XRECORD
  5
87
330
6E
100
AcDbXrecord
280
1
1000
auto
  0
XRECORD
  5
88
330
6E
100
AcDbXrecord
280
1
1000
auto
  0
XRECORD
  5
89
330
6E
100
AcDbXrecord
280
1
1000
auto
  0
XRECORD
  5
8A
330
6E
100
AcDbXrecord
280
1
1000
auto
  0
XRECORD
  5
8B
330
6E
100
AcDbXrecord
280
1
1000
auto
  0
XRECORD
  5
8C
330
6E
100
AcDbXrecord
280
1
1000
auto
  0
XRECORD
  5
8D
330
6E
100
AcDbXrecord
280
1
1000
auto
  0
XRECORD
  5
8E
330
6E
100
AcDbXrecord
280
1
1000
auto
  0
XRECORD
  5
8F
330
6E
100
AcDbXrecord
280
1
 90
1
  0
XRECORD
  5
90
330
6E
100
AcDbXrecord
280
1
 40
10.0
  0
XRECORD
  5
91
330
6E
100
AcDbXrecord
280
1
 40
10.0
  0
XRECORD
  5
92
330
6E
100
AcDbXrecord
280
1
 40
10.0
  0
XRECORD
  5
93
330
6E
100
AcDbXrecord
280
1
 40
10.0
  0
XRECORD
  5
94
330
6E
100
AcDbXrecord
280
1
290
0
  0
XRECORD
  5
95
330
6E
100
AcDbXrecord
280
1
 90
1
  0
XRECORD
  5
96
330
6E
100
AcDbXrecord
280
1
 40
0.0
  0
XRECORD
  5
97
330
6E
100
AcDbXrecord
280
1
 40
0.0
  0
XRECORD
  5
98
330
6E
100
AcDbXrecord
280
1
1000
Portrait
  0
XRECORD
  5
99
330
6E
100
AcDbXrecord
280
1
 40
297.0
  0
XRECORD
  5
9A
330
6E
100
AcDbXrecord
280
1
 40
210.0
  0
XRECORD
  5
9B
330
6E
100
AcDbXrecord
280
1
1000
1:1
  0
XRECORD
  5
9C
330
6E
100
AcDbXrecord
280
1
290
1
  0
XRECORD
  5
9D
330
6E
100
AcDbXrecord
280
1
 90
4
  0
XRECORD
  5
9F
330
6E
100
AcDbXrecord
280
1
 40
35.7768976897689726
  0
XRECORD
  5
A0
330
6E
100
AcDbXrecord
280
1
 40
71.9355610561055983
  0
ENDSEC
  0
EOF
