999
dxflib 3.12.2.0
  0
SECTION
  2
HEADER
  9
$ACADVER
  1
AC1015
  9
$HANDSEED
  5
FFFF
  9
$DIMADEC
 70
0
  9
$DIMASZ
 40
0.18
  9
$DIMAUNIT
 70
0
  9
$DIMAZIN
 70
0
  9
$DIMDEC
 70
4
  9
$DIMEXE
 40
0.18
  9
$DIMEXO
 40
0.0625
  9
$DIMGAP
 40
0.09
  9
$DIMLUNIT
 70
2
  9
$DIMSCALE
 40
1.0
  9
$DIMTSZ
 40
0.0
  9
$DIMTXT
 40
0.18
  9
$DIMZIN
 70
0
  9
$DWGCODEPAGE
  3
ANSI_1252
  9
$EXTMAX
 10
0.0
 20
0.0
 30
0.0
  9
$EXTMIN
 10
0.0
 20
0.0
 30
0.0
  9
$INSBASE
 10
0.0
 20
0.0
 30
0.0
  9
$INSUNITS
 70
0
  9
$LTSCALE
 40
1.0
  9
$MAXACTVP
 70
32
  9
$MEASUREMENT
 70
1
  9
$PDMODE
 70
0
  9
$PDSIZE
 40
0
  0
ENDSEC
  0
SECTION
  2
TABLES
  0
TABLE
  2
VPORT
  5
8
100
AcDbSymbolTable
 70
1
  0
VPORT
  5
30
100
AcDbSymbolTableRecord
100
AcDbViewportTableRecord
  2
*Active
 70
0
 10
0.0
 20
0.0
 11
1.0
 21
1.0
 12
286.3055555555554861
 22
148.5
 13
0.0
 23
0.0
 14
10.0
 24
10.0
 15
10.0
 25
10.0
 16
0.0
 26
0.0
 36
1.0
 17
0.0
 27
0.0
 37
0.0
 40
297.0
 41
1.92798353909465
 42
50.0
 43
0.0
 44
0.0
 50
0.0
 51
0.0
 71
0
 72
100
 73
1
 74
3
 75
1
 76
1
 77
0
 78
0
281
0
 65
1
110
0.0
120
0.0
130
0.0
111
1.0
121
0.0
131
0.0
112
0.0
122
1.0
132
0.0
 79
0
146
0.0
  0
ENDTAB
  0
TABLE
  2
LTYPE
  5
5
100
AcDbSymbolTable
 70
41
  0
LTYPE
  5
16
100
AcDbSymbolTableRecord
100
AcDbLinetypeTableRecord
  2
CONTINUOUS
 70
0
  3
Solid line
 72
65
 73
0
 40
0.0
  0
LTYPE
  5
31
100
AcDbSymbolTableRecord
100
AcDbLinetypeTableRecord
  2
ACAD_ISO15W100
 70
0
  3
ISO double-dash triple-dot __ __ . . . __ __ . .
 72
65
 73
10
 40
39.0
 49
12.0
 74
0
 49
-3.0
 74
0
 49
12.0
 74
0
 49
-3.0
 74
0
 49
0.0
 74
0
 49
-3.0
 74
0
 49
0.0
 74
0
 49
-3.0
 74
0
 49
0.0
 74
0
 49
-3.0
 74
0
  0
LTYPE
  5
32
100
AcDbSymbolTableRecord
100
AcDbLinetypeTableRecord
  2
DIVIDE
 70
0
  3
Divide ____ . . ____ . . ____ . . ____ . . ____
 72
65
 73
6
 40
31.75
 49
12.6999999999999993
 74
0
 49
-6.3499999999999996
 74
0
 49
0.0
 74
0
 49
-6.3499999999999996
 74
0
 49
0.0
 74
0
 49
-6.3499999999999996
 74
0
  0
LTYPE
  5
33
100
AcDbSymbolTableRecord
100
AcDbLinetypeTableRecord
  2
ACAD_ISO10W100
 70
0
  3
ISO dash dot __ . __ . __ . __ . __ . __ . __ . 
 72
65
 73
4
 40
18.0
 49
12.0
 74
0
 49
-3.0
 74
0
 49
0.0
 74
0
 49
-3.0
 74
0
  0
LTYPE
  5
34
100
AcDbSymbolTableRecord
100
AcDbLinetypeTableRecord
  2
ACAD_ISO04W100
 70
0
  3
ISO long-dash dot ____ . ____ . ____ . ____ . _
 72
65
 73
4
 40
30.0
 49
24.0
 74
0
 49
-3.0
 74
0
 49
0.0
 74
0
 49
-3.0
 74
0
  0
LTYPE
  5
35
100
AcDbSymbolTableRecord
100
AcDbLinetypeTableRecord
  2
CENTER2
 70
0
  3
Center (.5x) ___ _ ___ _ ___ _ ___ _ ___ _ ___
 72
65
 73
4
 40
28.5750000000000028
 49
19.0500000000000007
 74
0
 49
-3.1749999999999998
 74
0
 49
3.1749999999999998
 74
0
 49
-3.1749999999999998
 74
0
  0
LTYPE
  5
36
100
AcDbSymbolTableRecord
100
AcDbLinetypeTableRecord
  2
ACAD_ISO11W100
 70
0
  3
ISO double-dash dot __ __ . __ __ . __ __ . __ _
 72
65
 73
6
 40
33.0
 49
12.0
 74
0
 49
-3.0
 74
0
 49
12.0
 74
0
 49
-3.0
 74
0
 49
0.0
 74
0
 49
-3.0
 74
0
  0
LTYPE
  5
37
100
AcDbSymbolTableRecord
100
AcDbLinetypeTableRecord
  2
HIDDEN2
 70
0
  3
Hidden (.5x) _ _ _ _ _ _ _ _ _ _ _ _ _ _ _ _ _ 
 72
65
 73
2
 40
4.7624999999999993
 49
3.1749999999999998
 74
0
 49
-1.5874999999999999
 74
0
  0
LTYPE
  5
38
100
AcDbSymbolTableRecord
100
AcDbLinetypeTableRecord
  2
BORDERX2
 70
0
  3
Border (2x) ____  ____  .  ____  ____  .  ___
 72
65
 73
6
 40
88.8999999999999915
 49
25.3999999999999986
 74
0
 49
-12.6999999999999993
 74
0
 49
25.3999999999999986
 74
0
 49
-12.6999999999999993
 74
0
 49
0.0
 74
0
 49
-12.6999999999999993
 74
0
  0
LTYPE
  5
39
100
AcDbSymbolTableRecord
100
AcDbLinetypeTableRecord
  2
ACAD_ISO05W100
 70
0
  3
ISO long-dash double-dot ____ .. ____ .. ____ . 
 72
65
 73
6
 40
33.0
 49
24.0
 74
0
 49
-3.0
 74
0
 49
0.0
 74
0
 49
-3.0
 74
0
 49
0.0
 74
0
 49
-3.0
 74
0
  0
LTYPE
  5
3A
100
AcDbSymbolTableRecord
100
AcDbLinetypeTableRecord
  2
DASHDOTX2
 70
0
  3
Dash dot (2x) ____  .  ____  .  ____  .  ___
 72
65
 73
4
 40
50.7999999999999972
 49
25.3999999999999986
 74
0
 49
-12.6999999999999993
 74
0
 49
0.0
 74
0
 49
-12.6999999999999993
 74
0
  0
LTYPE
  5
3B
100
AcDbSymbolTableRecord
100
AcDbLinetypeTableRecord
  2
HIDDENX2
 70
0
  3
Hidden (2x) ____ ____ ____ ____ ____ ____ ____ 
 72
65
 73
2
 40
19.0499999999999972
 49
12.6999999999999993
 74
0
 49
-6.3499999999999996
 74
0
  0
LTYPE
  5
3C
100
AcDbSymbolTableRecord
100
AcDbLinetypeTableRecord
  2
CENTERX2
 70
0
  3
Center (2x) ________  __  ________  __  _____
 72
65
 73
4
 40
101.6000000000000085
 49
63.5
 74
0
 49
-12.6999999999999993
 74
0
 49
12.6999999999999993
 74
0
 49
-12.6999999999999993
 74
0
  0
LTYPE
  5
3D
100
AcDbSymbolTableRecord
100
AcDbLinetypeTableRecord
  2
BORDER2
 70
0
  3
Border (.5x) __.__.__.__.__.__.__.__.__.__.__.
 72
65
 73
6
 40
22.2249999999999979
 49
6.3499999999999996
 74
0
 49
-3.1749999999999998
 74
0
 49
6.3499999999999996
 74
0
 49
-3.1749999999999998
 74
0
 49
0.0
 74
0
 49
-3.1749999999999998
 74
0
  0
LTYPE
  5
3E
100
AcDbSymbolTableRecord
100
AcDbLinetypeTableRecord
  2
DASHDOT2
 70
0
  3
Dash dot (.5x) _._._._._._._._._._._._._._._.
 72
65
 73
4
 40
12.6999999999999993
 49
6.3499999999999996
 74
0
 49
-3.1749999999999998
 74
0
 49
0.0
 74
0
 49
-3.1749999999999998
 74
0
  0
LTYPE
  5
3F
100
AcDbSymbolTableRecord
100
AcDbLinetypeTableRecord
  2
ACAD_ISO12W100
 70
0
  3
ISO dash double-dot __ . . __ . . __ . . __ . . 
 72
65
 73
6
 40
21.0
 49
12.0
 74
0
 49
-3.0
 74
0
 49
0.0
 74
0
 49
-3.0
 74
0
 49
0.0
 74
0
 49
-3.0
 74
0
  0
LTYPE
  5
40
100
AcDbSymbolTableRecord
100
AcDbLinetypeTableRecord
  2
ACAD_ISO07W100
 70
0
  3
ISO dot . . . . . . . . . . . . . . . . . . . . 
 72
65
 73
2
 40
3.0
 49
0.0
 74
0
 49
-3.0
 74
0
  0
LTYPE
  5
41
100
AcDbSymbolTableRecord
100
AcDbLinetypeTableRecord
  2
HIDDEN
 70
0
  3
Hidden __ __ __ __ __ __ __ __ __ __ __ __ __ __
 72
65
 73
2
 40
9.5249999999999986
 49
6.3499999999999996
 74
0
 49
-3.1749999999999998
 74
0
  0
LTYPE
  5
42
100
AcDbSymbolTableRecord
100
AcDbLinetypeTableRecord
  2
ACAD_ISO06W100
 70
0
  3
ISO long-dash triple-dot ____ ... ____ ... ____
 72
65
 73
8
 40
36.0
 49
24.0
 74
0
 49
-3.0
 74
0
 49
0.0
 74
0
 49
-3.0
 74
0
 49
0.0
 74
0
 49
-3.0
 74
0
 49
0.0
 74
0
 49
-3.0
 74
0
  0
LTYPE
  5
43
100
AcDbSymbolTableRecord
100
AcDbLinetypeTableRecord
  2
CENTER
 70
0
  3
Center ____ _ ____ _ ____ _ ____ _ ____ _ ____
 72
65
 73
4
 40
50.8000000000000043
 49
31.75
 74
0
 49
-6.3499999999999996
 74
0
 49
6.3499999999999996
 74
0
 49
-6.3499999999999996
 74
0
  0
LTYPE
  5
44
100
AcDbSymbolTableRecord
100
AcDbLinetypeTableRecord
  2
DOTX2
 70
0
  3
Dot (2x) .  .  .  .  .  .  .  .  .  .  .  .  .  .
 72
65
 73
2
 40
12.6999999999999993
 49
0.0
 74
0
 49
-12.6999999999999993
 74
0
  0
LTYPE
  5
45
100
AcDbSymbolTableRecord
100
AcDbLinetypeTableRecord
  2
PHANTOM
 70
0
  3
Phantom ______  __  __  ______  __  __  ______ 
 72
65
 73
6
 40
63.5000000000000071
 49
31.75
 74
0
 49
-6.3499999999999996
 74
0
 49
6.3499999999999996
 74
0
 49
-6.3499999999999996
 74
0
 49
6.3499999999999996
 74
0
 49
-6.3499999999999996
 74
0
  0
LTYPE
  5
46
100
AcDbSymbolTableRecord
100
AcDbLinetypeTableRecord
  2
ACAD_ISO08W100
 70
0
  3
ISO long-dash short-dash ____ __ ____ __ ____ _
 72
65
 73
4
 40
36.0
 49
24.0
 74
0
 49
-3.0
 74
0
 49
6.0
 74
0
 49
-3.0
 74
0
  0
LTYPE
  5
47
100
AcDbSymbolTableRecord
100
AcDbLinetypeTableRecord
  2
DASHEDX2
 70
0
  3
Dashed (2x) ____  ____  ____  ____  ____  ___
 72
65
 73
2
 40
38.0999999999999943
 49
25.3999999999999986
 74
0
 49
-12.6999999999999993
 74
0
  0
LTYPE
  5
48
100
AcDbSymbolTableRecord
100
AcDbLinetypeTableRecord
  2
ACAD_ISO02W100
 70
0
  3
ISO dash __ __ __ __ __ __ __ __ __ __ __ __ __
 72
65
 73
2
 40
15.0
 49
12.0
 74
0
 49
-3.0
 74
0
  0
LTYPE
  5
49
100
AcDbSymbolTableRecord
100
AcDbLinetypeTableRecord
  2
PHANTOM2
 70
0
  3
Phantom (.5x) ___ _ _ ___ _ _ ___ _ _ ___ _ _
 72
65
 73
6
 40
31.7500000000000036
 49
15.875
 74
0
 49
-3.1749999999999998
 74
0
 49
3.1749999999999998
 74
0
 49
-3.1749999999999998
 74
0
 49
3.1749999999999998
 74
0
 49
-3.1749999999999998
 74
0
  0
LTYPE
  5
4A
100
AcDbSymbolTableRecord
100
AcDbLinetypeTableRecord
  2
DASHED2
 70
0
  3
Dashed (.5x) _ _ _ _ _ _ _ _ _ _ _ _ _ _ _ _ _ 
 72
65
 73
2
 40
9.5249999999999986
 49
6.3499999999999996
 74
0
 49
-3.1749999999999998
 74
0
  0
LTYPE
  5
4B
100
AcDbSymbolTableRecord
100
AcDbLinetypeTableRecord
  2
ACAD_ISO09W100
 70
0
  3
ISO long-dash double-short-dash ____ __ __ ____
 72
65
 73
6
 40
45.0
 49
24.0
 74
0
 49
-3.0
 74
0
 49
6.0
 74
0
 49
-3.0
 74
0
 49
6.0
 74
0
 49
-3.0
 74
0
  0
LTYPE
  5
4C
100
AcDbSymbolTableRecord
100
AcDbLinetypeTableRecord
  2
ACAD_ISO13W100
 70
0
  3
ISO double-dash double-dot __ __ . . __ __ . . _
 72
65
 73
8
 40
36.0
 49
12.0
 74
0
 49
-3.0
 74
0
 49
12.0
 74
0
 49
-3.0
 74
0
 49
0.0
 74
0
 49
-3.0
 74
0
 49
0.0
 74
0
 49
-3.0
 74
0
  0
LTYPE
  5
4D
100
AcDbSymbolTableRecord
100
AcDbLinetypeTableRecord
  2
DOT2
 70
0
  3
Dot (.5x) ........................................
 72
65
 73
2
 40
3.1749999999999998
 49
0.0
 74
0
 49
-3.1749999999999998
 74
0
  0
LTYPE
  5
4E
100
AcDbSymbolTableRecord
100
AcDbLinetypeTableRecord
  2
DASHED
 70
0
  3
Dashed __ __ __ __ __ __ __ __ __ __ __ __ __ _
 72
65
 73
2
 40
19.0499999999999972
 49
12.6999999999999993
 74
0
 49
-6.3499999999999996
 74
0
  0
LTYPE
  5
4F
100
AcDbSymbolTableRecord
100
AcDbLinetypeTableRecord
  2
ACAD_ISO14W100
 70
0
  3
ISO dash triple-dot __ . . . __ . . . __ . . . _
 72
65
 73
8
 40
24.0
 49
12.0
 74
0
 49
-3.0
 74
0
 49
0.0
 74
0
 49
-3.0
 74
0
 49
0.0
 74
0
 49
-3.0
 74
0
 49
0.0
 74
0
 49
-3.0
 74
0
  0
LTYPE
  5
15
100
AcDbSymbolTableRecord
100
AcDbLinetypeTableRecord
  2
BYLAYER
 70
0
  3

 72
65
 73
0
 40
0.0
  0
LTYPE
  5
50
100
AcDbSymbolTableRecord
100
AcDbLinetypeTableRecord
  2
PHANTOMX2
 70
0
  3
Phantom (2x) ____________    ____    ____   _
 72
65
 73
6
 40
127.0000000000000142
 49
63.5
 74
0
 49
-12.6999999999999993
 74
0
 49
12.6999999999999993
 74
0
 49
-12.6999999999999993
 74
0
 49
12.6999999999999993
 74
0
 49
-12.6999999999999993
 74
0
  0
LTYPE
  5
14
100
AcDbSymbolTableRecord
100
AcDbLinetypeTableRecord
  2
BYBLOCK
 70
0
  3

 72
65
 73
0
 40
0.0
  0
LTYPE
  5
51
100
AcDbSymbolTableRecord
100
AcDbLinetypeTableRecord
  2
DIVIDEX2
 70
0
  3
Divide (2x) ________  .  .  ________  .  .  _
 72
65
 73
6
 40
63.5
 49
25.3999999999999986
 74
0
 49
-12.6999999999999993
 74
0
 49
0.0
 74
0
 49
-12.6999999999999993
 74
0
 49
0.0
 74
0
 49
-12.6999999999999993
 74
0
  0
LTYPE
  5
52
100
AcDbSymbolTableRecord
100
AcDbLinetypeTableRecord
  2
BORDER
 70
0
  3
Border __ __ . __ __ . __ __ . __ __ . __ __ .
 72
65
 73
6
 40
44.4499999999999957
 49
12.6999999999999993
 74
0
 49
-6.3499999999999996
 74
0
 49
12.6999999999999993
 74
0
 49
-6.3499999999999996
 74
0
 49
0.0
 74
0
 49
-6.3499999999999996
 74
0
  0
LTYPE
  5
53
100
AcDbSymbolTableRecord
100
AcDbLinetypeTableRecord
  2
DIVIDE2
 70
0
  3
Divide (.5x) __..__..__..__..__..__..__..__.._
 72
65
 73
6
 40
15.875
 49
6.3499999999999996
 74
0
 49
-3.1749999999999998
 74
0
 49
0.0
 74
0
 49
-3.1749999999999998
 74
0
 49
0.0
 74
0
 49
-3.1749999999999998
 74
0
  0
LTYPE
  5
54
100
AcDbSymbolTableRecord
100
AcDbLinetypeTableRecord
  2
DOT
 70
0
  3
Dot . . . . . . . . . . . . . . . . . . . . . . . .
 72
65
 73
2
 40
6.3499999999999996
 49
0.0
 74
0
 49
-6.3499999999999996
 74
0
  0
LTYPE
  5
55
100
AcDbSymbolTableRecord
100
AcDbLinetypeTableRecord
  2
DASHDOT
 70
0
  3
Dash dot __ . __ . __ . __ . __ . __ . __ . __
 72
65
 73
4
 40
25.3999999999999986
 49
12.6999999999999993
 74
0
 49
-6.3499999999999996
 74
0
 49
0.0
 74
0
 49
-6.3499999999999996
 74
0
  0
LTYPE
  5
56
100
AcDbSymbolTableRecord
100
AcDbLinetypeTableRecord
  2
ACAD_ISO03W100
 70
0
  3
ISO dash space __    __    __    __    __    __
 72
65
 73
2
 40
30.0
 49
12.0
 74
0
 49
-18.0
 74
0
  0
ENDTAB
  0
TABLE
  2
LAYER
  5
2
100
AcDbSymbolTable
 70
1
  0
LAYER
  5
10
100
AcDbSymbolTableRecord
100
AcDbLayerTableRecord
  2
0
 70
0
 62
7
420
16777215
  6
CONTINUOUS
370
5
390
F
  0
ENDTAB
  0
TABLE
  2
STYLE
  5
3
100
AcDbSymbolTable
 70
1
  0
STYLE
  5
57
100
AcDbSymbolTableRecord
100
AcDbTextStyleTableRecord
  2
Standard
 70
0
 40
0.0
 41
1.0
 50
0.0
 71
0
 42
2.5
  3

  4

1001
ACAD
1000
txt
1071
0
  0
ENDTAB
  0
TABLE
  2
VIEW
  5
6
100
AcDbSymbolTable
 70
0
  0
ENDTAB
  0
TABLE
  2
UCS
  5
7
100
AcDbSymbolTable
 70
0
  0
ENDTAB
  0
TABLE
  2
APPID
  5
9
100
AcDbSymbolTable
 70
1
  0
APPID
  5
12
100
AcDbSymbolTableRecord
100
AcDbRegAppTableRecord
  2
ACAD
 70
0
  0
APPID
  5
58
100
AcDbSymbolTableRecord
100
AcDbRegAppTableRecord
  2
QCAD
 70
0
  0
ENDTAB
  0
TABLE
  2
DIMSTYLE
  5
A
100
AcDbSymbolTable
 70
1
100
AcDbDimStyleTable
 71
0
  0
DIMSTYLE
105
27
100
AcDbSymbolTableRecord
100
AcDbDimStyleTableRecord
  2
Standard
 41
0.18
 42
0.0625
 43
3.75
 44
0.18
 70
0
 73
0
 74
0
 77
1
 78
8
140
0.18
141
2.5
143
0.03937007874016
147
0.09
171
3
172
1
271
2
272
2
274
3
278
44
283
0
284
8
340
57
  0
ENDTAB
  0
TABLE
  2
BLOCK_RECORD
  5
1
100
AcDbSymbolTable
 70
1
  0
BLOCK_RECORD
  5
1F
100
AcDbSymbolTableRecord
100
AcDbBlockTableRecord
  2
*Model_Space
340
22
  0
BLOCK_RECORD
  5
1B
100
AcDbSymbolTableRecord
100
AcDbBlockTableRecord
  2
*Paper_Space
340
1E
  0
BLOCK_RECORD
  5
23
100
AcDbSymbolTableRecord
100
AcDbBlockTableRecord
  2
*Paper_Space0
340
26
  0
BLOCK_RECORD
  5
59
100
AcDbSymbolTableRecord
100
AcDbBlockTableRecord
  2
BODY008
340
0
  0
ENDTAB
  0
ENDSEC
  0
SECTION
  2
BLOCKS
  0
BLOCK
  5
20
100
AcDbEntity
  8
0
100
AcDbBlockBegin
  2
*Model_Space
 70
0
 10
0.0
 20
0.0
 30
0.0
  3
*Model_Space
  1

  0
ENDBLK
  5
21
100
AcDbEntity
  8
0
100
AcDbBlockEnd
  0
BLOCK
  5
1C
100
AcDbEntity
 67
1
  8
0
100
AcDbBlockBegin
  2
*Paper_Space
 70
0
 10
0.0
 20
0.0
 30
0.0
  3
*Paper_Space
  1

  0
ENDBLK
  5
1D
100
AcDbEntity
 67
1
  8
0
100
AcDbBlockEnd
  0
BLOCK
  5
24
100
AcDbEntity
  8
0
100
AcDbBlockBegin
  2
*Paper_Space0
 70
0
 10
0.0
 20
0.0
 30
0.0
  3
*Paper_Space0
  1

  0
ENDBLK
  5
25
100
AcDbEntity
  8
0
100
AcDbBlockEnd
  0
BLOCK
  5
5A
100
AcDbEntity
  8
0
100
AcDbBlockBegin
  2
BODY008
 70
0
 10
0.0
 20
0.0
 30
0.0
  3
BODY008
  1

  0
LWPOLYLINE
  5
5B
100
AcDbEntity
  8
0
 62
256
370
-1
 48
1.0
  6
BYLAYER
100
AcDbPolyline
 90
127
 70
0
 10
11.9999992846999994
 20
-16.5
 30
0.0
 10
12.0499979827000008
 20
-16.4996875040999988
 30
0.0
 10
12.0999888684000005
 20
-16.4987500651000012
 30
0.0
 10
12.1499641310000008
 20
-16.4971878296000014
 30
0.0
 10
12.1999159618000004
 20
-16.4950010415999984
 30
0.0
 10
12.2498365561
 20
-16.4921900428000008
 30
0.0
 10
12.2997181137999991
 20
-16.4887552723999988
 30
0.0
 10
12.3495528410999995
 20
-16.4846972672000014
 30
0.0
 10
12.3993329512999999
 20
-16.4800166610999987
 30
0.0
 10
12.4490506664999998
 20
-16.4747141855000017
 30
0.0
 10
12.4986982182999995
 20
-16.4687906688999988
 30
0.0
 10
12.5482678494000002
 20
-16.4622470368999991
 30
0.0
 10
12.5977518146000005
 20
-16.4550843116999985
 30
0.0
 10
12.6471423823000002
 20
-16.447303612799999
 30
0.0
 10
12.6964318351000003
 20
-16.4389061556000016
 30
0.0
 10
12.7456124717999995
 20
-16.4298932523999994
 30
0.0
 10
12.7946766078999996
 20
-16.4202663113999989
 30
0.0
 10
12.8436165773000006
 20
-16.4100268366999984
 30
0.0
 10
12.8924247333000004
 20
-16.3991764282999988
 30
0.0
 10
12.9410934495000003
 20
-16.3877167815
 30
0.0
 10
12.9896151218
 20
-16.3756496867999992
 30
0.0
 10
13.0379821684999992
 20
-16.3629770297999997
 30
0.0
 10
13.0861870325999998
 20
-16.3497007904999982
 30
0.0
 10
13.1342221820000002
 20
-16.3358230432999996
 30
0.0
 10
13.1820801113999995
 20
-16.3213459565000001
 30
0.0
 10
13.2297533431000005
 20
-16.3062717922000004
 30
0.0
 10
13.2772344281999999
 20
-16.2906029056999984
 30
0.0
 10
13.3245159479000002
 20
-16.2743417450999992
 30
0.0
 10
13.3715905145999994
 20
-16.2574908514000001
 30
0.0
 10
13.4184507729
 20
-16.2400528573000003
 30
0.0
 10
13.4650894011000002
 20
-16.2220304876999997
 30
0.0
 10
13.5114991118999992
 20
-16.2034265582999986
 30
0.0
 10
13.5576726539999992
 20
-16.1842439760000012
 30
0.0
 10
13.6036028127000002
 20
-16.1644857381000016
 30
0.0
 10
13.6492824116999998
 20
-16.1441549317999993
 30
0.0
 10
13.6947043136000008
 20
-16.1232547337000014
 30
0.0
 10
13.7398614212000005
 20
-16.101788409400001
 30
0.0
 10
13.7847466788999995
 20
-16.0797593130000003
 30
0.0
 10
13.8293530735000001
 20
-16.0571708864999998
 30
0.0
 10
13.8736736351999994
 20
-16.0340266593000003
 30
0.0
 10
13.9177014392
 20
-16.0103302475999989
 30
0.0
 10
13.9614296059999994
 20
-15.9860853539000001
 30
0.0
 10
14.0048513034000006
 20
-15.9612957664999993
 30
0.0
 10
14.0479597468000001
 20
-15.9359653587000007
 30
0.0
 10
14.0907482005000002
 20
-15.9100980881999998
 30
0.0
 10
14.1332099789000001
 20
-15.8836979969000005
 30
0.0
 10
14.1753384474999997
 20
-15.8567692096999995
 30
0.0
 10
14.2171270237999998
 20
-15.8293159341000003
 30
0.0
 10
14.2585691783000001
 20
-15.8013424596000007
 30
0.0
 10
14.2996584358999996
 20
-15.7728531572000001
 30
0.0
 10
14.3403883765
 20
-15.7438524780000009
 30
0.0
 10
14.3807526360000004
 20
-15.7143449534999995
 30
0.0
 10
14.4207449076999996
 20
-15.6843351942000009
 30
0.0
 10
14.4603589427999992
 20
-15.6538278890000004
 30
0.0
 10
14.4995885517000005
 20
-15.6228278045
 30
0.0
 10
14.5384276048000007
 20
-15.5913397846000006
 30
0.0
 10
14.5768700337000006
 20
-15.5593687491000008
 30
0.0
 10
14.6149098318000004
 20
-15.5269196935
 30
0.0
 10
14.6525410554000004
 20
-15.4939976879000003
 30
0.0
 10
14.6897578247999991
 20
-15.4606078761999992
 30
0.0
 10
14.7265543248000004
 20
-15.4267554755000003
 30
0.0
 10
14.7629248061999991
 20
-15.3924457752000006
 30
0.0
 10
14.7988635860999995
 20
-15.3576841361999996
 30
0.0
 10
14.8343650492000005
 20
-15.3224759898999991
 30
0.0
 10
14.8694236482999997
 20
-15.2868268373999996
 30
0.0
 10
14.9040339058000004
 20
-15.2507422489
 30
0.0
 10
14.9381904136999992
 20
-15.2142278624999996
 30
0.0
 10
14.9718878353000004
 20
-15.1772893834999998
 30
0.0
 10
15.0051209053000001
 20
-15.1399325835000003
 30
0.0
 10
15.0378844312000002
 20
-15.1021632995000008
 30
0.0
 10
15.0701732936999999
 20
-15.0639874326999994
 30
0.0
 10
15.1019824477999993
 20
-15.0254109479999993
 30
0.0
 10
15.1333069232999993
 20
-14.9864398731000001
 30
0.0
 10
15.1641418257999998
 20
-14.9470802969999994
 30
0.0
 10
15.1944823375000002
 20
-14.9073383694999997
 30
0.0
 10
15.2243237178000008
 20
-14.8672203003999996
 30
0.0
 10
15.2536613038999995
 20
-14.8267323578999992
 30
0.0
 10
15.2824905119000007
 20
-14.7858808680999996
 30
0.0
 10
15.3108068373999995
 20
-14.7446722141999995
 30
0.0
 10
15.3386058558999991
 20
-14.7031128348000006
 30
0.0
 10
15.3658832239999992
 20
-14.6612092235000002
 30
0.0
 10
15.3926346795000004
 20
-14.6189679276
 30
0.0
 10
15.4188560425999999
 20
-14.5763955473000006
 30
0.0
 10
15.4445432163999996
 20
-14.5334987345000002
 30
0.0
 10
15.4696921870999997
 20
-14.4902841916000007
 30
0.0
 10
15.4942990254000001
 20
-14.4467586707999995
 30
0.0
 10
15.5183598865000008
 20
-14.4029289729999999
 30
0.0
 10
15.5418710108999996
 20
-14.3588019462999998
 30
0.0
 10
15.5648287249999999
 20
-14.3143844856999998
 30
0.0
 10
15.5872294417999999
 20
-14.2696835312000001
 30
0.0
 10
15.6090696610999995
 20
-14.2247060671999996
 30
0.0
 10
15.6303459706000005
 20
-14.1794591214000008
 30
0.0
 10
15.6510550457999997
 20
-14.1339497635000004
 30
0.0
 10
15.6711936508999994
 20
-14.0881851043000008
 30
0.0
 10
15.6907586394000003
 20
-14.0421722945000003
 30
0.0
 10
15.7097469542999999
 20
-13.9959185233000003
 30
0.0
 10
15.7281556285999997
 20
-13.9494310179000003
 30
0.0
 10
15.7459817860999998
 20
-13.9027170419000008
 30
0.0
 10
15.7632226414000005
 20
-13.8557838941
 30
0.0
 10
15.7798755007999993
 20
-13.8086389079000007
 30
0.0
 10
15.7959377621999995
 20
-13.7612894495999996
 30
0.0
 10
15.8114069158999992
 20
-13.7137429172999994
 30
0.0
 10
15.8262805448999995
 20
-13.6660067402000003
 30
0.0
 10
15.8405563252999997
 20
-13.6180883768999994
 30
0.0
 10
15.8542320264000001
 20
-13.5699953144999998
 30
0.0
 10
15.8673055114999997
 20
-13.5217350675999999
 30
0.0
 10
15.8797747379
 20
-13.4733151765999999
 30
0.0
 10
15.8916377572999998
 20
-13.4247432071000006
 30
0.0
 10
15.9028927161000002
 20
-13.3760267483999993
 30
0.0
 10
15.9135378556999996
 20
-13.3271734122000005
 30
0.0
 10
15.9235715128000006
 20
-13.2781908319999999
 30
0.0
 10
15.9329921197999997
 20
-13.2290866609000002
 30
0.0
 10
15.9417982046999995
 20
-13.1798685716000001
 30
0.0
 10
15.9499883914999998
 20
-13.1305442542000002
 30
0.0
 10
15.9575614004999995
 20
-13.0811214155000002
 30
0.0
 10
15.9645160486000002
 20
-13.0316077777999997
 30
0.0
 10
15.9708512489000007
 20
-12.9820110774999993
 30
0.0
 10
15.9765660116999992
 20
-12.9323390639000007
 30
0.0
 10
15.9816594439999999
 20
-12.8825994981999994
 30
0.0
 10
15.9861307500999992
 20
-12.8328001521000008
 30
0.0
 10
15.9899792311999995
 20
-12.7829488067000003
 30
0.0
 10
15.9932042859999992
 20
-12.7330532510999994
 30
0.0
 10
15.9958054106999992
 20
-12.6831212814000001
 30
0.0
 10
15.9977821987999995
 20
-12.6331606992999994
 30
0.0
 10
15.9991343414999996
 20
-12.5831793112000003
 30
0.0
 10
15.9998616274999996
 20
-12.5331849265000006
 30
0.0
 10
15.9999992846999994
 20
-12.5
 30
0.0
  0
LWPOLYLINE
  5
5C
100
AcDbEntity
  8
0
 62
256
370
-1
 48
1.0
  6
BYLAYER
100
AcDbPolyline
 90
127
 70
0
 10
-16.0000007153000006
 20
-12.5
 30
0.0
 10
-15.9996882192999994
 20
-12.5499986978999996
 30
0.0
 10
-15.9987507804
 20
-12.5999895836999993
 30
0.0
 10
-15.9971885448000002
 20
-12.6499648461999996
 30
0.0
 10
-15.9950017568000007
 20
-12.6999166770999992
 30
0.0
 10
-15.9921907580999996
 20
-12.7498372714000006
 30
0.0
 10
-15.9887559876999994
 20
-12.7997188290999997
 30
0.0
 10
-15.9846979825000002
 20
-12.8495535564000001
 30
0.0
 10
-15.9800173763999993
 20
-12.8993336666000005
 30
0.0
 10
-15.9747149008000004
 20
-12.9490513817000004
 30
0.0
 10
-15.9687913841999993
 20
-12.9986989335000001
 30
0.0
 10
-15.9622477520999997
 20
-13.0482685646000007
 30
0.0
 10
-15.9550850270000009
 20
-13.0977525298999993
 30
0.0
 10
-15.9473043279999995
 20
-13.1471430975000008
 30
0.0
 10
-15.9389068709000004
 20
-13.1964325504000008
 30
0.0
 10
-15.9298939677
 20
-13.245613187
 30
0.0
 10
-15.9202670265999995
 20
-13.2946773232000002
 30
0.0
 10
-15.9100275519000007
 20
-13.3436172925999994
 30
0.0
 10
-15.8991771434999993
 20
-13.3924254484999992
 30
0.0
 10
-15.8877174967000006
 20
-13.4410941648000009
 30
0.0
 10
-15.8756504020999998
 20
-13.4896158370000006
 30
0.0
 10
-15.8629777451000002
 20
-13.5379828837999998
 30
0.0
 10
-15.8497015058000006
 20
-13.5861877478000004
 30
0.0
 10
-15.8358237585000001
 20
-13.6342228972000008
 30
0.0
 10
-15.8213466718000006
 20
-13.6820808266
 30
0.0
 10
-15.8062725073999992
 20
-13.7297540582999993
 30
0.0
 10
-15.7906036209000007
 20
-13.7772351434000004
 30
0.0
 10
-15.7743424603999998
 20
-13.8245166631000007
 30
0.0
 10
-15.7574915666000006
 20
-13.8715912297999999
 30
0.0
 10
-15.7400535726000008
 20
-13.9184514882000006
 30
0.0
 10
-15.7220312029000002
 20
-13.9650901163000007
 30
0.0
 10
-15.7034272734999991
 20
-14.0114998271999998
 30
0.0
 10
-15.6842446913
 20
-14.0576733691999998
 30
0.0
 10
-15.6644864534000003
 20
-14.1036035280000007
 30
0.0
 10
-15.6441556470999998
 20
-14.1492831270000003
 30
0.0
 10
-15.6232554490000002
 20
-14.1947050287999996
 30
0.0
 10
-15.6017891246999998
 20
-14.2398621363999993
 30
0.0
 10
-15.5797600283000008
 20
-14.2847473942000001
 30
0.0
 10
-15.5571716017000004
 20
-14.3293537887000006
 30
0.0
 10
-15.5340273745000008
 20
-14.3736743505
 30
0.0
 10
-15.5103309627999995
 20
-14.4177021544000006
 30
0.0
 10
-15.4860860692000006
 20
-14.4614303212999999
 30
0.0
 10
-15.4612964816999998
 20
-14.5048520186999994
 30
0.0
 10
-15.4359660738999995
 20
-14.5479604620000007
 30
0.0
 10
-15.4100988035000004
 20
-14.5907489157000008
 30
0.0
 10
-15.3836987121999993
 20
-14.6332106941000006
 30
0.0
 10
-15.3567699249
 20
-14.6753391627000003
 30
0.0
 10
-15.3293166493000008
 20
-14.7171277390000004
 30
0.0
 10
-15.3013431748999995
 20
-14.7585698936000007
 30
0.0
 10
-15.2728538724000007
 20
-14.7996591512000002
 30
0.0
 10
-15.2438531932999997
 20
-14.8403890918000005
 30
0.0
 10
-15.2143456688000001
 20
-14.8807533512999992
 30
0.0
 10
-15.1843359094999997
 20
-14.9207456229000002
 30
0.0
 10
-15.1538286041999992
 20
-14.9603596579999998
 30
0.0
 10
-15.1228285198000005
 20
-14.9995892668999993
 30
0.0
 10
-15.0913404998999994
 20
-15.0384283200999995
 30
0.0
 10
-15.0593694643999996
 20
-15.0768707489999993
 30
0.0
 10
-15.0269204088000006
 20
-15.1149105469999991
 30
0.0
 10
-14.9939984031000009
 20
-15.1525417706999992
 30
0.0
 10
-14.9606085913999998
 20
-15.1897585399999997
 30
0.0
 10
-14.9267561908000008
 20
-15.2265550400999992
 30
0.0
 10
-14.8924464904999994
 20
-15.2629255214999997
 30
0.0
 10
-14.8576848515000002
 20
-15.2988643014000001
 30
0.0
 10
-14.8224767050999997
 20
-15.3343657643999993
 30
0.0
 10
-14.7868275526000001
 20
-15.3694243636000003
 30
0.0
 10
-14.7507429641000005
 20
-15.4040346209999992
 30
0.0
 10
-14.7142285778000002
 20
-15.4381911289999998
 30
0.0
 10
-14.6772900988000004
 20
-15.4718885504999992
 30
0.0
 10
-14.6399332988000008
 20
-15.5051216206000007
 30
0.0
 10
-14.6021640146999996
 20
-15.5378851464000007
 30
0.0
 10
-14.5639881479
 20
-15.5701740089000005
 30
0.0
 10
-14.5254116632999999
 20
-15.6019831629999999
 30
0.0
 10
-14.4864405883000007
 20
-15.6333076384999998
 30
0.0
 10
-14.4470810122
 20
-15.6641425411000004
 30
0.0
 10
-14.4073390848000003
 20
-15.6944830528000008
 30
0.0
 10
-14.3672210156000002
 20
-15.7243244329999996
 30
0.0
 10
-14.3267330730999998
 20
-15.7536620192000001
 30
0.0
 10
-14.2858815834000001
 20
-15.7824912271999995
 30
0.0
 10
-14.2446729295000001
 20
-15.8108075527
 30
0.0
 10
-14.2031135499999994
 20
-15.8386065711999997
 30
0.0
 10
-14.1612099387000008
 20
-15.8658839391999997
 30
0.0
 10
-14.1189686429000005
 20
-15.8926353947999992
 30
0.0
 10
-14.0763962625999994
 20
-15.9188567579000004
 30
0.0
 10
-14.0334994497000007
 20
-15.9445439316000002
 30
0.0
 10
-13.9902849067999995
 20
-15.9696929024000003
 30
0.0
 10
-13.9467593861000001
 20
-15.9942997407000007
 30
0.0
 10
-13.9029296882000004
 20
-16.0183606016999995
 30
0.0
 10
-13.8588026616000004
 20
-16.0418717260999983
 30
0.0
 10
-13.8143852010000003
 20
-16.0648294402000005
 30
0.0
 10
-13.7696842464000007
 20
-16.0872301570000005
 30
0.0
 10
-13.7247067824000002
 20
-16.1090703763999983
 30
0.0
 10
-13.6794598366999995
 20
-16.1303466859000011
 30
0.0
 10
-13.6339504787999992
 20
-16.1510557609999985
 30
0.0
 10
-13.5881858195999996
 20
-16.1711943662000017
 30
0.0
 10
-13.5421730097000008
 20
-16.1907593546999991
 30
0.0
 10
-13.4959192386000009
 20
-16.2097476695000005
 30
0.0
 10
-13.4494317332000008
 20
-16.2281563439000003
 30
0.0
 10
-13.4027177570999996
 20
-16.2459825014000003
 30
0.0
 10
-13.3557846094000006
 20
-16.2632233566999993
 30
0.0
 10
-13.3086396231999995
 20
-16.2798762160000017
 30
0.0
 10
-13.2612901648000001
 20
-16.2959384774
 30
0.0
 10
-13.2137436326
 20
-16.3114076310999998
 30
0.0
 10
-13.1660074554000008
 20
-16.3262812601999983
 30
0.0
 10
-13.1180890921
 20
-16.3405570404999985
 30
0.0
 10
-13.0699960298000004
 20
-16.3542327416999989
 30
0.0
 10
-13.0217357828000004
 20
-16.3673062268000002
 30
0.0
 10
-12.9733158918000004
 20
-16.3797754532000006
 30
0.0
 10
-12.9247439223999994
 20
-16.3916384724999986
 30
0.0
 10
-12.8760274635999998
 20
-16.4028934313000008
 30
0.0
 10
-12.8271741274999993
 20
-16.4135385708999983
 30
0.0
 10
-12.7781915472000005
 20
-16.4235722280999994
 30
0.0
 10
-12.7290873762000007
 20
-16.4329928350999985
 30
0.0
 10
-12.6798692869000007
 20
-16.4417989200000001
 30
0.0
 10
-12.6305449694000007
 20
-16.4499891068000004
 30
0.0
 10
-12.5811221308000007
 20
-16.4575621157999983
 30
0.0
 10
-12.5316084931000002
 20
-16.464516763799999
 30
0.0
 10
-12.4820117926999998
 20
-16.4708519642000013
 30
0.0
 10
-12.4323397790999994
 20
-16.4765667268999998
 30
0.0
 10
-12.3826002133999999
 20
-16.4816601592999987
 30
0.0
 10
-12.3328008673999996
 20
-16.4861314653000015
 30
0.0
 10
-12.2829495218999991
 20
-16.4899799463999983
 30
0.0
 10
-12.2330539663
 20
-16.4932050013000016
 30
0.0
 10
-12.1831219966000006
 20
-16.4958061260000015
 30
0.0
 10
-12.1331614146
 20
-16.4977829141000001
 30
0.0
 10
-12.0831800264999991
 20
-16.4991350568000001
 30
0.0
 10
-12.0331856417999994
 20
-16.4998623426999984
 30
0.0
 10
-12.0000007153000006
 20
-16.5
 30
0.0
  0
LWPOLYLINE
  5
5D
100
AcDbEntity
  8
0
 62
256
370
-1
 48
1.0
  6
BYLAYER
100
AcDbPolyline
 90
127
 70
0
 10
15.9999992846999994
 20
12.5
 30
0.0
 10
15.9996867888000001
 20
12.5499986978999996
 30
0.0
 10
15.9987493499000006
 20
12.5999895836999993
 30
0.0
 10
15.9971871143000008
 20
12.6499648461999996
 30
0.0
 10
15.9950003262999996
 20
12.6999166770999992
 30
0.0
 10
15.9921893275000002
 20
12.7498372714000006
 30
0.0
 10
15.9887545572000001
 20
12.7997188290999997
 30
0.0
 10
15.9846965519000008
 20
12.8495535564000001
 30
0.0
 10
15.9800159459
 20
12.8993336666000005
 30
0.0
 10
15.9747134702999993
 20
12.9490513817000004
 30
0.0
 10
15.9687899537
 20
12.9986989335000001
 30
0.0
 10
15.9622463216000003
 20
13.0482685646000007
 30
0.0
 10
15.9550835964999997
 20
13.0977525298999993
 30
0.0
 10
15.9473028975000002
 20
13.1471430975000008
 30
0.0
 10
15.9389054403999992
 20
13.1964325504000008
 30
0.0
 10
15.9298925372000006
 20
13.2456131871
 30
0.0
 10
15.9202655961000001
 20
13.2946773232000002
 30
0.0
 10
15.9100261213999996
 20
13.3436172925999994
 30
0.0
 10
15.899175713
 20
13.3924254484999992
 30
0.0
 10
15.8877160661999994
 20
13.4410941648000009
 30
0.0
 10
15.8756489716000004
 20
13.4896158370000006
 30
0.0
 10
15.8629763145999991
 20
13.5379828837999998
 30
0.0
 10
15.8497000752999995
 20
13.5861877478000004
 30
0.0
 10
15.8358223280000008
 20
13.6342228972000008
 30
0.0
 10
15.8213452412999995
 20
13.6820808266
 30
0.0
 10
15.8062710768999999
 20
13.7297540582999993
 30
0.0
 10
15.7906021903999996
 20
13.7772351434000004
 30
0.0
 10
15.7743410299000004
 20
13.8245166631000007
 30
0.0
 10
15.7574901360999995
 20
13.8715912297999999
 30
0.0
 10
15.7400521420999997
 20
13.9184514882000006
 30
0.0
 10
15.7220297724000009
 20
13.9650901163000007
 30
0.0
 10
15.7034258429999998
 20
14.0114998271999998
 30
0.0
 10
15.6842432608000006
 20
14.0576733691999998
 30
0.0
 10
15.6644850228999992
 20
14.1036035280000007
 30
0.0
 10
15.6441542166000005
 20
14.1492831270000003
 30
0.0
 10
15.6232540185000008
 20
14.1947050287999996
 30
0.0
 10
15.6017876942000004
 20
14.2398621363999993
 30
0.0
 10
15.5797585977999997
 20
14.2847473942000001
 30
0.0
 10
15.5571701711999992
 20
14.3293537887000006
 30
0.0
 10
15.5340259439999997
 20
14.3736743505
 30
0.0
 10
15.5103295323000001
 20
14.4177021544000006
 30
0.0
 10
15.4860846385999995
 20
14.4614303212999999
 30
0.0
 10
15.4612950512000005
 20
14.5048520186999994
 30
0.0
 10
15.4359646434000002
 20
14.5479604620000007
 30
0.0
 10
15.4100973729999993
 20
14.5907489157000008
 30
0.0
 10
15.3836972816999999
 20
14.6332106941000006
 30
0.0
 10
15.3567684944000007
 20
14.6753391627000003
 30
0.0
 10
15.3293152187999997
 20
14.7171277390000004
 30
0.0
 10
15.3013417444000002
 20
14.7585698936000007
 30
0.0
 10
15.2728524418999996
 20
14.7996591512000002
 30
0.0
 10
15.2438517628000003
 20
14.8403890918000005
 30
0.0
 10
15.2143442383000007
 20
14.8807533512999992
 30
0.0
 10
15.1843344789000003
 20
14.9207456229000002
 30
0.0
 10
15.1538271736999999
 20
14.9603596579999998
 30
0.0
 10
15.1228270892999994
 20
14.9995892668999993
 30
0.0
 10
15.0913390694
 20
15.0384283200999995
 30
0.0
 10
15.0593680339000002
 20
15.0768707489999993
 30
0.0
 10
15.0269189782999995
 20
15.1149105469999991
 30
0.0
 10
14.9939969725999998
 20
15.1525417706999992
 30
0.0
 10
14.9606071609000004
 20
15.1897585399999997
 30
0.0
 10
14.9267547601999997
 20
15.2265550400999992
 30
0.0
 10
14.89244506
 20
15.2629255214999997
 30
0.0
 10
14.8576834210000008
 20
15.2988643014000001
 30
0.0
 10
14.8224752746000004
 20
15.3343657643999993
 30
0.0
 10
14.7868261221000008
 20
15.3694243636000003
 30
0.0
 10
14.7507415335999994
 20
15.4040346209999992
 30
0.0
 10
14.7142271472000008
 20
15.4381911289999998
 30
0.0
 10
14.6772886682999992
 20
15.4718885504999992
 30
0.0
 10
14.6399318682999997
 20
15.5051216206000007
 30
0.0
 10
14.6021625842000002
 20
15.5378851464000007
 30
0.0
 10
14.5639867174000006
 20
15.5701740089000005
 30
0.0
 10
14.5254102328000005
 20
15.6019831629999999
 30
0.0
 10
14.4864391577999996
 20
15.6333076384999998
 30
0.0
 10
14.4470795817000006
 20
15.6641425411000004
 30
0.0
 10
14.4073376542999991
 20
15.6944830528000008
 30
0.0
 10
14.3672195851000009
 20
15.7243244329999996
 30
0.0
 10
14.3267316426000004
 20
15.7536620192000001
 30
0.0
 10
14.2858801529000008
 20
15.7824912271999995
 30
0.0
 10
14.2446714989000007
 20
15.8108075527
 30
0.0
 10
14.2031121195000001
 20
15.8386065711999997
 30
0.0
 10
14.1612085081999997
 20
15.8658839391999997
 30
0.0
 10
14.1189672123999994
 20
15.8926353947999992
 30
0.0
 10
14.0763948321000001
 20
15.9188567579000004
 30
0.0
 10
14.0334980191999996
 20
15.9445439316000002
 30
0.0
 10
13.9902834763000001
 20
15.9696929024000003
 30
0.0
 10
13.9467579556000008
 20
15.9942997407000007
 30
0.0
 10
13.9029282576999993
 20
16.0183606016999995
 30
0.0
 10
13.8588012310999993
 20
16.0418717260999983
 30
0.0
 10
13.8143837703999992
 20
16.0648294402000005
 30
0.0
 10
13.7696828158999995
 20
16.0872301570000005
 30
0.0
 10
13.7247053519000008
 20
16.1090703763999983
 30
0.0
 10
13.6794584061000002
 20
16.1303466859000011
 30
0.0
 10
13.6339490482999999
 20
16.1510557609999985
 30
0.0
 10
13.5881843891000003
 20
16.1711943662000017
 30
0.0
 10
13.5421715791999997
 20
16.1907593546999991
 30
0.0
 10
13.4959178079999997
 20
16.2097476695000005
 30
0.0
 10
13.4494303026999997
 20
16.2281563439000003
 30
0.0
 10
13.4027163266000002
 20
16.2459825014000003
 30
0.0
 10
13.3557831788999994
 20
16.2632233566999993
 30
0.0
 10
13.3086381927000001
 20
16.2798762160000017
 30
0.0
 10
13.2612887343000008
 20
16.2959384774
 30
0.0
 10
13.2137422021000006
 20
16.3114076310999998
 30
0.0
 10
13.1660060248999997
 20
16.3262812601999983
 30
0.0
 10
13.1180876616000006
 20
16.3405570404999985
 30
0.0
 10
13.0699945991999993
 20
16.3542327416999989
 30
0.0
 10
13.0217343522999993
 20
16.3673062268000002
 30
0.0
 10
12.9733144612999993
 20
16.3797754532000006
 30
0.0
 10
12.9247424918
 20
16.3916384724999986
 30
0.0
 10
12.8760260331000005
 20
16.4028934313000008
 30
0.0
 10
12.827172697
 20
16.4135385708999983
 30
0.0
 10
12.7781901166999994
 20
16.4235722280999994
 30
0.0
 10
12.7290859456999996
 20
16.4329928350999985
 30
0.0
 10
12.6798678562999996
 20
16.4417989200000001
 30
0.0
 10
12.6305435388999996
 20
16.4499891068000004
 30
0.0
 10
12.5811207002999996
 20
16.4575621157999983
 30
0.0
 10
12.5316070625999991
 20
16.464516763799999
 30
0.0
 10
12.4820103622000005
 20
16.4708519642000013
 30
0.0
 10
12.4323383486000001
 20
16.4765667268999998
 30
0.0
 10
12.3825987829000006
 20
16.4816601592999987
 30
0.0
 10
12.3327994368000002
 20
16.4861314653000015
 30
0.0
 10
12.2829480913999998
 20
16.4899799463999983
 30
0.0
 10
12.2330525358000006
 20
16.4932050013000016
 30
0.0
 10
12.1831205660999995
 20
16.4958061260000015
 30
0.0
 10
12.1331599841000006
 20
16.4977829141000001
 30
0.0
 10
12.0831785959999998
 20
16.4991350568000001
 30
0.0
 10
12.0331842112
 20
16.4998623426999984
 30
0.0
 10
11.9999992846999994
 20
16.5
 30
0.0
  0
LWPOLYLINE
  5
5E
100
AcDbEntity
  8
0
 62
256
370
-1
 48
1.0
  6
BYLAYER
100
AcDbPolyline
 90
127
 70
0
 10
-12.0000007153000006
 20
16.5
 30
0.0
 10
-12.0499994132000001
 20
16.4996875040999988
 30
0.0
 10
-12.0999902988999999
 20
16.4987500651000012
 30
0.0
 10
-12.1499655615000002
 20
16.4971878296000014
 30
0.0
 10
-12.1999173922999997
 20
16.4950010415999984
 30
0.0
 10
-12.2498379865999993
 20
16.4921900428000008
 30
0.0
 10
-12.2997195443000003
 20
16.4887552723999988
 30
0.0
 10
-12.3495542716000006
 20
16.4846972672000014
 30
0.0
 10
-12.3993343817999992
 20
16.4800166610999987
 30
0.0
 10
-12.4490520969999992
 20
16.4747141855000017
 30
0.0
 10
-12.4986996488000006
 20
16.4687906688999988
 30
0.0
 10
-12.5482692798999995
 20
16.4622470368999991
 30
0.0
 10
-12.5977532450999998
 20
16.4550843116999985
 30
0.0
 10
-12.6471438127999996
 20
16.447303612799999
 30
0.0
 10
-12.6964332655999996
 20
16.4389061556000016
 30
0.0
 10
-12.7456139023000006
 20
16.4298932523999994
 30
0.0
 10
-12.7946780384000007
 20
16.4202663113999989
 30
0.0
 10
-12.8436180079
 20
16.4100268366999984
 30
0.0
 10
-12.8924261637999997
 20
16.3991764282999988
 30
0.0
 10
-12.9410948800999996
 20
16.3877167815
 30
0.0
 10
-12.9896165522999993
 20
16.3756496867999992
 30
0.0
 10
-13.0379835990000004
 20
16.3629770297999997
 30
0.0
 10
-13.0861884630999992
 20
16.3497007904999982
 30
0.0
 10
-13.1342236124999996
 20
16.3358230432999996
 30
0.0
 10
-13.1820815419000006
 20
16.3213459565000001
 30
0.0
 10
-13.2297547735999999
 20
16.3062717922000004
 30
0.0
 10
-13.2772358586999992
 20
16.2906029056999984
 30
0.0
 10
-13.3245173783999995
 20
16.2743417450999992
 30
0.0
 10
-13.3715919451000005
 20
16.2574908514000001
 30
0.0
 10
-13.4184522033999993
 20
16.2400528573000003
 30
0.0
 10
-13.4650908315999995
 20
16.2220304876999997
 30
0.0
 10
-13.5115005424000003
 20
16.2034265582999986
 30
0.0
 10
-13.5576740845000003
 20
16.1842439760000012
 30
0.0
 10
-13.6036042432999995
 20
16.1644857381000016
 30
0.0
 10
-13.6492838421999991
 20
16.1441549317999993
 30
0.0
 10
-13.6947057441000002
 20
16.1232547337000014
 30
0.0
 10
-13.7398628516999999
 20
16.101788409400001
 30
0.0
 10
-13.7847481094000006
 20
16.0797593130000003
 30
0.0
 10
-13.8293545039999994
 20
16.0571708864999998
 30
0.0
 10
-13.8736750657000005
 20
16.0340266593000003
 30
0.0
 10
-13.9177028696999994
 20
16.0103302475999989
 30
0.0
 10
-13.9614310366000005
 20
15.9860853539000001
 30
0.0
 10
-14.004852734
 20
15.9612957664999993
 30
0.0
 10
-14.0479611772999995
 20
15.9359653587000007
 30
0.0
 10
-14.0907496309999996
 20
15.9100980881999998
 30
0.0
 10
-14.1332114093999994
 20
15.8836979969000005
 30
0.0
 10
-14.1753398780000008
 20
15.8567692096999995
 30
0.0
 10
-14.2171284542999992
 20
15.8293159341000003
 30
0.0
 10
-14.2585706087999995
 20
15.8013424596000007
 30
0.0
 10
-14.2996598665000008
 20
15.7728531572000001
 30
0.0
 10
-14.3403898069999993
 20
15.7438524780000009
 30
0.0
 10
-14.3807540664999998
 20
15.7143449534999995
 30
0.0
 10
-14.4207463382000007
 20
15.6843351942000009
 30
0.0
 10
-14.4603603733000003
 20
15.6538278890000004
 30
0.0
 10
-14.4995899821999998
 20
15.6228278045
 30
0.0
 10
-14.5384290353000001
 20
15.5913397846000006
 30
0.0
 10
-14.5768714641999999
 20
15.5593687491000008
 30
0.0
 10
-14.6149112622999997
 20
15.5269196935
 30
0.0
 10
-14.6525424858999997
 20
15.4939976879000003
 30
0.0
 10
-14.6897592553000003
 20
15.4606078761999992
 30
0.0
 10
-14.7265557552999997
 20
15.4267554755000003
 30
0.0
 10
-14.7629262367000003
 20
15.3924457752000006
 30
0.0
 10
-14.7988650166000006
 20
15.3576841361999996
 30
0.0
 10
-14.8343664796999999
 20
15.3224759898999991
 30
0.0
 10
-14.8694250789000009
 20
15.2868268373999996
 30
0.0
 10
-14.9040353362999998
 20
15.2507422489
 30
0.0
 10
-14.9381918442000003
 20
15.2142278624999996
 30
0.0
 10
-14.9718892657999998
 20
15.1772893834999998
 30
0.0
 10
-15.0051223357999994
 20
15.1399325835000003
 30
0.0
 10
-15.0378858616999995
 20
15.1021632995000008
 30
0.0
 10
-15.0701747241999993
 20
15.0639874326999994
 30
0.0
 10
-15.1019838783000004
 20
15.0254109479999993
 30
0.0
 10
-15.1333083538000004
 20
14.9864398731000001
 30
0.0
 10
-15.1641432562999992
 20
14.9470802969999994
 30
0.0
 10
-15.1944837680999996
 20
14.9073383694999997
 30
0.0
 10
-15.2243251483000002
 20
14.8672203003999996
 30
0.0
 10
-15.2536627344000006
 20
14.8267323578999992
 30
0.0
 10
-15.2824919425000001
 20
14.7858808680999996
 30
0.0
 10
-15.3108082679000006
 20
14.7446722141999995
 30
0.0
 10
-15.3386072864000003
 20
14.7031128348000006
 30
0.0
 10
-15.3658846545000003
 20
14.6612092235000002
 30
0.0
 10
-15.3926361099999998
 20
14.6189679276
 30
0.0
 10
-15.4188574731999992
 20
14.5763955473000006
 30
0.0
 10
-15.4445446469000007
 20
14.5334987345000002
 30
0.0
 10
-15.4696936176000008
 20
14.4902841916000007
 30
0.0
 10
-15.4943004558999995
 20
14.4467586707999995
 30
0.0
 10
-15.5183613170000001
 20
14.4029289729999999
 30
0.0
 10
-15.5418724414000007
 20
14.3588019462999998
 30
0.0
 10
-15.5648301554999993
 20
14.3143844856999998
 30
0.0
 10
-15.5872308722999993
 20
14.2696835312000001
 30
0.0
 10
-15.6090710917000006
 20
14.2247060671999996
 30
0.0
 10
-15.6303474010999999
 20
14.1794591214000008
 30
0.0
 10
-15.6510564763000009
 20
14.1339497635000004
 30
0.0
 10
-15.6711950814000005
 20
14.0881851043000008
 30
0.0
 10
-15.6907600698999996
 20
14.0421722945000003
 30
0.0
 10
-15.7097483847999992
 20
13.9959185233000003
 30
0.0
 10
-15.7281570591000008
 20
13.9494310179000003
 30
0.0
 10
-15.7459832166000009
 20
13.9027170419000008
 30
0.0
 10
-15.7632240719999999
 20
13.8557838941
 30
0.0
 10
-15.7798769313000005
 20
13.8086389079000007
 30
0.0
 10
-15.7959391927000006
 20
13.7612894495999996
 30
0.0
 10
-15.8114083464000004
 20
13.7137429172999994
 30
0.0
 10
-15.8262819754000006
 20
13.6660067402000003
 30
0.0
 10
-15.8405577558000008
 20
13.6180883768999994
 30
0.0
 10
-15.8542334568999994
 20
13.5699953144999998
 30
0.0
 10
-15.8673069420000008
 20
13.5217350675999999
 30
0.0
 10
-15.8797761683999994
 20
13.4733151765999999
 30
0.0
 10
-15.8916391877999992
 20
13.4247432071000006
 30
0.0
 10
-15.9028941465999996
 20
13.3760267483999993
 30
0.0
 10
-15.9135392862000007
 20
13.3271734122000005
 30
0.0
 10
-15.9235729432999999
 20
13.2781908319999999
 30
0.0
 10
-15.9329935503000009
 20
13.2290866609000002
 30
0.0
 10
-15.9417996352000007
 20
13.1798685716000001
 30
0.0
 10
-15.9499898219999992
 20
13.1305442542000002
 30
0.0
 10
-15.9575628311000006
 20
13.0811214155000002
 30
0.0
 10
-15.9645174790999995
 20
13.0316077777999997
 30
0.0
 10
-15.9708526794000001
 20
12.9820110774999993
 30
0.0
 10
-15.9765674422000004
 20
12.9323390639000007
 30
0.0
 10
-15.9816608744999993
 20
12.8825994981999994
 30
0.0
 10
-15.9861321806000003
 20
12.8328001521000008
 30
0.0
 10
-15.9899806617000007
 20
12.7829488067000003
 30
0.0
 10
-15.9932057165000003
 20
12.7330532510999994
 30
0.0
 10
-15.9958068412000003
 20
12.6831212814000001
 30
0.0
 10
-15.9977836293000006
 20
12.6331606992999994
 30
0.0
 10
-15.9991357720000007
 20
12.5831793112000003
 30
0.0
 10
-15.9998630580000007
 20
12.5331849265000006
 30
0.0
 10
-16.0000007153000006
 20
12.5
 30
0.0
  0
LINE
  5
5F
100
AcDbEntity
  8
0
 62
0
370
-1
 48
1.0
  6
BYLAYER
100
AcDbLine
 10
11.9999992846999994
 20
-16.5
 30
0.0
 11
-12.0000007153000006
 21
-16.5
 31
0.0
  0
LINE
  5
60
100
AcDbEntity
  8
0
 62
0
370
-1
 48
1.0
  6
BYLAYER
100
AcDbLine
 10
15.9999992846999994
 20
12.5
 30
0.0
 11
15.9999992846999994
 21
-12.5
 31
0.0
  0
LINE
  5
61
100
AcDbEntity
  8
0
 62
0
370
-1
 48
1.0
  6
BYLAYER
100
AcDbLine
 10
-16.0000007153000006
 20
-12.5
 30
0.0
 11
-16.0000007153000006
 21
12.5
 31
0.0
  0
LINE
  5
62
100
AcDbEntity
  8
0
 62
0
370
-1
 48
1.0
  6
BYLAYER
100
AcDbLine
 10
-12.0000007153000006
 20
16.5
 30
0.0
 11
11.9999992846999994
 21
16.5
 31
0.0
  0
LINE
  5
63
100
AcDbEntity
  8
0
 62
0
370
-1
 48
1.0
  6
BYLAYER
100
AcDbLine
 10
-4.0000007152599997
 20
5.0
 30
0.0
 11
-4.0000007152599997
 21
-5.0
 31
0.0
  0
LINE
  5
64
100
AcDbEntity
  8
0
 62
0
370
-1
 48
1.0
  6
BYLAYER
100
AcDbLine
 10
5.9999992847400003
 20
5.0
 30
0.0
 11
-4.0000007152599997
 21
5.0
 31
0.0
  0
LINE
  5
65
100
AcDbEntity
  8
0
 62
0
370
-1
 48
1.0
  6
BYLAYER
100
AcDbLine
 10
5.9999992847400003
 20
-5.0
 30
0.0
 11
5.9999992847400003
 21
5.0
 31
0.0
  0
LINE
  5
66
100
AcDbEntity
  8
0
 62
0
370
-1
 48
1.0
  6
BYLAYER
100
AcDbLine
 10
-4.0000007152599997
 20
-5.0
 30
0.0
 11
5.9999992847400003
 21
-5.0
 31
0.0
  0
ENDBLK
  5
67
100
AcDbEntity
  8
0
100
AcDbBlockEnd
  0
ENDSEC
  0
SECTION
  2
ENTITIES
  0
INSERT
  5
68
100
AcDbEntity
  8
0
 62
0
370
-1
 48
1.0
  6
BYLAYER
100
AcDbBlockReference
  2
BODY008
 10
0.0
 20
0.0
 30
0.0
  0
ENDSEC
  0
SECTION
  2
OBJECTS
  0
DICTIONARY
  5
C
100
AcDbDictionary
280
0
281
1
  3
ACAD_GROUP
350
D
  3
ACAD_LAYOUT
350
1A
  3
ACAD_MLINESTYLE
350
17
  3
ACAD_PLOTSETTINGS
350
19
  3
ACAD_PLOTSTYLENAME
350
E
  3
AcDbVariableDictionary
350
69
  3
QCAD_OBJECTS
350
6A
  0
DICTIONARY
  5
D
100
AcDbDictionary
280
0
281
1
  0
ACDBDICTIONARYWDFLT
  5
E
100
AcDbDictionary
281
1
  3
Normal
350
F
100
AcDbDictionaryWithDefault
340
F
  0
ACDBPLACEHOLDER
  5
F
  0
DICTIONARY
  5
17
100
AcDbDictionary
280
0
281
1
  3
Standard
350
18
  0
MLINESTYLE
  5
18
100
AcDbMlineStyle
  2
STANDARD
 70
0
  3

 62
256
 51
90.0
 52
90.0
 71
2
 49
0.5
 62
256
  6
BYLAYER
 49
-0.5
 62
256
  6
BYLAYER
  0
DICTIONARY
  5
19
100
AcDbDictionary
280
0
281
1
  0
DICTIONARY
  5
1A
100
AcDbDictionary
281
1
  3
Layout1
350
1E
  3
Layout2
350
26
  3
Model
350
22
  0
LAYOUT
  5
1E
100
AcDbPlotSettings
  1

  2
none_device
  4

  6

 40
0.0
 41
0.0
 42
0.0
 43
0.0
 44
0.0
 45
0.0
 46
0.0
 47
0.0
 48
0.0
 49
0.0
140
0.0
141
0.0
142
1.0
143
1.0
 70
688
 72
0
 73
0
 74
5
  7

 75
16
147
1.0
148
0.0
149
0.0
100
AcDbLayout
  1
Layout1
 70
1
 71
1
 10
0.0
 20
0.0
 11
420.0
 21
297.0
 12
0.0
 22
0.0
 32
0.0
 14
100000000000000000000.0
 24
100000000000000000000.0
 34
100000000000000000000.0
 15
-100000000000000000000.0
 25
-100000000000000000000.0
 35
-100000000000000000000.0
146
0.0
 13
0.0
 23
0.0
 33
0.0
 16
1.0
 26
0.0
 36
0.0
 17
0.0
 27
1.0
 37
0.0
 76
0
330
1B
  0
LAYOUT
  5
22
100
AcDbPlotSettings
  1

  2
none_device
  4

  6

 40
0.0
 41
0.0
 42
0.0
 43
0.0
 44
0.0
 45
0.0
 46
0.0
 47
0.0
 48
0.0
 49
0.0
140
0.0
141
0.0
142
1.0
143
1.0
 70
1712
 72
0
 73
0
 74
0
  7

 75
0
147
1.0
148
0.0
149
0.0
100
AcDbLayout
  1
Model
 70
1
 71
0
 10
0.0
 20
0.0
 11
12.0
 21
9.0
 12
0.0
 22
0.0
 32
0.0
 14
0.0
 24
0.0
 34
0.0
 15
0.0
 25
0.0
 35
0.0
146
0.0
 13
0.0
 23
0.0
 33
0.0
 16
1.0
 26
0.0
 36
0.0
 17
0.0
 27
1.0
 37
0.0
 76
0
330
1F
  0
LAYOUT
  5
26
100
AcDbPlotSettings
  1

  2
none_device
  4

  6

 40
0.0
 41
0.0
 42
0.0
 43
0.0
 44
0.0
 45
0.0
 46
0.0
 47
0.0
 48
0.0
 49
0.0
140
0.0
141
0.0
142
1.0
143
1.0
 70
688
 72
0
 73
0
 74
5
  7

 75
16
147
1.0
148
0.0
149
0.0
100
AcDbLayout
  1
Layout2
 70
1
 71
2
 10
0.0
 20
0.0
 11
12.0
 21
9.0
 12
0.0
 22
0.0
 32
0.0
 14
0.0
 24
0.0
 34
0.0
 15
0.0
 25
0.0
 35
0.0
146
0.0
 13
0.0
 23
0.0
 33
0.0
 16
1.0
 26
0.0
 36
0.0
 17
0.0
 27
1.0
 37
0.0
 76
0
330
23
  0
DICTIONARY
  5
69
100
AcDbDictionary
281
1
  3
DIMASSOC
350
6C
  3
HIDETEXT
350
6B
  0
DICTIONARYVAR
  5
6B
100
DictionaryVariables
280
0
  1
2
  0
DICTIONARYVAR
  5
6C
100
DictionaryVariables
280
0
  1
1
  0
DICTIONARY
  5
6A
100
AcDbDictionary
281
1
  3
ColorSettings/BackgroundColor
350
6D
  3
ColorSettings/ColorMode
350
6E
  3
Grid/DisplayGrid00
350
6F
  3
Grid/DisplayGrid01
350
70
  3
Grid/DisplayGrid02
350
71
  3
Grid/DisplayGrid03
350
72
  3
Grid/GridSpacingX00
350
73
  3
Grid/GridSpacingX01
350
74
  3
Grid/GridSpacingX02
350
75
  3
Grid/GridSpacingX03
350
76
  3
Grid/GridSpacingY00
350
77
  3
Grid/GridSpacingY01
350
78
  3
Grid/GridSpacingY02
350
79
  3
Grid/GridSpacingY03
350
7A
  3
Grid/IsometricGrid00
350
7B
  3
Grid/IsometricGrid01
350
7C
  3
Grid/IsometricGrid02
350
7D
  3
Grid/IsometricGrid03
350
7E
  3
Grid/IsometricProjection00
350
7F
  3
Grid/IsometricProjection01
350
80
  3
Grid/IsometricProjection02
350
81
  3
Grid/IsometricProjection03
350
82
  3
Grid/MetaGridSpacingX00
350
83
  3
Grid/MetaGridSpacingX01
350
84
  3
Grid/MetaGridSpacingX02
350
85
  3
Grid/MetaGridSpacingX03
350
86
  3
Grid/MetaGridSpacingY00
350
87
  3
Grid/MetaGridSpacingY01
350
88
  3
Grid/MetaGridSpacingY02
350
89
  3
Grid/MetaGridSpacingY03
350
8A
  3
MultiPageSettings/Columns
350
8B
  3
MultiPageSettings/GlueMarginsBottom
350
8C
  3
MultiPageSettings/GlueMarginsLeft
350
8D
  3
MultiPageSettings/GlueMarginsRight
350
8E
  3
MultiPageSettings/GlueMarginsTop
350
8F
  3
MultiPageSettings/PrintCropMarks
350
90
  3
MultiPageSettings/Rows
350
91
  3
PageSettings/OffsetX
350
92
  3
PageSettings/OffsetY
350
93
  3
PageSettings/PageOrientation
350
94
  3
PageSettings/PaperHeight
350
95
  3
PageSettings/PaperWidth
350
96
  3
PageSettings/Scale
350
97
  3
PageSettings/ShowPaperBorders
350
98
  3
UnitSettings/PaperUnit
350
99
  3
ViewportCenter
350
9A
  3
ViewportHeight
350
9B
  3
ViewportWidth
350
9C
  0
XRECORD
  5
6D
330
6A
100
AcDbXrecord
280
1
1000
Blanca
  0
XRECORD
  5
6E
330
6A
100
AcDbXrecord
280
1
1000
FullColor
  0
XRECORD
  5
6F
330
6A
100
AcDbXrecord
280
1
290
1
  0
XRECORD
  5
70
330
6A
100
AcDbXrecord
280
1
290
1
  0
XRECORD
  5
71
330
6A
100
AcDbXrecord
280
1
290
1
  0
XRECORD
  5
72
330
6A
100
AcDbXrecord
280
1
290
1
  0
XRECORD
  5
73
330
6A
100
AcDbXrecord
280
1
1000
auto
  0
XRECORD
  5
74
330
6A
100
AcDbXrecord
280
1
1000
auto
  0
XRECORD
  5
75
330
6A
100
AcDbXrecord
280
1
1000
auto
  0
XRECORD
  5
76
330
6A
100
AcDbXrecord
280
1
1000
auto
  0
XRECORD
  5
77
330
6A
100
AcDbXrecord
280
1
1000
auto
  0
XRECORD
  5
78
330
6A
100
AcDbXrecord
280
1
1000
auto
  0
XRECORD
  5
79
330
6A
100
AcDbXrecord
280
1
1000
auto
  0
XRECORD
  5
7A
330
6A
100
AcDbXrecord
280
1
1000
auto
  0
XRECORD
  5
7B
330
6A
100
AcDbXrecord
280
1
290
0
  0
XRECORD
  5
7C
330
6A
100
AcDbXrecord
280
1
290
0
  0
XRECORD
  5
7D
330
6A
100
AcDbXrecord
280
1
290
0
  0
XRECORD
  5
7E
330
6A
100
AcDbXrecord
280
1
290
0
  0
XRECORD
  5
7F
330
6A
100
AcDbXrecord
280
1
 90
0
  0
XRECORD
  5
80
330
6A
100
AcDbXrecord
280
1
 90
0
  0
XRECORD
  5
81
330
6A
100
AcDbXrecord
280
1
 90
0
  0
XRECORD
  5
82
330
6A
100
AcDbXrecord
280
1
 90
0
  0
XRECORD
  5
83
330
6A
100
AcDbXrecord
280
1
1000
auto
  0
XRECORD
  5
84
330
6A
100
AcDbXrecord
280
1
1000
auto
  0
XRECORD
  5
85
330
6A
100
AcDbXrecord
280
1
1000
auto
  0
XRECORD
  5
86
330
6A
100
AcDbXrecord
280
1
1000
auto
  0
XRECORD
  5
87
330
6A
100
AcDbXrecord
280
1
1000
auto
  0
XRECORD
  5
88
330
6A
100
AcDbXrecord
280
1
1000
auto
  0
XRECORD
  5
89
330
6A
100
AcDbXrecord
280
1
1000
auto
  0
XRECORD
  5
8A
330
6A
100
AcDbXrecord
280
1
1000
auto
  0
XRECORD
  5
8B
330
6A
100
AcDbXrecord
280
1
 90
1
  0
XRECORD
  5
8C
330
6A
100
AcDbXrecord
280
1
 40
10.0
  0
XRECORD
  5
8D
330
6A
100
AcDbXrecord
280
1
 40
10.0
  0
XRECORD
  5
8E
330
6A
100
AcDbXrecord
280
1
 40
10.0
  0
XRECORD
  5
8F
330
6A
100
AcDbXrecord
280
1
 40
10.0
  0
XRECORD
  5
90
330
6A
100
AcDbXrecord
280
1
290
0
  0
XRECORD
  5
91
330
6A
100
AcDbXrecord
280
1
 90
1
  0
XRECORD
  5
92
330
6A
100
AcDbXrecord
280
1
 40
0.0
  0
XRECORD
  5
93
330
6A
100
AcDbXrecord
280
1
 40
0.0
  0
XRECORD
  5
94
330
6A
100
AcDbXrecord
280
1
1000
Portrait
  0
XRECORD
  5
95
330
6A
100
AcDbXrecord
280
1
 40
297.0
  0
XRECORD
  5
96
330
6A
100
AcDbXrecord
280
1
 40
210.0
  0
XRECORD
  5
97
330
6A
100
AcDbXrecord
280
1
1000
1:1
  0
XRECORD
  5
98
330
6A
100
AcDbXrecord
280
1
290
1
  0
XRECORD
  5
99
330
6A
100
AcDbXrecord
280
1
 90
4
  0
XRECORD
  5
9B
330
6A
100
AcDbXrecord
280
1
 40
35.7768976897689726
  0
XRECORD
  5
9C
330
6A
100
AcDbXrecord
280
1
 40
71.9355610561055983
  0
ENDSEC
  0
EOF
