999
dxflib 3.12.2.0
  0
SECTION
  2
HEADER
  9
$ACADVER
  1
AC1015
  9
$HANDSEED
  5
FFFF
  9
$DIMADEC
 70
0
  9
$DIMASZ
 40
0.18
  9
$DIMAUNIT
 70
0
  9
$DIMAZIN
 70
0
  9
$DIMDEC
 70
4
  9
$DIMEXE
 40
0.18
  9
$DIMEXO
 40
0.0625
  9
$DIMGAP
 40
0.09
  9
$DIMLUNIT
 70
2
  9
$DIMSCALE
 40
1.0
  9
$DIMTSZ
 40
0.0
  9
$DIMTXT
 40
0.18
  9
$DIMZIN
 70
0
  9
$DWGCODEPAGE
  3
ANSI_1252
  9
$EXTMAX
 10
0.0
 20
0.0
 30
0.0
  9
$EXTMIN
 10
0.0
 20
0.0
 30
0.0
  9
$INSBASE
 10
0.0
 20
0.0
 30
0.0
  9
$INSUNITS
 70
0
  9
$LTSCALE
 40
1.0
  9
$MAXACTVP
 70
32
  9
$MEASUREMENT
 70
1
  9
$PDMODE
 70
0
  9
$PDSIZE
 40
0
  0
ENDSEC
  0
SECTION
  2
TABLES
  0
TABLE
  2
VPORT
  5
8
100
AcDbSymbolTable
 70
1
  0
VPORT
  5
30
100
AcDbSymbolTableRecord
100
AcDbViewportTableRecord
  2
*Active
 70
0
 10
0.0
 20
0.0
 11
1.0
 21
1.0
 12
286.3055555555554861
 22
148.5
 13
0.0
 23
0.0
 14
10.0
 24
10.0
 15
10.0
 25
10.0
 16
0.0
 26
0.0
 36
1.0
 17
0.0
 27
0.0
 37
0.0
 40
297.0
 41
1.92798353909465
 42
50.0
 43
0.0
 44
0.0
 50
0.0
 51
0.0
 71
0
 72
100
 73
1
 74
3
 75
1
 76
1
 77
0
 78
0
281
0
 65
1
110
0.0
120
0.0
130
0.0
111
1.0
121
0.0
131
0.0
112
0.0
122
1.0
132
0.0
 79
0
146
0.0
  0
ENDTAB
  0
TABLE
  2
LTYPE
  5
5
100
AcDbSymbolTable
 70
41
  0
LTYPE
  5
16
100
AcDbSymbolTableRecord
100
AcDbLinetypeTableRecord
  2
CONTINUOUS
 70
0
  3
Solid line
 72
65
 73
0
 40
0.0
  0
LTYPE
  5
31
100
AcDbSymbolTableRecord
100
AcDbLinetypeTableRecord
  2
ACAD_ISO15W100
 70
0
  3
ISO double-dash triple-dot __ __ . . . __ __ . .
 72
65
 73
10
 40
39.0000000000000071
 49
12.0
 74
0
 49
-3.0
 74
0
 49
12.0
 74
0
 49
-2.9500000000000002
 74
0
 49
0.1
 74
0
 49
-2.9000000000000004
 74
0
 49
0.1
 74
0
 49
-2.9000000000000004
 74
0
 49
0.1
 74
0
 49
-2.9500000000000002
 74
0
  0
LTYPE
  5
32
100
AcDbSymbolTableRecord
100
AcDbLinetypeTableRecord
  2
DIVIDE
 70
0
  3
Divide ____ . . ____ . . ____ . . ____ . . ____
 72
65
 73
6
 40
31.7500000000000036
 49
12.6999999999999993
 74
0
 49
-6.2999999999999998
 74
0
 49
0.1
 74
0
 49
-6.25
 74
0
 49
0.1
 74
0
 49
-6.2999999999999998
 74
0
  0
LTYPE
  5
33
100
AcDbSymbolTableRecord
100
AcDbLinetypeTableRecord
  2
ACAD_ISO10W100
 70
0
  3
ISO dash dot __ . __ . __ . __ . __ . __ . __ . 
 72
65
 73
4
 40
18.0
 49
12.0
 74
0
 49
-2.9500000000000002
 74
0
 49
0.1
 74
0
 49
-2.9500000000000002
 74
0
  0
LTYPE
  5
34
100
AcDbSymbolTableRecord
100
AcDbLinetypeTableRecord
  2
ACAD_ISO04W100
 70
0
  3
ISO long-dash dot ____ . ____ . ____ . ____ . _
 72
65
 73
4
 40
30.0
 49
24.0
 74
0
 49
-2.9500000000000002
 74
0
 49
0.1
 74
0
 49
-2.9500000000000002
 74
0
  0
LTYPE
  5
35
100
AcDbSymbolTableRecord
100
AcDbLinetypeTableRecord
  2
CENTER2
 70
0
  3
Center (.5x) ___ _ ___ _ ___ _ ___ _ ___ _ ___
 72
65
 73
4
 40
28.5750000000000028
 49
19.0500000000000007
 74
0
 49
-3.1749999999999998
 74
0
 49
3.1749999999999998
 74
0
 49
-3.1749999999999998
 74
0
  0
LTYPE
  5
36
100
AcDbSymbolTableRecord
100
AcDbLinetypeTableRecord
  2
ACAD_ISO11W100
 70
0
  3
ISO double-dash dot __ __ . __ __ . __ __ . __ _
 72
65
 73
6
 40
33.0
 49
12.0
 74
0
 49
-3.0
 74
0
 49
12.0
 74
0
 49
-2.9500000000000002
 74
0
 49
0.1
 74
0
 49
-2.9500000000000002
 74
0
  0
LTYPE
  5
37
100
AcDbSymbolTableRecord
100
AcDbLinetypeTableRecord
  2
HIDDEN2
 70
0
  3
Hidden (.5x) _ _ _ _ _ _ _ _ _ _ _ _ _ _ _ _ _ 
 72
65
 73
2
 40
4.7624999999999993
 49
3.1749999999999998
 74
0
 49
-1.5874999999999999
 74
0
  0
LTYPE
  5
38
100
AcDbSymbolTableRecord
100
AcDbLinetypeTableRecord
  2
BORDERX2
 70
0
  3
Border (2x) ____  ____  .  ____  ____  .  ___
 72
65
 73
6
 40
88.8999999999999773
 49
25.3999999999999986
 74
0
 49
-12.6999999999999993
 74
0
 49
25.3999999999999986
 74
0
 49
-12.6499999999999986
 74
0
 49
0.1
 74
0
 49
-12.6499999999999986
 74
0
  0
LTYPE
  5
39
100
AcDbSymbolTableRecord
100
AcDbLinetypeTableRecord
  2
ACAD_ISO05W100
 70
0
  3
ISO long-dash double-dot ____ .. ____ .. ____ . 
 72
65
 73
6
 40
33.0000000000000071
 49
24.0
 74
0
 49
-2.9500000000000002
 74
0
 49
0.1
 74
0
 49
-2.9000000000000004
 74
0
 49
0.1
 74
0
 49
-2.9500000000000002
 74
0
  0
LTYPE
  5
3A
100
AcDbSymbolTableRecord
100
AcDbLinetypeTableRecord
  2
DASHDOTX2
 70
0
  3
Dash dot (2x) ____  .  ____  .  ____  .  ___
 72
65
 73
4
 40
50.7999999999999972
 49
25.3999999999999986
 74
0
 49
-12.6499999999999986
 74
0
 49
0.1
 74
0
 49
-12.6499999999999986
 74
0
  0
LTYPE
  5
3B
100
AcDbSymbolTableRecord
100
AcDbLinetypeTableRecord
  2
HIDDENX2
 70
0
  3
Hidden (2x) ____ ____ ____ ____ ____ ____ ____ 
 72
65
 73
2
 40
19.0499999999999972
 49
12.6999999999999993
 74
0
 49
-6.3499999999999996
 74
0
  0
LTYPE
  5
3C
100
AcDbSymbolTableRecord
100
AcDbLinetypeTableRecord
  2
CENTERX2
 70
0
  3
Center (2x) ________  __  ________  __  _____
 72
65
 73
4
 40
101.6000000000000085
 49
63.5
 74
0
 49
-12.6999999999999993
 74
0
 49
12.6999999999999993
 74
0
 49
-12.6999999999999993
 74
0
  0
LTYPE
  5
3D
100
AcDbSymbolTableRecord
100
AcDbLinetypeTableRecord
  2
BORDER2
 70
0
  3
Border (.5x) __.__.__.__.__.__.__.__.__.__.__.
 72
65
 73
6
 40
22.2250000000000014
 49
6.3499999999999996
 74
0
 49
-3.1749999999999998
 74
0
 49
6.3499999999999996
 74
0
 49
-3.125
 74
0
 49
0.1
 74
0
 49
-3.125
 74
0
  0
LTYPE
  5
3E
100
AcDbSymbolTableRecord
100
AcDbLinetypeTableRecord
  2
DASHDOT2
 70
0
  3
Dash dot (.5x) _._._._._._._._._._._._._._._.
 72
65
 73
4
 40
12.6999999999999993
 49
6.3499999999999996
 74
0
 49
-3.125
 74
0
 49
0.1
 74
0
 49
-3.125
 74
0
  0
LTYPE
  5
3F
100
AcDbSymbolTableRecord
100
AcDbLinetypeTableRecord
  2
ACAD_ISO12W100
 70
0
  3
ISO dash double-dot __ . . __ . . __ . . __ . . 
 72
65
 73
6
 40
21.0
 49
12.0
 74
0
 49
-2.9500000000000002
 74
0
 49
0.1
 74
0
 49
-2.9000000000000004
 74
0
 49
0.1
 74
0
 49
-2.9500000000000002
 74
0
  0
LTYPE
  5
40
100
AcDbSymbolTableRecord
100
AcDbLinetypeTableRecord
  2
ACAD_ISO07W100
 70
0
  3
ISO dot . . . . . . . . . . . . . . . . . . . . 
 72
65
 73
2
 40
3.0
 49
0.1
 74
0
 49
-2.8999999999999999
 74
0
  0
LTYPE
  5
41
100
AcDbSymbolTableRecord
100
AcDbLinetypeTableRecord
  2
HIDDEN
 70
0
  3
Hidden __ __ __ __ __ __ __ __ __ __ __ __ __ __
 72
65
 73
2
 40
9.5249999999999986
 49
6.3499999999999996
 74
0
 49
-3.1749999999999998
 74
0
  0
LTYPE
  5
42
100
AcDbSymbolTableRecord
100
AcDbLinetypeTableRecord
  2
ACAD_ISO06W100
 70
0
  3
ISO long-dash triple-dot ____ ... ____ ... ____
 72
65
 73
8
 40
36.0000000000000071
 49
24.0
 74
0
 49
-2.9500000000000002
 74
0
 49
0.1
 74
0
 49
-2.9000000000000004
 74
0
 49
0.1
 74
0
 49
-2.9000000000000004
 74
0
 49
0.1
 74
0
 49
-2.9500000000000002
 74
0
  0
LTYPE
  5
43
100
AcDbSymbolTableRecord
100
AcDbLinetypeTableRecord
  2
CENTER
 70
0
  3
Center ____ _ ____ _ ____ _ ____ _ ____ _ ____
 72
65
 73
4
 40
50.8000000000000043
 49
31.75
 74
0
 49
-6.3499999999999996
 74
0
 49
6.3499999999999996
 74
0
 49
-6.3499999999999996
 74
0
  0
LTYPE
  5
44
100
AcDbSymbolTableRecord
100
AcDbLinetypeTableRecord
  2
DOTX2
 70
0
  3
Dot (2x) .  .  .  .  .  .  .  .  .  .  .  .  .  .
 72
65
 73
2
 40
12.6999999999999993
 49
0.1
 74
0
 49
-12.5999999999999996
 74
0
  0
LTYPE
  5
45
100
AcDbSymbolTableRecord
100
AcDbLinetypeTableRecord
  2
PHANTOM
 70
0
  3
Phantom ______  __  __  ______  __  __  ______ 
 72
65
 73
6
 40
63.5000000000000071
 49
31.75
 74
0
 49
-6.3499999999999996
 74
0
 49
6.3499999999999996
 74
0
 49
-6.3499999999999996
 74
0
 49
6.3499999999999996
 74
0
 49
-6.3499999999999996
 74
0
  0
LTYPE
  5
46
100
AcDbSymbolTableRecord
100
AcDbLinetypeTableRecord
  2
ACAD_ISO08W100
 70
0
  3
ISO long-dash short-dash ____ __ ____ __ ____ _
 72
65
 73
4
 40
36.0
 49
24.0
 74
0
 49
-3.0
 74
0
 49
6.0
 74
0
 49
-3.0
 74
0
  0
LTYPE
  5
47
100
AcDbSymbolTableRecord
100
AcDbLinetypeTableRecord
  2
DASHEDX2
 70
0
  3
Dashed (2x) ____  ____  ____  ____  ____  ___
 72
65
 73
2
 40
38.0999999999999943
 49
25.3999999999999986
 74
0
 49
-12.6999999999999993
 74
0
  0
LTYPE
  5
48
100
AcDbSymbolTableRecord
100
AcDbLinetypeTableRecord
  2
ACAD_ISO02W100
 70
0
  3
ISO dash __ __ __ __ __ __ __ __ __ __ __ __ __
 72
65
 73
2
 40
15.0
 49
12.0
 74
0
 49
-3.0
 74
0
  0
LTYPE
  5
49
100
AcDbSymbolTableRecord
100
AcDbLinetypeTableRecord
  2
PHANTOM2
 70
0
  3
Phantom (.5x) ___ _ _ ___ _ _ ___ _ _ ___ _ _
 72
65
 73
6
 40
31.7500000000000036
 49
15.875
 74
0
 49
-3.1749999999999998
 74
0
 49
3.1749999999999998
 74
0
 49
-3.1749999999999998
 74
0
 49
3.1749999999999998
 74
0
 49
-3.1749999999999998
 74
0
  0
LTYPE
  5
4A
100
AcDbSymbolTableRecord
100
AcDbLinetypeTableRecord
  2
DASHED2
 70
0
  3
Dashed (.5x) _ _ _ _ _ _ _ _ _ _ _ _ _ _ _ _ _ 
 72
65
 73
2
 40
9.5249999999999986
 49
6.3499999999999996
 74
0
 49
-3.1749999999999998
 74
0
  0
LTYPE
  5
4B
100
AcDbSymbolTableRecord
100
AcDbLinetypeTableRecord
  2
ACAD_ISO09W100
 70
0
  3
ISO long-dash double-short-dash ____ __ __ ____
 72
65
 73
6
 40
45.0
 49
24.0
 74
0
 49
-3.0
 74
0
 49
6.0
 74
0
 49
-3.0
 74
0
 49
6.0
 74
0
 49
-3.0
 74
0
  0
LTYPE
  5
4C
100
AcDbSymbolTableRecord
100
AcDbLinetypeTableRecord
  2
ACAD_ISO13W100
 70
0
  3
ISO double-dash double-dot __ __ . . __ __ . . _
 72
65
 73
8
 40
36.0000000000000071
 49
12.0
 74
0
 49
-3.0
 74
0
 49
12.0
 74
0
 49
-2.9500000000000002
 74
0
 49
0.1
 74
0
 49
-2.9000000000000004
 74
0
 49
0.1
 74
0
 49
-2.9500000000000002
 74
0
  0
LTYPE
  5
4D
100
AcDbSymbolTableRecord
100
AcDbLinetypeTableRecord
  2
DOT2
 70
0
  3
Dot (.5x) ........................................
 72
65
 73
2
 40
3.1749999999999998
 49
0.1
 74
0
 49
-3.0749999999999997
 74
0
  0
LTYPE
  5
4E
100
AcDbSymbolTableRecord
100
AcDbLinetypeTableRecord
  2
DASHED
 70
0
  3
Dashed __ __ __ __ __ __ __ __ __ __ __ __ __ _
 72
65
 73
2
 40
19.0499999999999972
 49
12.6999999999999993
 74
0
 49
-6.3499999999999996
 74
0
  0
LTYPE
  5
4F
100
AcDbSymbolTableRecord
100
AcDbLinetypeTableRecord
  2
ACAD_ISO14W100
 70
0
  3
ISO dash triple-dot __ . . . __ . . . __ . . . _
 72
65
 73
8
 40
24.0000000000000036
 49
12.0
 74
0
 49
-2.9500000000000002
 74
0
 49
0.1
 74
0
 49
-2.9000000000000004
 74
0
 49
0.1
 74
0
 49
-2.9000000000000004
 74
0
 49
0.1
 74
0
 49
-2.9500000000000002
 74
0
  0
LTYPE
  5
15
100
AcDbSymbolTableRecord
100
AcDbLinetypeTableRecord
  2
BYLAYER
 70
0
  3

 72
65
 73
0
 40
0.0
  0
LTYPE
  5
50
100
AcDbSymbolTableRecord
100
AcDbLinetypeTableRecord
  2
PHANTOMX2
 70
0
  3
Phantom (2x) ____________    ____    ____   _
 72
65
 73
6
 40
127.0000000000000142
 49
63.5
 74
0
 49
-12.6999999999999993
 74
0
 49
12.6999999999999993
 74
0
 49
-12.6999999999999993
 74
0
 49
12.6999999999999993
 74
0
 49
-12.6999999999999993
 74
0
  0
LTYPE
  5
14
100
AcDbSymbolTableRecord
100
AcDbLinetypeTableRecord
  2
BYBLOCK
 70
0
  3

 72
65
 73
0
 40
0.0
  0
LTYPE
  5
51
100
AcDbSymbolTableRecord
100
AcDbLinetypeTableRecord
  2
DIVIDEX2
 70
0
  3
Divide (2x) ________  .  .  ________  .  .  _
 72
65
 73
6
 40
63.5
 49
25.3999999999999986
 74
0
 49
-12.6499999999999986
 74
0
 49
0.1
 74
0
 49
-12.5999999999999979
 74
0
 49
0.1
 74
0
 49
-12.6499999999999986
 74
0
  0
LTYPE
  5
52
100
AcDbSymbolTableRecord
100
AcDbLinetypeTableRecord
  2
BORDER
 70
0
  3
Border __ __ . __ __ . __ __ . __ __ . __ __ .
 72
65
 73
6
 40
44.4499999999999957
 49
12.6999999999999993
 74
0
 49
-6.3499999999999996
 74
0
 49
12.6999999999999993
 74
0
 49
-6.2999999999999998
 74
0
 49
0.1
 74
0
 49
-6.2999999999999998
 74
0
  0
LTYPE
  5
53
100
AcDbSymbolTableRecord
100
AcDbLinetypeTableRecord
  2
DIVIDE2
 70
0
  3
Divide (.5x) __..__..__..__..__..__..__..__.._
 72
65
 73
6
 40
15.8749999999999982
 49
6.3499999999999996
 74
0
 49
-3.125
 74
0
 49
0.1
 74
0
 49
-3.0750000000000002
 74
0
 49
0.1
 74
0
 49
-3.125
 74
0
  0
LTYPE
  5
54
100
AcDbSymbolTableRecord
100
AcDbLinetypeTableRecord
  2
DOT
 70
0
  3
Dot . . . . . . . . . . . . . . . . . . . . . . . .
 72
65
 73
2
 40
6.3499999999999996
 49
0.1
 74
0
 49
-6.25
 74
0
  0
LTYPE
  5
55
100
AcDbSymbolTableRecord
100
AcDbLinetypeTableRecord
  2
DASHDOT
 70
0
  3
Dash dot __ . __ . __ . __ . __ . __ . __ . __
 72
65
 73
4
 40
25.4000000000000021
 49
12.6999999999999993
 74
0
 49
-6.2999999999999998
 74
0
 49
0.1
 74
0
 49
-6.2999999999999998
 74
0
  0
LTYPE
  5
56
100
AcDbSymbolTableRecord
100
AcDbLinetypeTableRecord
  2
ACAD_ISO03W100
 70
0
  3
ISO dash space __    __    __    __    __    __
 72
65
 73
2
 40
30.0
 49
12.0
 74
0
 49
-18.0
 74
0
  0
ENDTAB
  0
TABLE
  2
LAYER
  5
2
100
AcDbSymbolTable
 70
1
  0
LAYER
  5
10
100
AcDbSymbolTableRecord
100
AcDbLayerTableRecord
  2
0
 70
0
 62
7
420
16777215
  6
CONTINUOUS
370
5
390
F
  0
ENDTAB
  0
TABLE
  2
STYLE
  5
3
100
AcDbSymbolTable
 70
1
  0
STYLE
  5
57
100
AcDbSymbolTableRecord
100
AcDbTextStyleTableRecord
  2
Standard
 70
0
 40
0.0
 41
1.0
 50
0.0
 71
0
 42
2.5
  3

  4

1001
ACAD
1000
txt
1071
0
  0
ENDTAB
  0
TABLE
  2
VIEW
  5
6
100
AcDbSymbolTable
 70
0
  0
ENDTAB
  0
TABLE
  2
UCS
  5
7
100
AcDbSymbolTable
 70
0
  0
ENDTAB
  0
TABLE
  2
APPID
  5
9
100
AcDbSymbolTable
 70
1
  0
APPID
  5
12
100
AcDbSymbolTableRecord
100
AcDbRegAppTableRecord
  2
ACAD
 70
0
  0
APPID
  5
58
100
AcDbSymbolTableRecord
100
AcDbRegAppTableRecord
  2
QCAD
 70
0
  0
ENDTAB
  0
TABLE
  2
DIMSTYLE
  5
A
100
AcDbSymbolTable
 70
1
100
AcDbDimStyleTable
 71
0
  0
DIMSTYLE
105
27
100
AcDbSymbolTableRecord
100
AcDbDimStyleTableRecord
  2
Standard
 41
0.18
 42
0.0625
 43
3.75
 44
0.18
 70
0
 73
0
 74
0
 77
1
 78
8
140
0.18
141
2.5
143
0.03937007874016
147
0.09
171
3
172
1
271
2
272
2
274
3
278
44
283
0
284
8
340
57
  0
ENDTAB
  0
TABLE
  2
BLOCK_RECORD
  5
1
100
AcDbSymbolTable
 70
1
  0
BLOCK_RECORD
  5
1F
100
AcDbSymbolTableRecord
100
AcDbBlockTableRecord
  2
*Model_Space
340
22
  0
BLOCK_RECORD
  5
1B
100
AcDbSymbolTableRecord
100
AcDbBlockTableRecord
  2
*Paper_Space
340
1E
  0
BLOCK_RECORD
  5
23
100
AcDbSymbolTableRecord
100
AcDbBlockTableRecord
  2
*Paper_Space0
340
26
  0
BLOCK_RECORD
  5
59
100
AcDbSymbolTableRecord
100
AcDbBlockTableRecord
  2
BODY007
340
0
  0
BLOCK_RECORD
  5
5A
100
AcDbSymbolTableRecord
100
AcDbBlockTableRecord
  2
BODY008
340
0
  0
BLOCK_RECORD
  5
5B
100
AcDbSymbolTableRecord
100
AcDbBlockTableRecord
  2
BODY009
340
0
  0
BLOCK_RECORD
  5
5C
100
AcDbSymbolTableRecord
100
AcDbBlockTableRecord
  2
BODY010
340
0
  0
BLOCK_RECORD
  5
5D
100
AcDbSymbolTableRecord
100
AcDbBlockTableRecord
  2
BODY011
340
0
  0
BLOCK_RECORD
  5
5E
100
AcDbSymbolTableRecord
100
AcDbBlockTableRecord
  2
MIRRORED002
340
0
  0
BLOCK_RECORD
  5
5F
100
AcDbSymbolTableRecord
100
AcDbBlockTableRecord
  2
BODY013
340
0
  0
BLOCK_RECORD
  5
60
100
AcDbSymbolTableRecord
100
AcDbBlockTableRecord
  2
BODY014
340
0
  0
BLOCK_RECORD
  5
61
100
AcDbSymbolTableRecord
100
AcDbBlockTableRecord
  2
BODY015
340
0
  0
BLOCK_RECORD
  5
62
100
AcDbSymbolTableRecord
100
AcDbBlockTableRecord
  2
BODY016
340
0
  0
BLOCK_RECORD
  5
63
100
AcDbSymbolTableRecord
100
AcDbBlockTableRecord
  2
BODY017
340
0
  0
BLOCK_RECORD
  5
64
100
AcDbSymbolTableRecord
100
AcDbBlockTableRecord
  2
BODY006
340
0
  0
ENDTAB
  0
ENDSEC
  0
SECTION
  2
BLOCKS
  0
BLOCK
  5
20
100
AcDbEntity
  8
0
100
AcDbBlockBegin
  2
*Model_Space
 70
0
 10
0.0
 20
0.0
 30
0.0
  3
*Model_Space
  1

  0
ENDBLK
  5
21
100
AcDbEntity
  8
0
100
AcDbBlockEnd
  0
BLOCK
  5
1C
100
AcDbEntity
 67
1
  8
0
100
AcDbBlockBegin
  2
*Paper_Space
 70
0
 10
0.0
 20
0.0
 30
0.0
  3
*Paper_Space
  1

  0
ENDBLK
  5
1D
100
AcDbEntity
 67
1
  8
0
100
AcDbBlockEnd
  0
BLOCK
  5
24
100
AcDbEntity
  8
0
100
AcDbBlockBegin
  2
*Paper_Space0
 70
0
 10
0.0
 20
0.0
 30
0.0
  3
*Paper_Space0
  1

  0
ENDBLK
  5
25
100
AcDbEntity
  8
0
100
AcDbBlockEnd
  0
BLOCK
  5
65
100
AcDbEntity
  8
0
100
AcDbBlockBegin
  2
BODY007
 70
0
 10
0.0
 20
0.0
 30
0.0
  3
BODY007
  1

  0
LINE
  5
66
100
AcDbEntity
  8
0
 62
0
370
-1
 48
1.0
  6
BYLAYER
100
AcDbLine
 10
-147.0
 20
-20.0
 30
0.0
 11
-150.0
 21
-20.0
 31
0.0
  0
LINE
  5
67
100
AcDbEntity
  8
0
 62
0
370
-1
 48
1.0
  6
BYLAYER
100
AcDbLine
 10
-147.0
 20
-20.0
 30
0.0
 11
-147.0
 21
-60.0
 31
0.0
  0
LINE
  5
68
100
AcDbEntity
  8
0
 62
0
370
-1
 48
1.0
  6
BYLAYER
100
AcDbLine
 10
-150.0
 20
-20.0
 30
0.0
 11
-150.0
 21
20.0
 31
0.0
  0
LINE
  5
69
100
AcDbEntity
  8
0
 62
0
370
-1
 48
1.0
  6
BYLAYER
100
AcDbLine
 10
-150.0
 20
-60.0
 30
0.0
 11
-147.0
 21
-60.0
 31
0.0
  0
LINE
  5
6A
100
AcDbEntity
  8
0
 62
0
370
-1
 48
1.0
  6
BYLAYER
100
AcDbLine
 10
-150.0
 20
-100.0
 30
0.0
 11
-150.0
 21
-60.0
 31
0.0
  0
LINE
  5
6B
100
AcDbEntity
  8
0
 62
0
370
-1
 48
1.0
  6
BYLAYER
100
AcDbLine
 10
-147.0
 20
-100.0
 30
0.0
 11
-150.0
 21
-100.0
 31
0.0
  0
LINE
  5
6C
100
AcDbEntity
  8
0
 62
0
370
-1
 48
1.0
  6
BYLAYER
100
AcDbLine
 10
-147.0
 20
-100.0
 30
0.0
 11
-147.0
 21
-147.0
 31
0.0
  0
LINE
  5
6D
100
AcDbEntity
  8
0
 62
0
370
-1
 48
1.0
  6
BYLAYER
100
AcDbLine
 10
-60.0
 20
-147.0
 30
0.0
 11
-147.0
 21
-147.0
 31
0.0
  0
LINE
  5
6E
100
AcDbEntity
  8
0
 62
0
370
-1
 48
1.0
  6
BYLAYER
100
AcDbLine
 10
-60.0
 20
-150.0
 30
0.0
 11
-60.0
 21
-147.0
 31
0.0
  0
LINE
  5
6F
100
AcDbEntity
  8
0
 62
0
370
-1
 48
1.0
  6
BYLAYER
100
AcDbLine
 10
-20.0
 20
-150.0
 30
0.0
 11
-60.0
 21
-150.0
 31
0.0
  0
LINE
  5
70
100
AcDbEntity
  8
0
 62
0
370
-1
 48
1.0
  6
BYLAYER
100
AcDbLine
 10
-20.0
 20
-147.0
 30
0.0
 11
-20.0
 21
-150.0
 31
0.0
  0
LINE
  5
71
100
AcDbEntity
  8
0
 62
0
370
-1
 48
1.0
  6
BYLAYER
100
AcDbLine
 10
20.0
 20
-147.0
 30
0.0
 11
-20.0
 21
-147.0
 31
0.0
  0
LINE
  5
72
100
AcDbEntity
  8
0
 62
0
370
-1
 48
1.0
  6
BYLAYER
100
AcDbLine
 10
20.0
 20
-150.0
 30
0.0
 11
20.0
 21
-147.0
 31
0.0
  0
LINE
  5
73
100
AcDbEntity
  8
0
 62
0
370
-1
 48
1.0
  6
BYLAYER
100
AcDbLine
 10
60.0
 20
-150.0
 30
0.0
 11
20.0
 21
-150.0
 31
0.0
  0
LINE
  5
74
100
AcDbEntity
  8
0
 62
0
370
-1
 48
1.0
  6
BYLAYER
100
AcDbLine
 10
60.0
 20
-147.0
 30
0.0
 11
60.0
 21
-150.0
 31
0.0
  0
LINE
  5
75
100
AcDbEntity
  8
0
 62
0
370
-1
 48
1.0
  6
BYLAYER
100
AcDbLine
 10
147.0
 20
-147.0
 30
0.0
 11
60.0
 21
-147.0
 31
0.0
  0
LINE
  5
76
100
AcDbEntity
  8
0
 62
0
370
-1
 48
1.0
  6
BYLAYER
100
AcDbLine
 10
147.0
 20
-100.0
 30
0.0
 11
147.0
 21
-147.0
 31
0.0
  0
LINE
  5
77
100
AcDbEntity
  8
0
 62
0
370
-1
 48
1.0
  6
BYLAYER
100
AcDbLine
 10
147.0
 20
-100.0
 30
0.0
 11
150.0
 21
-100.0
 31
0.0
  0
LINE
  5
78
100
AcDbEntity
  8
0
 62
0
370
-1
 48
1.0
  6
BYLAYER
100
AcDbLine
 10
150.0
 20
-100.0
 30
0.0
 11
150.0
 21
-60.0
 31
0.0
  0
LINE
  5
79
100
AcDbEntity
  8
0
 62
0
370
-1
 48
1.0
  6
BYLAYER
100
AcDbLine
 10
150.0
 20
-60.0
 30
0.0
 11
147.0
 21
-60.0
 31
0.0
  0
LINE
  5
7A
100
AcDbEntity
  8
0
 62
0
370
-1
 48
1.0
  6
BYLAYER
100
AcDbLine
 10
147.0
 20
-20.0
 30
0.0
 11
147.0
 21
-60.0
 31
0.0
  0
LINE
  5
7B
100
AcDbEntity
  8
0
 62
0
370
-1
 48
1.0
  6
BYLAYER
100
AcDbLine
 10
147.0
 20
-20.0
 30
0.0
 11
150.0
 21
-20.0
 31
0.0
  0
LINE
  5
7C
100
AcDbEntity
  8
0
 62
0
370
-1
 48
1.0
  6
BYLAYER
100
AcDbLine
 10
150.0
 20
-20.0
 30
0.0
 11
150.0
 21
20.0
 31
0.0
  0
LINE
  5
7D
100
AcDbEntity
  8
0
 62
0
370
-1
 48
1.0
  6
BYLAYER
100
AcDbLine
 10
150.0
 20
20.0
 30
0.0
 11
147.0
 21
20.0
 31
0.0
  0
LINE
  5
7E
100
AcDbEntity
  8
0
 62
0
370
-1
 48
1.0
  6
BYLAYER
100
AcDbLine
 10
147.0
 20
60.0
 30
0.0
 11
147.0
 21
20.0
 31
0.0
  0
LINE
  5
7F
100
AcDbEntity
  8
0
 62
0
370
-1
 48
1.0
  6
BYLAYER
100
AcDbLine
 10
147.0
 20
60.0
 30
0.0
 11
150.0
 21
60.0
 31
0.0
  0
LINE
  5
80
100
AcDbEntity
  8
0
 62
0
370
-1
 48
1.0
  6
BYLAYER
100
AcDbLine
 10
150.0
 20
60.0
 30
0.0
 11
150.0
 21
100.0
 31
0.0
  0
LINE
  5
81
100
AcDbEntity
  8
0
 62
0
370
-1
 48
1.0
  6
BYLAYER
100
AcDbLine
 10
150.0
 20
100.0
 30
0.0
 11
147.0
 21
100.0
 31
0.0
  0
LINE
  5
82
100
AcDbEntity
  8
0
 62
0
370
-1
 48
1.0
  6
BYLAYER
100
AcDbLine
 10
147.0
 20
150.0
 30
0.0
 11
147.0
 21
100.0
 31
0.0
  0
LINE
  5
83
100
AcDbEntity
  8
0
 62
0
370
-1
 48
1.0
  6
BYLAYER
100
AcDbLine
 10
-147.0
 20
150.0
 30
0.0
 11
147.0
 21
150.0
 31
0.0
  0
LINE
  5
84
100
AcDbEntity
  8
0
 62
0
370
-1
 48
1.0
  6
BYLAYER
100
AcDbLine
 10
-147.0
 20
150.0
 30
0.0
 11
-147.0
 21
100.0
 31
0.0
  0
LINE
  5
85
100
AcDbEntity
  8
0
 62
0
370
-1
 48
1.0
  6
BYLAYER
100
AcDbLine
 10
-150.0
 20
100.0
 30
0.0
 11
-147.0
 21
100.0
 31
0.0
  0
LINE
  5
86
100
AcDbEntity
  8
0
 62
0
370
-1
 48
1.0
  6
BYLAYER
100
AcDbLine
 10
-150.0
 20
60.0
 30
0.0
 11
-150.0
 21
100.0
 31
0.0
  0
LINE
  5
87
100
AcDbEntity
  8
0
 62
0
370
-1
 48
1.0
  6
BYLAYER
100
AcDbLine
 10
-147.0
 20
60.0
 30
0.0
 11
-150.0
 21
60.0
 31
0.0
  0
LINE
  5
88
100
AcDbEntity
  8
0
 62
0
370
-1
 48
1.0
  6
BYLAYER
100
AcDbLine
 10
-147.0
 20
60.0
 30
0.0
 11
-147.0
 21
20.0
 31
0.0
  0
LINE
  5
89
100
AcDbEntity
  8
0
 62
0
370
-1
 48
1.0
  6
BYLAYER
100
AcDbLine
 10
-150.0
 20
20.0
 30
0.0
 11
-147.0
 21
20.0
 31
0.0
  0
LINE
  5
8A
100
AcDbEntity
  8
0
 62
0
370
-1
 48
1.0
  6
BYLAYER
100
AcDbLine
 10
-95.0
 20
20.0
 30
0.0
 11
-92.0
 21
20.0
 31
0.0
  0
LINE
  5
8B
100
AcDbEntity
  8
0
 62
0
370
-1
 48
1.0
  6
BYLAYER
100
AcDbLine
 10
-95.0
 20
-20.0
 30
0.0
 11
-95.0
 21
20.0
 31
0.0
  0
LINE
  5
8C
100
AcDbEntity
  8
0
 62
0
370
-1
 48
1.0
  6
BYLAYER
100
AcDbLine
 10
-92.0
 20
20.0
 30
0.0
 11
-92.0
 21
-20.0
 31
0.0
  0
LINE
  5
8D
100
AcDbEntity
  8
0
 62
0
370
-1
 48
1.0
  6
BYLAYER
100
AcDbLine
 10
-92.0
 20
-20.0
 30
0.0
 11
-95.0
 21
-20.0
 31
0.0
  0
LINE
  5
8E
100
AcDbEntity
  8
0
 62
0
370
-1
 48
1.0
  6
BYLAYER
100
AcDbLine
 10
-95.0
 20
-60.0
 30
0.0
 11
-92.0
 21
-60.0
 31
0.0
  0
LINE
  5
8F
100
AcDbEntity
  8
0
 62
0
370
-1
 48
1.0
  6
BYLAYER
100
AcDbLine
 10
-95.0
 20
-100.0
 30
0.0
 11
-95.0
 21
-60.0
 31
0.0
  0
LINE
  5
90
100
AcDbEntity
  8
0
 62
0
370
-1
 48
1.0
  6
BYLAYER
100
AcDbLine
 10
-92.0
 20
-60.0
 30
0.0
 11
-92.0
 21
-100.0
 31
0.0
  0
LINE
  5
91
100
AcDbEntity
  8
0
 62
0
370
-1
 48
1.0
  6
BYLAYER
100
AcDbLine
 10
-92.0
 20
-100.0
 30
0.0
 11
-95.0
 21
-100.0
 31
0.0
  0
LINE
  5
92
100
AcDbEntity
  8
0
 62
0
370
-1
 48
1.0
  6
BYLAYER
100
AcDbLine
 10
-95.0
 20
100.0
 30
0.0
 11
-92.0
 21
100.0
 31
0.0
  0
LINE
  5
93
100
AcDbEntity
  8
0
 62
0
370
-1
 48
1.0
  6
BYLAYER
100
AcDbLine
 10
-95.0
 20
60.0
 30
0.0
 11
-95.0
 21
100.0
 31
0.0
  0
LINE
  5
94
100
AcDbEntity
  8
0
 62
0
370
-1
 48
1.0
  6
BYLAYER
100
AcDbLine
 10
-92.0
 20
100.0
 30
0.0
 11
-92.0
 21
60.0
 31
0.0
  0
LINE
  5
95
100
AcDbEntity
  8
0
 62
0
370
-1
 48
1.0
  6
BYLAYER
100
AcDbLine
 10
-92.0
 20
60.0
 30
0.0
 11
-95.0
 21
60.0
 31
0.0
  0
ENDBLK
  5
96
100
AcDbEntity
  8
0
100
AcDbBlockEnd
  0
BLOCK
  5
97
100
AcDbEntity
  8
0
100
AcDbBlockBegin
  2
BODY008
 70
0
 10
0.0
 20
0.0
 30
0.0
  3
BODY008
  1

  0
LWPOLYLINE
  5
98
100
AcDbEntity
  8
0
 62
256
370
-1
 48
1.0
  6
BYLAYER
100
AcDbPolyline
 90
127
 70
0
 10
11.9999992846999994
 20
-16.5
 30
0.0
 10
12.0499979827000008
 20
-16.4996875040999988
 30
0.0
 10
12.0999888684000005
 20
-16.4987500651000012
 30
0.0
 10
12.1499641310000008
 20
-16.4971878296000014
 30
0.0
 10
12.1999159618000004
 20
-16.4950010415999984
 30
0.0
 10
12.2498365561
 20
-16.4921900428000008
 30
0.0
 10
12.2997181137999991
 20
-16.4887552723999988
 30
0.0
 10
12.3495528410999995
 20
-16.4846972672000014
 30
0.0
 10
12.3993329512999999
 20
-16.4800166610999987
 30
0.0
 10
12.4490506664999998
 20
-16.4747141855000017
 30
0.0
 10
12.4986982182999995
 20
-16.4687906688999988
 30
0.0
 10
12.5482678494000002
 20
-16.4622470368999991
 30
0.0
 10
12.5977518146000005
 20
-16.4550843116999985
 30
0.0
 10
12.6471423823000002
 20
-16.447303612799999
 30
0.0
 10
12.6964318351000003
 20
-16.4389061556000016
 30
0.0
 10
12.7456124717999995
 20
-16.4298932523999994
 30
0.0
 10
12.7946766078999996
 20
-16.4202663113999989
 30
0.0
 10
12.8436165773000006
 20
-16.4100268366999984
 30
0.0
 10
12.8924247333000004
 20
-16.3991764282999988
 30
0.0
 10
12.9410934495000003
 20
-16.3877167815
 30
0.0
 10
12.9896151218
 20
-16.3756496867999992
 30
0.0
 10
13.0379821684999992
 20
-16.3629770297999997
 30
0.0
 10
13.0861870325999998
 20
-16.3497007904999982
 30
0.0
 10
13.1342221820000002
 20
-16.3358230432999996
 30
0.0
 10
13.1820801113999995
 20
-16.3213459565000001
 30
0.0
 10
13.2297533431000005
 20
-16.3062717922000004
 30
0.0
 10
13.2772344281999999
 20
-16.2906029056999984
 30
0.0
 10
13.3245159479000002
 20
-16.2743417450999992
 30
0.0
 10
13.3715905145999994
 20
-16.2574908514000001
 30
0.0
 10
13.4184507729
 20
-16.2400528573000003
 30
0.0
 10
13.4650894011000002
 20
-16.2220304876999997
 30
0.0
 10
13.5114991118999992
 20
-16.2034265582999986
 30
0.0
 10
13.5576726539999992
 20
-16.1842439760000012
 30
0.0
 10
13.6036028127000002
 20
-16.1644857381000016
 30
0.0
 10
13.6492824116999998
 20
-16.1441549317999993
 30
0.0
 10
13.6947043136000008
 20
-16.1232547337000014
 30
0.0
 10
13.7398614212000005
 20
-16.101788409400001
 30
0.0
 10
13.7847466788999995
 20
-16.0797593130000003
 30
0.0
 10
13.8293530735000001
 20
-16.0571708864999998
 30
0.0
 10
13.8736736351999994
 20
-16.0340266593000003
 30
0.0
 10
13.9177014392
 20
-16.0103302475999989
 30
0.0
 10
13.9614296059999994
 20
-15.9860853539000001
 30
0.0
 10
14.0048513034000006
 20
-15.9612957664999993
 30
0.0
 10
14.0479597468000001
 20
-15.9359653587000007
 30
0.0
 10
14.0907482005000002
 20
-15.9100980881999998
 30
0.0
 10
14.1332099789000001
 20
-15.8836979969000005
 30
0.0
 10
14.1753384474999997
 20
-15.8567692096999995
 30
0.0
 10
14.2171270237999998
 20
-15.8293159341000003
 30
0.0
 10
14.2585691783000001
 20
-15.8013424596000007
 30
0.0
 10
14.2996584358999996
 20
-15.7728531572000001
 30
0.0
 10
14.3403883765
 20
-15.7438524780000009
 30
0.0
 10
14.3807526360000004
 20
-15.7143449534999995
 30
0.0
 10
14.4207449076999996
 20
-15.6843351942000009
 30
0.0
 10
14.4603589427999992
 20
-15.6538278890000004
 30
0.0
 10
14.4995885517000005
 20
-15.6228278045
 30
0.0
 10
14.5384276048000007
 20
-15.5913397846000006
 30
0.0
 10
14.5768700337000006
 20
-15.5593687491000008
 30
0.0
 10
14.6149098318000004
 20
-15.5269196935
 30
0.0
 10
14.6525410554000004
 20
-15.4939976879000003
 30
0.0
 10
14.6897578247999991
 20
-15.4606078761999992
 30
0.0
 10
14.7265543248000004
 20
-15.4267554755000003
 30
0.0
 10
14.7629248061999991
 20
-15.3924457752000006
 30
0.0
 10
14.7988635860999995
 20
-15.3576841361999996
 30
0.0
 10
14.8343650492000005
 20
-15.3224759898999991
 30
0.0
 10
14.8694236482999997
 20
-15.2868268373999996
 30
0.0
 10
14.9040339058000004
 20
-15.2507422489
 30
0.0
 10
14.9381904136999992
 20
-15.2142278624999996
 30
0.0
 10
14.9718878353000004
 20
-15.1772893834999998
 30
0.0
 10
15.0051209053000001
 20
-15.1399325835000003
 30
0.0
 10
15.0378844312000002
 20
-15.1021632995000008
 30
0.0
 10
15.0701732936999999
 20
-15.0639874326999994
 30
0.0
 10
15.1019824477999993
 20
-15.0254109479999993
 30
0.0
 10
15.1333069232999993
 20
-14.9864398731000001
 30
0.0
 10
15.1641418257999998
 20
-14.9470802969999994
 30
0.0
 10
15.1944823375000002
 20
-14.9073383694999997
 30
0.0
 10
15.2243237178000008
 20
-14.8672203003999996
 30
0.0
 10
15.2536613038999995
 20
-14.8267323578999992
 30
0.0
 10
15.2824905119000007
 20
-14.7858808680999996
 30
0.0
 10
15.3108068373999995
 20
-14.7446722141999995
 30
0.0
 10
15.3386058558999991
 20
-14.7031128348000006
 30
0.0
 10
15.3658832239999992
 20
-14.6612092235000002
 30
0.0
 10
15.3926346795000004
 20
-14.6189679276
 30
0.0
 10
15.4188560425999999
 20
-14.5763955473000006
 30
0.0
 10
15.4445432163999996
 20
-14.5334987345000002
 30
0.0
 10
15.4696921870999997
 20
-14.4902841916000007
 30
0.0
 10
15.4942990254000001
 20
-14.4467586707999995
 30
0.0
 10
15.5183598865000008
 20
-14.4029289729999999
 30
0.0
 10
15.5418710108999996
 20
-14.3588019462999998
 30
0.0
 10
15.5648287249999999
 20
-14.3143844856999998
 30
0.0
 10
15.5872294417999999
 20
-14.2696835312000001
 30
0.0
 10
15.6090696610999995
 20
-14.2247060671999996
 30
0.0
 10
15.6303459706000005
 20
-14.1794591214000008
 30
0.0
 10
15.6510550457999997
 20
-14.1339497635000004
 30
0.0
 10
15.6711936508999994
 20
-14.0881851043000008
 30
0.0
 10
15.6907586394000003
 20
-14.0421722945000003
 30
0.0
 10
15.7097469542999999
 20
-13.9959185233000003
 30
0.0
 10
15.7281556285999997
 20
-13.9494310179000003
 30
0.0
 10
15.7459817860999998
 20
-13.9027170419000008
 30
0.0
 10
15.7632226414000005
 20
-13.8557838941
 30
0.0
 10
15.7798755007999993
 20
-13.8086389079000007
 30
0.0
 10
15.7959377621999995
 20
-13.7612894495999996
 30
0.0
 10
15.8114069158999992
 20
-13.7137429172999994
 30
0.0
 10
15.8262805448999995
 20
-13.6660067402000003
 30
0.0
 10
15.8405563252999997
 20
-13.6180883768999994
 30
0.0
 10
15.8542320264000001
 20
-13.5699953144999998
 30
0.0
 10
15.8673055114999997
 20
-13.5217350675999999
 30
0.0
 10
15.8797747379
 20
-13.4733151765999999
 30
0.0
 10
15.8916377572999998
 20
-13.4247432071000006
 30
0.0
 10
15.9028927161000002
 20
-13.3760267483999993
 30
0.0
 10
15.9135378556999996
 20
-13.3271734122000005
 30
0.0
 10
15.9235715128000006
 20
-13.2781908319999999
 30
0.0
 10
15.9329921197999997
 20
-13.2290866609000002
 30
0.0
 10
15.9417982046999995
 20
-13.1798685716000001
 30
0.0
 10
15.9499883914999998
 20
-13.1305442542000002
 30
0.0
 10
15.9575614004999995
 20
-13.0811214155000002
 30
0.0
 10
15.9645160486000002
 20
-13.0316077777999997
 30
0.0
 10
15.9708512489000007
 20
-12.9820110774999993
 30
0.0
 10
15.9765660116999992
 20
-12.9323390639000007
 30
0.0
 10
15.9816594439999999
 20
-12.8825994981999994
 30
0.0
 10
15.9861307500999992
 20
-12.8328001521000008
 30
0.0
 10
15.9899792311999995
 20
-12.7829488067000003
 30
0.0
 10
15.9932042859999992
 20
-12.7330532510999994
 30
0.0
 10
15.9958054106999992
 20
-12.6831212814000001
 30
0.0
 10
15.9977821987999995
 20
-12.6331606992999994
 30
0.0
 10
15.9991343414999996
 20
-12.5831793112000003
 30
0.0
 10
15.9998616274999996
 20
-12.5331849265000006
 30
0.0
 10
15.9999992846999994
 20
-12.5
 30
0.0
  0
LWPOLYLINE
  5
99
100
AcDbEntity
  8
0
 62
256
370
-1
 48
1.0
  6
BYLAYER
100
AcDbPolyline
 90
127
 70
0
 10
-16.0000007153000006
 20
-12.5
 30
0.0
 10
-15.9996882192999994
 20
-12.5499986978999996
 30
0.0
 10
-15.9987507804
 20
-12.5999895836999993
 30
0.0
 10
-15.9971885448000002
 20
-12.6499648461999996
 30
0.0
 10
-15.9950017568000007
 20
-12.6999166770999992
 30
0.0
 10
-15.9921907580999996
 20
-12.7498372714000006
 30
0.0
 10
-15.9887559876999994
 20
-12.7997188290999997
 30
0.0
 10
-15.9846979825000002
 20
-12.8495535564000001
 30
0.0
 10
-15.9800173763999993
 20
-12.8993336666000005
 30
0.0
 10
-15.9747149008000004
 20
-12.9490513817000004
 30
0.0
 10
-15.9687913841999993
 20
-12.9986989335000001
 30
0.0
 10
-15.9622477520999997
 20
-13.0482685646000007
 30
0.0
 10
-15.9550850270000009
 20
-13.0977525298999993
 30
0.0
 10
-15.9473043279999995
 20
-13.1471430975000008
 30
0.0
 10
-15.9389068709000004
 20
-13.1964325504000008
 30
0.0
 10
-15.9298939677
 20
-13.245613187
 30
0.0
 10
-15.9202670265999995
 20
-13.2946773232000002
 30
0.0
 10
-15.9100275519000007
 20
-13.3436172925999994
 30
0.0
 10
-15.8991771434999993
 20
-13.3924254484999992
 30
0.0
 10
-15.8877174967000006
 20
-13.4410941648000009
 30
0.0
 10
-15.8756504020999998
 20
-13.4896158370000006
 30
0.0
 10
-15.8629777451000002
 20
-13.5379828837999998
 30
0.0
 10
-15.8497015058000006
 20
-13.5861877478000004
 30
0.0
 10
-15.8358237585000001
 20
-13.6342228972000008
 30
0.0
 10
-15.8213466718000006
 20
-13.6820808266
 30
0.0
 10
-15.8062725073999992
 20
-13.7297540582999993
 30
0.0
 10
-15.7906036209000007
 20
-13.7772351434000004
 30
0.0
 10
-15.7743424603999998
 20
-13.8245166631000007
 30
0.0
 10
-15.7574915666000006
 20
-13.8715912297999999
 30
0.0
 10
-15.7400535726000008
 20
-13.9184514882000006
 30
0.0
 10
-15.7220312029000002
 20
-13.9650901163000007
 30
0.0
 10
-15.7034272734999991
 20
-14.0114998271999998
 30
0.0
 10
-15.6842446913
 20
-14.0576733691999998
 30
0.0
 10
-15.6644864534000003
 20
-14.1036035280000007
 30
0.0
 10
-15.6441556470999998
 20
-14.1492831270000003
 30
0.0
 10
-15.6232554490000002
 20
-14.1947050287999996
 30
0.0
 10
-15.6017891246999998
 20
-14.2398621363999993
 30
0.0
 10
-15.5797600283000008
 20
-14.2847473942000001
 30
0.0
 10
-15.5571716017000004
 20
-14.3293537887000006
 30
0.0
 10
-15.5340273745000008
 20
-14.3736743505
 30
0.0
 10
-15.5103309627999995
 20
-14.4177021544000006
 30
0.0
 10
-15.4860860692000006
 20
-14.4614303212999999
 30
0.0
 10
-15.4612964816999998
 20
-14.5048520186999994
 30
0.0
 10
-15.4359660738999995
 20
-14.5479604620000007
 30
0.0
 10
-15.4100988035000004
 20
-14.5907489157000008
 30
0.0
 10
-15.3836987121999993
 20
-14.6332106941000006
 30
0.0
 10
-15.3567699249
 20
-14.6753391627000003
 30
0.0
 10
-15.3293166493000008
 20
-14.7171277390000004
 30
0.0
 10
-15.3013431748999995
 20
-14.7585698936000007
 30
0.0
 10
-15.2728538724000007
 20
-14.7996591512000002
 30
0.0
 10
-15.2438531932999997
 20
-14.8403890918000005
 30
0.0
 10
-15.2143456688000001
 20
-14.8807533512999992
 30
0.0
 10
-15.1843359094999997
 20
-14.9207456229000002
 30
0.0
 10
-15.1538286041999992
 20
-14.9603596579999998
 30
0.0
 10
-15.1228285198000005
 20
-14.9995892668999993
 30
0.0
 10
-15.0913404998999994
 20
-15.0384283200999995
 30
0.0
 10
-15.0593694643999996
 20
-15.0768707489999993
 30
0.0
 10
-15.0269204088000006
 20
-15.1149105469999991
 30
0.0
 10
-14.9939984031000009
 20
-15.1525417706999992
 30
0.0
 10
-14.9606085913999998
 20
-15.1897585399999997
 30
0.0
 10
-14.9267561908000008
 20
-15.2265550400999992
 30
0.0
 10
-14.8924464904999994
 20
-15.2629255214999997
 30
0.0
 10
-14.8576848515000002
 20
-15.2988643014000001
 30
0.0
 10
-14.8224767050999997
 20
-15.3343657643999993
 30
0.0
 10
-14.7868275526000001
 20
-15.3694243636000003
 30
0.0
 10
-14.7507429641000005
 20
-15.4040346209999992
 30
0.0
 10
-14.7142285778000002
 20
-15.4381911289999998
 30
0.0
 10
-14.6772900988000004
 20
-15.4718885504999992
 30
0.0
 10
-14.6399332988000008
 20
-15.5051216206000007
 30
0.0
 10
-14.6021640146999996
 20
-15.5378851464000007
 30
0.0
 10
-14.5639881479
 20
-15.5701740089000005
 30
0.0
 10
-14.5254116632999999
 20
-15.6019831629999999
 30
0.0
 10
-14.4864405883000007
 20
-15.6333076384999998
 30
0.0
 10
-14.4470810122
 20
-15.6641425411000004
 30
0.0
 10
-14.4073390848000003
 20
-15.6944830528000008
 30
0.0
 10
-14.3672210156000002
 20
-15.7243244329999996
 30
0.0
 10
-14.3267330730999998
 20
-15.7536620192000001
 30
0.0
 10
-14.2858815834000001
 20
-15.7824912271999995
 30
0.0
 10
-14.2446729295000001
 20
-15.8108075527
 30
0.0
 10
-14.2031135499999994
 20
-15.8386065711999997
 30
0.0
 10
-14.1612099387000008
 20
-15.8658839391999997
 30
0.0
 10
-14.1189686429000005
 20
-15.8926353947999992
 30
0.0
 10
-14.0763962625999994
 20
-15.9188567579000004
 30
0.0
 10
-14.0334994497000007
 20
-15.9445439316000002
 30
0.0
 10
-13.9902849067999995
 20
-15.9696929024000003
 30
0.0
 10
-13.9467593861000001
 20
-15.9942997407000007
 30
0.0
 10
-13.9029296882000004
 20
-16.0183606016999995
 30
0.0
 10
-13.8588026616000004
 20
-16.0418717260999983
 30
0.0
 10
-13.8143852010000003
 20
-16.0648294402000005
 30
0.0
 10
-13.7696842464000007
 20
-16.0872301570000005
 30
0.0
 10
-13.7247067824000002
 20
-16.1090703763999983
 30
0.0
 10
-13.6794598366999995
 20
-16.1303466859000011
 30
0.0
 10
-13.6339504787999992
 20
-16.1510557609999985
 30
0.0
 10
-13.5881858195999996
 20
-16.1711943662000017
 30
0.0
 10
-13.5421730097000008
 20
-16.1907593546999991
 30
0.0
 10
-13.4959192386000009
 20
-16.2097476695000005
 30
0.0
 10
-13.4494317332000008
 20
-16.2281563439000003
 30
0.0
 10
-13.4027177570999996
 20
-16.2459825014000003
 30
0.0
 10
-13.3557846094000006
 20
-16.2632233566999993
 30
0.0
 10
-13.3086396231999995
 20
-16.2798762160000017
 30
0.0
 10
-13.2612901648000001
 20
-16.2959384774
 30
0.0
 10
-13.2137436326
 20
-16.3114076310999998
 30
0.0
 10
-13.1660074554000008
 20
-16.3262812601999983
 30
0.0
 10
-13.1180890921
 20
-16.3405570404999985
 30
0.0
 10
-13.0699960298000004
 20
-16.3542327416999989
 30
0.0
 10
-13.0217357828000004
 20
-16.3673062268000002
 30
0.0
 10
-12.9733158918000004
 20
-16.3797754532000006
 30
0.0
 10
-12.9247439223999994
 20
-16.3916384724999986
 30
0.0
 10
-12.8760274635999998
 20
-16.4028934313000008
 30
0.0
 10
-12.8271741274999993
 20
-16.4135385708999983
 30
0.0
 10
-12.7781915472000005
 20
-16.4235722280999994
 30
0.0
 10
-12.7290873762000007
 20
-16.4329928350999985
 30
0.0
 10
-12.6798692869000007
 20
-16.4417989200000001
 30
0.0
 10
-12.6305449694000007
 20
-16.4499891068000004
 30
0.0
 10
-12.5811221308000007
 20
-16.4575621157999983
 30
0.0
 10
-12.5316084931000002
 20
-16.464516763799999
 30
0.0
 10
-12.4820117926999998
 20
-16.4708519642000013
 30
0.0
 10
-12.4323397790999994
 20
-16.4765667268999998
 30
0.0
 10
-12.3826002133999999
 20
-16.4816601592999987
 30
0.0
 10
-12.3328008673999996
 20
-16.4861314653000015
 30
0.0
 10
-12.2829495218999991
 20
-16.4899799463999983
 30
0.0
 10
-12.2330539663
 20
-16.4932050013000016
 30
0.0
 10
-12.1831219966000006
 20
-16.4958061260000015
 30
0.0
 10
-12.1331614146
 20
-16.4977829141000001
 30
0.0
 10
-12.0831800264999991
 20
-16.4991350568000001
 30
0.0
 10
-12.0331856417999994
 20
-16.4998623426999984
 30
0.0
 10
-12.0000007153000006
 20
-16.5
 30
0.0
  0
LWPOLYLINE
  5
9A
100
AcDbEntity
  8
0
 62
256
370
-1
 48
1.0
  6
BYLAYER
100
AcDbPolyline
 90
127
 70
0
 10
15.9999992846999994
 20
12.5
 30
0.0
 10
15.9996867888000001
 20
12.5499986978999996
 30
0.0
 10
15.9987493499000006
 20
12.5999895836999993
 30
0.0
 10
15.9971871143000008
 20
12.6499648461999996
 30
0.0
 10
15.9950003262999996
 20
12.6999166770999992
 30
0.0
 10
15.9921893275000002
 20
12.7498372714000006
 30
0.0
 10
15.9887545572000001
 20
12.7997188290999997
 30
0.0
 10
15.9846965519000008
 20
12.8495535564000001
 30
0.0
 10
15.9800159459
 20
12.8993336666000005
 30
0.0
 10
15.9747134702999993
 20
12.9490513817000004
 30
0.0
 10
15.9687899537
 20
12.9986989335000001
 30
0.0
 10
15.9622463216000003
 20
13.0482685646000007
 30
0.0
 10
15.9550835964999997
 20
13.0977525298999993
 30
0.0
 10
15.9473028975000002
 20
13.1471430975000008
 30
0.0
 10
15.9389054403999992
 20
13.1964325504000008
 30
0.0
 10
15.9298925372000006
 20
13.2456131871
 30
0.0
 10
15.9202655961000001
 20
13.2946773232000002
 30
0.0
 10
15.9100261213999996
 20
13.3436172925999994
 30
0.0
 10
15.899175713
 20
13.3924254484999992
 30
0.0
 10
15.8877160661999994
 20
13.4410941648000009
 30
0.0
 10
15.8756489716000004
 20
13.4896158370000006
 30
0.0
 10
15.8629763145999991
 20
13.5379828837999998
 30
0.0
 10
15.8497000752999995
 20
13.5861877478000004
 30
0.0
 10
15.8358223280000008
 20
13.6342228972000008
 30
0.0
 10
15.8213452412999995
 20
13.6820808266
 30
0.0
 10
15.8062710768999999
 20
13.7297540582999993
 30
0.0
 10
15.7906021903999996
 20
13.7772351434000004
 30
0.0
 10
15.7743410299000004
 20
13.8245166631000007
 30
0.0
 10
15.7574901360999995
 20
13.8715912297999999
 30
0.0
 10
15.7400521420999997
 20
13.9184514882000006
 30
0.0
 10
15.7220297724000009
 20
13.9650901163000007
 30
0.0
 10
15.7034258429999998
 20
14.0114998271999998
 30
0.0
 10
15.6842432608000006
 20
14.0576733691999998
 30
0.0
 10
15.6644850228999992
 20
14.1036035280000007
 30
0.0
 10
15.6441542166000005
 20
14.1492831270000003
 30
0.0
 10
15.6232540185000008
 20
14.1947050287999996
 30
0.0
 10
15.6017876942000004
 20
14.2398621363999993
 30
0.0
 10
15.5797585977999997
 20
14.2847473942000001
 30
0.0
 10
15.5571701711999992
 20
14.3293537887000006
 30
0.0
 10
15.5340259439999997
 20
14.3736743505
 30
0.0
 10
15.5103295323000001
 20
14.4177021544000006
 30
0.0
 10
15.4860846385999995
 20
14.4614303212999999
 30
0.0
 10
15.4612950512000005
 20
14.5048520186999994
 30
0.0
 10
15.4359646434000002
 20
14.5479604620000007
 30
0.0
 10
15.4100973729999993
 20
14.5907489157000008
 30
0.0
 10
15.3836972816999999
 20
14.6332106941000006
 30
0.0
 10
15.3567684944000007
 20
14.6753391627000003
 30
0.0
 10
15.3293152187999997
 20
14.7171277390000004
 30
0.0
 10
15.3013417444000002
 20
14.7585698936000007
 30
0.0
 10
15.2728524418999996
 20
14.7996591512000002
 30
0.0
 10
15.2438517628000003
 20
14.8403890918000005
 30
0.0
 10
15.2143442383000007
 20
14.8807533512999992
 30
0.0
 10
15.1843344789000003
 20
14.9207456229000002
 30
0.0
 10
15.1538271736999999
 20
14.9603596579999998
 30
0.0
 10
15.1228270892999994
 20
14.9995892668999993
 30
0.0
 10
15.0913390694
 20
15.0384283200999995
 30
0.0
 10
15.0593680339000002
 20
15.0768707489999993
 30
0.0
 10
15.0269189782999995
 20
15.1149105469999991
 30
0.0
 10
14.9939969725999998
 20
15.1525417706999992
 30
0.0
 10
14.9606071609000004
 20
15.1897585399999997
 30
0.0
 10
14.9267547601999997
 20
15.2265550400999992
 30
0.0
 10
14.89244506
 20
15.2629255214999997
 30
0.0
 10
14.8576834210000008
 20
15.2988643014000001
 30
0.0
 10
14.8224752746000004
 20
15.3343657643999993
 30
0.0
 10
14.7868261221000008
 20
15.3694243636000003
 30
0.0
 10
14.7507415335999994
 20
15.4040346209999992
 30
0.0
 10
14.7142271472000008
 20
15.4381911289999998
 30
0.0
 10
14.6772886682999992
 20
15.4718885504999992
 30
0.0
 10
14.6399318682999997
 20
15.5051216206000007
 30
0.0
 10
14.6021625842000002
 20
15.5378851464000007
 30
0.0
 10
14.5639867174000006
 20
15.5701740089000005
 30
0.0
 10
14.5254102328000005
 20
15.6019831629999999
 30
0.0
 10
14.4864391577999996
 20
15.6333076384999998
 30
0.0
 10
14.4470795817000006
 20
15.6641425411000004
 30
0.0
 10
14.4073376542999991
 20
15.6944830528000008
 30
0.0
 10
14.3672195851000009
 20
15.7243244329999996
 30
0.0
 10
14.3267316426000004
 20
15.7536620192000001
 30
0.0
 10
14.2858801529000008
 20
15.7824912271999995
 30
0.0
 10
14.2446714989000007
 20
15.8108075527
 30
0.0
 10
14.2031121195000001
 20
15.8386065711999997
 30
0.0
 10
14.1612085081999997
 20
15.8658839391999997
 30
0.0
 10
14.1189672123999994
 20
15.8926353947999992
 30
0.0
 10
14.0763948321000001
 20
15.9188567579000004
 30
0.0
 10
14.0334980191999996
 20
15.9445439316000002
 30
0.0
 10
13.9902834763000001
 20
15.9696929024000003
 30
0.0
 10
13.9467579556000008
 20
15.9942997407000007
 30
0.0
 10
13.9029282576999993
 20
16.0183606016999995
 30
0.0
 10
13.8588012310999993
 20
16.0418717260999983
 30
0.0
 10
13.8143837703999992
 20
16.0648294402000005
 30
0.0
 10
13.7696828158999995
 20
16.0872301570000005
 30
0.0
 10
13.7247053519000008
 20
16.1090703763999983
 30
0.0
 10
13.6794584061000002
 20
16.1303466859000011
 30
0.0
 10
13.6339490482999999
 20
16.1510557609999985
 30
0.0
 10
13.5881843891000003
 20
16.1711943662000017
 30
0.0
 10
13.5421715791999997
 20
16.1907593546999991
 30
0.0
 10
13.4959178079999997
 20
16.2097476695000005
 30
0.0
 10
13.4494303026999997
 20
16.2281563439000003
 30
0.0
 10
13.4027163266000002
 20
16.2459825014000003
 30
0.0
 10
13.3557831788999994
 20
16.2632233566999993
 30
0.0
 10
13.3086381927000001
 20
16.2798762160000017
 30
0.0
 10
13.2612887343000008
 20
16.2959384774
 30
0.0
 10
13.2137422021000006
 20
16.3114076310999998
 30
0.0
 10
13.1660060248999997
 20
16.3262812601999983
 30
0.0
 10
13.1180876616000006
 20
16.3405570404999985
 30
0.0
 10
13.0699945991999993
 20
16.3542327416999989
 30
0.0
 10
13.0217343522999993
 20
16.3673062268000002
 30
0.0
 10
12.9733144612999993
 20
16.3797754532000006
 30
0.0
 10
12.9247424918
 20
16.3916384724999986
 30
0.0
 10
12.8760260331000005
 20
16.4028934313000008
 30
0.0
 10
12.827172697
 20
16.4135385708999983
 30
0.0
 10
12.7781901166999994
 20
16.4235722280999994
 30
0.0
 10
12.7290859456999996
 20
16.4329928350999985
 30
0.0
 10
12.6798678562999996
 20
16.4417989200000001
 30
0.0
 10
12.6305435388999996
 20
16.4499891068000004
 30
0.0
 10
12.5811207002999996
 20
16.4575621157999983
 30
0.0
 10
12.5316070625999991
 20
16.464516763799999
 30
0.0
 10
12.4820103622000005
 20
16.4708519642000013
 30
0.0
 10
12.4323383486000001
 20
16.4765667268999998
 30
0.0
 10
12.3825987829000006
 20
16.4816601592999987
 30
0.0
 10
12.3327994368000002
 20
16.4861314653000015
 30
0.0
 10
12.2829480913999998
 20
16.4899799463999983
 30
0.0
 10
12.2330525358000006
 20
16.4932050013000016
 30
0.0
 10
12.1831205660999995
 20
16.4958061260000015
 30
0.0
 10
12.1331599841000006
 20
16.4977829141000001
 30
0.0
 10
12.0831785959999998
 20
16.4991350568000001
 30
0.0
 10
12.0331842112
 20
16.4998623426999984
 30
0.0
 10
11.9999992846999994
 20
16.5
 30
0.0
  0
LWPOLYLINE
  5
9B
100
AcDbEntity
  8
0
 62
256
370
-1
 48
1.0
  6
BYLAYER
100
AcDbPolyline
 90
127
 70
0
 10
-12.0000007153000006
 20
16.5
 30
0.0
 10
-12.0499994132000001
 20
16.4996875040999988
 30
0.0
 10
-12.0999902988999999
 20
16.4987500651000012
 30
0.0
 10
-12.1499655615000002
 20
16.4971878296000014
 30
0.0
 10
-12.1999173922999997
 20
16.4950010415999984
 30
0.0
 10
-12.2498379865999993
 20
16.4921900428000008
 30
0.0
 10
-12.2997195443000003
 20
16.4887552723999988
 30
0.0
 10
-12.3495542716000006
 20
16.4846972672000014
 30
0.0
 10
-12.3993343817999992
 20
16.4800166610999987
 30
0.0
 10
-12.4490520969999992
 20
16.4747141855000017
 30
0.0
 10
-12.4986996488000006
 20
16.4687906688999988
 30
0.0
 10
-12.5482692798999995
 20
16.4622470368999991
 30
0.0
 10
-12.5977532450999998
 20
16.4550843116999985
 30
0.0
 10
-12.6471438127999996
 20
16.447303612799999
 30
0.0
 10
-12.6964332655999996
 20
16.4389061556000016
 30
0.0
 10
-12.7456139023000006
 20
16.4298932523999994
 30
0.0
 10
-12.7946780384000007
 20
16.4202663113999989
 30
0.0
 10
-12.8436180079
 20
16.4100268366999984
 30
0.0
 10
-12.8924261637999997
 20
16.3991764282999988
 30
0.0
 10
-12.9410948800999996
 20
16.3877167815
 30
0.0
 10
-12.9896165522999993
 20
16.3756496867999992
 30
0.0
 10
-13.0379835990000004
 20
16.3629770297999997
 30
0.0
 10
-13.0861884630999992
 20
16.3497007904999982
 30
0.0
 10
-13.1342236124999996
 20
16.3358230432999996
 30
0.0
 10
-13.1820815419000006
 20
16.3213459565000001
 30
0.0
 10
-13.2297547735999999
 20
16.3062717922000004
 30
0.0
 10
-13.2772358586999992
 20
16.2906029056999984
 30
0.0
 10
-13.3245173783999995
 20
16.2743417450999992
 30
0.0
 10
-13.3715919451000005
 20
16.2574908514000001
 30
0.0
 10
-13.4184522033999993
 20
16.2400528573000003
 30
0.0
 10
-13.4650908315999995
 20
16.2220304876999997
 30
0.0
 10
-13.5115005424000003
 20
16.2034265582999986
 30
0.0
 10
-13.5576740845000003
 20
16.1842439760000012
 30
0.0
 10
-13.6036042432999995
 20
16.1644857381000016
 30
0.0
 10
-13.6492838421999991
 20
16.1441549317999993
 30
0.0
 10
-13.6947057441000002
 20
16.1232547337000014
 30
0.0
 10
-13.7398628516999999
 20
16.101788409400001
 30
0.0
 10
-13.7847481094000006
 20
16.0797593130000003
 30
0.0
 10
-13.8293545039999994
 20
16.0571708864999998
 30
0.0
 10
-13.8736750657000005
 20
16.0340266593000003
 30
0.0
 10
-13.9177028696999994
 20
16.0103302475999989
 30
0.0
 10
-13.9614310366000005
 20
15.9860853539000001
 30
0.0
 10
-14.004852734
 20
15.9612957664999993
 30
0.0
 10
-14.0479611772999995
 20
15.9359653587000007
 30
0.0
 10
-14.0907496309999996
 20
15.9100980881999998
 30
0.0
 10
-14.1332114093999994
 20
15.8836979969000005
 30
0.0
 10
-14.1753398780000008
 20
15.8567692096999995
 30
0.0
 10
-14.2171284542999992
 20
15.8293159341000003
 30
0.0
 10
-14.2585706087999995
 20
15.8013424596000007
 30
0.0
 10
-14.2996598665000008
 20
15.7728531572000001
 30
0.0
 10
-14.3403898069999993
 20
15.7438524780000009
 30
0.0
 10
-14.3807540664999998
 20
15.7143449534999995
 30
0.0
 10
-14.4207463382000007
 20
15.6843351942000009
 30
0.0
 10
-14.4603603733000003
 20
15.6538278890000004
 30
0.0
 10
-14.4995899821999998
 20
15.6228278045
 30
0.0
 10
-14.5384290353000001
 20
15.5913397846000006
 30
0.0
 10
-14.5768714641999999
 20
15.5593687491000008
 30
0.0
 10
-14.6149112622999997
 20
15.5269196935
 30
0.0
 10
-14.6525424858999997
 20
15.4939976879000003
 30
0.0
 10
-14.6897592553000003
 20
15.4606078761999992
 30
0.0
 10
-14.7265557552999997
 20
15.4267554755000003
 30
0.0
 10
-14.7629262367000003
 20
15.3924457752000006
 30
0.0
 10
-14.7988650166000006
 20
15.3576841361999996
 30
0.0
 10
-14.8343664796999999
 20
15.3224759898999991
 30
0.0
 10
-14.8694250789000009
 20
15.2868268373999996
 30
0.0
 10
-14.9040353362999998
 20
15.2507422489
 30
0.0
 10
-14.9381918442000003
 20
15.2142278624999996
 30
0.0
 10
-14.9718892657999998
 20
15.1772893834999998
 30
0.0
 10
-15.0051223357999994
 20
15.1399325835000003
 30
0.0
 10
-15.0378858616999995
 20
15.1021632995000008
 30
0.0
 10
-15.0701747241999993
 20
15.0639874326999994
 30
0.0
 10
-15.1019838783000004
 20
15.0254109479999993
 30
0.0
 10
-15.1333083538000004
 20
14.9864398731000001
 30
0.0
 10
-15.1641432562999992
 20
14.9470802969999994
 30
0.0
 10
-15.1944837680999996
 20
14.9073383694999997
 30
0.0
 10
-15.2243251483000002
 20
14.8672203003999996
 30
0.0
 10
-15.2536627344000006
 20
14.8267323578999992
 30
0.0
 10
-15.2824919425000001
 20
14.7858808680999996
 30
0.0
 10
-15.3108082679000006
 20
14.7446722141999995
 30
0.0
 10
-15.3386072864000003
 20
14.7031128348000006
 30
0.0
 10
-15.3658846545000003
 20
14.6612092235000002
 30
0.0
 10
-15.3926361099999998
 20
14.6189679276
 30
0.0
 10
-15.4188574731999992
 20
14.5763955473000006
 30
0.0
 10
-15.4445446469000007
 20
14.5334987345000002
 30
0.0
 10
-15.4696936176000008
 20
14.4902841916000007
 30
0.0
 10
-15.4943004558999995
 20
14.4467586707999995
 30
0.0
 10
-15.5183613170000001
 20
14.4029289729999999
 30
0.0
 10
-15.5418724414000007
 20
14.3588019462999998
 30
0.0
 10
-15.5648301554999993
 20
14.3143844856999998
 30
0.0
 10
-15.5872308722999993
 20
14.2696835312000001
 30
0.0
 10
-15.6090710917000006
 20
14.2247060671999996
 30
0.0
 10
-15.6303474010999999
 20
14.1794591214000008
 30
0.0
 10
-15.6510564763000009
 20
14.1339497635000004
 30
0.0
 10
-15.6711950814000005
 20
14.0881851043000008
 30
0.0
 10
-15.6907600698999996
 20
14.0421722945000003
 30
0.0
 10
-15.7097483847999992
 20
13.9959185233000003
 30
0.0
 10
-15.7281570591000008
 20
13.9494310179000003
 30
0.0
 10
-15.7459832166000009
 20
13.9027170419000008
 30
0.0
 10
-15.7632240719999999
 20
13.8557838941
 30
0.0
 10
-15.7798769313000005
 20
13.8086389079000007
 30
0.0
 10
-15.7959391927000006
 20
13.7612894495999996
 30
0.0
 10
-15.8114083464000004
 20
13.7137429172999994
 30
0.0
 10
-15.8262819754000006
 20
13.6660067402000003
 30
0.0
 10
-15.8405577558000008
 20
13.6180883768999994
 30
0.0
 10
-15.8542334568999994
 20
13.5699953144999998
 30
0.0
 10
-15.8673069420000008
 20
13.5217350675999999
 30
0.0
 10
-15.8797761683999994
 20
13.4733151765999999
 30
0.0
 10
-15.8916391877999992
 20
13.4247432071000006
 30
0.0
 10
-15.9028941465999996
 20
13.3760267483999993
 30
0.0
 10
-15.9135392862000007
 20
13.3271734122000005
 30
0.0
 10
-15.9235729432999999
 20
13.2781908319999999
 30
0.0
 10
-15.9329935503000009
 20
13.2290866609000002
 30
0.0
 10
-15.9417996352000007
 20
13.1798685716000001
 30
0.0
 10
-15.9499898219999992
 20
13.1305442542000002
 30
0.0
 10
-15.9575628311000006
 20
13.0811214155000002
 30
0.0
 10
-15.9645174790999995
 20
13.0316077777999997
 30
0.0
 10
-15.9708526794000001
 20
12.9820110774999993
 30
0.0
 10
-15.9765674422000004
 20
12.9323390639000007
 30
0.0
 10
-15.9816608744999993
 20
12.8825994981999994
 30
0.0
 10
-15.9861321806000003
 20
12.8328001521000008
 30
0.0
 10
-15.9899806617000007
 20
12.7829488067000003
 30
0.0
 10
-15.9932057165000003
 20
12.7330532510999994
 30
0.0
 10
-15.9958068412000003
 20
12.6831212814000001
 30
0.0
 10
-15.9977836293000006
 20
12.6331606992999994
 30
0.0
 10
-15.9991357720000007
 20
12.5831793112000003
 30
0.0
 10
-15.9998630580000007
 20
12.5331849265000006
 30
0.0
 10
-16.0000007153000006
 20
12.5
 30
0.0
  0
LINE
  5
9C
100
AcDbEntity
  8
0
 62
0
370
-1
 48
1.0
  6
BYLAYER
100
AcDbLine
 10
11.9999992846999994
 20
-16.5
 30
0.0
 11
-12.0000007153000006
 21
-16.5
 31
0.0
  0
LINE
  5
9D
100
AcDbEntity
  8
0
 62
0
370
-1
 48
1.0
  6
BYLAYER
100
AcDbLine
 10
15.9999992846999994
 20
12.5
 30
0.0
 11
15.9999992846999994
 21
-12.5
 31
0.0
  0
LINE
  5
9E
100
AcDbEntity
  8
0
 62
0
370
-1
 48
1.0
  6
BYLAYER
100
AcDbLine
 10
-16.0000007153000006
 20
-12.5
 30
0.0
 11
-16.0000007153000006
 21
12.5
 31
0.0
  0
LINE
  5
9F
100
AcDbEntity
  8
0
 62
0
370
-1
 48
1.0
  6
BYLAYER
100
AcDbLine
 10
-12.0000007153000006
 20
16.5
 30
0.0
 11
11.9999992846999994
 21
16.5
 31
0.0
  0
LINE
  5
A0
100
AcDbEntity
  8
0
 62
0
370
-1
 48
1.0
  6
BYLAYER
100
AcDbLine
 10
-4.0000007152599997
 20
5.0
 30
0.0
 11
-4.0000007152599997
 21
-5.0
 31
0.0
  0
LINE
  5
A1
100
AcDbEntity
  8
0
 62
0
370
-1
 48
1.0
  6
BYLAYER
100
AcDbLine
 10
5.9999992847400003
 20
5.0
 30
0.0
 11
-4.0000007152599997
 21
5.0
 31
0.0
  0
LINE
  5
A2
100
AcDbEntity
  8
0
 62
0
370
-1
 48
1.0
  6
BYLAYER
100
AcDbLine
 10
5.9999992847400003
 20
-5.0
 30
0.0
 11
5.9999992847400003
 21
5.0
 31
0.0
  0
LINE
  5
A3
100
AcDbEntity
  8
0
 62
0
370
-1
 48
1.0
  6
BYLAYER
100
AcDbLine
 10
-4.0000007152599997
 20
-5.0
 30
0.0
 11
5.9999992847400003
 21
-5.0
 31
0.0
  0
ENDBLK
  5
A4
100
AcDbEntity
  8
0
100
AcDbBlockEnd
  0
BLOCK
  5
A5
100
AcDbEntity
  8
0
100
AcDbBlockBegin
  2
BODY009
 70
0
 10
0.0
 20
0.0
 30
0.0
  3
BODY009
  1

  0
LWPOLYLINE
  5
A6
100
AcDbEntity
  8
0
 62
256
370
-1
 48
1.0
  6
BYLAYER
100
AcDbPolyline
 90
127
 70
0
 10
-16.0000003576000012
 20
-12.5
 30
0.0
 10
-15.9996878617
 20
-12.5499986978999996
 30
0.0
 10
-15.9987504227000006
 20
-12.5999895836999993
 30
0.0
 10
-15.9971881872000008
 20
-12.6499648461999996
 30
0.0
 10
-15.9950013991999995
 20
-12.6999166770999992
 30
0.0
 10
-15.9921904004000002
 20
-12.7498372714000006
 30
0.0
 10
-15.9887556301
 20
-12.7997188290999997
 30
0.0
 10
-15.9846976248000008
 20
-12.8495535564000001
 30
0.0
 10
-15.9800170186999999
 20
-12.8993336666000005
 30
0.0
 10
-15.9747145430999993
 20
-12.9490513817000004
 30
0.0
 10
-15.9687910264999999
 20
-12.9986989335000001
 30
0.0
 10
-15.9622473945000003
 20
-13.0482685646000007
 30
0.0
 10
-15.9550846693999997
 20
-13.0977525298999993
 30
0.0
 10
-15.9473039704000001
 20
-13.1471430975000008
 30
0.0
 10
-15.9389065131999992
 20
-13.1964325504000008
 30
0.0
 10
-15.9298936100000006
 20
-13.245613187
 30
0.0
 10
-15.9202666690000001
 20
-13.2946773232000002
 30
0.0
 10
-15.9100271942999996
 20
-13.3436172925999994
 30
0.0
 10
-15.8991767858999999
 20
-13.3924254484999992
 30
0.0
 10
-15.8877171390999994
 20
-13.4410941648000009
 30
0.0
 10
-15.8756500445000004
 20
-13.4896158370000006
 30
0.0
 10
-15.8629773875000009
 20
-13.5379828837999998
 30
0.0
 10
-15.8497011480999994
 20
-13.5861877478000004
 30
0.0
 10
-15.8358234009000007
 20
-13.6342228972000008
 30
0.0
 10
-15.8213463140999995
 20
-13.6820808266
 30
0.0
 10
-15.8062721497999998
 20
-13.7297540582999993
 30
0.0
 10
-15.7906032632999995
 20
-13.7772351434000004
 30
0.0
 10
-15.7743421028000004
 20
-13.8245166631000007
 30
0.0
 10
-15.7574912089999994
 20
-13.8715912297999999
 30
0.0
 10
-15.7400532149999997
 20
-13.9184514882000006
 30
0.0
 10
-15.7220308453000008
 20
-13.9650901163000007
 30
0.0
 10
-15.7034269158999997
 20
-14.0114998271999998
 30
0.0
 10
-15.6842443336000006
 20
-14.0576733691999998
 30
0.0
 10
-15.6644860957999992
 20
-14.1036035280000007
 30
0.0
 10
-15.6441552894000004
 20
-14.1492831270000003
 30
0.0
 10
-15.6232550913000008
 20
-14.1947050287999996
 30
0.0
 10
-15.6017887670000004
 20
-14.2398621363999993
 30
0.0
 10
-15.5797596705999997
 20
-14.2847473942000001
 30
0.0
 10
-15.5571712440999992
 20
-14.3293537887000006
 30
0.0
 10
-15.5340270168999997
 20
-14.3736743505
 30
0.0
 10
-15.5103306052000001
 20
-14.4177021544000006
 30
0.0
 10
-15.4860857114999995
 20
-14.4614303212999999
 30
0.0
 10
-15.4612961241000004
 20
-14.5048520186999994
 30
0.0
 10
-15.4359657163000001
 20
-14.5479604620000007
 30
0.0
 10
-15.4100984458999992
 20
-14.5907489157000008
 30
0.0
 10
-15.3836983545999999
 20
-14.6332106941000006
 30
0.0
 10
-15.3567695673000006
 20
-14.6753391627000003
 30
0.0
 10
-15.3293162916999997
 20
-14.7171277390000004
 30
0.0
 10
-15.3013428173000001
 20
-14.7585698936000007
 30
0.0
 10
-15.2728535147999995
 20
-14.7996591512000002
 30
0.0
 10
-15.2438528356000003
 20
-14.8403890918000005
 30
0.0
 10
-15.2143453112000007
 20
-14.8807533512999992
 30
0.0
 10
-15.1843355518000003
 20
-14.9207456229000002
 30
0.0
 10
-15.1538282465999998
 20
-14.9603596579999998
 30
0.0
 10
-15.1228281621999994
 20
-14.9995892668999993
 30
0.0
 10
-15.0913401422
 20
-15.0384283200999995
 30
0.0
 10
-15.0593691068000002
 20
-15.0768707489999993
 30
0.0
 10
-15.0269200511999994
 20
-15.1149105469999991
 30
0.0
 10
-14.9939980454999997
 20
-15.1525417706999992
 30
0.0
 10
-14.9606082338000004
 20
-15.1897585399999997
 30
0.0
 10
-14.9267558330999996
 20
-15.2265550400999992
 30
0.0
 10
-14.8924461329
 20
-15.2629255214999997
 30
0.0
 10
-14.8576844939000008
 20
-15.2988643014000001
 30
0.0
 10
-14.8224763475000003
 20
-15.3343657643999993
 30
0.0
 10
-14.7868271950000008
 20
-15.3694243636000003
 30
0.0
 10
-14.7507426064999994
 20
-15.4040346209999992
 30
0.0
 10
-14.7142282201000008
 20
-15.4381911289999998
 30
0.0
 10
-14.6772897411999992
 20
-15.4718885504999992
 30
0.0
 10
-14.6399329411999997
 20
-15.5051216206000007
 30
0.0
 10
-14.6021636571000002
 20
-15.5378851464000007
 30
0.0
 10
-14.5639877903000006
 20
-15.5701740089000005
 30
0.0
 10
-14.5254113057000005
 20
-15.6019831629999999
 30
0.0
 10
-14.4864402306999995
 20
-15.6333076384999998
 30
0.0
 10
-14.4470806546000006
 20
-15.6641425411000004
 30
0.0
 10
-14.4073387272000009
 20
-15.6944830528000008
 30
0.0
 10
-14.3672206580000008
 20
-15.7243244329999996
 30
0.0
 10
-14.3267327155000004
 20
-15.7536620192000001
 30
0.0
 10
-14.2858812258000007
 20
-15.7824912271999995
 30
0.0
 10
-14.2446725718000007
 20
-15.8108075527
 30
0.0
 10
-14.2031131924
 20
-15.8386065711999997
 30
0.0
 10
-14.1612095810999996
 20
-15.8658839391999997
 30
0.0
 10
-14.1189682851999994
 20
-15.8926353947999992
 30
0.0
 10
-14.076395905
 20
-15.9188567579000004
 30
0.0
 10
-14.0334990920999996
 20
-15.9445439316000002
 30
0.0
 10
-13.9902845492000001
 20
-15.9696929024000003
 30
0.0
 10
-13.9467590284000007
 20
-15.9942997407000007
 30
0.0
 10
-13.9029293305999992
 20
-16.0183606016999995
 30
0.0
 10
-13.8588023039999992
 20
-16.0418717260999983
 30
0.0
 10
-13.8143848432999992
 20
-16.0648294402000005
 30
0.0
 10
-13.7696838887999995
 20
-16.0872301570000005
 30
0.0
 10
-13.7247064248000008
 20
-16.1090703763999983
 30
0.0
 10
-13.6794594790000001
 20
-16.1303466859000011
 30
0.0
 10
-13.6339501211999998
 20
-16.1510557609999985
 30
0.0
 10
-13.5881854620000002
 20
-16.1711943662000017
 30
0.0
 10
-13.5421726520999997
 20
-16.1907593546999991
 30
0.0
 10
-13.4959188808999997
 20
-16.2097476695000005
 30
0.0
 10
-13.4494313754999997
 20
-16.2281563439000003
 30
0.0
 10
-13.4027173995000002
 20
-16.2459825014000003
 30
0.0
 10
-13.3557842517999994
 20
-16.2632233566999993
 30
0.0
 10
-13.3086392656000001
 20
-16.2798762160000017
 30
0.0
 10
-13.2612898072000007
 20
-16.2959384774
 30
0.0
 10
-13.2137432749000006
 20
-16.3114076310999998
 30
0.0
 10
-13.1660070977999997
 20
-16.3262812601999983
 30
0.0
 10
-13.1180887345000006
 20
-16.3405570404999985
 30
0.0
 10
-13.0699956720999992
 20
-16.3542327416999989
 30
0.0
 10
-13.0217354251999993
 20
-16.3673062268000002
 30
0.0
 10
-12.9733155341999993
 20
-16.3797754532000006
 30
0.0
 10
-12.9247435647
 20
-16.3916384724999986
 30
0.0
 10
-12.8760271060000004
 20
-16.4028934313000008
 30
0.0
 10
-12.8271737698999999
 20
-16.4135385708999983
 30
0.0
 10
-12.7781911895999993
 20
-16.4235722280999994
 30
0.0
 10
-12.7290870185999996
 20
-16.4329928350999985
 30
0.0
 10
-12.6798689291999995
 20
-16.4417989200000001
 30
0.0
 10
-12.6305446117999995
 20
-16.4499891068000004
 30
0.0
 10
-12.5811217730999996
 20
-16.4575621157999983
 30
0.0
 10
-12.5316081354000008
 20
-16.464516763799999
 30
0.0
 10
-12.4820114351000004
 20
-16.4708519642000013
 30
0.0
 10
-12.4323394215
 20
-16.4765667268999998
 30
0.0
 10
-12.3825998558000006
 20
-16.4816601592999987
 30
0.0
 10
-12.3328005097000002
 20
-16.4861314653000015
 30
0.0
 10
-12.2829491642999997
 20
-16.4899799463999983
 30
0.0
 10
-12.2330536087000006
 20
-16.4932050013000016
 30
0.0
 10
-12.1831216389999994
 20
-16.4958061260000015
 30
0.0
 10
-12.1331610570000006
 20
-16.4977829141000001
 30
0.0
 10
-12.0831796687999997
 20
-16.4991350568000001
 30
0.0
 10
-12.0331852841
 20
-16.4998623426999984
 30
0.0
 10
-12.0000003575999994
 20
-16.5
 30
0.0
  0
LWPOLYLINE
  5
A7
100
AcDbEntity
  8
0
 62
256
370
-1
 48
1.0
  6
BYLAYER
100
AcDbPolyline
 90
127
 70
0
 10
-12.0000003575999994
 20
16.5
 30
0.0
 10
-12.0499990556000007
 20
16.4996875040999988
 30
0.0
 10
-12.0999899413000005
 20
16.4987500651000012
 30
0.0
 10
-12.1499652038000008
 20
16.4971878296000014
 30
0.0
 10
-12.1999170347000003
 20
16.4950010415999984
 30
0.0
 10
-12.2498376289999999
 20
16.4921900428000008
 30
0.0
 10
-12.2997191867000009
 20
16.4887552723999988
 30
0.0
 10
-12.3495539139999995
 20
16.4846972672000014
 30
0.0
 10
-12.3993340241999999
 20
16.4800166610999987
 30
0.0
 10
-12.4490517393999998
 20
16.4747141855000017
 30
0.0
 10
-12.4986992911999995
 20
16.4687906688999988
 30
0.0
 10
-12.5482689223000001
 20
16.4622470368000009
 30
0.0
 10
-12.5977528875000004
 20
16.4550843116999985
 30
0.0
 10
-12.6471434552000002
 20
16.447303612799999
 30
0.0
 10
-12.6964329080000002
 20
16.4389061556000016
 30
0.0
 10
-12.7456135446999994
 20
16.4298932523999994
 30
0.0
 10
-12.7946776807999996
 20
16.4202663113999989
 30
0.0
 10
-12.8436176502000006
 20
16.4100268366999984
 30
0.0
 10
-12.8924258062000003
 20
16.3991764282999988
 30
0.0
 10
-12.9410945224000002
 20
16.3877167815
 30
0.0
 10
-12.9896161945999999
 20
16.3756496867999992
 30
0.0
 10
-13.0379832413999992
 20
16.3629770297999997
 30
0.0
 10
-13.0861881054999998
 20
16.3497007904999982
 30
0.0
 10
-13.1342232549000002
 20
16.3358230432999996
 30
0.0
 10
-13.1820811842999994
 20
16.3213459565000001
 30
0.0
 10
-13.2297544159000005
 20
16.3062717922000004
 30
0.0
 10
-13.2772355010999998
 20
16.2906029056999984
 30
0.0
 10
-13.3245170208000001
 20
16.2743417450999992
 30
0.0
 10
-13.3715915873999993
 20
16.2574908514000001
 30
0.0
 10
-13.4184518457999999
 20
16.2400528573000003
 30
0.0
 10
-13.4650904740000001
 20
16.2220304876000014
 30
0.0
 10
-13.5115001847999991
 20
16.2034265582999986
 30
0.0
 10
-13.5576737268999992
 20
16.1842439760000012
 30
0.0
 10
-13.6036038856000001
 20
16.1644857381000016
 30
0.0
 10
-13.6492834845999997
 20
16.1441549317999993
 30
0.0
 10
-13.6947053864000008
 20
16.1232547337000014
 30
0.0
 10
-13.7398624941000005
 20
16.101788409400001
 30
0.0
 10
-13.7847477517999994
 20
16.0797593130000003
 30
0.0
 10
-13.8293541463
 20
16.0571708864999998
 30
0.0
 10
-13.8736747080999994
 20
16.0340266593000003
 30
0.0
 10
-13.917702512
 20
16.0103302475999989
 30
0.0
 10
-13.9614306788999993
 20
15.9860853539000001
 30
0.0
 10
-14.0048523763000006
 20
15.9612957664999993
 30
0.0
 10
-14.0479608197000001
 20
15.9359653587000007
 30
0.0
 10
-14.0907492734000002
 20
15.9100980881999998
 30
0.0
 10
-14.1332110518
 20
15.8836979969000005
 30
0.0
 10
-14.1753395203999997
 20
15.8567692096999995
 30
0.0
 10
-14.2171280965999998
 20
15.8293159341000003
 30
0.0
 10
-14.2585702512000001
 20
15.8013424596000007
 30
0.0
 10
-14.2996595087999996
 20
15.7728531572000001
 30
0.0
 10
-14.3403894493999999
 20
15.7438524780000009
 30
0.0
 10
-14.3807537089000004
 20
15.7143449534999995
 30
0.0
 10
-14.4207459805999996
 20
15.6843351942000009
 30
0.0
 10
-14.4603600156999992
 20
15.6538278890000004
 30
0.0
 10
-14.4995896245000004
 20
15.6228278045
 30
0.0
 10
-14.5384286777000007
 20
15.5913397846000006
 30
0.0
 10
-14.5768711066000005
 20
15.5593687491000008
 30
0.0
 10
-14.6149109047000003
 20
15.5269196935
 30
0.0
 10
-14.6525421283000004
 20
15.4939976879000003
 30
0.0
 10
-14.6897588977000009
 20
15.4606078761999992
 30
0.0
 10
-14.7265553977000003
 20
15.4267554755000003
 30
0.0
 10
-14.7629258791000009
 20
15.3924457752000006
 30
0.0
 10
-14.7988646589999995
 20
15.3576841361999996
 30
0.0
 10
-14.8343661221000005
 20
15.3224759898999991
 30
0.0
 10
-14.8694247211999997
 20
15.2868268373999996
 30
0.0
 10
-14.9040349787000004
 20
15.2507422489
 30
0.0
 10
-14.9381914865999992
 20
15.2142278624999996
 30
0.0
 10
-14.9718889082000004
 20
15.1772893834999998
 30
0.0
 10
-15.0051219782
 20
15.1399325835000003
 30
0.0
 10
-15.0378855041000001
 20
15.1021632995000008
 30
0.0
 10
-15.0701743665999999
 20
15.0639874326999994
 30
0.0
 10
-15.1019835205999993
 20
15.0254109479999993
 30
0.0
 10
-15.1333079960999992
 20
14.9864398731000001
 30
0.0
 10
-15.1641428986999998
 20
14.9470802969999994
 30
0.0
 10
-15.1944834104000002
 20
14.9073383694999997
 30
0.0
 10
-15.2243247907000008
 20
14.8672203003999996
 30
0.0
 10
-15.2536623767999995
 20
14.8267323578999992
 30
0.0
 10
-15.2824915848000007
 20
14.7858808680999996
 30
0.0
 10
-15.3108079102999994
 20
14.7446722141999995
 30
0.0
 10
-15.3386069288000009
 20
14.7031128348000006
 30
0.0
 10
-15.3658842968999991
 20
14.6612092235000002
 30
0.0
 10
-15.3926357524000004
 20
14.6189679276
 30
0.0
 10
-15.4188571154999998
 20
14.5763955473000006
 30
0.0
 10
-15.4445442892999996
 20
14.5334987345000002
 30
0.0
 10
-15.4696932599999997
 20
14.4902841916000007
 30
0.0
 10
-15.4943000983000001
 20
14.4467586707999995
 30
0.0
 10
-15.5183609594000007
 20
14.4029289729999999
 30
0.0
 10
-15.5418720836999995
 20
14.3588019462999998
 30
0.0
 10
-15.5648297978999999
 20
14.3143844856999998
 30
0.0
 10
-15.5872305146999999
 20
14.2696835312000001
 30
0.0
 10
-15.6090707339999994
 20
14.2247060671999996
 30
0.0
 10
-15.6303470435000005
 20
14.1794591214000008
 30
0.0
 10
-15.6510561186999997
 20
14.1339497635000004
 30
0.0
 10
-15.6711947237999993
 20
14.0881851043000008
 30
0.0
 10
-15.6907597123000002
 20
14.0421722945000003
 30
0.0
 10
-15.7097480271999999
 20
13.9959185233000003
 30
0.0
 10
-15.7281567014999997
 20
13.9494310179000003
 30
0.0
 10
-15.7459828589999997
 20
13.9027170419000008
 30
0.0
 10
-15.7632237143000005
 20
13.8557838941
 30
0.0
 10
-15.7798765736999993
 20
13.8086389079000007
 30
0.0
 10
-15.7959388350999994
 20
13.7612894495999996
 30
0.0
 10
-15.8114079887999992
 20
13.7137429172999994
 30
0.0
 10
-15.8262816177999994
 20
13.6660067402000003
 30
0.0
 10
-15.8405573981999996
 20
13.6180883768999994
 30
0.0
 10
-15.8542330993
 20
13.5699953144999998
 30
0.0
 10
-15.8673065843999996
 20
13.5217350675999999
 30
0.0
 10
-15.8797758108
 20
13.4733151765999999
 30
0.0
 10
-15.8916388301999998
 20
13.4247432071000006
 30
0.0
 10
-15.9028937889000002
 20
13.3760267483999993
 30
0.0
 10
-15.9135389284999995
 20
13.3271734122000005
 30
0.0
 10
-15.9235725857000006
 20
13.2781908319999999
 30
0.0
 10
-15.9329931926999997
 20
13.2290866609000002
 30
0.0
 10
-15.9417992775999995
 20
13.1798685716000001
 30
0.0
 10
-15.9499894643999998
 20
13.1305442542000002
 30
0.0
 10
-15.9575624733999994
 20
13.0811214155000002
 30
0.0
 10
-15.9645171214000001
 20
13.0316077777999997
 30
0.0
 10
-15.9708523218000007
 20
12.9820110774999993
 30
0.0
 10
-15.9765670845999992
 20
12.9323390639000007
 30
0.0
 10
-15.9816605168999999
 20
12.8825994981999994
 30
0.0
 10
-15.9861318228999991
 20
12.8328001521000008
 30
0.0
 10
-15.9899803039999995
 20
12.7829488067000003
 30
0.0
 10
-15.9932053588999992
 20
12.7330532510999994
 30
0.0
 10
-15.9958064835999991
 20
12.6831212814000001
 30
0.0
 10
-15.9977832716999995
 20
12.6331606992999994
 30
0.0
 10
-15.9991354143999995
 20
12.5831793112000003
 30
0.0
 10
-15.9998627002999996
 20
12.5331849265000006
 30
0.0
 10
-16.0000003576000012
 20
12.5
 30
0.0
  0
LWPOLYLINE
  5
A8
100
AcDbEntity
  8
0
 62
256
370
-1
 48
1.0
  6
BYLAYER
100
AcDbPolyline
 90
127
 70
0
 10
11.9999996424000006
 20
-16.5
 30
0.0
 10
12.0499983403000002
 20
-16.4996875040999988
 30
0.0
 10
12.0999892259999999
 20
-16.4987500651000012
 30
0.0
 10
12.1499644886000002
 20
-16.4971878296000014
 30
0.0
 10
12.1999163194999998
 20
-16.4950010415999984
 30
0.0
 10
12.2498369136999994
 20
-16.4921900428000008
 30
0.0
 10
12.2997184715000003
 20
-16.4887552723999988
 30
0.0
 10
12.3495531987000007
 20
-16.4846972672000014
 30
0.0
 10
12.3993333089999993
 20
-16.4800166610999987
 30
0.0
 10
12.4490510240999992
 20
-16.4747141855000017
 30
0.0
 10
12.4986985759000007
 20
-16.4687906688999988
 30
0.0
 10
12.5482682069999996
 20
-16.4622470368000009
 30
0.0
 10
12.5977521722999999
 20
-16.4550843116999985
 30
0.0
 10
12.6471427398999996
 20
-16.447303612799999
 30
0.0
 10
12.6964321927999997
 20
-16.4389061556000016
 30
0.0
 10
12.7456128294000006
 20
-16.4298932523999994
 30
0.0
 10
12.7946769656000008
 20
-16.4202663113999989
 30
0.0
 10
12.843616935
 20
-16.4100268366999984
 30
0.0
 10
12.8924250908999998
 20
-16.3991764282999988
 30
0.0
 10
12.9410938071999997
 20
-16.3877167815
 30
0.0
 10
12.9896154793999994
 20
-16.3756496867999992
 30
0.0
 10
13.0379825262000004
 20
-16.3629770297999997
 30
0.0
 10
13.0861873901999992
 20
-16.3497007904999982
 30
0.0
 10
13.1342225395999996
 20
-16.3358230432999996
 30
0.0
 10
13.1820804690000006
 20
-16.3213459565000001
 30
0.0
 10
13.2297537006999999
 20
-16.3062717922000004
 30
0.0
 10
13.2772347857999993
 20
-16.2906029056999984
 30
0.0
 10
13.3245163054999995
 20
-16.2743417450999992
 30
0.0
 10
13.3715908722000005
 20
-16.2574908514000001
 30
0.0
 10
13.4184511304999994
 20
-16.2400528573000003
 30
0.0
 10
13.4650897586999996
 20
-16.2220304876000014
 30
0.0
 10
13.5114994696000004
 20
-16.2034265582999986
 30
0.0
 10
13.5576730116000004
 20
-16.1842439760000012
 30
0.0
 10
13.6036031703999996
 20
-16.1644857381000016
 30
0.0
 10
13.6492827692999992
 20
-16.1441549317999993
 30
0.0
 10
13.6947046712000002
 20
-16.1232547337000014
 30
0.0
 10
13.7398617787999999
 20
-16.101788409400001
 30
0.0
 10
13.7847470365000007
 20
-16.0797593130000003
 30
0.0
 10
13.8293534310999995
 20
-16.0571708864999998
 30
0.0
 10
13.8736739928000006
 20
-16.0340266593000003
 30
0.0
 10
13.9177017967999994
 20
-16.0103302475999989
 30
0.0
 10
13.9614299637000006
 20
-15.9860853539000001
 30
0.0
 10
14.0048516611
 20
-15.9612957664999993
 30
0.0
 10
14.0479601043999995
 20
-15.9359653587000007
 30
0.0
 10
14.0907485580999996
 20
-15.9100980881999998
 30
0.0
 10
14.1332103364999995
 20
-15.8836979969000005
 30
0.0
 10
14.1753388051000009
 20
-15.8567692096999995
 30
0.0
 10
14.2171273813999992
 20
-15.8293159341000003
 30
0.0
 10
14.2585695359999995
 20
-15.8013424596000007
 30
0.0
 10
14.2996587936000008
 20
-15.7728531572000001
 30
0.0
 10
14.3403887340999994
 20
-15.7438524780000009
 30
0.0
 10
14.3807529936999998
 20
-15.7143449534999995
 30
0.0
 10
14.4207452653000008
 20
-15.6843351942000009
 30
0.0
 10
14.4603593004000004
 20
-15.6538278890000004
 30
0.0
 10
14.4995889092999999
 20
-15.6228278045
 30
0.0
 10
14.5384279624000001
 20
-15.5913397846000006
 30
0.0
 10
14.5768703913
 20
-15.5593687491000008
 30
0.0
 10
14.6149101893999998
 20
-15.5269196935
 30
0.0
 10
14.6525414129999998
 20
-15.4939976879000003
 30
0.0
 10
14.6897581824000003
 20
-15.4606078761999992
 30
0.0
 10
14.7265546824999998
 20
-15.4267554755000003
 30
0.0
 10
14.7629251639000003
 20
-15.3924457752000006
 30
0.0
 10
14.7988639438000007
 20
-15.3576841361999996
 30
0.0
 10
14.8343654067999999
 20
-15.3224759898999991
 30
0.0
 10
14.8694240059999991
 20
-15.2868268373999996
 30
0.0
 10
14.9040342633999998
 20
-15.2507422489
 30
0.0
 10
14.9381907714000004
 20
-15.2142278624999996
 30
0.0
 10
14.9718881928999998
 20
-15.1772893834999998
 30
0.0
 10
15.0051212628999995
 20
-15.1399325835000003
 30
0.0
 10
15.0378847887999996
 20
-15.1021632995000008
 30
0.0
 10
15.0701736512999993
 20
-15.0639874326999994
 30
0.0
 10
15.1019828054000005
 20
-15.0254109479999993
 30
0.0
 10
15.1333072809000004
 20
-14.9864398731000001
 30
0.0
 10
15.1641421833999992
 20
-14.9470802969999994
 30
0.0
 10
15.1944826951999996
 20
-14.9073383694999997
 30
0.0
 10
15.2243240754000002
 20
-14.8672203003999996
 30
0.0
 10
15.2536616615000007
 20
-14.8267323578999992
 30
0.0
 10
15.2824908696000001
 20
-14.7858808680999996
 30
0.0
 10
15.3108071950000006
 20
-14.7446722141999995
 30
0.0
 10
15.3386062136000003
 20
-14.7031128348000006
 30
0.0
 10
15.3658835816000003
 20
-14.6612092235000002
 30
0.0
 10
15.3926350370999998
 20
-14.6189679276
 30
0.0
 10
15.4188564002999993
 20
-14.5763955473000006
 30
0.0
 10
15.4445435740000008
 20
-14.5334987345000002
 30
0.0
 10
15.4696925447999991
 20
-14.4902841916000007
 30
0.0
 10
15.4942993829999995
 20
-14.4467586707999995
 30
0.0
 10
15.5183602441000001
 20
-14.4029289729999999
 30
0.0
 10
15.5418713685000007
 20
-14.3588019462999998
 30
0.0
 10
15.5648290825999993
 20
-14.3143844856999998
 30
0.0
 10
15.5872297993999993
 20
-14.2696835312000001
 30
0.0
 10
15.6090700188000007
 20
-14.2247060671999996
 30
0.0
 10
15.6303463281999999
 20
-14.1794591214000008
 30
0.0
 10
15.6510554033999991
 20
-14.1339497635000004
 30
0.0
 10
15.6711940086000006
 20
-14.0881851043000008
 30
0.0
 10
15.6907589970999997
 20
-14.0421722945000003
 30
0.0
 10
15.7097473118999993
 20
-13.9959185233000003
 30
0.0
 10
15.7281559862000009
 20
-13.9494310179000003
 30
0.0
 10
15.7459821436999992
 20
-13.9027170419000008
 30
0.0
 10
15.7632229990999999
 20
-13.8557838941
 30
0.0
 10
15.7798758584000005
 20
-13.8086389079000007
 30
0.0
 10
15.7959381198000006
 20
-13.7612894495999996
 30
0.0
 10
15.8114072735000004
 20
-13.7137429172999994
 30
0.0
 10
15.8262809025000006
 20
-13.6660067402000003
 30
0.0
 10
15.8405566829000009
 20
-13.6180883767999994
 30
0.0
 10
15.8542323839999995
 20
-13.5699953144999998
 30
0.0
 10
15.8673058692000009
 20
-13.5217350675999999
 30
0.0
 10
15.8797750954999994
 20
-13.4733151765999999
 30
0.0
 10
15.8916381148999992
 20
-13.4247432071000006
 30
0.0
 10
15.9028930736999996
 20
-13.3760267483999993
 30
0.0
 10
15.9135382133000007
 20
-13.3271734122000005
 30
0.0
 10
15.9235718705
 20
-13.2781908319999999
 30
0.0
 10
15.9329924774999991
 20
-13.2290866609000002
 30
0.0
 10
15.9417985623000007
 20
-13.1798685716000001
 30
0.0
 10
15.9499887490999992
 20
-13.1305442542000002
 30
0.0
 10
15.9575617582000007
 20
-13.0811214155000002
 30
0.0
 10
15.9645164061999996
 20
-13.0316077777999997
 30
0.0
 10
15.9708516065000001
 20
-12.9820110774999993
 30
0.0
 10
15.9765663693000004
 20
-12.9323390639000007
 30
0.0
 10
15.9816598016999993
 20
-12.8825994981999994
 30
0.0
 10
15.9861311077000003
 20
-12.8328001521000008
 30
0.0
 10
15.9899795888000007
 20
-12.7829488067000003
 30
0.0
 10
15.9932046436000004
 20
-12.7330532510999994
 30
0.0
 10
15.9958057683000003
 20
-12.6831212814000001
 30
0.0
 10
15.9977825565000007
 20
-12.6331606992999994
 30
0.0
 10
15.9991346991000007
 20
-12.5831793112000003
 30
0.0
 10
15.9998619851000008
 20
-12.5331849265000006
 30
0.0
 10
15.9999996424000006
 20
-12.5
 30
0.0
  0
LWPOLYLINE
  5
A9
100
AcDbEntity
  8
0
 62
256
370
-1
 48
1.0
  6
BYLAYER
100
AcDbPolyline
 90
127
 70
0
 10
15.9999996424000006
 20
12.5
 30
0.0
 10
15.9996871463999994
 20
12.5499986978999996
 30
0.0
 10
15.9987497075
 20
12.5999895836999993
 30
0.0
 10
15.9971874719000002
 20
12.6499648461999996
 30
0.0
 10
15.9950006840000007
 20
12.6999166770999992
 30
0.0
 10
15.9921896851999996
 20
12.7498372714000006
 30
0.0
 10
15.9887549147999994
 20
12.7997188290999997
 30
0.0
 10
15.9846969096000002
 20
12.8495535564000001
 30
0.0
 10
15.9800163034999994
 20
12.8993336666000005
 30
0.0
 10
15.9747138279000005
 20
12.9490513817000004
 30
0.0
 10
15.9687903112999994
 20
12.9986989335000001
 30
0.0
 10
15.9622466791999997
 20
13.0482685646000007
 30
0.0
 10
15.9550839540999991
 20
13.0977525298999993
 30
0.0
 10
15.9473032550999996
 20
13.1471430975000008
 30
0.0
 10
15.9389057980000004
 20
13.1964325504000008
 30
0.0
 10
15.9298928948
 20
13.2456131871
 30
0.0
 10
15.9202659536999995
 20
13.2946773232000002
 30
0.0
 10
15.9100264791000008
 20
13.3436172925999994
 30
0.0
 10
15.8991760706999994
 20
13.3924254484999992
 30
0.0
 10
15.8877164239000006
 20
13.4410941648000009
 30
0.0
 10
15.8756493291999998
 20
13.4896158370000006
 30
0.0
 10
15.8629766722000003
 20
13.5379828837999998
 30
0.0
 10
15.8497004329000006
 20
13.5861877478000004
 30
0.0
 10
15.8358226857000002
 20
13.6342228972000008
 30
0.0
 10
15.8213455989000007
 20
13.6820808266
 30
0.0
 10
15.8062714345999993
 20
13.7297540582999993
 30
0.0
 10
15.7906025480000007
 20
13.7772351434000004
 30
0.0
 10
15.7743413874999998
 20
13.8245166631000007
 30
0.0
 10
15.7574904938000007
 20
13.8715912297999999
 30
0.0
 10
15.7400524997000009
 20
13.9184514882000006
 30
0.0
 10
15.7220301300000003
 20
13.9650901163000007
 30
0.0
 10
15.7034262005999992
 20
14.0114998271999998
 30
0.0
 10
15.6842436184
 20
14.0576733691999998
 30
0.0
 10
15.6644853805000004
 20
14.1036035280000007
 30
0.0
 10
15.6441545741999999
 20
14.1492831270000003
 30
0.0
 10
15.6232543761000002
 20
14.1947050287999996
 30
0.0
 10
15.6017880517999998
 20
14.2398621363999993
 30
0.0
 10
15.5797589554000009
 20
14.2847473942000001
 30
0.0
 10
15.5571705289000004
 20
14.3293537887000006
 30
0.0
 10
15.5340263016000009
 20
14.3736743505
 30
0.0
 10
15.5103298898999995
 20
14.4177021544000006
 30
0.0
 10
15.4860849963000007
 20
14.4614303212999999
 30
0.0
 10
15.4612954088999999
 20
14.5048520186999994
 30
0.0
 10
15.4359650009999996
 20
14.5479604620000007
 30
0.0
 10
15.4100977306000004
 20
14.5907489157000008
 30
0.0
 10
15.3836976392999993
 20
14.6332106941000006
 30
0.0
 10
15.3567688521000001
 20
14.6753391627000003
 30
0.0
 10
15.3293155765000009
 20
14.7171277390000004
 30
0.0
 10
15.3013421019999996
 20
14.7585698936000007
 30
0.0
 10
15.2728527995000007
 20
14.7996591512000002
 30
0.0
 10
15.2438521203999997
 20
14.8403890918000005
 30
0.0
 10
15.2143445959000001
 20
14.8807533512999992
 30
0.0
 10
15.1843348365999997
 20
14.9207456229000002
 30
0.0
 10
15.1538275312999993
 20
14.9603596579999998
 30
0.0
 10
15.1228274469000006
 20
14.9995892668999993
 30
0.0
 10
15.0913394269999994
 20
15.0384283200999995
 30
0.0
 10
15.0593683914999996
 20
15.0768707489999993
 30
0.0
 10
15.0269193359000006
 20
15.1149105469999991
 30
0.0
 10
14.9939973301999991
 20
15.1525417706999992
 30
0.0
 10
14.9606075184999998
 20
15.1897585399999997
 30
0.0
 10
14.9267551179000009
 20
15.2265550400999992
 30
0.0
 10
14.8924454175999994
 20
15.2629255214999997
 30
0.0
 10
14.8576837786000002
 20
15.2988643014000001
 30
0.0
 10
14.8224756321999998
 20
15.3343657643999993
 30
0.0
 10
14.7868264798000002
 20
15.3694243636000003
 30
0.0
 10
14.7507418913000006
 20
15.4040346209999992
 30
0.0
 10
14.7142275049000002
 20
15.4381911289999998
 30
0.0
 10
14.6772890259000004
 20
15.4718885504999992
 30
0.0
 10
14.6399322259000009
 20
15.5051216206000007
 30
0.0
 10
14.6021629417999996
 20
15.5378851464000007
 30
0.0
 10
14.563987075
 20
15.5701740089000005
 30
0.0
 10
14.5254105903999999
 20
15.6019831629999999
 30
0.0
 10
14.4864395155000008
 20
15.6333076384999998
 30
0.0
 10
14.4470799393
 20
15.6641425411000004
 30
0.0
 10
14.4073380119000003
 20
15.6944830528000008
 30
0.0
 10
14.3672199427000002
 20
15.7243244329999996
 30
0.0
 10
14.3267320001999998
 20
15.7536620192000001
 30
0.0
 10
14.2858805105000002
 20
15.7824912271999995
 30
0.0
 10
14.2446718566000001
 20
15.8108075527
 30
0.0
 10
14.2031124771999995
 20
15.8386065711999997
 30
0.0
 10
14.1612088658000008
 20
15.8658839391999997
 30
0.0
 10
14.1189675700000006
 20
15.8926353947999992
 30
0.0
 10
14.0763951896999995
 20
15.9188567579000004
 30
0.0
 10
14.0334983768000008
 20
15.9445439316000002
 30
0.0
 10
13.9902838338999995
 20
15.9696929024000003
 30
0.0
 10
13.9467583132000001
 20
15.9942997407000007
 30
0.0
 10
13.9029286153000005
 20
16.0183606016999995
 30
0.0
 10
13.8588015887000005
 20
16.0418717260999983
 30
0.0
 10
13.8143841281000004
 20
16.0648294402000005
 30
0.0
 10
13.7696831735000007
 20
16.0872301570000005
 30
0.0
 10
13.7247057096000002
 20
16.1090703763999983
 30
0.0
 10
13.6794587637999996
 20
16.1303466859000011
 30
0.0
 10
13.6339494058999993
 20
16.1510557609999985
 30
0.0
 10
13.5881847466999996
 20
16.1711943662000017
 30
0.0
 10
13.5421719368000009
 20
16.1907593546999991
 30
0.0
 10
13.4959181656999991
 20
16.2097476695000005
 30
0.0
 10
13.4494306602999991
 20
16.2281563439000003
 30
0.0
 10
13.4027166841999996
 20
16.2459825014000003
 30
0.0
 10
13.3557835365000006
 20
16.2632233566999993
 30
0.0
 10
13.3086385502999995
 20
16.2798762160000017
 30
0.0
 10
13.2612890920000002
 20
16.2959384774
 30
0.0
 10
13.2137425597
 20
16.3114076310999998
 30
0.0
 10
13.1660063825000009
 20
16.3262812601999983
 30
0.0
 10
13.1180880192
 20
16.3405570404999985
 30
0.0
 10
13.0699949569000005
 20
16.3542327416999989
 30
0.0
 10
13.0217347099000005
 20
16.3673062268000002
 30
0.0
 10
12.9733148190000005
 20
16.3797754532000006
 30
0.0
 10
12.9247428494999994
 20
16.3916384724999986
 30
0.0
 10
12.8760263906999999
 20
16.4028934313000008
 30
0.0
 10
12.8271730545999993
 20
16.4135385708999983
 30
0.0
 10
12.7781904743000005
 20
16.4235722280999994
 30
0.0
 10
12.7290863033000008
 20
16.4329928350999985
 30
0.0
 10
12.6798682140000007
 20
16.4417989200000001
 30
0.0
 10
12.6305438966000008
 20
16.4499891068000004
 30
0.0
 10
12.5811210579000008
 20
16.4575621157999983
 30
0.0
 10
12.5316074202000003
 20
16.464516763799999
 30
0.0
 10
12.4820107197999999
 20
16.4708519642000013
 30
0.0
 10
12.4323387062999995
 20
16.4765667268999998
 30
0.0
 10
12.3825991406
 20
16.4816601592999987
 30
0.0
 10
12.3327997944999996
 20
16.4861314653000015
 30
0.0
 10
12.2829484489999992
 20
16.4899799463999983
 30
0.0
 10
12.2330528934
 20
16.4932050013000016
 30
0.0
 10
12.1831209237000007
 20
16.4958061260000015
 30
0.0
 10
12.1331603417
 20
16.4977829141000001
 30
0.0
 10
12.0831789535999992
 20
16.4991350568000001
 30
0.0
 10
12.0331845688999994
 20
16.4998623426999984
 30
0.0
 10
11.9999996424000006
 20
16.5
 30
0.0
  0
LINE
  5
AA
100
AcDbEntity
  8
0
 62
0
370
-1
 48
1.0
  6
BYLAYER
100
AcDbLine
 10
-16.0000003576000012
 20
-12.5
 30
0.0
 11
-16.0000003576000012
 21
12.5
 31
0.0
  0
LINE
  5
AB
100
AcDbEntity
  8
0
 62
0
370
-1
 48
1.0
  6
BYLAYER
100
AcDbLine
 10
11.9999996424000006
 20
-16.5
 30
0.0
 11
-12.0000003575999994
 21
-16.5
 31
0.0
  0
LINE
  5
AC
100
AcDbEntity
  8
0
 62
0
370
-1
 48
1.0
  6
BYLAYER
100
AcDbLine
 10
15.9999996424000006
 20
-11.5
 30
0.0
 11
15.9999996424000006
 21
-12.5
 31
0.0
  0
LINE
  5
AD
100
AcDbEntity
  8
0
 62
0
370
-1
 48
1.0
  6
BYLAYER
100
AcDbLine
 10
15.9999996424000006
 20
-11.5
 30
0.0
 11
12.4999996424000006
 21
-11.5
 31
0.0
  0
LINE
  5
AE
100
AcDbEntity
  8
0
 62
0
370
-1
 48
1.0
  6
BYLAYER
100
AcDbLine
 10
12.4999996424000006
 20
-11.5
 30
0.0
 11
12.4999996424000006
 21
-13.0
 31
0.0
  0
LINE
  5
AF
100
AcDbEntity
  8
0
 62
0
370
-1
 48
1.0
  6
BYLAYER
100
AcDbLine
 10
-12.5000003575999994
 20
-13.0
 30
0.0
 11
12.4999996424000006
 21
-13.0
 31
0.0
  0
LINE
  5
B0
100
AcDbEntity
  8
0
 62
0
370
-1
 48
1.0
  6
BYLAYER
100
AcDbLine
 10
-12.5000003575999994
 20
13.0
 30
0.0
 11
-12.5000003575999994
 21
-13.0
 31
0.0
  0
LINE
  5
B1
100
AcDbEntity
  8
0
 62
0
370
-1
 48
1.0
  6
BYLAYER
100
AcDbLine
 10
12.4999996424000006
 20
13.0
 30
0.0
 11
-12.5000003575999994
 21
13.0
 31
0.0
  0
LINE
  5
B2
100
AcDbEntity
  8
0
 62
0
370
-1
 48
1.0
  6
BYLAYER
100
AcDbLine
 10
12.4999996424000006
 20
13.0
 30
0.0
 11
12.4999996424000006
 21
11.5
 31
0.0
  0
LINE
  5
B3
100
AcDbEntity
  8
0
 62
0
370
-1
 48
1.0
  6
BYLAYER
100
AcDbLine
 10
12.4999996424000006
 20
11.5
 30
0.0
 11
15.9999996424000006
 21
11.5
 31
0.0
  0
LINE
  5
B4
100
AcDbEntity
  8
0
 62
0
370
-1
 48
1.0
  6
BYLAYER
100
AcDbLine
 10
15.9999996424000006
 20
12.5
 30
0.0
 11
15.9999996424000006
 21
11.5
 31
0.0
  0
LINE
  5
B5
100
AcDbEntity
  8
0
 62
0
370
-1
 48
1.0
  6
BYLAYER
100
AcDbLine
 10
-12.0000003575999994
 20
16.5
 30
0.0
 11
11.9999996424000006
 21
16.5
 31
0.0
  0
ENDBLK
  5
B6
100
AcDbEntity
  8
0
100
AcDbBlockEnd
  0
BLOCK
  5
B7
100
AcDbEntity
  8
0
100
AcDbBlockBegin
  2
BODY010
 70
0
 10
0.0
 20
0.0
 30
0.0
  3
BODY010
  1

  0
LWPOLYLINE
  5
B8
100
AcDbEntity
  8
0
 62
256
370
-1
 48
1.0
  6
BYLAYER
100
AcDbPolyline
 90
127
 70
0
 10
16.0000003576000012
 20
12.5
 30
0.0
 10
15.9996878617
 20
12.5499986978999996
 30
0.0
 10
15.9987504227000006
 20
12.5999895836999993
 30
0.0
 10
15.9971881872000008
 20
12.6499648461999996
 30
0.0
 10
15.9950013991999995
 20
12.6999166770999992
 30
0.0
 10
15.9921904004000002
 20
12.7498372714000006
 30
0.0
 10
15.9887556301
 20
12.7997188290999997
 30
0.0
 10
15.9846976248000008
 20
12.8495535564000001
 30
0.0
 10
15.9800170186999999
 20
12.8993336666000005
 30
0.0
 10
15.9747145430999993
 20
12.9490513817000004
 30
0.0
 10
15.9687910264999999
 20
12.9986989335000001
 30
0.0
 10
15.9622473945000003
 20
13.0482685646000007
 30
0.0
 10
15.9550846693999997
 20
13.0977525298999993
 30
0.0
 10
15.9473039704000001
 20
13.1471430975000008
 30
0.0
 10
15.9389065131999992
 20
13.1964325504000008
 30
0.0
 10
15.9298936100000006
 20
13.2456131871
 30
0.0
 10
15.9202666690000001
 20
13.2946773232000002
 30
0.0
 10
15.9100271942999996
 20
13.3436172925999994
 30
0.0
 10
15.8991767858999999
 20
13.3924254484999992
 30
0.0
 10
15.8877171390999994
 20
13.4410941648000009
 30
0.0
 10
15.8756500445000004
 20
13.4896158370000006
 30
0.0
 10
15.8629773875000009
 20
13.5379828837999998
 30
0.0
 10
15.8497011480999994
 20
13.5861877478000004
 30
0.0
 10
15.8358234009000007
 20
13.6342228972000008
 30
0.0
 10
15.8213463140999995
 20
13.6820808266
 30
0.0
 10
15.8062721497999998
 20
13.7297540582999993
 30
0.0
 10
15.7906032632999995
 20
13.7772351434000004
 30
0.0
 10
15.7743421028000004
 20
13.8245166631000007
 30
0.0
 10
15.7574912089999994
 20
13.8715912297999999
 30
0.0
 10
15.7400532149999997
 20
13.9184514882000006
 30
0.0
 10
15.7220308453000008
 20
13.9650901163000007
 30
0.0
 10
15.7034269158999997
 20
14.0114998271999998
 30
0.0
 10
15.6842443336000006
 20
14.0576733691999998
 30
0.0
 10
15.6644860957999992
 20
14.1036035280000007
 30
0.0
 10
15.6441552894000004
 20
14.1492831270000003
 30
0.0
 10
15.6232550913000008
 20
14.1947050287999996
 30
0.0
 10
15.6017887670000004
 20
14.2398621363999993
 30
0.0
 10
15.5797596705999997
 20
14.2847473942000001
 30
0.0
 10
15.5571712440999992
 20
14.3293537887000006
 30
0.0
 10
15.5340270168999997
 20
14.3736743505
 30
0.0
 10
15.5103306052000001
 20
14.4177021544000006
 30
0.0
 10
15.4860857114999995
 20
14.4614303212999999
 30
0.0
 10
15.4612961241000004
 20
14.5048520186999994
 30
0.0
 10
15.4359657163000001
 20
14.5479604620000007
 30
0.0
 10
15.4100984458999992
 20
14.5907489157000008
 30
0.0
 10
15.3836983545999999
 20
14.6332106941000006
 30
0.0
 10
15.3567695673000006
 20
14.6753391627000003
 30
0.0
 10
15.3293162916999997
 20
14.7171277390000004
 30
0.0
 10
15.3013428173000001
 20
14.7585698936000007
 30
0.0
 10
15.2728535147999995
 20
14.7996591512000002
 30
0.0
 10
15.2438528356000003
 20
14.8403890918000005
 30
0.0
 10
15.2143453112000007
 20
14.8807533512999992
 30
0.0
 10
15.1843355518000003
 20
14.9207456229000002
 30
0.0
 10
15.1538282465999998
 20
14.9603596579999998
 30
0.0
 10
15.1228281621999994
 20
14.9995892668999993
 30
0.0
 10
15.0913401422
 20
15.0384283200999995
 30
0.0
 10
15.0593691068000002
 20
15.0768707489999993
 30
0.0
 10
15.0269200511999994
 20
15.1149105469999991
 30
0.0
 10
14.9939980454999997
 20
15.1525417706999992
 30
0.0
 10
14.9606082338000004
 20
15.1897585399999997
 30
0.0
 10
14.9267558330999996
 20
15.2265550400999992
 30
0.0
 10
14.8924461329
 20
15.2629255214999997
 30
0.0
 10
14.8576844939000008
 20
15.2988643014000001
 30
0.0
 10
14.8224763475000003
 20
15.3343657643999993
 30
0.0
 10
14.7868271950000008
 20
15.3694243636000003
 30
0.0
 10
14.7507426064999994
 20
15.4040346209999992
 30
0.0
 10
14.7142282201000008
 20
15.4381911289999998
 30
0.0
 10
14.6772897411999992
 20
15.4718885504999992
 30
0.0
 10
14.6399329411999997
 20
15.5051216206000007
 30
0.0
 10
14.6021636571000002
 20
15.5378851464000007
 30
0.0
 10
14.5639877903000006
 20
15.5701740089000005
 30
0.0
 10
14.5254113057000005
 20
15.6019831629999999
 30
0.0
 10
14.4864402306999995
 20
15.6333076384999998
 30
0.0
 10
14.4470806546000006
 20
15.6641425411000004
 30
0.0
 10
14.4073387272000009
 20
15.6944830528000008
 30
0.0
 10
14.3672206580000008
 20
15.7243244329999996
 30
0.0
 10
14.3267327155000004
 20
15.7536620192000001
 30
0.0
 10
14.2858812258000007
 20
15.7824912271999995
 30
0.0
 10
14.2446725718000007
 20
15.8108075527
 30
0.0
 10
14.2031131924
 20
15.8386065711999997
 30
0.0
 10
14.1612095810999996
 20
15.8658839391999997
 30
0.0
 10
14.1189682851999994
 20
15.8926353947999992
 30
0.0
 10
14.076395905
 20
15.9188567579000004
 30
0.0
 10
14.0334990920999996
 20
15.9445439316000002
 30
0.0
 10
13.9902845492000001
 20
15.9696929024000003
 30
0.0
 10
13.9467590284000007
 20
15.9942997407000007
 30
0.0
 10
13.9029293305999992
 20
16.0183606016999995
 30
0.0
 10
13.8588023039999992
 20
16.0418717260999983
 30
0.0
 10
13.8143848432999992
 20
16.0648294402000005
 30
0.0
 10
13.7696838887999995
 20
16.0872301570000005
 30
0.0
 10
13.7247064248000008
 20
16.1090703763999983
 30
0.0
 10
13.6794594790000001
 20
16.1303466859000011
 30
0.0
 10
13.6339501211999998
 20
16.1510557609999985
 30
0.0
 10
13.5881854620000002
 20
16.1711943662000017
 30
0.0
 10
13.5421726520999997
 20
16.1907593546999991
 30
0.0
 10
13.4959188808999997
 20
16.2097476695000005
 30
0.0
 10
13.4494313754999997
 20
16.2281563439000003
 30
0.0
 10
13.4027173995000002
 20
16.2459825014000003
 30
0.0
 10
13.3557842517999994
 20
16.2632233566999993
 30
0.0
 10
13.3086392656000001
 20
16.2798762160000017
 30
0.0
 10
13.2612898072000007
 20
16.2959384774
 30
0.0
 10
13.2137432749000006
 20
16.3114076310999998
 30
0.0
 10
13.1660070977999997
 20
16.3262812601999983
 30
0.0
 10
13.1180887345000006
 20
16.3405570404999985
 30
0.0
 10
13.0699956720999992
 20
16.3542327416999989
 30
0.0
 10
13.0217354251999993
 20
16.3673062268000002
 30
0.0
 10
12.9733155341999993
 20
16.3797754532000006
 30
0.0
 10
12.9247435647
 20
16.3916384724999986
 30
0.0
 10
12.8760271060000004
 20
16.4028934313000008
 30
0.0
 10
12.8271737698999999
 20
16.4135385708999983
 30
0.0
 10
12.7781911895999993
 20
16.4235722280999994
 30
0.0
 10
12.7290870185999996
 20
16.4329928350999985
 30
0.0
 10
12.6798689291999995
 20
16.4417989200000001
 30
0.0
 10
12.6305446117999995
 20
16.4499891068000004
 30
0.0
 10
12.5811217730999996
 20
16.4575621157999983
 30
0.0
 10
12.5316081354000008
 20
16.464516763799999
 30
0.0
 10
12.4820114351000004
 20
16.4708519642000013
 30
0.0
 10
12.4323394215
 20
16.4765667268999998
 30
0.0
 10
12.3825998558000006
 20
16.4816601592999987
 30
0.0
 10
12.3328005097000002
 20
16.4861314653000015
 30
0.0
 10
12.2829491642999997
 20
16.4899799463999983
 30
0.0
 10
12.2330536087000006
 20
16.4932050013000016
 30
0.0
 10
12.1831216389999994
 20
16.4958061260000015
 30
0.0
 10
12.1331610570000006
 20
16.4977829141000001
 30
0.0
 10
12.0831796687999997
 20
16.4991350568000001
 30
0.0
 10
12.0331852841
 20
16.4998623426999984
 30
0.0
 10
12.0000003575999994
 20
16.5
 30
0.0
  0
LWPOLYLINE
  5
B9
100
AcDbEntity
  8
0
 62
256
370
-1
 48
1.0
  6
BYLAYER
100
AcDbPolyline
 90
127
 70
0
 10
12.0000003575999994
 20
-16.5
 30
0.0
 10
12.0499990556000007
 20
-16.4996875040999988
 30
0.0
 10
12.0999899413000005
 20
-16.4987500651000012
 30
0.0
 10
12.1499652039000008
 20
-16.4971878296000014
 30
0.0
 10
12.1999170347000003
 20
-16.4950010415999984
 30
0.0
 10
12.2498376289999999
 20
-16.4921900428000008
 30
0.0
 10
12.2997191867000009
 20
-16.4887552723999988
 30
0.0
 10
12.3495539139999995
 20
-16.4846972672000014
 30
0.0
 10
12.3993340241999999
 20
-16.4800166610999987
 30
0.0
 10
12.4490517393999998
 20
-16.4747141855000017
 30
0.0
 10
12.4986992911999995
 20
-16.4687906688999988
 30
0.0
 10
12.5482689223000001
 20
-16.4622470368000009
 30
0.0
 10
12.5977528875000004
 20
-16.4550843116999985
 30
0.0
 10
12.6471434552000002
 20
-16.447303612799999
 30
0.0
 10
12.6964329080000002
 20
-16.4389061556000016
 30
0.0
 10
12.7456135446999994
 20
-16.4298932523999994
 30
0.0
 10
12.7946776807999996
 20
-16.4202663113999989
 30
0.0
 10
12.8436176502000006
 20
-16.4100268366999984
 30
0.0
 10
12.8924258062000003
 20
-16.3991764282999988
 30
0.0
 10
12.9410945224000002
 20
-16.3877167815
 30
0.0
 10
12.9896161945999999
 20
-16.3756496867999992
 30
0.0
 10
13.0379832413999992
 20
-16.3629770297999997
 30
0.0
 10
13.0861881054999998
 20
-16.3497007904999982
 30
0.0
 10
13.1342232549000002
 20
-16.3358230432999996
 30
0.0
 10
13.1820811842999994
 20
-16.3213459565000001
 30
0.0
 10
13.2297544160000005
 20
-16.3062717922000004
 30
0.0
 10
13.2772355010999998
 20
-16.2906029056999984
 30
0.0
 10
13.3245170208000001
 20
-16.2743417450999992
 30
0.0
 10
13.3715915874999993
 20
-16.2574908514000001
 30
0.0
 10
13.4184518457999999
 20
-16.2400528573000003
 30
0.0
 10
13.4650904740000001
 20
-16.2220304876000014
 30
0.0
 10
13.5115001847999991
 20
-16.2034265582999986
 30
0.0
 10
13.5576737268999992
 20
-16.1842439760000012
 30
0.0
 10
13.6036038856000001
 20
-16.1644857381000016
 30
0.0
 10
13.6492834845999997
 20
-16.1441549317999993
 30
0.0
 10
13.6947053864000008
 20
-16.1232547337000014
 30
0.0
 10
13.7398624941000005
 20
-16.101788409400001
 30
0.0
 10
13.7847477517999994
 20
-16.0797593130000003
 30
0.0
 10
13.8293541463
 20
-16.0571708864999998
 30
0.0
 10
13.8736747080999994
 20
-16.0340266593000003
 30
0.0
 10
13.917702512
 20
-16.0103302475999989
 30
0.0
 10
13.9614306788999993
 20
-15.9860853539000001
 30
0.0
 10
14.0048523763000006
 20
-15.9612957664999993
 30
0.0
 10
14.0479608197000001
 20
-15.9359653587000007
 30
0.0
 10
14.0907492734000002
 20
-15.9100980881999998
 30
0.0
 10
14.1332110518
 20
-15.8836979969000005
 30
0.0
 10
14.1753395203999997
 20
-15.8567692096999995
 30
0.0
 10
14.2171280965999998
 20
-15.8293159341000003
 30
0.0
 10
14.2585702512000001
 20
-15.8013424596000007
 30
0.0
 10
14.2996595087999996
 20
-15.7728531572000001
 30
0.0
 10
14.3403894493999999
 20
-15.7438524780000009
 30
0.0
 10
14.3807537089000004
 20
-15.7143449534999995
 30
0.0
 10
14.4207459805999996
 20
-15.6843351942000009
 30
0.0
 10
14.4603600156999992
 20
-15.6538278890000004
 30
0.0
 10
14.4995896245000004
 20
-15.6228278045
 30
0.0
 10
14.5384286777000007
 20
-15.5913397846000006
 30
0.0
 10
14.5768711066000005
 20
-15.5593687491000008
 30
0.0
 10
14.6149109047000003
 20
-15.5269196935
 30
0.0
 10
14.6525421283000004
 20
-15.4939976879000003
 30
0.0
 10
14.6897588977000009
 20
-15.4606078761999992
 30
0.0
 10
14.7265553977000003
 20
-15.4267554755000003
 30
0.0
 10
14.7629258791000009
 20
-15.3924457752000006
 30
0.0
 10
14.7988646589999995
 20
-15.3576841361999996
 30
0.0
 10
14.8343661221000005
 20
-15.3224759898999991
 30
0.0
 10
14.8694247211999997
 20
-15.2868268373999996
 30
0.0
 10
14.9040349787000004
 20
-15.2507422489
 30
0.0
 10
14.9381914865999992
 20
-15.2142278624999996
 30
0.0
 10
14.9718889082000004
 20
-15.1772893834999998
 30
0.0
 10
15.0051219782
 20
-15.1399325835000003
 30
0.0
 10
15.0378855041000001
 20
-15.1021632995000008
 30
0.0
 10
15.0701743665999999
 20
-15.0639874326999994
 30
0.0
 10
15.1019835205999993
 20
-15.0254109479999993
 30
0.0
 10
15.1333079960999992
 20
-14.9864398731000001
 30
0.0
 10
15.1641428986999998
 20
-14.9470802969999994
 30
0.0
 10
15.1944834104000002
 20
-14.9073383694999997
 30
0.0
 10
15.2243247907000008
 20
-14.8672203003999996
 30
0.0
 10
15.2536623767999995
 20
-14.8267323578999992
 30
0.0
 10
15.2824915848000007
 20
-14.7858808680999996
 30
0.0
 10
15.3108079102999994
 20
-14.7446722141999995
 30
0.0
 10
15.3386069288000009
 20
-14.7031128348000006
 30
0.0
 10
15.3658842968999991
 20
-14.6612092235000002
 30
0.0
 10
15.3926357524000004
 20
-14.6189679276
 30
0.0
 10
15.4188571154999998
 20
-14.5763955473000006
 30
0.0
 10
15.4445442892999996
 20
-14.5334987345000002
 30
0.0
 10
15.4696932599999997
 20
-14.4902841916000007
 30
0.0
 10
15.4943000983000001
 20
-14.4467586707999995
 30
0.0
 10
15.5183609594000007
 20
-14.4029289729999999
 30
0.0
 10
15.5418720836999995
 20
-14.3588019462999998
 30
0.0
 10
15.5648297978999999
 20
-14.3143844856999998
 30
0.0
 10
15.5872305146999999
 20
-14.2696835312000001
 30
0.0
 10
15.6090707339999994
 20
-14.2247060671999996
 30
0.0
 10
15.6303470435000005
 20
-14.1794591214000008
 30
0.0
 10
15.6510561186999997
 20
-14.1339497635000004
 30
0.0
 10
15.6711947237999993
 20
-14.0881851043000008
 30
0.0
 10
15.6907597123000002
 20
-14.0421722945000003
 30
0.0
 10
15.7097480271999999
 20
-13.9959185233000003
 30
0.0
 10
15.7281567014999997
 20
-13.9494310179000003
 30
0.0
 10
15.7459828589999997
 20
-13.9027170419000008
 30
0.0
 10
15.7632237143000005
 20
-13.8557838941
 30
0.0
 10
15.7798765736999993
 20
-13.8086389079000007
 30
0.0
 10
15.7959388350999994
 20
-13.7612894495999996
 30
0.0
 10
15.8114079887999992
 20
-13.7137429172999994
 30
0.0
 10
15.8262816177999994
 20
-13.6660067402000003
 30
0.0
 10
15.8405573981999996
 20
-13.6180883767999994
 30
0.0
 10
15.8542330993
 20
-13.5699953144999998
 30
0.0
 10
15.8673065843999996
 20
-13.5217350675999999
 30
0.0
 10
15.8797758108
 20
-13.4733151765999999
 30
0.0
 10
15.8916388301999998
 20
-13.4247432071000006
 30
0.0
 10
15.9028937889000002
 20
-13.3760267483999993
 30
0.0
 10
15.9135389284999995
 20
-13.3271734122000005
 30
0.0
 10
15.9235725857000006
 20
-13.2781908319999999
 30
0.0
 10
15.9329931926999997
 20
-13.2290866609000002
 30
0.0
 10
15.9417992775999995
 20
-13.1798685716000001
 30
0.0
 10
15.9499894643999998
 20
-13.1305442542000002
 30
0.0
 10
15.9575624733999994
 20
-13.0811214155000002
 30
0.0
 10
15.9645171214000001
 20
-13.0316077777999997
 30
0.0
 10
15.9708523218000007
 20
-12.9820110774999993
 30
0.0
 10
15.9765670845999992
 20
-12.9323390639000007
 30
0.0
 10
15.9816605168999999
 20
-12.8825994981999994
 30
0.0
 10
15.9861318228999991
 20
-12.8328001521000008
 30
0.0
 10
15.9899803039999995
 20
-12.7829488067000003
 30
0.0
 10
15.9932053588999992
 20
-12.7330532510999994
 30
0.0
 10
15.9958064835999991
 20
-12.6831212814000001
 30
0.0
 10
15.9977832716999995
 20
-12.6331606992999994
 30
0.0
 10
15.9991354143999995
 20
-12.5831793112000003
 30
0.0
 10
15.9998627002999996
 20
-12.5331849265000006
 30
0.0
 10
16.0000003576000012
 20
-12.5
 30
0.0
  0
LWPOLYLINE
  5
BA
100
AcDbEntity
  8
0
 62
256
370
-1
 48
1.0
  6
BYLAYER
100
AcDbPolyline
 90
127
 70
0
 10
-11.9999996424000006
 20
16.5
 30
0.0
 10
-12.0499983403000002
 20
16.4996875040999988
 30
0.0
 10
-12.0999892259999999
 20
16.4987500651000012
 30
0.0
 10
-12.1499644886000002
 20
16.4971878296000014
 30
0.0
 10
-12.1999163194999998
 20
16.4950010415999984
 30
0.0
 10
-12.2498369136999994
 20
16.4921900428000008
 30
0.0
 10
-12.2997184715000003
 20
16.4887552723999988
 30
0.0
 10
-12.3495531987000007
 20
16.4846972672000014
 30
0.0
 10
-12.3993333089999993
 20
16.4800166610999987
 30
0.0
 10
-12.4490510240999992
 20
16.4747141855000017
 30
0.0
 10
-12.4986985759000007
 20
16.4687906688999988
 30
0.0
 10
-12.5482682069999996
 20
16.4622470368000009
 30
0.0
 10
-12.5977521722999999
 20
16.4550843116999985
 30
0.0
 10
-12.6471427398999996
 20
16.447303612799999
 30
0.0
 10
-12.6964321926999997
 20
16.4389061556000016
 30
0.0
 10
-12.7456128294000006
 20
16.4298932523999994
 30
0.0
 10
-12.7946769656000008
 20
16.4202663113999989
 30
0.0
 10
-12.843616935
 20
16.4100268366999984
 30
0.0
 10
-12.8924250908999998
 20
16.3991764282999988
 30
0.0
 10
-12.9410938071999997
 20
16.3877167815
 30
0.0
 10
-12.9896154793999994
 20
16.3756496867999992
 30
0.0
 10
-13.0379825262000004
 20
16.3629770297999997
 30
0.0
 10
-13.0861873901999992
 20
16.3497007904999982
 30
0.0
 10
-13.1342225395999996
 20
16.3358230432999996
 30
0.0
 10
-13.1820804690000006
 20
16.3213459565000001
 30
0.0
 10
-13.2297537006999999
 20
16.3062717922000004
 30
0.0
 10
-13.2772347857999993
 20
16.2906029056999984
 30
0.0
 10
-13.3245163054999995
 20
16.2743417450999992
 30
0.0
 10
-13.3715908722000005
 20
16.2574908514000001
 30
0.0
 10
-13.4184511304999994
 20
16.2400528573000003
 30
0.0
 10
-13.4650897586999996
 20
16.2220304876000014
 30
0.0
 10
-13.5114994695000004
 20
16.2034265582999986
 30
0.0
 10
-13.5576730116000004
 20
16.1842439760000012
 30
0.0
 10
-13.6036031703999996
 20
16.1644857381000016
 30
0.0
 10
-13.6492827692999992
 20
16.1441549317999993
 30
0.0
 10
-13.6947046712000002
 20
16.1232547337000014
 30
0.0
 10
-13.7398617787999999
 20
16.101788409400001
 30
0.0
 10
-13.7847470365000007
 20
16.0797593130000003
 30
0.0
 10
-13.8293534310999995
 20
16.0571708864999998
 30
0.0
 10
-13.8736739928000006
 20
16.0340266593000003
 30
0.0
 10
-13.9177017967999994
 20
16.0103302475999989
 30
0.0
 10
-13.9614299637000006
 20
15.9860853539000001
 30
0.0
 10
-14.0048516611
 20
15.9612957664999993
 30
0.0
 10
-14.0479601043999995
 20
15.9359653587000007
 30
0.0
 10
-14.0907485580999996
 20
15.9100980881999998
 30
0.0
 10
-14.1332103364999995
 20
15.8836979969000005
 30
0.0
 10
-14.1753388051000009
 20
15.8567692096999995
 30
0.0
 10
-14.2171273813999992
 20
15.8293159341000003
 30
0.0
 10
-14.2585695359999995
 20
15.8013424596000007
 30
0.0
 10
-14.2996587936000008
 20
15.7728531572000001
 30
0.0
 10
-14.3403887340999994
 20
15.7438524780000009
 30
0.0
 10
-14.3807529936999998
 20
15.7143449534999995
 30
0.0
 10
-14.4207452653000008
 20
15.6843351942000009
 30
0.0
 10
-14.4603593004000004
 20
15.6538278890000004
 30
0.0
 10
-14.4995889092999999
 20
15.6228278045
 30
0.0
 10
-14.5384279624000001
 20
15.5913397846000006
 30
0.0
 10
-14.5768703913
 20
15.5593687491000008
 30
0.0
 10
-14.6149101893999998
 20
15.5269196935
 30
0.0
 10
-14.6525414129999998
 20
15.4939976879000003
 30
0.0
 10
-14.6897581824000003
 20
15.4606078761999992
 30
0.0
 10
-14.7265546824999998
 20
15.4267554755000003
 30
0.0
 10
-14.7629251639000003
 20
15.3924457752000006
 30
0.0
 10
-14.7988639438000007
 20
15.3576841361999996
 30
0.0
 10
-14.8343654067999999
 20
15.3224759898999991
 30
0.0
 10
-14.8694240059999991
 20
15.2868268373999996
 30
0.0
 10
-14.9040342633999998
 20
15.2507422489
 30
0.0
 10
-14.9381907714000004
 20
15.2142278624999996
 30
0.0
 10
-14.9718881928999998
 20
15.1772893834999998
 30
0.0
 10
-15.0051212628999995
 20
15.1399325835000003
 30
0.0
 10
-15.0378847887999996
 20
15.1021632995000008
 30
0.0
 10
-15.0701736512999993
 20
15.0639874326999994
 30
0.0
 10
-15.1019828054000005
 20
15.0254109479999993
 30
0.0
 10
-15.1333072809000004
 20
14.9864398731000001
 30
0.0
 10
-15.1641421833999992
 20
14.9470802969999994
 30
0.0
 10
-15.1944826951999996
 20
14.9073383694999997
 30
0.0
 10
-15.2243240754000002
 20
14.8672203003999996
 30
0.0
 10
-15.2536616615000007
 20
14.8267323578999992
 30
0.0
 10
-15.2824908696000001
 20
14.7858808680999996
 30
0.0
 10
-15.3108071950000006
 20
14.7446722141999995
 30
0.0
 10
-15.3386062136000003
 20
14.7031128348000006
 30
0.0
 10
-15.3658835816000003
 20
14.6612092235000002
 30
0.0
 10
-15.3926350370999998
 20
14.6189679276
 30
0.0
 10
-15.4188564002999993
 20
14.5763955473000006
 30
0.0
 10
-15.4445435740000008
 20
14.5334987345000002
 30
0.0
 10
-15.4696925447000009
 20
14.4902841916000007
 30
0.0
 10
-15.4942993829999995
 20
14.4467586707999995
 30
0.0
 10
-15.5183602441000001
 20
14.4029289729999999
 30
0.0
 10
-15.5418713685000007
 20
14.3588019462999998
 30
0.0
 10
-15.5648290825999993
 20
14.3143844856999998
 30
0.0
 10
-15.5872297993999993
 20
14.2696835312000001
 30
0.0
 10
-15.6090700188000007
 20
14.2247060671999996
 30
0.0
 10
-15.6303463281999999
 20
14.1794591214000008
 30
0.0
 10
-15.6510554033999991
 20
14.1339497635000004
 30
0.0
 10
-15.6711940086000006
 20
14.0881851043000008
 30
0.0
 10
-15.6907589970999997
 20
14.0421722945000003
 30
0.0
 10
-15.7097473118999993
 20
13.9959185233000003
 30
0.0
 10
-15.7281559862000009
 20
13.9494310179000003
 30
0.0
 10
-15.7459821436999992
 20
13.9027170419000008
 30
0.0
 10
-15.7632229990999999
 20
13.8557838941
 30
0.0
 10
-15.7798758584000005
 20
13.8086389079000007
 30
0.0
 10
-15.7959381198000006
 20
13.7612894495999996
 30
0.0
 10
-15.8114072735000004
 20
13.7137429172999994
 30
0.0
 10
-15.8262809025000006
 20
13.6660067402000003
 30
0.0
 10
-15.8405566829000009
 20
13.6180883768999994
 30
0.0
 10
-15.8542323839999995
 20
13.5699953144999998
 30
0.0
 10
-15.8673058692000009
 20
13.5217350675999999
 30
0.0
 10
-15.8797750954999994
 20
13.4733151765999999
 30
0.0
 10
-15.8916381148999992
 20
13.4247432071000006
 30
0.0
 10
-15.9028930736999996
 20
13.3760267483999993
 30
0.0
 10
-15.9135382133000007
 20
13.3271734122000005
 30
0.0
 10
-15.9235718705
 20
13.2781908319999999
 30
0.0
 10
-15.9329924774999991
 20
13.2290866609000002
 30
0.0
 10
-15.9417985623000007
 20
13.1798685716000001
 30
0.0
 10
-15.9499887490999992
 20
13.1305442542000002
 30
0.0
 10
-15.9575617582000007
 20
13.0811214155000002
 30
0.0
 10
-15.9645164061999996
 20
13.0316077777999997
 30
0.0
 10
-15.9708516065000001
 20
12.9820110774999993
 30
0.0
 10
-15.9765663693000004
 20
12.9323390639000007
 30
0.0
 10
-15.9816598016999993
 20
12.8825994981999994
 30
0.0
 10
-15.9861311077000003
 20
12.8328001521000008
 30
0.0
 10
-15.9899795888000007
 20
12.7829488067000003
 30
0.0
 10
-15.9932046436000004
 20
12.7330532510999994
 30
0.0
 10
-15.9958057683000003
 20
12.6831212814000001
 30
0.0
 10
-15.9977825565000007
 20
12.6331606992999994
 30
0.0
 10
-15.9991346991000007
 20
12.5831793112000003
 30
0.0
 10
-15.9998619851000008
 20
12.5331849265000006
 30
0.0
 10
-15.9999996424000006
 20
12.5
 30
0.0
  0
LWPOLYLINE
  5
BB
100
AcDbEntity
  8
0
 62
256
370
-1
 48
1.0
  6
BYLAYER
100
AcDbPolyline
 90
127
 70
0
 10
-15.9999996424000006
 20
-12.5
 30
0.0
 10
-15.9996871463999994
 20
-12.5499986978999996
 30
0.0
 10
-15.9987497075
 20
-12.5999895836999993
 30
0.0
 10
-15.9971874719000002
 20
-12.6499648461999996
 30
0.0
 10
-15.9950006840000007
 20
-12.6999166770999992
 30
0.0
 10
-15.9921896851999996
 20
-12.7498372714000006
 30
0.0
 10
-15.9887549147999994
 20
-12.7997188290999997
 30
0.0
 10
-15.9846969096000002
 20
-12.8495535564000001
 30
0.0
 10
-15.9800163034999994
 20
-12.8993336666000005
 30
0.0
 10
-15.9747138279000005
 20
-12.9490513817000004
 30
0.0
 10
-15.9687903112999994
 20
-12.9986989335000001
 30
0.0
 10
-15.9622466791999997
 20
-13.0482685646000007
 30
0.0
 10
-15.9550839540999991
 20
-13.0977525298999993
 30
0.0
 10
-15.9473032550999996
 20
-13.1471430975000008
 30
0.0
 10
-15.9389057980000004
 20
-13.1964325504000008
 30
0.0
 10
-15.9298928948
 20
-13.245613187
 30
0.0
 10
-15.9202659536999995
 20
-13.2946773232000002
 30
0.0
 10
-15.9100264791000008
 20
-13.3436172925999994
 30
0.0
 10
-15.8991760705999994
 20
-13.3924254484999992
 30
0.0
 10
-15.8877164238000006
 20
-13.4410941648000009
 30
0.0
 10
-15.8756493291999998
 20
-13.4896158370000006
 30
0.0
 10
-15.8629766722000003
 20
-13.5379828837999998
 30
0.0
 10
-15.8497004329000006
 20
-13.5861877478000004
 30
0.0
 10
-15.8358226857000002
 20
-13.6342228972000008
 30
0.0
 10
-15.8213455989000007
 20
-13.6820808266
 30
0.0
 10
-15.8062714345999993
 20
-13.7297540582999993
 30
0.0
 10
-15.7906025480000007
 20
-13.7772351434000004
 30
0.0
 10
-15.7743413874999998
 20
-13.8245166631000007
 30
0.0
 10
-15.7574904938000007
 20
-13.8715912297999999
 30
0.0
 10
-15.7400524997000009
 20
-13.9184514882000006
 30
0.0
 10
-15.7220301300000003
 20
-13.9650901163000007
 30
0.0
 10
-15.7034262005999992
 20
-14.0114998271999998
 30
0.0
 10
-15.6842436184
 20
-14.0576733691999998
 30
0.0
 10
-15.6644853805000004
 20
-14.1036035280000007
 30
0.0
 10
-15.6441545741999999
 20
-14.1492831270000003
 30
0.0
 10
-15.6232543761000002
 20
-14.1947050287999996
 30
0.0
 10
-15.6017880517999998
 20
-14.2398621363999993
 30
0.0
 10
-15.5797589554000009
 20
-14.2847473942000001
 30
0.0
 10
-15.5571705289000004
 20
-14.3293537887000006
 30
0.0
 10
-15.5340263016000009
 20
-14.3736743505
 30
0.0
 10
-15.5103298898999995
 20
-14.4177021544000006
 30
0.0
 10
-15.4860849963000007
 20
-14.4614303212999999
 30
0.0
 10
-15.4612954088999999
 20
-14.5048520186999994
 30
0.0
 10
-15.4359650009999996
 20
-14.5479604620000007
 30
0.0
 10
-15.4100977306000004
 20
-14.5907489157000008
 30
0.0
 10
-15.3836976392999993
 20
-14.6332106941000006
 30
0.0
 10
-15.3567688521000001
 20
-14.6753391627000003
 30
0.0
 10
-15.3293155765000009
 20
-14.7171277390000004
 30
0.0
 10
-15.3013421019999996
 20
-14.7585698936000007
 30
0.0
 10
-15.2728527995000007
 20
-14.7996591512000002
 30
0.0
 10
-15.2438521203999997
 20
-14.8403890918000005
 30
0.0
 10
-15.2143445959000001
 20
-14.8807533512999992
 30
0.0
 10
-15.1843348365999997
 20
-14.9207456229000002
 30
0.0
 10
-15.1538275312999993
 20
-14.9603596579999998
 30
0.0
 10
-15.1228274469000006
 20
-14.9995892668999993
 30
0.0
 10
-15.0913394269999994
 20
-15.0384283200999995
 30
0.0
 10
-15.0593683914999996
 20
-15.0768707489999993
 30
0.0
 10
-15.0269193359000006
 20
-15.1149105469999991
 30
0.0
 10
-14.9939973301999991
 20
-15.1525417706999992
 30
0.0
 10
-14.9606075184999998
 20
-15.1897585399999997
 30
0.0
 10
-14.9267551179000009
 20
-15.2265550400999992
 30
0.0
 10
-14.8924454175999994
 20
-15.2629255214999997
 30
0.0
 10
-14.8576837786000002
 20
-15.2988643014000001
 30
0.0
 10
-14.8224756321999998
 20
-15.3343657643999993
 30
0.0
 10
-14.7868264798000002
 20
-15.3694243636000003
 30
0.0
 10
-14.7507418913000006
 20
-15.4040346209999992
 30
0.0
 10
-14.7142275049000002
 20
-15.4381911289999998
 30
0.0
 10
-14.6772890259000004
 20
-15.4718885504999992
 30
0.0
 10
-14.6399322259000009
 20
-15.5051216206000007
 30
0.0
 10
-14.6021629417999996
 20
-15.5378851464000007
 30
0.0
 10
-14.563987075
 20
-15.5701740089000005
 30
0.0
 10
-14.5254105903999999
 20
-15.6019831629999999
 30
0.0
 10
-14.4864395155000008
 20
-15.6333076384999998
 30
0.0
 10
-14.4470799393
 20
-15.6641425411000004
 30
0.0
 10
-14.4073380119000003
 20
-15.6944830528000008
 30
0.0
 10
-14.3672199427000002
 20
-15.7243244329999996
 30
0.0
 10
-14.3267320001999998
 20
-15.7536620192000001
 30
0.0
 10
-14.2858805105000002
 20
-15.7824912271999995
 30
0.0
 10
-14.2446718566000001
 20
-15.8108075527
 30
0.0
 10
-14.2031124771999995
 20
-15.8386065711999997
 30
0.0
 10
-14.1612088658000008
 20
-15.8658839391999997
 30
0.0
 10
-14.1189675700000006
 20
-15.8926353947999992
 30
0.0
 10
-14.0763951896999995
 20
-15.9188567579000004
 30
0.0
 10
-14.0334983768000008
 20
-15.9445439316000002
 30
0.0
 10
-13.9902838338999995
 20
-15.9696929024000003
 30
0.0
 10
-13.9467583132000001
 20
-15.9942997407000007
 30
0.0
 10
-13.9029286153000005
 20
-16.0183606016999995
 30
0.0
 10
-13.8588015887000005
 20
-16.0418717260999983
 30
0.0
 10
-13.8143841281000004
 20
-16.0648294402000005
 30
0.0
 10
-13.7696831735000007
 20
-16.0872301570000005
 30
0.0
 10
-13.7247057096000002
 20
-16.1090703763999983
 30
0.0
 10
-13.6794587637999996
 20
-16.1303466859000011
 30
0.0
 10
-13.6339494058999993
 20
-16.1510557609999985
 30
0.0
 10
-13.5881847466999996
 20
-16.1711943662000017
 30
0.0
 10
-13.5421719368000009
 20
-16.1907593546999991
 30
0.0
 10
-13.4959181656999991
 20
-16.2097476695000005
 30
0.0
 10
-13.4494306602999991
 20
-16.2281563439000003
 30
0.0
 10
-13.4027166841999996
 20
-16.2459825014000003
 30
0.0
 10
-13.3557835365000006
 20
-16.2632233566999993
 30
0.0
 10
-13.3086385502999995
 20
-16.2798762160000017
 30
0.0
 10
-13.2612890920000002
 20
-16.2959384774
 30
0.0
 10
-13.2137425597
 20
-16.3114076310999998
 30
0.0
 10
-13.1660063825000009
 20
-16.3262812601999983
 30
0.0
 10
-13.1180880192
 20
-16.3405570404999985
 30
0.0
 10
-13.0699949569000005
 20
-16.3542327416999989
 30
0.0
 10
-13.0217347099000005
 20
-16.3673062268000002
 30
0.0
 10
-12.9733148190000005
 20
-16.3797754532000006
 30
0.0
 10
-12.9247428494999994
 20
-16.3916384724999986
 30
0.0
 10
-12.8760263906999999
 20
-16.4028934313000008
 30
0.0
 10
-12.8271730545999993
 20
-16.4135385708999983
 30
0.0
 10
-12.7781904743000005
 20
-16.4235722280999994
 30
0.0
 10
-12.7290863033000008
 20
-16.4329928350999985
 30
0.0
 10
-12.6798682140000007
 20
-16.4417989200000001
 30
0.0
 10
-12.6305438966000008
 20
-16.4499891068000004
 30
0.0
 10
-12.5811210579000008
 20
-16.4575621157999983
 30
0.0
 10
-12.5316074202000003
 20
-16.464516763799999
 30
0.0
 10
-12.4820107197999999
 20
-16.4708519642000013
 30
0.0
 10
-12.4323387061999995
 20
-16.4765667268999998
 30
0.0
 10
-12.3825991406
 20
-16.4816601592999987
 30
0.0
 10
-12.3327997944999996
 20
-16.4861314653000015
 30
0.0
 10
-12.2829484489999992
 20
-16.4899799463999983
 30
0.0
 10
-12.2330528934
 20
-16.4932050013000016
 30
0.0
 10
-12.1831209237000007
 20
-16.4958061260000015
 30
0.0
 10
-12.1331603417
 20
-16.4977829141000001
 30
0.0
 10
-12.0831789535999992
 20
-16.4991350568000001
 30
0.0
 10
-12.0331845688999994
 20
-16.4998623426999984
 30
0.0
 10
-11.9999996424000006
 20
-16.5
 30
0.0
  0
LINE
  5
BC
100
AcDbEntity
  8
0
 62
0
370
-1
 48
1.0
  6
BYLAYER
100
AcDbLine
 10
16.0000003576000012
 20
12.5
 30
0.0
 11
16.0000003576000012
 21
-12.5
 31
0.0
  0
LINE
  5
BD
100
AcDbEntity
  8
0
 62
0
370
-1
 48
1.0
  6
BYLAYER
100
AcDbLine
 10
-11.9999996424000006
 20
16.5
 30
0.0
 11
12.0000003575999994
 21
16.5
 31
0.0
  0
LINE
  5
BE
100
AcDbEntity
  8
0
 62
0
370
-1
 48
1.0
  6
BYLAYER
100
AcDbLine
 10
12.0000003575999994
 20
-16.5
 30
0.0
 11
-11.9999996424000006
 21
-16.5
 31
0.0
  0
LINE
  5
BF
100
AcDbEntity
  8
0
 62
0
370
-1
 48
1.0
  6
BYLAYER
100
AcDbLine
 10
-15.9999996424000006
 20
-12.5
 30
0.0
 11
-15.9999996424000006
 21
12.5
 31
0.0
  0
LINE
  5
C0
100
AcDbEntity
  8
0
 62
0
370
-1
 48
1.0
  6
BYLAYER
100
AcDbLine
 10
9.0000003576300003
 20
-6.0
 30
0.0
 11
9.0000003576300003
 21
-3.0
 31
0.0
  0
LINE
  5
C1
100
AcDbEntity
  8
0
 62
0
370
-1
 48
1.0
  6
BYLAYER
100
AcDbLine
 10
3.0000003576299998
 20
-6.0
 30
0.0
 11
9.0000003576300003
 21
-6.0
 31
0.0
  0
LINE
  5
C2
100
AcDbEntity
  8
0
 62
0
370
-1
 48
1.0
  6
BYLAYER
100
AcDbLine
 10
3.0000003576299998
 20
-3.0
 30
0.0
 11
3.0000003576299998
 21
-6.0
 31
0.0
  0
LINE
  5
C3
100
AcDbEntity
  8
0
 62
0
370
-1
 48
1.0
  6
BYLAYER
100
AcDbLine
 10
9.0000003576300003
 20
-3.0
 30
0.0
 11
3.0000003576299998
 21
-3.0
 31
0.0
  0
LINE
  5
C4
100
AcDbEntity
  8
0
 62
0
370
-1
 48
1.0
  6
BYLAYER
100
AcDbLine
 10
3.0000003576299998
 20
3.0
 30
0.0
 11
9.0000003576300003
 21
3.0
 31
0.0
  0
LINE
  5
C5
100
AcDbEntity
  8
0
 62
0
370
-1
 48
1.0
  6
BYLAYER
100
AcDbLine
 10
3.0000003576299998
 20
6.0
 30
0.0
 11
3.0000003576299998
 21
3.0
 31
0.0
  0
LINE
  5
C6
100
AcDbEntity
  8
0
 62
0
370
-1
 48
1.0
  6
BYLAYER
100
AcDbLine
 10
9.0000003576300003
 20
6.0
 30
0.0
 11
3.0000003576299998
 21
6.0
 31
0.0
  0
LINE
  5
C7
100
AcDbEntity
  8
0
 62
0
370
-1
 48
1.0
  6
BYLAYER
100
AcDbLine
 10
9.0000003576300003
 20
3.0
 30
0.0
 11
9.0000003576300003
 21
6.0
 31
0.0
  0
LINE
  5
C8
100
AcDbEntity
  8
0
 62
0
370
-1
 48
1.0
  6
BYLAYER
100
AcDbLine
 10
-8.9999996423699997
 20
3.0
 30
0.0
 11
-2.9999996423700002
 21
3.0
 31
0.0
  0
LINE
  5
C9
100
AcDbEntity
  8
0
 62
0
370
-1
 48
1.0
  6
BYLAYER
100
AcDbLine
 10
-8.9999996423699997
 20
6.0
 30
0.0
 11
-8.9999996423699997
 21
3.0
 31
0.0
  0
LINE
  5
CA
100
AcDbEntity
  8
0
 62
0
370
-1
 48
1.0
  6
BYLAYER
100
AcDbLine
 10
-2.9999996423700002
 20
6.0
 30
0.0
 11
-8.9999996423699997
 21
6.0
 31
0.0
  0
LINE
  5
CB
100
AcDbEntity
  8
0
 62
0
370
-1
 48
1.0
  6
BYLAYER
100
AcDbLine
 10
-2.9999996423700002
 20
3.0
 30
0.0
 11
-2.9999996423700002
 21
6.0
 31
0.0
  0
LINE
  5
CC
100
AcDbEntity
  8
0
 62
0
370
-1
 48
1.0
  6
BYLAYER
100
AcDbLine
 10
-8.9999996423699997
 20
-3.0
 30
0.0
 11
-8.9999996423699997
 21
-6.0
 31
0.0
  0
LINE
  5
CD
100
AcDbEntity
  8
0
 62
0
370
-1
 48
1.0
  6
BYLAYER
100
AcDbLine
 10
-2.9999996423700002
 20
-3.0
 30
0.0
 11
-8.9999996423699997
 21
-3.0
 31
0.0
  0
LINE
  5
CE
100
AcDbEntity
  8
0
 62
0
370
-1
 48
1.0
  6
BYLAYER
100
AcDbLine
 10
-2.9999996423700002
 20
-6.0
 30
0.0
 11
-2.9999996423700002
 21
-3.0
 31
0.0
  0
LINE
  5
CF
100
AcDbEntity
  8
0
 62
0
370
-1
 48
1.0
  6
BYLAYER
100
AcDbLine
 10
-8.9999996423699997
 20
-6.0
 30
0.0
 11
-2.9999996423700002
 21
-6.0
 31
0.0
  0
ENDBLK
  5
D0
100
AcDbEntity
  8
0
100
AcDbBlockEnd
  0
BLOCK
  5
D1
100
AcDbEntity
  8
0
100
AcDbBlockBegin
  2
BODY011
 70
0
 10
0.0
 20
0.0
 30
0.0
  3
BODY011
  1

  0
LINE
  5
D2
100
AcDbEntity
  8
0
 62
0
370
-1
 48
1.0
  6
BYLAYER
100
AcDbLine
 10
-12.0
 20
-6.0
 30
0.0
 11
-9.0
 21
-6.0
 31
0.0
  0
LINE
  5
D3
100
AcDbEntity
  8
0
 62
0
370
-1
 48
1.0
  6
BYLAYER
100
AcDbLine
 10
-9.0
 20
-6.0
 30
0.0
 11
-9.0
 21
-3.0
 31
0.0
  0
LINE
  5
D4
100
AcDbEntity
  8
0
 62
0
370
-1
 48
1.0
  6
BYLAYER
100
AcDbLine
 10
-9.0
 20
-3.0
 30
0.0
 11
-3.0
 21
-3.0
 31
0.0
  0
LINE
  5
D5
100
AcDbEntity
  8
0
 62
0
370
-1
 48
1.0
  6
BYLAYER
100
AcDbLine
 10
-3.0
 20
-3.0
 30
0.0
 11
-3.0
 21
-6.0
 31
0.0
  0
LINE
  5
D6
100
AcDbEntity
  8
0
 62
0
370
-1
 48
1.0
  6
BYLAYER
100
AcDbLine
 10
-3.0
 20
-6.0
 30
0.0
 11
3.0
 21
-6.0
 31
0.0
  0
LINE
  5
D7
100
AcDbEntity
  8
0
 62
0
370
-1
 48
1.0
  6
BYLAYER
100
AcDbLine
 10
3.0
 20
-6.0
 30
0.0
 11
3.0
 21
-3.0
 31
0.0
  0
LINE
  5
D8
100
AcDbEntity
  8
0
 62
0
370
-1
 48
1.0
  6
BYLAYER
100
AcDbLine
 10
3.0
 20
-3.0
 30
0.0
 11
9.0
 21
-3.0
 31
0.0
  0
LINE
  5
D9
100
AcDbEntity
  8
0
 62
0
370
-1
 48
1.0
  6
BYLAYER
100
AcDbLine
 10
9.0
 20
-3.0
 30
0.0
 11
9.0
 21
-6.0
 31
0.0
  0
LINE
  5
DA
100
AcDbEntity
  8
0
 62
0
370
-1
 48
1.0
  6
BYLAYER
100
AcDbLine
 10
9.0
 20
-6.0
 30
0.0
 11
12.0
 21
-6.0
 31
0.0
  0
LINE
  5
DB
100
AcDbEntity
  8
0
 62
0
370
-1
 48
1.0
  6
BYLAYER
100
AcDbLine
 10
12.0
 20
-6.0
 30
0.0
 11
18.9465654498000013
 21
-14.9300454156000004
 31
0.0
  0
ARC
  5
DC
100
AcDbEntity
  8
0
 62
0
370
-1
 48
1.0
  6
BYLAYER
100
AcDbCircle
 10
15.0
 20
-18.0
 30
0.0
 40
5.0
100
AcDbArc
 50
-142.1210786670000061
 51
37.8786350526000035
  0
LINE
  5
DD
100
AcDbEntity
  8
0
 62
0
370
-1
 48
1.0
  6
BYLAYER
100
AcDbLine
 10
4.4050806849299997
 20
-12.5232702720999995
 30
0.0
 11
11.0534498893999995
 21
-21.0699743035000004
 31
0.0
  0
LINE
  5
DE
100
AcDbEntity
  8
0
 62
0
370
-1
 48
1.0
  6
BYLAYER
100
AcDbLine
 10
-12.0
 20
-9.0
 30
0.0
 11
4.4050806849299997
 21
-12.5232702720999995
 31
0.0
  0
LINE
  5
DF
100
AcDbEntity
  8
0
 62
0
370
-1
 48
1.0
  6
BYLAYER
100
AcDbLine
 10
-12.0
 20
-6.0
 30
0.0
 11
-12.0
 21
-9.0
 31
0.0
  0
CIRCLE
  5
E0
100
AcDbEntity
  8
0
 62
0
370
-1
 48
1.0
  6
BYLAYER
100
AcDbCircle
 10
15.0
 20
-18.0
 30
0.0
 40
2.0
  0
ENDBLK
  5
E1
100
AcDbEntity
  8
0
100
AcDbBlockEnd
  0
BLOCK
  5
E2
100
AcDbEntity
  8
0
100
AcDbBlockBegin
  2
MIRRORED002
 70
0
 10
0.0
 20
0.0
 30
0.0
  3
MIRRORED002
  1

  0
LINE
  5
E3
100
AcDbEntity
  8
0
 62
0
370
-1
 48
1.0
  6
BYLAYER
100
AcDbLine
 10
-130.0
 20
-150.0
 30
0.0
 11
-130.0
 21
150.0
 31
0.0
  0
ARC
  5
E4
100
AcDbEntity
  8
0
 62
0
370
-1
 48
1.0
  6
BYLAYER
100
AcDbCircle
 10
-125.0
 20
-150.0
 30
0.0
 40
5.0
100
AcDbArc
 50
-180.0
 51
-90.0
  0
ARC
  5
E5
100
AcDbEntity
  8
0
 62
0
370
-1
 48
1.0
  6
BYLAYER
100
AcDbCircle
 10
-125.0
 20
150.0
 30
0.0
 40
5.0
100
AcDbArc
 50
90.0
 51
-180.0
  0
LINE
  5
E6
100
AcDbEntity
  8
0
 62
0
370
-1
 48
1.0
  6
BYLAYER
100
AcDbLine
 10
125.0
 20
-155.0
 30
0.0
 11
-125.0
 21
-155.0
 31
0.0
  0
LINE
  5
E7
100
AcDbEntity
  8
0
 62
0
370
-1
 48
1.0
  6
BYLAYER
100
AcDbLine
 10
-125.0
 20
155.0
 30
0.0
 11
125.0
 21
155.0
 31
0.0
  0
ARC
  5
E8
100
AcDbEntity
  8
0
 62
0
370
-1
 48
1.0
  6
BYLAYER
100
AcDbCircle
 10
125.0
 20
-150.0
 30
0.0
 40
5.0
100
AcDbArc
 50
-90.0
 51
0.0
  0
ARC
  5
E9
100
AcDbEntity
  8
0
 62
0
370
-1
 48
1.0
  6
BYLAYER
100
AcDbCircle
 10
125.0
 20
150.0
 30
0.0
 40
5.0
100
AcDbArc
 50
-0.0
 51
90.0
  0
LINE
  5
EA
100
AcDbEntity
  8
0
 62
0
370
-1
 48
1.0
  6
BYLAYER
100
AcDbLine
 10
130.0
 20
150.0
 30
0.0
 11
130.0
 21
-150.0
 31
0.0
  0
LINE
  5
EB
100
AcDbEntity
  8
0
 62
0
370
-1
 48
1.0
  6
BYLAYER
100
AcDbLine
 10
-60.0
 20
-147.0
 30
0.0
 11
-60.0
 21
-150.0
 31
0.0
  0
LINE
  5
EC
100
AcDbEntity
  8
0
 62
0
370
-1
 48
1.0
  6
BYLAYER
100
AcDbLine
 10
-100.0
 20
-147.0
 30
0.0
 11
-60.0
 21
-147.0
 31
0.0
  0
LINE
  5
ED
100
AcDbEntity
  8
0
 62
0
370
-1
 48
1.0
  6
BYLAYER
100
AcDbLine
 10
-60.0
 20
-150.0
 30
0.0
 11
-100.0
 21
-150.0
 31
0.0
  0
LINE
  5
EE
100
AcDbEntity
  8
0
 62
0
370
-1
 48
1.0
  6
BYLAYER
100
AcDbLine
 10
-100.0
 20
-150.0
 30
0.0
 11
-100.0
 21
-147.0
 31
0.0
  0
LINE
  5
EF
100
AcDbEntity
  8
0
 62
0
370
-1
 48
1.0
  6
BYLAYER
100
AcDbLine
 10
-125.0
 20
-60.0
 30
0.0
 11
-122.0
 21
-60.0
 31
0.0
  0
LINE
  5
F0
100
AcDbEntity
  8
0
 62
0
370
-1
 48
1.0
  6
BYLAYER
100
AcDbLine
 10
-122.0
 20
-60.0
 30
0.0
 11
-122.0
 21
-100.0
 31
0.0
  0
LINE
  5
F1
100
AcDbEntity
  8
0
 62
0
370
-1
 48
1.0
  6
BYLAYER
100
AcDbLine
 10
-122.0
 20
-100.0
 30
0.0
 11
-125.0
 21
-100.0
 31
0.0
  0
LINE
  5
F2
100
AcDbEntity
  8
0
 62
0
370
-1
 48
1.0
  6
BYLAYER
100
AcDbLine
 10
-125.0
 20
-100.0
 30
0.0
 11
-125.0
 21
-60.0
 31
0.0
  0
LINE
  5
F3
100
AcDbEntity
  8
0
 62
0
370
-1
 48
1.0
  6
BYLAYER
100
AcDbLine
 10
-125.0
 20
20.0
 30
0.0
 11
-122.0
 21
20.0
 31
0.0
  0
LINE
  5
F4
100
AcDbEntity
  8
0
 62
0
370
-1
 48
1.0
  6
BYLAYER
100
AcDbLine
 10
-122.0
 20
20.0
 30
0.0
 11
-122.0
 21
-20.0
 31
0.0
  0
LINE
  5
F5
100
AcDbEntity
  8
0
 62
0
370
-1
 48
1.0
  6
BYLAYER
100
AcDbLine
 10
-122.0
 20
-20.0
 30
0.0
 11
-125.0
 21
-20.0
 31
0.0
  0
LINE
  5
F6
100
AcDbEntity
  8
0
 62
0
370
-1
 48
1.0
  6
BYLAYER
100
AcDbLine
 10
-125.0
 20
-20.0
 30
0.0
 11
-125.0
 21
20.0
 31
0.0
  0
LINE
  5
F7
100
AcDbEntity
  8
0
 62
0
370
-1
 48
1.0
  6
BYLAYER
100
AcDbLine
 10
-122.0
 20
100.0
 30
0.0
 11
-122.0
 21
60.0
 31
0.0
  0
LINE
  5
F8
100
AcDbEntity
  8
0
 62
0
370
-1
 48
1.0
  6
BYLAYER
100
AcDbLine
 10
-122.0
 20
60.0
 30
0.0
 11
-125.0
 21
60.0
 31
0.0
  0
LINE
  5
F9
100
AcDbEntity
  8
0
 62
0
370
-1
 48
1.0
  6
BYLAYER
100
AcDbLine
 10
-125.0
 20
60.0
 30
0.0
 11
-125.0
 21
100.0
 31
0.0
  0
LINE
  5
FA
100
AcDbEntity
  8
0
 62
0
370
-1
 48
1.0
  6
BYLAYER
100
AcDbLine
 10
-125.0
 20
100.0
 30
0.0
 11
-122.0
 21
100.0
 31
0.0
  0
LINE
  5
FB
100
AcDbEntity
  8
0
 62
0
370
-1
 48
1.0
  6
BYLAYER
100
AcDbLine
 10
-20.0
 20
-147.0
 30
0.0
 11
20.0
 21
-147.0
 31
0.0
  0
LINE
  5
FC
100
AcDbEntity
  8
0
 62
0
370
-1
 48
1.0
  6
BYLAYER
100
AcDbLine
 10
-20.0
 20
-150.0
 30
0.0
 11
-20.0
 21
-147.0
 31
0.0
  0
LINE
  5
FD
100
AcDbEntity
  8
0
 62
0
370
-1
 48
1.0
  6
BYLAYER
100
AcDbLine
 10
20.0
 20
-147.0
 30
0.0
 11
20.0
 21
-150.0
 31
0.0
  0
LINE
  5
FE
100
AcDbEntity
  8
0
 62
0
370
-1
 48
1.0
  6
BYLAYER
100
AcDbLine
 10
20.0
 20
-150.0
 30
0.0
 11
-20.0
 21
-150.0
 31
0.0
  0
LINE
  5
FF
100
AcDbEntity
  8
0
 62
0
370
-1
 48
1.0
  6
BYLAYER
100
AcDbLine
 10
60.0
 20
-150.0
 30
0.0
 11
60.0
 21
-147.0
 31
0.0
  0
LINE
  5
100
100
AcDbEntity
  8
0
 62
0
370
-1
 48
1.0
  6
BYLAYER
100
AcDbLine
 10
100.0
 20
-150.0
 30
0.0
 11
60.0
 21
-150.0
 31
0.0
  0
LINE
  5
101
100
AcDbEntity
  8
0
 62
0
370
-1
 48
1.0
  6
BYLAYER
100
AcDbLine
 10
60.0
 20
-147.0
 30
0.0
 11
100.0
 21
-147.0
 31
0.0
  0
LINE
  5
102
100
AcDbEntity
  8
0
 62
0
370
-1
 48
1.0
  6
BYLAYER
100
AcDbLine
 10
100.0
 20
-147.0
 30
0.0
 11
100.0
 21
-150.0
 31
0.0
  0
LINE
  5
103
100
AcDbEntity
  8
0
 62
0
370
-1
 48
1.0
  6
BYLAYER
100
AcDbLine
 10
100.0
 20
147.0
 30
0.0
 11
100.0
 21
150.0
 31
0.0
  0
LINE
  5
104
100
AcDbEntity
  8
0
 62
0
370
-1
 48
1.0
  6
BYLAYER
100
AcDbLine
 10
60.0
 20
147.0
 30
0.0
 11
100.0
 21
147.0
 31
0.0
  0
LINE
  5
105
100
AcDbEntity
  8
0
 62
0
370
-1
 48
1.0
  6
BYLAYER
100
AcDbLine
 10
100.0
 20
150.0
 30
0.0
 11
60.0
 21
150.0
 31
0.0
  0
LINE
  5
106
100
AcDbEntity
  8
0
 62
0
370
-1
 48
1.0
  6
BYLAYER
100
AcDbLine
 10
60.0
 20
150.0
 30
0.0
 11
60.0
 21
147.0
 31
0.0
  0
LINE
  5
107
100
AcDbEntity
  8
0
 62
0
370
-1
 48
1.0
  6
BYLAYER
100
AcDbLine
 10
20.0
 20
150.0
 30
0.0
 11
-20.0
 21
150.0
 31
0.0
  0
LINE
  5
108
100
AcDbEntity
  8
0
 62
0
370
-1
 48
1.0
  6
BYLAYER
100
AcDbLine
 10
20.0
 20
147.0
 30
0.0
 11
20.0
 21
150.0
 31
0.0
  0
LINE
  5
109
100
AcDbEntity
  8
0
 62
0
370
-1
 48
1.0
  6
BYLAYER
100
AcDbLine
 10
-20.0
 20
150.0
 30
0.0
 11
-20.0
 21
147.0
 31
0.0
  0
LINE
  5
10A
100
AcDbEntity
  8
0
 62
0
370
-1
 48
1.0
  6
BYLAYER
100
AcDbLine
 10
-20.0
 20
147.0
 30
0.0
 11
20.0
 21
147.0
 31
0.0
  0
LINE
  5
10B
100
AcDbEntity
  8
0
 62
0
370
-1
 48
1.0
  6
BYLAYER
100
AcDbLine
 10
-60.0
 20
150.0
 30
0.0
 11
-100.0
 21
150.0
 31
0.0
  0
LINE
  5
10C
100
AcDbEntity
  8
0
 62
0
370
-1
 48
1.0
  6
BYLAYER
100
AcDbLine
 10
-60.0
 20
147.0
 30
0.0
 11
-60.0
 21
150.0
 31
0.0
  0
LINE
  5
10D
100
AcDbEntity
  8
0
 62
0
370
-1
 48
1.0
  6
BYLAYER
100
AcDbLine
 10
-100.0
 20
150.0
 30
0.0
 11
-100.0
 21
147.0
 31
0.0
  0
LINE
  5
10E
100
AcDbEntity
  8
0
 62
0
370
-1
 48
1.0
  6
BYLAYER
100
AcDbLine
 10
-100.0
 20
147.0
 30
0.0
 11
-60.0
 21
147.0
 31
0.0
  0
LINE
  5
10F
100
AcDbEntity
  8
0
 62
0
370
-1
 48
1.0
  6
BYLAYER
100
AcDbLine
 10
122.0
 20
-100.0
 30
0.0
 11
125.0
 21
-100.0
 31
0.0
  0
LINE
  5
110
100
AcDbEntity
  8
0
 62
0
370
-1
 48
1.0
  6
BYLAYER
100
AcDbLine
 10
122.0
 20
-60.0
 30
0.0
 11
122.0
 21
-100.0
 31
0.0
  0
LINE
  5
111
100
AcDbEntity
  8
0
 62
0
370
-1
 48
1.0
  6
BYLAYER
100
AcDbLine
 10
125.0
 20
-100.0
 30
0.0
 11
125.0
 21
-60.0
 31
0.0
  0
LINE
  5
112
100
AcDbEntity
  8
0
 62
0
370
-1
 48
1.0
  6
BYLAYER
100
AcDbLine
 10
125.0
 20
-60.0
 30
0.0
 11
122.0
 21
-60.0
 31
0.0
  0
LINE
  5
113
100
AcDbEntity
  8
0
 62
0
370
-1
 48
1.0
  6
BYLAYER
100
AcDbLine
 10
122.0
 20
20.0
 30
0.0
 11
122.0
 21
-20.0
 31
0.0
  0
LINE
  5
114
100
AcDbEntity
  8
0
 62
0
370
-1
 48
1.0
  6
BYLAYER
100
AcDbLine
 10
125.0
 20
20.0
 30
0.0
 11
122.0
 21
20.0
 31
0.0
  0
LINE
  5
115
100
AcDbEntity
  8
0
 62
0
370
-1
 48
1.0
  6
BYLAYER
100
AcDbLine
 10
122.0
 20
-20.0
 30
0.0
 11
125.0
 21
-20.0
 31
0.0
  0
LINE
  5
116
100
AcDbEntity
  8
0
 62
0
370
-1
 48
1.0
  6
BYLAYER
100
AcDbLine
 10
125.0
 20
-20.0
 30
0.0
 11
125.0
 21
20.0
 31
0.0
  0
LINE
  5
117
100
AcDbEntity
  8
0
 62
0
370
-1
 48
1.0
  6
BYLAYER
100
AcDbLine
 10
125.0
 20
100.0
 30
0.0
 11
122.0
 21
100.0
 31
0.0
  0
LINE
  5
118
100
AcDbEntity
  8
0
 62
0
370
-1
 48
1.0
  6
BYLAYER
100
AcDbLine
 10
125.0
 20
60.0
 30
0.0
 11
125.0
 21
100.0
 31
0.0
  0
LINE
  5
119
100
AcDbEntity
  8
0
 62
0
370
-1
 48
1.0
  6
BYLAYER
100
AcDbLine
 10
122.0
 20
100.0
 30
0.0
 11
122.0
 21
60.0
 31
0.0
  0
LINE
  5
11A
100
AcDbEntity
  8
0
 62
0
370
-1
 48
1.0
  6
BYLAYER
100
AcDbLine
 10
122.0
 20
60.0
 30
0.0
 11
125.0
 21
60.0
 31
0.0
  0
ENDBLK
  5
11B
100
AcDbEntity
  8
0
100
AcDbBlockEnd
  0
BLOCK
  5
11C
100
AcDbEntity
  8
0
100
AcDbBlockBegin
  2
BODY013
 70
0
 10
0.0
 20
0.0
 30
0.0
  3
BODY013
  1

  0
LINE
  5
11D
100
AcDbEntity
  8
0
 62
0
370
-1
 48
1.0
  6
BYLAYER
100
AcDbLine
 10
-77.5
 20
15.0
 30
0.0
 11
-50.7009282442
 21
4.66511959304
 31
0.0
  0
ARC
  5
11E
100
AcDbEntity
  8
0
 62
0
370
-1
 48
1.0
  6
BYLAYER
100
AcDbCircle
 10
-52.5
 20
-0.0000000000000002
 30
0.0
 40
5.0
100
AcDbArc
 50
-68.9112048657000003
 51
68.9112048657000003
  0
LINE
  5
11F
100
AcDbEntity
  8
0
 62
0
370
-1
 48
1.0
  6
BYLAYER
100
AcDbLine
 10
-50.7009282442
 20
-4.66511959304
 30
0.0
 11
-77.5
 21
-15.0
 31
0.0
  0
LINE
  5
120
100
AcDbEntity
  8
0
 62
0
370
-1
 48
1.0
  6
BYLAYER
100
AcDbLine
 10
-77.5
 20
-15.0
 30
0.0
 11
-77.5
 21
-9.0
 31
0.0
  0
LINE
  5
121
100
AcDbEntity
  8
0
 62
0
370
-1
 48
1.0
  6
BYLAYER
100
AcDbLine
 10
-77.5
 20
-9.0
 30
0.0
 11
-80.5
 21
-9.0
 31
0.0
  0
LINE
  5
122
100
AcDbEntity
  8
0
 62
0
370
-1
 48
1.0
  6
BYLAYER
100
AcDbLine
 10
-80.5
 20
-9.0
 30
0.0
 11
-80.5
 21
-3.0
 31
0.0
  0
LINE
  5
123
100
AcDbEntity
  8
0
 62
0
370
-1
 48
1.0
  6
BYLAYER
100
AcDbLine
 10
-80.5
 20
-3.0
 30
0.0
 11
-77.5
 21
-3.0
 31
0.0
  0
LINE
  5
124
100
AcDbEntity
  8
0
 62
0
370
-1
 48
1.0
  6
BYLAYER
100
AcDbLine
 10
-77.5
 20
-3.0
 30
0.0
 11
-77.5
 21
3.0
 31
0.0
  0
LINE
  5
125
100
AcDbEntity
  8
0
 62
0
370
-1
 48
1.0
  6
BYLAYER
100
AcDbLine
 10
-77.5
 20
3.0
 30
0.0
 11
-80.5
 21
3.0
 31
0.0
  0
LINE
  5
126
100
AcDbEntity
  8
0
 62
0
370
-1
 48
1.0
  6
BYLAYER
100
AcDbLine
 10
-80.5
 20
3.0
 30
0.0
 11
-80.5
 21
9.0
 31
0.0
  0
LINE
  5
127
100
AcDbEntity
  8
0
 62
0
370
-1
 48
1.0
  6
BYLAYER
100
AcDbLine
 10
-80.5
 20
9.0
 30
0.0
 11
-77.5
 21
9.0
 31
0.0
  0
LINE
  5
128
100
AcDbEntity
  8
0
 62
0
370
-1
 48
1.0
  6
BYLAYER
100
AcDbLine
 10
-77.5
 20
9.0
 30
0.0
 11
-77.5
 21
15.0
 31
0.0
  0
CIRCLE
  5
129
100
AcDbEntity
  8
0
 62
0
370
-1
 48
1.0
  6
BYLAYER
100
AcDbCircle
 10
-52.5
 20
-0.0000000000000011
 30
0.0
 40
2.0
  0
ENDBLK
  5
12A
100
AcDbEntity
  8
0
100
AcDbBlockEnd
  0
BLOCK
  5
12B
100
AcDbEntity
  8
0
100
AcDbBlockBegin
  2
BODY014
 70
0
 10
0.0
 20
0.0
 30
0.0
  3
BODY014
  1

  0
LINE
  5
12C
100
AcDbEntity
  8
0
 62
0
370
-1
 48
1.0
  6
BYLAYER
100
AcDbLine
 10
147.0000175239999862
 20
20.0
 30
0.0
 11
150.0000175239999862
 21
20.0
 31
0.0
  0
LINE
  5
12D
100
AcDbEntity
  8
0
 62
0
370
-1
 48
1.0
  6
BYLAYER
100
AcDbLine
 10
147.0000175239999862
 20
20.0
 30
0.0
 11
147.0000175239999862
 21
60.0
 31
0.0
  0
LINE
  5
12E
100
AcDbEntity
  8
0
 62
0
370
-1
 48
1.0
  6
BYLAYER
100
AcDbLine
 10
150.0000175239999862
 20
20.0
 30
0.0
 11
150.0000175239999862
 21
-20.0
 31
0.0
  0
LINE
  5
12F
100
AcDbEntity
  8
0
 62
0
370
-1
 48
1.0
  6
BYLAYER
100
AcDbLine
 10
150.0000175239999862
 20
60.0
 30
0.0
 11
147.0000175239999862
 21
60.0
 31
0.0
  0
LINE
  5
130
100
AcDbEntity
  8
0
 62
0
370
-1
 48
1.0
  6
BYLAYER
100
AcDbLine
 10
150.0000175239999862
 20
100.0
 30
0.0
 11
150.0000175239999862
 21
60.0
 31
0.0
  0
LINE
  5
131
100
AcDbEntity
  8
0
 62
0
370
-1
 48
1.0
  6
BYLAYER
100
AcDbLine
 10
147.0000175239999862
 20
100.0
 30
0.0
 11
150.0000175239999862
 21
100.0
 31
0.0
  0
LINE
  5
132
100
AcDbEntity
  8
0
 62
0
370
-1
 48
1.0
  6
BYLAYER
100
AcDbLine
 10
147.0000175239999862
 20
100.0
 30
0.0
 11
147.0000175239999862
 21
125.0
 31
0.0
  0
LINE
  5
133
100
AcDbEntity
  8
0
 62
0
370
-1
 48
1.0
  6
BYLAYER
100
AcDbLine
 10
147.0000175239999862
 20
125.0
 30
0.0
 11
60.0000175237999969
 21
125.0
 31
0.0
  0
LINE
  5
134
100
AcDbEntity
  8
0
 62
0
370
-1
 48
1.0
  6
BYLAYER
100
AcDbLine
 10
60.0000175237999969
 20
122.0
 30
0.0
 11
60.0000175237999969
 21
125.0
 31
0.0
  0
LINE
  5
135
100
AcDbEntity
  8
0
 62
0
370
-1
 48
1.0
  6
BYLAYER
100
AcDbLine
 10
20.0000175238000004
 20
122.0
 30
0.0
 11
60.0000175237999969
 21
122.0
 31
0.0
  0
LINE
  5
136
100
AcDbEntity
  8
0
 62
0
370
-1
 48
1.0
  6
BYLAYER
100
AcDbLine
 10
20.0000175238000004
 20
125.0
 30
0.0
 11
20.0000175238000004
 21
122.0
 31
0.0
  0
LINE
  5
137
100
AcDbEntity
  8
0
 62
0
370
-1
 48
1.0
  6
BYLAYER
100
AcDbLine
 10
20.0000175238000004
 20
125.0
 30
0.0
 11
-19.9999824761999996
 21
125.0
 31
0.0
  0
LINE
  5
138
100
AcDbEntity
  8
0
 62
0
370
-1
 48
1.0
  6
BYLAYER
100
AcDbLine
 10
-19.9999824761999996
 20
122.0
 30
0.0
 11
-19.9999824761999996
 21
125.0
 31
0.0
  0
LINE
  5
139
100
AcDbEntity
  8
0
 62
0
370
-1
 48
1.0
  6
BYLAYER
100
AcDbLine
 10
-59.9999824762000031
 20
122.0
 30
0.0
 11
-19.9999824761999996
 21
122.0
 31
0.0
  0
LINE
  5
13A
100
AcDbEntity
  8
0
 62
0
370
-1
 48
1.0
  6
BYLAYER
100
AcDbLine
 10
-59.9999824762000031
 20
125.0
 30
0.0
 11
-59.9999824762000031
 21
122.0
 31
0.0
  0
LINE
  5
13B
100
AcDbEntity
  8
0
 62
0
370
-1
 48
1.0
  6
BYLAYER
100
AcDbLine
 10
-59.9999824762000031
 20
125.0
 30
0.0
 11
-146.9999824760000138
 21
125.0
 31
0.0
  0
LINE
  5
13C
100
AcDbEntity
  8
0
 62
0
370
-1
 48
1.0
  6
BYLAYER
100
AcDbLine
 10
-146.9999824760000138
 20
100.0
 30
0.0
 11
-146.9999824760000138
 21
125.0
 31
0.0
  0
LINE
  5
13D
100
AcDbEntity
  8
0
 62
0
370
-1
 48
1.0
  6
BYLAYER
100
AcDbLine
 10
-146.9999824760000138
 20
100.0
 30
0.0
 11
-149.9999824760000138
 21
100.0
 31
0.0
  0
LINE
  5
13E
100
AcDbEntity
  8
0
 62
0
370
-1
 48
1.0
  6
BYLAYER
100
AcDbLine
 10
-149.9999824760000138
 20
100.0
 30
0.0
 11
-149.9999824760000138
 21
60.0
 31
0.0
  0
LINE
  5
13F
100
AcDbEntity
  8
0
 62
0
370
-1
 48
1.0
  6
BYLAYER
100
AcDbLine
 10
-149.9999824760000138
 20
60.0
 30
0.0
 11
-146.9999824760000138
 21
60.0
 31
0.0
  0
LINE
  5
140
100
AcDbEntity
  8
0
 62
0
370
-1
 48
1.0
  6
BYLAYER
100
AcDbLine
 10
-146.9999824760000138
 20
20.0
 30
0.0
 11
-146.9999824760000138
 21
60.0
 31
0.0
  0
LINE
  5
141
100
AcDbEntity
  8
0
 62
0
370
-1
 48
1.0
  6
BYLAYER
100
AcDbLine
 10
-146.9999824760000138
 20
20.0
 30
0.0
 11
-149.9999824760000138
 21
20.0
 31
0.0
  0
LINE
  5
142
100
AcDbEntity
  8
0
 62
0
370
-1
 48
1.0
  6
BYLAYER
100
AcDbLine
 10
-149.9999824760000138
 20
20.0
 30
0.0
 11
-149.9999824760000138
 21
-20.0
 31
0.0
  0
LINE
  5
143
100
AcDbEntity
  8
0
 62
0
370
-1
 48
1.0
  6
BYLAYER
100
AcDbLine
 10
-149.9999824760000138
 20
-20.0
 30
0.0
 11
-146.9999824760000138
 21
-20.0
 31
0.0
  0
LINE
  5
144
100
AcDbEntity
  8
0
 62
0
370
-1
 48
1.0
  6
BYLAYER
100
AcDbLine
 10
-146.9999824760000138
 20
-60.0
 30
0.0
 11
-146.9999824760000138
 21
-20.0
 31
0.0
  0
LINE
  5
145
100
AcDbEntity
  8
0
 62
0
370
-1
 48
1.0
  6
BYLAYER
100
AcDbLine
 10
-146.9999824760000138
 20
-60.0
 30
0.0
 11
-149.9999824760000138
 21
-60.0
 31
0.0
  0
LINE
  5
146
100
AcDbEntity
  8
0
 62
0
370
-1
 48
1.0
  6
BYLAYER
100
AcDbLine
 10
-149.9999824760000138
 20
-60.0
 30
0.0
 11
-149.9999824760000138
 21
-100.0
 31
0.0
  0
LINE
  5
147
100
AcDbEntity
  8
0
 62
0
370
-1
 48
1.0
  6
BYLAYER
100
AcDbLine
 10
-149.9999824760000138
 20
-100.0
 30
0.0
 11
-146.9999824760000138
 21
-100.0
 31
0.0
  0
LINE
  5
148
100
AcDbEntity
  8
0
 62
0
370
-1
 48
1.0
  6
BYLAYER
100
AcDbLine
 10
-146.9999824760000138
 20
-100.0
 30
0.0
 11
-146.9999824760000138
 21
-125.0
 31
0.0
  0
LINE
  5
149
100
AcDbEntity
  8
0
 62
0
370
-1
 48
1.0
  6
BYLAYER
100
AcDbLine
 10
-146.9999824760000138
 20
-125.0
 30
0.0
 11
-59.9999824762000031
 21
-125.0
 31
0.0
  0
LINE
  5
14A
100
AcDbEntity
  8
0
 62
0
370
-1
 48
1.0
  6
BYLAYER
100
AcDbLine
 10
-59.9999824762000031
 20
-125.0
 30
0.0
 11
-59.9999824762000031
 21
-122.0
 31
0.0
  0
LINE
  5
14B
100
AcDbEntity
  8
0
 62
0
370
-1
 48
1.0
  6
BYLAYER
100
AcDbLine
 10
-59.9999824762000031
 20
-122.0
 30
0.0
 11
-19.9999824761999996
 21
-122.0
 31
0.0
  0
LINE
  5
14C
100
AcDbEntity
  8
0
 62
0
370
-1
 48
1.0
  6
BYLAYER
100
AcDbLine
 10
-19.9999824761999996
 20
-122.0
 30
0.0
 11
-19.9999824761999996
 21
-125.0
 31
0.0
  0
LINE
  5
14D
100
AcDbEntity
  8
0
 62
0
370
-1
 48
1.0
  6
BYLAYER
100
AcDbLine
 10
-19.9999824761999996
 20
-125.0
 30
0.0
 11
20.0000175238000004
 21
-125.0
 31
0.0
  0
LINE
  5
14E
100
AcDbEntity
  8
0
 62
0
370
-1
 48
1.0
  6
BYLAYER
100
AcDbLine
 10
20.0000175238000004
 20
-125.0
 30
0.0
 11
20.0000175238000004
 21
-122.0
 31
0.0
  0
LINE
  5
14F
100
AcDbEntity
  8
0
 62
0
370
-1
 48
1.0
  6
BYLAYER
100
AcDbLine
 10
20.0000175238000004
 20
-122.0
 30
0.0
 11
60.0000175237999969
 21
-122.0
 31
0.0
  0
LINE
  5
150
100
AcDbEntity
  8
0
 62
0
370
-1
 48
1.0
  6
BYLAYER
100
AcDbLine
 10
60.0000175237999969
 20
-122.0
 30
0.0
 11
60.0000175237999969
 21
-125.0
 31
0.0
  0
LINE
  5
151
100
AcDbEntity
  8
0
 62
0
370
-1
 48
1.0
  6
BYLAYER
100
AcDbLine
 10
60.0000175237999969
 20
-125.0
 30
0.0
 11
147.0000175239999862
 21
-125.0
 31
0.0
  0
LINE
  5
152
100
AcDbEntity
  8
0
 62
0
370
-1
 48
1.0
  6
BYLAYER
100
AcDbLine
 10
147.0000175239999862
 20
-100.0
 30
0.0
 11
147.0000175239999862
 21
-125.0
 31
0.0
  0
LINE
  5
153
100
AcDbEntity
  8
0
 62
0
370
-1
 48
1.0
  6
BYLAYER
100
AcDbLine
 10
150.0000175239999862
 20
-100.0
 30
0.0
 11
147.0000175239999862
 21
-100.0
 31
0.0
  0
LINE
  5
154
100
AcDbEntity
  8
0
 62
0
370
-1
 48
1.0
  6
BYLAYER
100
AcDbLine
 10
150.0000175239999862
 20
-60.0
 30
0.0
 11
150.0000175239999862
 21
-100.0
 31
0.0
  0
LINE
  5
155
100
AcDbEntity
  8
0
 62
0
370
-1
 48
1.0
  6
BYLAYER
100
AcDbLine
 10
147.0000175239999862
 20
-60.0
 30
0.0
 11
150.0000175239999862
 21
-60.0
 31
0.0
  0
LINE
  5
156
100
AcDbEntity
  8
0
 62
0
370
-1
 48
1.0
  6
BYLAYER
100
AcDbLine
 10
147.0000175239999862
 20
-60.0
 30
0.0
 11
147.0000175239999862
 21
-20.0
 31
0.0
  0
LINE
  5
157
100
AcDbEntity
  8
0
 62
0
370
-1
 48
1.0
  6
BYLAYER
100
AcDbLine
 10
150.0000175239999862
 20
-20.0
 30
0.0
 11
147.0000175239999862
 21
-20.0
 31
0.0
  0
LINE
  5
158
100
AcDbEntity
  8
0
 62
0
370
-1
 48
1.0
  6
BYLAYER
100
AcDbLine
 10
95.0000175237999969
 20
60.0
 30
0.0
 11
92.0000175237999969
 21
60.0
 31
0.0
  0
LINE
  5
159
100
AcDbEntity
  8
0
 62
0
370
-1
 48
1.0
  6
BYLAYER
100
AcDbLine
 10
95.0000175237999969
 20
100.0
 30
0.0
 11
95.0000175237999969
 21
60.0
 31
0.0
  0
LINE
  5
15A
100
AcDbEntity
  8
0
 62
0
370
-1
 48
1.0
  6
BYLAYER
100
AcDbLine
 10
92.0000175237999969
 20
60.0
 30
0.0
 11
92.0000175237999969
 21
100.0
 31
0.0
  0
LINE
  5
15B
100
AcDbEntity
  8
0
 62
0
370
-1
 48
1.0
  6
BYLAYER
100
AcDbLine
 10
92.0000175237999969
 20
100.0
 30
0.0
 11
95.0000175237999969
 21
100.0
 31
0.0
  0
LINE
  5
15C
100
AcDbEntity
  8
0
 62
0
370
-1
 48
1.0
  6
BYLAYER
100
AcDbLine
 10
95.0000175237999969
 20
-20.0
 30
0.0
 11
92.0000175237999969
 21
-20.0
 31
0.0
  0
LINE
  5
15D
100
AcDbEntity
  8
0
 62
0
370
-1
 48
1.0
  6
BYLAYER
100
AcDbLine
 10
95.0000175237999969
 20
20.0
 30
0.0
 11
95.0000175237999969
 21
-20.0
 31
0.0
  0
LINE
  5
15E
100
AcDbEntity
  8
0
 62
0
370
-1
 48
1.0
  6
BYLAYER
100
AcDbLine
 10
92.0000175237999969
 20
-20.0
 30
0.0
 11
92.0000175237999969
 21
20.0
 31
0.0
  0
LINE
  5
15F
100
AcDbEntity
  8
0
 62
0
370
-1
 48
1.0
  6
BYLAYER
100
AcDbLine
 10
92.0000175237999969
 20
20.0
 30
0.0
 11
95.0000175237999969
 21
20.0
 31
0.0
  0
LINE
  5
160
100
AcDbEntity
  8
0
 62
0
370
-1
 48
1.0
  6
BYLAYER
100
AcDbLine
 10
95.0000175237999969
 20
-100.0
 30
0.0
 11
92.0000175237999969
 21
-100.0
 31
0.0
  0
LINE
  5
161
100
AcDbEntity
  8
0
 62
0
370
-1
 48
1.0
  6
BYLAYER
100
AcDbLine
 10
95.0000175237999969
 20
-60.0
 30
0.0
 11
95.0000175237999969
 21
-100.0
 31
0.0
  0
LINE
  5
162
100
AcDbEntity
  8
0
 62
0
370
-1
 48
1.0
  6
BYLAYER
100
AcDbLine
 10
92.0000175237999969
 20
-100.0
 30
0.0
 11
92.0000175237999969
 21
-60.0
 31
0.0
  0
LINE
  5
163
100
AcDbEntity
  8
0
 62
0
370
-1
 48
1.0
  6
BYLAYER
100
AcDbLine
 10
92.0000175237999969
 20
-60.0
 30
0.0
 11
95.0000175237999969
 21
-60.0
 31
0.0
  0
ENDBLK
  5
164
100
AcDbEntity
  8
0
100
AcDbBlockEnd
  0
BLOCK
  5
165
100
AcDbEntity
  8
0
100
AcDbBlockBegin
  2
BODY015
 70
0
 10
0.0
 20
0.0
 30
0.0
  3
BODY015
  1

  0
CIRCLE
  5
166
100
AcDbEntity
  8
0
 62
0
370
-1
 48
1.0
  6
BYLAYER
100
AcDbCircle
 10
0.0
 20
0.0
 30
0.0
 40
75.0
  0
ENDBLK
  5
167
100
AcDbEntity
  8
0
100
AcDbBlockEnd
  0
BLOCK
  5
168
100
AcDbEntity
  8
0
100
AcDbBlockBegin
  2
BODY016
 70
0
 10
0.0
 20
0.0
 30
0.0
  3
BODY016
  1

  0
CIRCLE
  5
169
100
AcDbEntity
  8
0
 62
0
370
-1
 48
1.0
  6
BYLAYER
100
AcDbCircle
 10
0.0
 20
0.0
 30
0.0
 40
22.0
  0
LINE
  5
16A
100
AcDbEntity
  8
0
 62
0
370
-1
 48
1.0
  6
BYLAYER
100
AcDbLine
 10
6.6143782776600002
 20
4.5
 30
0.0
 11
15.5129274475999992
 21
2.95582567711
 31
0.0
  0
ARC
  5
16B
100
AcDbEntity
  8
0
 62
0
370
-1
 48
1.0
  6
BYLAYER
100
AcDbCircle
 10
15.0
 20
-0.0000000000000001
 30
0.0
 40
3.0
100
AcDbArc
 50
-80.1554401102000043
 51
80.1554401102000043
  0
LINE
  5
16C
100
AcDbEntity
  8
0
 62
0
370
-1
 48
1.0
  6
BYLAYER
100
AcDbLine
 10
15.5129274475999992
 20
-2.95582567711
 30
0.0
 11
6.6143782776600002
 21
-4.5
 31
0.0
  0
LINE
  5
16D
100
AcDbEntity
  8
0
 62
0
370
-1
 48
1.0
  6
BYLAYER
100
AcDbLine
 10
6.6143782776600002
 20
-4.5
 30
0.0
 11
4.5
 21
-6.6143782776600002
 31
0.0
  0
LINE
  5
16E
100
AcDbEntity
  8
0
 62
0
370
-1
 48
1.0
  6
BYLAYER
100
AcDbLine
 10
4.5
 20
-6.6143782776600002
 30
0.0
 11
2.95582567711
 21
-15.5129274475999992
 31
0.0
  0
ARC
  5
16F
100
AcDbEntity
  8
0
 62
0
370
-1
 48
1.0
  6
BYLAYER
100
AcDbCircle
 10
-0.0000000000000004
 20
-15.0
 30
0.0
 40
3.0
100
AcDbArc
 50
-170.1554401100000007
 51
-9.8445598898100002
  0
LINE
  5
170
100
AcDbEntity
  8
0
 62
0
370
-1
 48
1.0
  6
BYLAYER
100
AcDbLine
 10
-2.95582567711
 20
-15.5129274475999992
 30
0.0
 11
-4.5
 21
-6.6143782776600002
 31
0.0
  0
LINE
  5
171
100
AcDbEntity
  8
0
 62
0
370
-1
 48
1.0
  6
BYLAYER
100
AcDbLine
 10
-4.5
 20
-6.6143782776600002
 30
0.0
 11
-6.6143782776600002
 21
-4.5
 31
0.0
  0
LINE
  5
172
100
AcDbEntity
  8
0
 62
0
370
-1
 48
1.0
  6
BYLAYER
100
AcDbLine
 10
-6.6143782776600002
 20
-4.5
 30
0.0
 11
-15.5129274475999992
 21
-2.95582567711
 31
0.0
  0
ARC
  5
173
100
AcDbEntity
  8
0
 62
0
370
-1
 48
1.0
  6
BYLAYER
100
AcDbCircle
 10
-15.0
 20
0.0
 30
0.0
 40
3.0
100
AcDbArc
 50
99.84455988980001
 51
-99.84455988980001
  0
LINE
  5
174
100
AcDbEntity
  8
0
 62
0
370
-1
 48
1.0
  6
BYLAYER
100
AcDbLine
 10
-15.5129274475999992
 20
2.95582567711
 30
0.0
 11
-6.6143782776600002
 21
4.5
 31
0.0
  0
LINE
  5
175
100
AcDbEntity
  8
0
 62
0
370
-1
 48
1.0
  6
BYLAYER
100
AcDbLine
 10
-6.6143782776600002
 20
4.5
 30
0.0
 11
-4.5
 21
6.6143782776600002
 31
0.0
  0
LINE
  5
176
100
AcDbEntity
  8
0
 62
0
370
-1
 48
1.0
  6
BYLAYER
100
AcDbLine
 10
-4.5
 20
6.6143782776600002
 30
0.0
 11
-2.95582567711
 21
15.5129274475999992
 31
0.0
  0
ARC
  5
177
100
AcDbEntity
  8
0
 62
0
370
-1
 48
1.0
  6
BYLAYER
100
AcDbCircle
 10
0.0000000000000001
 20
15.0
 30
0.0
 40
3.0
100
AcDbArc
 50
9.8445598898100002
 51
170.1554401100000007
  0
LINE
  5
178
100
AcDbEntity
  8
0
 62
0
370
-1
 48
1.0
  6
BYLAYER
100
AcDbLine
 10
2.95582567711
 20
15.5129274475999992
 30
0.0
 11
4.5
 21
6.6143782776600002
 31
0.0
  0
LINE
  5
179
100
AcDbEntity
  8
0
 62
0
370
-1
 48
1.0
  6
BYLAYER
100
AcDbLine
 10
4.5
 20
6.6143782776600002
 30
0.0
 11
6.6143782776600002
 21
4.5
 31
0.0
  0
ENDBLK
  5
17A
100
AcDbEntity
  8
0
100
AcDbBlockEnd
  0
BLOCK
  5
17B
100
AcDbEntity
  8
0
100
AcDbBlockBegin
  2
BODY017
 70
0
 10
0.0
 20
0.0
 30
0.0
  3
BODY017
  1

  0
ARC
  5
17C
100
AcDbEntity
  8
0
 62
0
370
-1
 48
1.0
  6
BYLAYER
100
AcDbCircle
 10
-0.0000000000000027
 20
80.0
 30
0.0
 40
15.0
100
AcDbArc
 50
-180.0
 51
0.0
  0
LINE
  5
17D
100
AcDbEntity
  8
0
 62
0
370
-1
 48
1.0
  6
BYLAYER
100
AcDbLine
 10
15.0
 20
80.0
 30
0.0
 11
-15.0
 21
80.0
 31
0.0
  0
LINE
  5
17E
100
AcDbEntity
  8
0
 62
0
370
-1
 48
1.0
  6
BYLAYER
100
AcDbLine
 10
-8.6602540378399997
 20
75.0
 30
0.0
 11
8.6602540378399997
 21
75.0
 31
0.0
  0
ARC
  5
17F
100
AcDbEntity
  8
0
 62
0
370
-1
 48
1.0
  6
BYLAYER
100
AcDbCircle
 10
-0.0000000000000027
 20
80.0
 30
0.0
 40
10.0
100
AcDbArc
 50
-150.0
 51
-30.0
  0
ENDBLK
  5
180
100
AcDbEntity
  8
0
100
AcDbBlockEnd
  0
BLOCK
  5
181
100
AcDbEntity
  8
0
100
AcDbBlockBegin
  2
BODY006
 70
0
 10
0.0
 20
0.0
 30
0.0
  3
BODY006
  1

  0
LINE
  5
182
100
AcDbEntity
  8
0
 62
0
370
-1
 48
1.0
  6
BYLAYER
100
AcDbLine
 10
-122.0
 20
-60.0
 30
0.0
 11
-122.0
 21
-20.0
 31
0.0
  0
LINE
  5
183
100
AcDbEntity
  8
0
 62
0
370
-1
 48
1.0
  6
BYLAYER
100
AcDbLine
 10
-122.0
 20
-20.0
 30
0.0
 11
-125.0
 21
-20.0
 31
0.0
  0
LINE
  5
184
100
AcDbEntity
  8
0
 62
0
370
-1
 48
1.0
  6
BYLAYER
100
AcDbLine
 10
-122.0
 20
-147.0
 30
0.0
 11
-122.0
 21
-100.0
 31
0.0
  0
LINE
  5
185
100
AcDbEntity
  8
0
 62
0
370
-1
 48
1.0
  6
BYLAYER
100
AcDbLine
 10
-100.0
 20
-147.0
 30
0.0
 11
-122.0
 21
-147.0
 31
0.0
  0
LINE
  5
186
100
AcDbEntity
  8
0
 62
0
370
-1
 48
1.0
  6
BYLAYER
100
AcDbLine
 10
-122.0
 20
-100.0
 30
0.0
 11
-125.0
 21
-100.0
 31
0.0
  0
LINE
  5
187
100
AcDbEntity
  8
0
 62
0
370
-1
 48
1.0
  6
BYLAYER
100
AcDbLine
 10
-100.0
 20
-147.0
 30
0.0
 11
-100.0
 21
-150.0
 31
0.0
  0
LINE
  5
188
100
AcDbEntity
  8
0
 62
0
370
-1
 48
1.0
  6
BYLAYER
100
AcDbLine
 10
-125.0
 20
-100.0
 30
0.0
 11
-125.0
 21
-60.0
 31
0.0
  0
LINE
  5
189
100
AcDbEntity
  8
0
 62
0
370
-1
 48
1.0
  6
BYLAYER
100
AcDbLine
 10
-100.0
 20
-150.0
 30
0.0
 11
-60.0
 21
-150.0
 31
0.0
  0
LINE
  5
18A
100
AcDbEntity
  8
0
 62
0
370
-1
 48
1.0
  6
BYLAYER
100
AcDbLine
 10
-125.0
 20
-60.0
 30
0.0
 11
-122.0
 21
-60.0
 31
0.0
  0
LINE
  5
18B
100
AcDbEntity
  8
0
 62
0
370
-1
 48
1.0
  6
BYLAYER
100
AcDbLine
 10
-60.0
 20
-150.0
 30
0.0
 11
-60.0
 21
-147.0
 31
0.0
  0
LINE
  5
18C
100
AcDbEntity
  8
0
 62
0
370
-1
 48
1.0
  6
BYLAYER
100
AcDbLine
 10
-20.0
 20
-147.0
 30
0.0
 11
-60.0
 21
-147.0
 31
0.0
  0
LINE
  5
18D
100
AcDbEntity
  8
0
 62
0
370
-1
 48
1.0
  6
BYLAYER
100
AcDbLine
 10
-20.0
 20
-147.0
 30
0.0
 11
-20.0
 21
-150.0
 31
0.0
  0
LINE
  5
18E
100
AcDbEntity
  8
0
 62
0
370
-1
 48
1.0
  6
BYLAYER
100
AcDbLine
 10
-125.0
 20
-20.0
 30
0.0
 11
-125.0
 21
20.0
 31
0.0
  0
LINE
  5
18F
100
AcDbEntity
  8
0
 62
0
370
-1
 48
1.0
  6
BYLAYER
100
AcDbLine
 10
-20.0
 20
-150.0
 30
0.0
 11
20.0
 21
-150.0
 31
0.0
  0
LINE
  5
190
100
AcDbEntity
  8
0
 62
0
370
-1
 48
1.0
  6
BYLAYER
100
AcDbLine
 10
-125.0
 20
20.0
 30
0.0
 11
-122.0
 21
20.0
 31
0.0
  0
LINE
  5
191
100
AcDbEntity
  8
0
 62
0
370
-1
 48
1.0
  6
BYLAYER
100
AcDbLine
 10
20.0
 20
-150.0
 30
0.0
 11
20.0
 21
-147.0
 31
0.0
  0
LINE
  5
192
100
AcDbEntity
  8
0
 62
0
370
-1
 48
1.0
  6
BYLAYER
100
AcDbLine
 10
-122.0
 20
20.0
 30
0.0
 11
-122.0
 21
60.0
 31
0.0
  0
LINE
  5
193
100
AcDbEntity
  8
0
 62
0
370
-1
 48
1.0
  6
BYLAYER
100
AcDbLine
 10
60.0
 20
-147.0
 30
0.0
 11
20.0
 21
-147.0
 31
0.0
  0
LINE
  5
194
100
AcDbEntity
  8
0
 62
0
370
-1
 48
1.0
  6
BYLAYER
100
AcDbLine
 10
-125.0
 20
60.0
 30
0.0
 11
-122.0
 21
60.0
 31
0.0
  0
LINE
  5
195
100
AcDbEntity
  8
0
 62
0
370
-1
 48
1.0
  6
BYLAYER
100
AcDbLine
 10
60.0
 20
-147.0
 30
0.0
 11
60.0
 21
-150.0
 31
0.0
  0
LINE
  5
196
100
AcDbEntity
  8
0
 62
0
370
-1
 48
1.0
  6
BYLAYER
100
AcDbLine
 10
-125.0
 20
100.0
 30
0.0
 11
-125.0
 21
60.0
 31
0.0
  0
LINE
  5
197
100
AcDbEntity
  8
0
 62
0
370
-1
 48
1.0
  6
BYLAYER
100
AcDbLine
 10
60.0
 20
-150.0
 30
0.0
 11
100.0
 21
-150.0
 31
0.0
  0
LINE
  5
198
100
AcDbEntity
  8
0
 62
0
370
-1
 48
1.0
  6
BYLAYER
100
AcDbLine
 10
-122.0
 20
100.0
 30
0.0
 11
-125.0
 21
100.0
 31
0.0
  0
LINE
  5
199
100
AcDbEntity
  8
0
 62
0
370
-1
 48
1.0
  6
BYLAYER
100
AcDbLine
 10
100.0
 20
-150.0
 30
0.0
 11
100.0
 21
-147.0
 31
0.0
  0
LINE
  5
19A
100
AcDbEntity
  8
0
 62
0
370
-1
 48
1.0
  6
BYLAYER
100
AcDbLine
 10
-122.0
 20
100.0
 30
0.0
 11
-122.0
 21
147.0
 31
0.0
  0
LINE
  5
19B
100
AcDbEntity
  8
0
 62
0
370
-1
 48
1.0
  6
BYLAYER
100
AcDbLine
 10
122.0
 20
-147.0
 30
0.0
 11
100.0
 21
-147.0
 31
0.0
  0
LINE
  5
19C
100
AcDbEntity
  8
0
 62
0
370
-1
 48
1.0
  6
BYLAYER
100
AcDbLine
 10
-122.0
 20
147.0
 30
0.0
 11
-100.0
 21
147.0
 31
0.0
  0
LINE
  5
19D
100
AcDbEntity
  8
0
 62
0
370
-1
 48
1.0
  6
BYLAYER
100
AcDbLine
 10
122.0
 20
-100.0
 30
0.0
 11
122.0
 21
-147.0
 31
0.0
  0
LINE
  5
19E
100
AcDbEntity
  8
0
 62
0
370
-1
 48
1.0
  6
BYLAYER
100
AcDbLine
 10
-100.0
 20
147.0
 30
0.0
 11
-100.0
 21
150.0
 31
0.0
  0
LINE
  5
19F
100
AcDbEntity
  8
0
 62
0
370
-1
 48
1.0
  6
BYLAYER
100
AcDbLine
 10
122.0
 20
-100.0
 30
0.0
 11
125.0
 21
-100.0
 31
0.0
  0
LINE
  5
1A0
100
AcDbEntity
  8
0
 62
0
370
-1
 48
1.0
  6
BYLAYER
100
AcDbLine
 10
-100.0
 20
150.0
 30
0.0
 11
-60.0
 21
150.0
 31
0.0
  0
LINE
  5
1A1
100
AcDbEntity
  8
0
 62
0
370
-1
 48
1.0
  6
BYLAYER
100
AcDbLine
 10
125.0
 20
-100.0
 30
0.0
 11
125.0
 21
-60.0
 31
0.0
  0
LINE
  5
1A2
100
AcDbEntity
  8
0
 62
0
370
-1
 48
1.0
  6
BYLAYER
100
AcDbLine
 10
-60.0
 20
150.0
 30
0.0
 11
-60.0
 21
147.0
 31
0.0
  0
LINE
  5
1A3
100
AcDbEntity
  8
0
 62
0
370
-1
 48
1.0
  6
BYLAYER
100
AcDbLine
 10
125.0
 20
-60.0
 30
0.0
 11
122.0
 21
-60.0
 31
0.0
  0
LINE
  5
1A4
100
AcDbEntity
  8
0
 62
0
370
-1
 48
1.0
  6
BYLAYER
100
AcDbLine
 10
-60.0
 20
147.0
 30
0.0
 11
-20.0
 21
147.0
 31
0.0
  0
LINE
  5
1A5
100
AcDbEntity
  8
0
 62
0
370
-1
 48
1.0
  6
BYLAYER
100
AcDbLine
 10
122.0
 20
-20.0
 30
0.0
 11
122.0
 21
-60.0
 31
0.0
  0
LINE
  5
1A6
100
AcDbEntity
  8
0
 62
0
370
-1
 48
1.0
  6
BYLAYER
100
AcDbLine
 10
-20.0
 20
147.0
 30
0.0
 11
-20.0
 21
150.0
 31
0.0
  0
LINE
  5
1A7
100
AcDbEntity
  8
0
 62
0
370
-1
 48
1.0
  6
BYLAYER
100
AcDbLine
 10
122.0
 20
-20.0
 30
0.0
 11
125.0
 21
-20.0
 31
0.0
  0
LINE
  5
1A8
100
AcDbEntity
  8
0
 62
0
370
-1
 48
1.0
  6
BYLAYER
100
AcDbLine
 10
-20.0
 20
150.0
 30
0.0
 11
20.0
 21
150.0
 31
0.0
  0
LINE
  5
1A9
100
AcDbEntity
  8
0
 62
0
370
-1
 48
1.0
  6
BYLAYER
100
AcDbLine
 10
125.0
 20
-20.0
 30
0.0
 11
125.0
 21
20.0
 31
0.0
  0
LINE
  5
1AA
100
AcDbEntity
  8
0
 62
0
370
-1
 48
1.0
  6
BYLAYER
100
AcDbLine
 10
20.0
 20
150.0
 30
0.0
 11
20.0
 21
147.0
 31
0.0
  0
LINE
  5
1AB
100
AcDbEntity
  8
0
 62
0
370
-1
 48
1.0
  6
BYLAYER
100
AcDbLine
 10
125.0
 20
20.0
 30
0.0
 11
122.0
 21
20.0
 31
0.0
  0
LINE
  5
1AC
100
AcDbEntity
  8
0
 62
0
370
-1
 48
1.0
  6
BYLAYER
100
AcDbLine
 10
20.0
 20
147.0
 30
0.0
 11
60.0
 21
147.0
 31
0.0
  0
LINE
  5
1AD
100
AcDbEntity
  8
0
 62
0
370
-1
 48
1.0
  6
BYLAYER
100
AcDbLine
 10
122.0
 20
60.0
 30
0.0
 11
122.0
 21
20.0
 31
0.0
  0
LINE
  5
1AE
100
AcDbEntity
  8
0
 62
0
370
-1
 48
1.0
  6
BYLAYER
100
AcDbLine
 10
60.0
 20
147.0
 30
0.0
 11
60.0
 21
150.0
 31
0.0
  0
LINE
  5
1AF
100
AcDbEntity
  8
0
 62
0
370
-1
 48
1.0
  6
BYLAYER
100
AcDbLine
 10
125.0
 20
60.0
 30
0.0
 11
122.0
 21
60.0
 31
0.0
  0
LINE
  5
1B0
100
AcDbEntity
  8
0
 62
0
370
-1
 48
1.0
  6
BYLAYER
100
AcDbLine
 10
60.0
 20
150.0
 30
0.0
 11
100.0
 21
150.0
 31
0.0
  0
LINE
  5
1B1
100
AcDbEntity
  8
0
 62
0
370
-1
 48
1.0
  6
BYLAYER
100
AcDbLine
 10
125.0
 20
100.0
 30
0.0
 11
125.0
 21
60.0
 31
0.0
  0
LINE
  5
1B2
100
AcDbEntity
  8
0
 62
0
370
-1
 48
1.0
  6
BYLAYER
100
AcDbLine
 10
100.0
 20
150.0
 30
0.0
 11
100.0
 21
147.0
 31
0.0
  0
LINE
  5
1B3
100
AcDbEntity
  8
0
 62
0
370
-1
 48
1.0
  6
BYLAYER
100
AcDbLine
 10
122.0
 20
100.0
 30
0.0
 11
125.0
 21
100.0
 31
0.0
  0
LINE
  5
1B4
100
AcDbEntity
  8
0
 62
0
370
-1
 48
1.0
  6
BYLAYER
100
AcDbLine
 10
100.0
 20
147.0
 30
0.0
 11
122.0
 21
147.0
 31
0.0
  0
LINE
  5
1B5
100
AcDbEntity
  8
0
 62
0
370
-1
 48
1.0
  6
BYLAYER
100
AcDbLine
 10
122.0
 20
147.0
 30
0.0
 11
122.0
 21
100.0
 31
0.0
  0
LINE
  5
1B6
100
AcDbEntity
  8
0
 62
0
370
-1
 48
1.0
  6
BYLAYER
100
AcDbLine
 10
3.0
 20
-134.0
 30
0.0
 11
6.0
 21
-134.0
 31
0.0
  0
LINE
  5
1B7
100
AcDbEntity
  8
0
 62
0
370
-1
 48
1.0
  6
BYLAYER
100
AcDbLine
 10
3.0
 20
-140.0
 30
0.0
 11
3.0
 21
-134.0
 31
0.0
  0
LINE
  5
1B8
100
AcDbEntity
  8
0
 62
0
370
-1
 48
1.0
  6
BYLAYER
100
AcDbLine
 10
6.0
 20
-134.0
 30
0.0
 11
6.0
 21
-140.0
 31
0.0
  0
LINE
  5
1B9
100
AcDbEntity
  8
0
 62
0
370
-1
 48
1.0
  6
BYLAYER
100
AcDbLine
 10
6.0
 20
-140.0
 30
0.0
 11
3.0
 21
-140.0
 31
0.0
  0
LINE
  5
1BA
100
AcDbEntity
  8
0
 62
0
370
-1
 48
1.0
  6
BYLAYER
100
AcDbLine
 10
-3.0
 20
-140.0
 30
0.0
 11
-3.0
 21
-134.0
 31
0.0
  0
LINE
  5
1BB
100
AcDbEntity
  8
0
 62
0
370
-1
 48
1.0
  6
BYLAYER
100
AcDbLine
 10
-6.0
 20
-140.0
 30
0.0
 11
-3.0
 21
-140.0
 31
0.0
  0
LINE
  5
1BC
100
AcDbEntity
  8
0
 62
0
370
-1
 48
1.0
  6
BYLAYER
100
AcDbLine
 10
-3.0
 20
-134.0
 30
0.0
 11
-6.0
 21
-134.0
 31
0.0
  0
LINE
  5
1BD
100
AcDbEntity
  8
0
 62
0
370
-1
 48
1.0
  6
BYLAYER
100
AcDbLine
 10
-6.0
 20
-134.0
 30
0.0
 11
-6.0
 21
-140.0
 31
0.0
  0
LINE
  5
1BE
100
AcDbEntity
  8
0
 62
0
370
-1
 48
1.0
  6
BYLAYER
100
AcDbLine
 10
-6.0
 20
-128.0
 30
0.0
 11
-6.0
 21
-122.0
 31
0.0
  0
LINE
  5
1BF
100
AcDbEntity
  8
0
 62
0
370
-1
 48
1.0
  6
BYLAYER
100
AcDbLine
 10
-3.0
 20
-128.0
 30
0.0
 11
-6.0
 21
-128.0
 31
0.0
  0
LINE
  5
1C0
100
AcDbEntity
  8
0
 62
0
370
-1
 48
1.0
  6
BYLAYER
100
AcDbLine
 10
-6.0
 20
-122.0
 30
0.0
 11
-3.0
 21
-122.0
 31
0.0
  0
LINE
  5
1C1
100
AcDbEntity
  8
0
 62
0
370
-1
 48
1.0
  6
BYLAYER
100
AcDbLine
 10
-3.0
 20
-122.0
 30
0.0
 11
-3.0
 21
-128.0
 31
0.0
  0
LINE
  5
1C2
100
AcDbEntity
  8
0
 62
0
370
-1
 48
1.0
  6
BYLAYER
100
AcDbLine
 10
3.0
 20
-122.0
 30
0.0
 11
3.0
 21
-128.0
 31
0.0
  0
LINE
  5
1C3
100
AcDbEntity
  8
0
 62
0
370
-1
 48
1.0
  6
BYLAYER
100
AcDbLine
 10
6.0
 20
-122.0
 30
0.0
 11
3.0
 21
-122.0
 31
0.0
  0
LINE
  5
1C4
100
AcDbEntity
  8
0
 62
0
370
-1
 48
1.0
  6
BYLAYER
100
AcDbLine
 10
3.0
 20
-128.0
 30
0.0
 11
6.0
 21
-128.0
 31
0.0
  0
LINE
  5
1C5
100
AcDbEntity
  8
0
 62
0
370
-1
 48
1.0
  6
BYLAYER
100
AcDbLine
 10
6.0
 20
-128.0
 30
0.0
 11
6.0
 21
-122.0
 31
0.0
  0
LINE
  5
1C6
100
AcDbEntity
  8
0
 62
0
370
-1
 48
1.0
  6
BYLAYER
100
AcDbLine
 10
10.0
 20
-112.0
 30
0.0
 11
-10.0
 21
-112.0
 31
0.0
  0
LINE
  5
1C7
100
AcDbEntity
  8
0
 62
0
370
-1
 48
1.0
  6
BYLAYER
100
AcDbLine
 10
10.0
 20
-110.0
 30
0.0
 11
10.0
 21
-112.0
 31
0.0
  0
LINE
  5
1C8
100
AcDbEntity
  8
0
 62
0
370
-1
 48
1.0
  6
BYLAYER
100
AcDbLine
 10
-10.0
 20
-110.0
 30
0.0
 11
10.0
 21
-110.0
 31
0.0
  0
LINE
  5
1C9
100
AcDbEntity
  8
0
 62
0
370
-1
 48
1.0
  6
BYLAYER
100
AcDbLine
 10
-10.0
 20
-112.0
 30
0.0
 11
-10.0
 21
-110.0
 31
0.0
  0
CIRCLE
  5
1CA
100
AcDbEntity
  8
0
 62
0
370
-1
 48
1.0
  6
BYLAYER
100
AcDbCircle
 10
0.0
 20
0.0
 30
0.0
 40
75.0
  0
ENDBLK
  5
1CB
100
AcDbEntity
  8
0
100
AcDbBlockEnd
  0
ENDSEC
  0
SECTION
  2
ENTITIES
  0
INSERT
  5
1CC
100
AcDbEntity
  8
0
 62
0
370
-1
 48
1.0
  6
BYLAYER
100
AcDbBlockReference
  2
BODY017
 10
149.1712754784911681
 20
-782.678590509382957
 30
0.0
 50
90.0
  0
INSERT
  5
1CD
100
AcDbEntity
  8
0
 62
0
370
-1
 48
1.0
  6
BYLAYER
100
AcDbBlockReference
  2
BODY017
 10
130.5268760912571224
 20
-784.1701424603616033
 30
0.0
 50
90.0
  0
INSERT
  5
1CE
100
AcDbEntity
  8
0
 62
0
370
-1
 48
1.0
  6
BYLAYER
100
AcDbBlockReference
  2
BODY017
 10
226.4022819357932121
 20
-780.6943013753329978
 30
0.0
 50
90.0
  0
INSERT
  5
1CF
100
AcDbEntity
  8
0
 62
0
370
-1
 48
1.0
  6
BYLAYER
100
AcDbBlockReference
  2
BODY017
 10
208.5925201383465719
 20
-780.6943013753329978
 30
0.0
 50
90.0
  0
INSERT
  5
1D0
100
AcDbEntity
  8
0
 62
0
370
-1
 48
1.0
  6
BYLAYER
100
AcDbBlockReference
  2
BODY017
 10
189.2726465909124727
 20
-782.3380910621083331
 30
0.0
 50
90.0
  0
INSERT
  5
1D1
100
AcDbEntity
  8
0
 62
0
370
-1
 48
1.0
  6
BYLAYER
100
AcDbBlockReference
  2
BODY017
 10
165.3374642633528993
 20
-781.5161962187206655
 30
0.0
 50
90.0
  0
INSERT
  5
1D2
100
AcDbEntity
  8
0
 62
0
370
-1
 48
1.0
  6
BYLAYER
100
AcDbBlockReference
  2
BODY008
 10
-10.9049732948828648
 20
-786.1769253740135355
 30
0.0
 50
90.0
  0
INSERT
  5
1D3
100
AcDbEntity
  8
0
 62
0
370
-1
 48
1.0
  6
BYLAYER
100
AcDbBlockReference
  2
BODY013
 10
-114.6625357366471007
 20
-721.5161962187205518
 30
0.0
 50
90.0
  0
INSERT
  5
1D4
100
AcDbEntity
  8
0
 62
0
370
-1
 48
1.0
  6
BYLAYER
100
AcDbBlockReference
  2
BODY013
 10
-144.6625357366471007
 20
-721.5161962187205518
 30
0.0
 50
90.0
  0
INSERT
  5
1D5
100
AcDbEntity
  8
0
 62
0
370
-1
 48
1.0
  6
BYLAYER
100
AcDbBlockReference
  2
BODY011
 10
-164.6625357366471007
 20
-771.5161962187205518
 30
0.0
 50
90.0
  0
INSERT
  5
1D6
100
AcDbEntity
  8
0
 62
0
370
-1
 48
1.0
  6
BYLAYER
100
AcDbBlockReference
  2
BODY011
 10
-134.6625357366471007
 20
-771.5161962187205518
 30
0.0
 50
90.0
  0
INSERT
  5
1D7
100
AcDbEntity
  8
0
 62
0
370
-1
 48
1.0
  6
BYLAYER
100
AcDbBlockReference
  2
BODY009
 10
-45.4651296923636608
 20
-786.1524114414860378
 30
0.0
 50
90.0
  0
INSERT
  5
1D8
100
AcDbEntity
  8
0
 62
0
370
-1
 48
1.0
  6
BYLAYER
100
AcDbBlockReference
  2
BODY009
 10
-79.9572685587465628
 20
-785.5309314619115639
 30
0.0
 50
90.0
  0
INSERT
  5
1D9
100
AcDbEntity
  8
0
 62
0
370
-1
 48
1.0
  6
BYLAYER
100
AcDbBlockReference
  2
BODY010
 10
24.4362506422523893
 20
-786.1954214954387226
 30
0.0
 50
90.0
  0
INSERT
  5
1DA
100
AcDbEntity
  8
0
 62
0
370
-1
 48
1.0
  6
BYLAYER
100
AcDbBlockReference
  2
BODY007
 10
-642.7136073143639123
 20
-589.2820497949733181
 30
0.0
  0
INSERT
  5
1DB
100
AcDbEntity
  8
0
 62
0
370
-1
 48
1.0
  6
BYLAYER
100
AcDbBlockReference
  2
BODY007
 10
-331.455808870296778
 20
-585.7903578008350678
 30
0.0
  0
INSERT
  5
1DC
100
AcDbEntity
  8
0
 62
0
370
-1
 48
1.0
  6
BYLAYER
100
AcDbBlockReference
  2
BODY014
 10
-641.6292290326335888
 20
-869.7454409279461061
 30
0.0
  0
INSERT
  5
1DD
100
AcDbEntity
  8
0
 62
0
370
-1
 48
1.0
  6
BYLAYER
100
AcDbBlockReference
  2
MIRRORED002
 10
-329.6582263567743212
 20
-876.8845373998076411
 30
0.0
 50
90.0
  0
INSERT
  5
1DE
100
AcDbEntity
  8
0
 62
0
370
-1
 48
1.0
  6
BYLAYER
100
AcDbBlockReference
  2
MIRRORED002
 10
-42.7136073143639123
 20
-589.2820497949733181
 30
0.0
  0
INSERT
  5
1DF
100
AcDbEntity
  8
0
 62
0
370
-1
 48
1.0
  6
BYLAYER
100
AcDbBlockReference
  2
BODY006
 10
217.6985132796952485
 20
-590.4960541514089982
 30
0.0
  0
ENDSEC
  0
SECTION
  2
OBJECTS
  0
DICTIONARY
  5
C
100
AcDbDictionary
280
0
281
1
  3
ACAD_GROUP
350
D
  3
ACAD_LAYOUT
350
1A
  3
ACAD_MLINESTYLE
350
17
  3
ACAD_PLOTSETTINGS
350
19
  3
ACAD_PLOTSTYLENAME
350
E
  3
AcDbVariableDictionary
350
1E0
  3
QCAD_OBJECTS
350
1E1
  0
DICTIONARY
  5
D
100
AcDbDictionary
280
0
281
1
  0
ACDBDICTIONARYWDFLT
  5
E
100
AcDbDictionary
281
1
  3
Normal
350
F
100
AcDbDictionaryWithDefault
340
F
  0
ACDBPLACEHOLDER
  5
F
  0
DICTIONARY
  5
17
100
AcDbDictionary
280
0
281
1
  3
Standard
350
18
  0
MLINESTYLE
  5
18
100
AcDbMlineStyle
  2
STANDARD
 70
0
  3

 62
256
 51
90.0
 52
90.0
 71
2
 49
0.5
 62
256
  6
BYLAYER
 49
-0.5
 62
256
  6
BYLAYER
  0
DICTIONARY
  5
19
100
AcDbDictionary
280
0
281
1
  0
DICTIONARY
  5
1A
100
AcDbDictionary
281
1
  3
Layout1
350
1E
  3
Layout2
350
26
  3
Model
350
22
  0
LAYOUT
  5
1E
100
AcDbPlotSettings
  1

  2
none_device
  4

  6

 40
0.0
 41
0.0
 42
0.0
 43
0.0
 44
0.0
 45
0.0
 46
0.0
 47
0.0
 48
0.0
 49
0.0
140
0.0
141
0.0
142
1.0
143
1.0
 70
688
 72
0
 73
0
 74
5
  7

 75
16
147
1.0
148
0.0
149
0.0
100
AcDbLayout
  1
Layout1
 70
1
 71
1
 10
0.0
 20
0.0
 11
420.0
 21
297.0
 12
0.0
 22
0.0
 32
0.0
 14
100000000000000000000.0
 24
100000000000000000000.0
 34
100000000000000000000.0
 15
-100000000000000000000.0
 25
-100000000000000000000.0
 35
-100000000000000000000.0
146
0.0
 13
0.0
 23
0.0
 33
0.0
 16
1.0
 26
0.0
 36
0.0
 17
0.0
 27
1.0
 37
0.0
 76
0
330
1B
  0
LAYOUT
  5
22
100
AcDbPlotSettings
  1

  2
none_device
  4

  6

 40
0.0
 41
0.0
 42
0.0
 43
0.0
 44
0.0
 45
0.0
 46
0.0
 47
0.0
 48
0.0
 49
0.0
140
0.0
141
0.0
142
1.0
143
1.0
 70
1712
 72
0
 73
0
 74
0
  7

 75
0
147
1.0
148
0.0
149
0.0
100
AcDbLayout
  1
Model
 70
1
 71
0
 10
0.0
 20
0.0
 11
12.0
 21
9.0
 12
0.0
 22
0.0
 32
0.0
 14
0.0
 24
0.0
 34
0.0
 15
0.0
 25
0.0
 35
0.0
146
0.0
 13
0.0
 23
0.0
 33
0.0
 16
1.0
 26
0.0
 36
0.0
 17
0.0
 27
1.0
 37
0.0
 76
0
330
1F
  0
LAYOUT
  5
26
100
AcDbPlotSettings
  1

  2
none_device
  4

  6

 40
0.0
 41
0.0
 42
0.0
 43
0.0
 44
0.0
 45
0.0
 46
0.0
 47
0.0
 48
0.0
 49
0.0
140
0.0
141
0.0
142
1.0
143
1.0
 70
688
 72
0
 73
0
 74
5
  7

 75
16
147
1.0
148
0.0
149
0.0
100
AcDbLayout
  1
Layout2
 70
1
 71
2
 10
0.0
 20
0.0
 11
12.0
 21
9.0
 12
0.0
 22
0.0
 32
0.0
 14
0.0
 24
0.0
 34
0.0
 15
0.0
 25
0.0
 35
0.0
146
0.0
 13
0.0
 23
0.0
 33
0.0
 16
1.0
 26
0.0
 36
0.0
 17
0.0
 27
1.0
 37
0.0
 76
0
330
23
  0
DICTIONARY
  5
1E0
100
AcDbDictionary
281
1
  3
DIMASSOC
350
1E3
  3
HIDETEXT
350
1E2
  0
DICTIONARYVAR
  5
1E2
100
DictionaryVariables
280
0
  1
2
  0
DICTIONARYVAR
  5
1E3
100
DictionaryVariables
280
0
  1
1
  0
DICTIONARY
  5
1E1
100
AcDbDictionary
281
1
  3
ColorSettings/BackgroundColor
350
1E4
  3
ColorSettings/ColorMode
350
1E5
  3
Grid/DisplayGrid00
350
1E6
  3
Grid/DisplayGrid01
350
1E7
  3
Grid/DisplayGrid02
350
1E8
  3
Grid/DisplayGrid03
350
1E9
  3
Grid/GridSpacingX00
350
1EA
  3
Grid/GridSpacingX01
350
1EB
  3
Grid/GridSpacingX02
350
1EC
  3
Grid/GridSpacingX03
350
1ED
  3
Grid/GridSpacingY00
350
1EE
  3
Grid/GridSpacingY01
350
1EF
  3
Grid/GridSpacingY02
350
1F0
  3
Grid/GridSpacingY03
350
1F1
  3
Grid/IsometricGrid00
350
1F2
  3
Grid/IsometricGrid01
350
1F3
  3
Grid/IsometricGrid02
350
1F4
  3
Grid/IsometricGrid03
350
1F5
  3
Grid/IsometricProjection00
350
1F6
  3
Grid/IsometricProjection01
350
1F7
  3
Grid/IsometricProjection02
350
1F8
  3
Grid/IsometricProjection03
350
1F9
  3
Grid/MetaGridSpacingX00
350
1FA
  3
Grid/MetaGridSpacingX01
350
1FB
  3
Grid/MetaGridSpacingX02
350
1FC
  3
Grid/MetaGridSpacingX03
350
1FD
  3
Grid/MetaGridSpacingY00
350
1FE
  3
Grid/MetaGridSpacingY01
350
1FF
  3
Grid/MetaGridSpacingY02
350
200
  3
Grid/MetaGridSpacingY03
350
201
  3
MultiPageSettings/Columns
350
202
  3
MultiPageSettings/GlueMarginsBottom
350
203
  3
MultiPageSettings/GlueMarginsLeft
350
204
  3
MultiPageSettings/GlueMarginsRight
350
205
  3
MultiPageSettings/GlueMarginsTop
350
206
  3
MultiPageSettings/PrintCropMarks
350
207
  3
MultiPageSettings/Rows
350
208
  3
PageSettings/OffsetX
350
209
  3
PageSettings/OffsetY
350
20A
  3
PageSettings/PageOrientation
350
20B
  3
PageSettings/PaperHeight
350
20C
  3
PageSettings/PaperSizeName
350
20D
  3
PageSettings/PaperWidth
350
20E
  3
PageSettings/Scale
350
20F
  3
PageSettings/ShowPaperBorders
350
210
  3
QCADVersion
350
211
  3
UnitSettings/PaperUnit
350
212
  3
ViewportCenter
350
213
  3
ViewportHeight
350
214
  3
ViewportWidth
350
215
  0
XRECORD
  5
1E4
330
1E1
100
AcDbXrecord
280
1
1000
Blanca
  0
XRECORD
  5
1E5
330
1E1
100
AcDbXrecord
280
1
1000
FullColor
  0
XRECORD
  5
1E6
330
1E1
100
AcDbXrecord
280
1
290
1
  0
XRECORD
  5
1E7
330
1E1
100
AcDbXrecord
280
1
290
1
  0
XRECORD
  5
1E8
330
1E1
100
AcDbXrecord
280
1
290
1
  0
XRECORD
  5
1E9
330
1E1
100
AcDbXrecord
280
1
290
1
  0
XRECORD
  5
1EA
330
1E1
100
AcDbXrecord
280
1
1000
auto
  0
XRECORD
  5
1EB
330
1E1
100
AcDbXrecord
280
1
1000
auto
  0
XRECORD
  5
1EC
330
1E1
100
AcDbXrecord
280
1
1000
auto
  0
XRECORD
  5
1ED
330
1E1
100
AcDbXrecord
280
1
1000
auto
  0
XRECORD
  5
1EE
330
1E1
100
AcDbXrecord
280
1
1000
auto
  0
XRECORD
  5
1EF
330
1E1
100
AcDbXrecord
280
1
1000
auto
  0
XRECORD
  5
1F0
330
1E1
100
AcDbXrecord
280
1
1000
auto
  0
XRECORD
  5
1F1
330
1E1
100
AcDbXrecord
280
1
1000
auto
  0
XRECORD
  5
1F2
330
1E1
100
AcDbXrecord
280
1
290
0
  0
XRECORD
  5
1F3
330
1E1
100
AcDbXrecord
280
1
290
0
  0
XRECORD
  5
1F4
330
1E1
100
AcDbXrecord
280
1
290
0
  0
XRECORD
  5
1F5
330
1E1
100
AcDbXrecord
280
1
290
0
  0
XRECORD
  5
1F6
330
1E1
100
AcDbXrecord
280
1
 90
0
  0
XRECORD
  5
1F7
330
1E1
100
AcDbXrecord
280
1
 90
0
  0
XRECORD
  5
1F8
330
1E1
100
AcDbXrecord
280
1
 90
0
  0
XRECORD
  5
1F9
330
1E1
100
AcDbXrecord
280
1
 90
0
  0
XRECORD
  5
1FA
330
1E1
100
AcDbXrecord
280
1
1000
auto
  0
XRECORD
  5
1FB
330
1E1
100
AcDbXrecord
280
1
1000
auto
  0
XRECORD
  5
1FC
330
1E1
100
AcDbXrecord
280
1
1000
auto
  0
XRECORD
  5
1FD
330
1E1
100
AcDbXrecord
280
1
1000
auto
  0
XRECORD
  5
1FE
330
1E1
100
AcDbXrecord
280
1
1000
auto
  0
XRECORD
  5
1FF
330
1E1
100
AcDbXrecord
280
1
1000
auto
  0
XRECORD
  5
200
330
1E1
100
AcDbXrecord
280
1
1000
auto
  0
XRECORD
  5
201
330
1E1
100
AcDbXrecord
280
1
1000
auto
  0
XRECORD
  5
202
330
1E1
100
AcDbXrecord
280
1
 90
1
  0
XRECORD
  5
203
330
1E1
100
AcDbXrecord
280
1
 40
10.0
  0
XRECORD
  5
204
330
1E1
100
AcDbXrecord
280
1
 40
10.0
  0
XRECORD
  5
205
330
1E1
100
AcDbXrecord
280
1
 40
10.0
  0
XRECORD
  5
206
330
1E1
100
AcDbXrecord
280
1
 40
10.0
  0
XRECORD
  5
207
330
1E1
100
AcDbXrecord
280
1
290
0
  0
XRECORD
  5
208
330
1E1
100
AcDbXrecord
280
1
 90
1
  0
XRECORD
  5
209
330
1E1
100
AcDbXrecord
280
1
1000
-811.036
  0
XRECORD
  5
20A
330
1E1
100
AcDbXrecord
280
1
1000
-1020.52
  0
XRECORD
  5
20B
330
1E1
100
AcDbXrecord
280
1
1000
Portrait
  0
XRECORD
  5
20C
330
1E1
100
AcDbXrecord
280
1
1000
600
  0
XRECORD
  5
20D
330
1E1
100
AcDbXrecord
280
1
1000
Personalizado
  0
XRECORD
  5
20E
330
1E1
100
AcDbXrecord
280
1
1000
1200
  0
XRECORD
  5
20F
330
1E1
100
AcDbXrecord
280
1
1000
1:1
  0
XRECORD
  5
210
330
1E1
100
AcDbXrecord
280
1
290
1
  0
XRECORD
  5
211
330
1E1
100
AcDbXrecord
280
1
1000
3.16.0
  0
XRECORD
  5
212
330
1E1
100
AcDbXrecord
280
1
 90
4
  0
XRECORD
  5
214
330
1E1
100
AcDbXrecord
280
1
 40
737.1917590395728439
  0
XRECORD
  5
215
330
1E1
100
AcDbXrecord
280
1
 40
1482.2498935567020908
  0
ENDSEC
  0
EOF
