  0
SECTION
  2
HEADER
  9
$ACADVER
  1
AC1009
  9
$INSBASE
 10
0.0
 20
0.0
 30
0.0
  9
$EXTMIN
 10
0.0
 20
0.0
 30
0.0
  9
$EXTMAX
 10
0.0
 20
0.0
 30
0.0
  0
ENDSEC
  0
SECTION
  2
TABLES
  0
TABLE
  2
VPORT
 70
0
  0
ENDTAB
  0
TABLE
  2
LTYPE
 70
1
  0
LTYPE
  2
CONTINUOUS
 70
0
  3
Solid line
 72
65
 73
0
 40
0.0
  0
ENDTAB
  0
TABLE
  2
LAYER
 70
1
  0
LAYER
  2
0
 70
64
 62
7
  6
continuous
  0
ENDTAB
  0
TABLE
  2
STYLE
 70
1
  0
STYLE
  2
STANDARD
 70
0
 40
0
 41
1.0
 50
0.0
 71
0
 42
1
 3
ARIAL.TTF
 4

  0
ENDTAB
  0
TABLE
  2
VIEW
 70
0
  0
ENDTAB
  0
ENDSEC
  0
SECTION
  2
BLOCKS
  0
BLOCK
  8
0
  2
POCKET013
 70
0
 10
0.0
 20
0.0
 30
0.0
  3
POCKET013
  0
POLYLINE
  8
0
 62
0
 70
0
 66
1
 10
0.0
 20
0.0
 30
0.0
  0
VERTEX
  8
0
 10
-6.00000017881
 20
-1.5
 30
0.0
  0
VERTEX
  8
0
 10
-5.95000943756
 20
-1.49916674382
 30
0.0
  0
VERTEX
  8
0
 10
-5.90007423643
 20
-1.49666790105
 30
0.0
  0
VERTEX
  8
0
 10
-5.85025005384
 20
-1.49250624792
 30
0.0
  0
VERTEX
  8
0
 10
-5.80059224488
 20
-1.48668640805
 30
0.0
  0
VERTEX
  8
0
 10
-5.75115597977
 20
-1.47921484734
 30
0.0
  0
VERTEX
  8
0
 10
-5.70199618262
 20
-1.47009986676
 30
0.0
  0
VERTEX
  8
0
 10
-5.65316747036
 20
-1.45935159312
 30
0.0
  0
VERTEX
  8
0
 10
-5.6047240921
 20
-1.44698196785
 30
0.0
  0
VERTEX
  8
0
 10
-5.55671986882
 20
-1.43300473369
 30
0.0
  0
VERTEX
  8
0
 10
-5.50920813362
 20
-1.41743541947
 30
0.0
  0
VERTEX
  8
0
 10
-5.46224167242
 20
-1.40029132283
 30
0.0
  0
VERTEX
  8
0
 10
-5.41587266535
 20
-1.381591491
 30
0.0
  0
VERTEX
  8
0
 10
-5.37015262876
 20
-1.36135669965
 30
0.0
  0
VERTEX
  8
0
 10
-5.32513235798
 20
-1.3396094298
 30
0.0
  0
VERTEX
  8
0
 10
-5.28086187091
 20
-1.31637384284
 30
0.0
  0
VERTEX
  8
0
 10
-5.23739035242
 20
-1.29167575369
 30
0.0
  0
VERTEX
  8
0
 10
-5.19476609972
 20
-1.26554260216
 30
0.0
  0
VERTEX
  8
0
 10
-5.15303646872
 20
-1.23800342236
 30
0.0
  0
VERTEX
  8
0
 10
-5.11224782138
 20
-1.20908881058
 30
0.0
  0
VERTEX
  8
0
 10
-5.07244547421
 20
-1.17883089117
 30
0.0
  0
VERTEX
  8
0
 10
-5.03367364796
 20
-1.14726328093
 30
0.0
  0
VERTEX
  8
0
 10
-4.99597541844
 20
-1.11442105174
 30
0.0
  0
VERTEX
  8
0
 10
-4.9593926687
 20
-1.08034069158
 30
0.0
  0
VERTEX
  8
0
 10
-4.92396604246
 20
-1.04506006402
 30
0.0
  0
VERTEX
  8
0
 10
-4.88973489902
 20
-1.00861836612
 30
0.0
  0
VERTEX
  8
0
 10
-4.85673726944
 20
-0.971056084918
 30
0.0
  0
VERTEX
  8
0
 10
-4.82500981437
 20
-0.932414952406
 30
0.0
  0
VERTEX
  8
0
 10
-4.79458778327
 20
-0.892737899204
 30
0.0
  0
VERTEX
  8
0
 10
-4.76550497527
 20
-0.852069006844
 30
0.0
  0
VERTEX
  8
0
 10
-4.7377937016
 20
-0.810453458802
 30
0.0
  0
VERTEX
  8
0
 10
-4.71148474972
 20
-0.767937490294
 30
0.0
  0
VERTEX
  8
0
 10
-4.6866073491
 20
-0.72456833691
 30
0.0
  0
VERTEX
  8
0
 10
-4.66318913872
 20
-0.680394182138
 30
0.0
  0
VERTEX
  8
0
 10
-4.64125613642
 20
-0.635464103827
 30
0.0
  0
VERTEX
  8
0
 10
-4.62083270993
 20
-0.589828019665
 30
0.0
  0
VERTEX
  8
0
 10
-4.60194154986
 20
-0.543536631715
 30
0.0
  0
VERTEX
  8
0
 10
-4.58460364444
 20
-0.496641370092
 30
0.0
  0
VERTEX
  8
0
 10
-4.56883825622
 20
-0.449194335817
 30
0.0
  0
VERTEX
  8
0
 10
-4.55466290069
 20
-0.401248242937
 30
0.0
  0
VERTEX
  8
0
 10
-4.54209332677
 20
-0.352856359954
 30
0.0
  0
VERTEX
  8
0
 10
-4.53114349937
 20
-0.304072450651
 30
0.0
  0
VERTEX
  8
0
 10
-4.52182558383
 20
-0.25495071435
 30
0.0
  0
VERTEX
  8
0
 10
-4.51414993244
 20
-0.205545725707
 30
0.0
  0
VERTEX
  8
0
 10
-4.50812507291
 20
-0.15591237407
 30
0.0
  0
VERTEX
  8
0
 10
-4.50375769891
 20
-0.106105802502
 30
0.0
  0
VERTEX
  8
0
 10
-4.50105266262
 20
-0.0561813465128
 30
0.0
  0
VERTEX
  8
0
 10
-4.50001296937
 20
-0.00619447258545
 30
0.0
  0
VERTEX
  8
0
 10
-4.50000017881
 20
6.1257875851e-16
 30
0.0
  0
SEQEND
  8
0
  0
POLYLINE
  8
0
 62
0
 70
0
 66
1
 10
0.0
 20
0.0
 30
0.0
  0
VERTEX
  8
0
 10
-10.5000001788
 20
9.79972798254e-16
 30
0.0
  0
VERTEX
  8
0
 10
-10.4991669226
 20
-0.0499907412551
 30
0.0
  0
VERTEX
  8
0
 10
-10.4966680799
 20
-0.0999259423851
 30
0.0
  0
VERTEX
  8
0
 10
-10.4925064267
 20
-0.14975012497
 30
0.0
  0
VERTEX
  8
0
 10
-10.4866865869
 20
-0.199407933933
 30
0.0
  0
VERTEX
  8
0
 10
-10.4792150262
 20
-0.24884419904
 30
0.0
  0
VERTEX
  8
0
 10
-10.4701000456
 20
-0.298003996193
 30
0.0
  0
VERTEX
  8
0
 10
-10.4593517719
 20
-0.346832708451
 30
0.0
  0
VERTEX
  8
0
 10
-10.4469821467
 20
-0.395276086715
 30
0.0
  0
VERTEX
  8
0
 10
-10.4330049125
 20
-0.443280309992
 30
0.0
  0
VERTEX
  8
0
 10
-10.4174355983
 20
-0.490792045194
 30
0.0
  0
VERTEX
  8
0
 10
-10.4002915016
 20
-0.537758506393
 30
0.0
  0
VERTEX
  8
0
 10
-10.3815916698
 20
-0.584127513463
 30
0.0
  0
VERTEX
  8
0
 10
-10.3613568785
 20
-0.629847550056
 30
0.0
  0
VERTEX
  8
0
 10
-10.3396096086
 20
-0.674867820834
 30
0.0
  0
VERTEX
  8
0
 10
-10.3163740216
 20
-0.719138307906
 30
0.0
  0
VERTEX
  8
0
 10
-10.2916759325
 20
-0.762609826397
 30
0.0
  0
VERTEX
  8
0
 10
-10.265542781
 20
-0.805234079091
 30
0.0
  0
VERTEX
  8
0
 10
-10.2380036012
 20
-0.846963710093
 30
0.0
  0
VERTEX
  8
0
 10
-10.2090889894
 20
-0.887752357438
 30
0.0
  0
VERTEX
  8
0
 10
-10.17883107
 20
-0.927554704605
 30
0.0
  0
VERTEX
  8
0
 10
-10.1472634597
 20
-0.966326530857
 30
0.0
  0
VERTEX
  8
0
 10
-10.1144212305
 20
-1.00402476038
 30
0.0
  0
VERTEX
  8
0
 10
-10.0803408704
 20
-1.04060751012
 30
0.0
  0
VERTEX
  8
0
 10
-10.0450602428
 20
-1.07603413635
 30
0.0
  0
VERTEX
  8
0
 10
-10.0086185449
 20
-1.11026527979
 30
0.0
  0
VERTEX
  8
0
 10
-9.97105626373
 20
-1.14326290937
 30
0.0
  0
VERTEX
  8
0
 10
-9.93241513122
 20
-1.17499036444
 30
0.0
  0
VERTEX
  8
0
 10
-9.89273807802
 20
-1.20541239554
 30
0.0
  0
VERTEX
  8
0
 10
-9.85206918566
 20
-1.23449520354
 30
0.0
  0
VERTEX
  8
0
 10
-9.81045363762
 20
-1.26220647721
 30
0.0
  0
VERTEX
  8
0
 10
-9.76793766911
 20
-1.28851542909
 30
0.0
  0
VERTEX
  8
0
 10
-9.72456851572
 20
-1.31339282972
 30
0.0
  0
VERTEX
  8
0
 10
-9.68039436095
 20
-1.33681104009
 30
0.0
  0
VERTEX
  8
0
 10
-9.63546428264
 20
-1.3587440424
 30
0.0
  0
VERTEX
  8
0
 10
-9.58982819848
 20
-1.37916746888
 30
0.0
  0
VERTEX
  8
0
 10
-9.54353681053
 20
-1.39805862895
 30
0.0
  0
VERTEX
  8
0
 10
-9.49664154891
 20
-1.41539653437
 30
0.0
  0
VERTEX
  8
0
 10
-9.44919451463
 20
-1.43116192259
 30
0.0
  0
VERTEX
  8
0
 10
-9.40124842175
 20
-1.44533727813
 30
0.0
  0
VERTEX
  8
0
 10
-9.35285653877
 20
-1.45790685204
 30
0.0
  0
VERTEX
  8
0
 10
-9.30407262946
 20
-1.46885667945
 30
0.0
  0
VERTEX
  8
0
 10
-9.25495089316
 20
-1.47817459498
 30
0.0
  0
VERTEX
  8
0
 10
-9.20554590452
 20
-1.48585024637
 30
0.0
  0
VERTEX
  8
0
 10
-9.15591255288
 20
-1.4918751059
 30
0.0
  0
VERTEX
  8
0
 10
-9.10610598132
 20
-1.49624247991
 30
0.0
  0
VERTEX
  8
0
 10
-9.05618152533
 20
-1.49894751619
 30
0.0
  0
VERTEX
  8
0
 10
-9.0061946514
 20
-1.49998720945
 30
0.0
  0
VERTEX
  8
0
 10
-9.00000017881
 20
-1.5
 30
0.0
  0
SEQEND
  8
0
  0
POLYLINE
  8
0
 62
0
 70
0
 66
1
 10
0.0
 20
0.0
 30
0.0
  0
VERTEX
  8
0
 10
-9.00000017881
 20
9.5
 30
0.0
  0
VERTEX
  8
0
 10
-9.04999092007
 20
9.49916674382
 30
0.0
  0
VERTEX
  8
0
 10
-9.0999261212
 20
9.49666790105
 30
0.0
  0
VERTEX
  8
0
 10
-9.14975030378
 20
9.49250624792
 30
0.0
  0
VERTEX
  8
0
 10
-9.19940811275
 20
9.48668640805
 30
0.0
  0
VERTEX
  8
0
 10
-9.24884437785
 20
9.47921484734
 30
0.0
  0
VERTEX
  8
0
 10
-9.29800417501
 20
9.47009986676
 30
0.0
  0
VERTEX
  8
0
 10
-9.34683288727
 20
9.45935159312
 30
0.0
  0
VERTEX
  8
0
 10
-9.39527626553
 20
9.44698196785
 30
0.0
  0
VERTEX
  8
0
 10
-9.44328048881
 20
9.43300473369
 30
0.0
  0
VERTEX
  8
0
 10
-9.49079222401
 20
9.41743541947
 30
0.0
  0
VERTEX
  8
0
 10
-9.53775868521
 20
9.40029132283
 30
0.0
  0
VERTEX
  8
0
 10
-9.58412769228
 20
9.381591491
 30
0.0
  0
VERTEX
  8
0
 10
-9.62984772887
 20
9.36135669965
 30
0.0
  0
VERTEX
  8
0
 10
-9.67486799965
 20
9.3396094298
 30
0.0
  0
VERTEX
  8
0
 10
-9.71913848672
 20
9.31637384284
 30
0.0
  0
VERTEX
  8
0
 10
-9.76261000521
 20
9.29167575369
 30
0.0
  0
VERTEX
  8
0
 10
-9.8052342579
 20
9.26554260216
 30
0.0
  0
VERTEX
  8
0
 10
-9.84696388891
 20
9.23800342236
 30
0.0
  0
VERTEX
  8
0
 10
-9.88775253625
 20
9.20908881058
 30
0.0
  0
VERTEX
  8
0
 10
-9.92755488342
 20
9.17883089117
 30
0.0
  0
VERTEX
  8
0
 10
-9.96632670967
 20
9.14726328093
 30
0.0
  0
VERTEX
  8
0
 10
-10.0040249392
 20
9.11442105174
 30
0.0
  0
VERTEX
  8
0
 10
-10.0406076889
 20
9.08034069158
 30
0.0
  0
VERTEX
  8
0
 10
-10.0760343152
 20
9.04506006402
 30
0.0
  0
VERTEX
  8
0
 10
-10.1102654586
 20
9.00861836612
 30
0.0
  0
VERTEX
  8
0
 10
-10.1432630882
 20
8.97105608492
 30
0.0
  0
VERTEX
  8
0
 10
-10.1749905433
 20
8.93241495241
 30
0.0
  0
VERTEX
  8
0
 10
-10.2054125744
 20
8.8927378992
 30
0.0
  0
VERTEX
  8
0
 10
-10.2344953824
 20
8.85206900684
 30
0.0
  0
VERTEX
  8
0
 10
-10.262206656
 20
8.8104534588
 30
0.0
  0
VERTEX
  8
0
 10
-10.2885156079
 20
8.76793749029
 30
0.0
  0
VERTEX
  8
0
 10
-10.3133930085
 20
8.72456833691
 30
0.0
  0
VERTEX
  8
0
 10
-10.3368112189
 20
8.68039418214
 30
0.0
  0
VERTEX
  8
0
 10
-10.3587442212
 20
8.63546410383
 30
0.0
  0
VERTEX
  8
0
 10
-10.3791676477
 20
8.58982801966
 30
0.0
  0
VERTEX
  8
0
 10
-10.3980588078
 20
8.54353663172
 30
0.0
  0
VERTEX
  8
0
 10
-10.4153967132
 20
8.49664137009
 30
0.0
  0
VERTEX
  8
0
 10
-10.4311621014
 20
8.44919433582
 30
0.0
  0
VERTEX
  8
0
 10
-10.4453374569
 20
8.40124824294
 30
0.0
  0
VERTEX
  8
0
 10
-10.4579070309
 20
8.35285635995
 30
0.0
  0
VERTEX
  8
0
 10
-10.4688568583
 20
8.30407245065
 30
0.0
  0
VERTEX
  8
0
 10
-10.4781747738
 20
8.25495071435
 30
0.0
  0
VERTEX
  8
0
 10
-10.4858504252
 20
8.20554572571
 30
0.0
  0
VERTEX
  8
0
 10
-10.4918752847
 20
8.15591237407
 30
0.0
  0
VERTEX
  8
0
 10
-10.4962426587
 20
8.1061058025
 30
0.0
  0
VERTEX
  8
0
 10
-10.498947695
 20
8.05618134651
 30
0.0
  0
VERTEX
  8
0
 10
-10.4999873883
 20
8.00619447259
 30
0.0
  0
VERTEX
  8
0
 10
-10.5000001788
 20
8.0
 30
0.0
  0
SEQEND
  8
0
  0
POLYLINE
  8
0
 62
0
 70
0
 66
1
 10
0.0
 20
0.0
 30
0.0
  0
VERTEX
  8
0
 10
-4.50000017881
 20
8.0
 30
0.0
  0
VERTEX
  8
0
 10
-4.50083343499
 20
8.04999074126
 30
0.0
  0
VERTEX
  8
0
 10
-4.50333227776
 20
8.09992594239
 30
0.0
  0
VERTEX
  8
0
 10
-4.5074939309
 20
8.14975012497
 30
0.0
  0
VERTEX
  8
0
 10
-4.51331377076
 20
8.19940793393
 30
0.0
  0
VERTEX
  8
0
 10
-4.52078533147
 20
8.24884419904
 30
0.0
  0
VERTEX
  8
0
 10
-4.52990031205
 20
8.29800399619
 30
0.0
  0
VERTEX
  8
0
 10
-4.54064858569
 20
8.34683270845
 30
0.0
  0
VERTEX
  8
0
 10
-4.55301821097
 20
8.39527608672
 30
0.0
  0
VERTEX
  8
0
 10
-4.56699544513
 20
8.44328030999
 30
0.0
  0
VERTEX
  8
0
 10
-4.58256475934
 20
8.49079204519
 30
0.0
  0
VERTEX
  8
0
 10
-4.59970885598
 20
8.53775850639
 30
0.0
  0
VERTEX
  8
0
 10
-4.61840868781
 20
8.58412751346
 30
0.0
  0
VERTEX
  8
0
 10
-4.63864347916
 20
8.62984755006
 30
0.0
  0
VERTEX
  8
0
 10
-4.66039074902
 20
8.67486782083
 30
0.0
  0
VERTEX
  8
0
 10
-4.68362633598
 20
8.71913830791
 30
0.0
  0
VERTEX
  8
0
 10
-4.70832442512
 20
8.7626098264
 30
0.0
  0
VERTEX
  8
0
 10
-4.73445757666
 20
8.80523407909
 30
0.0
  0
VERTEX
  8
0
 10
-4.76199675645
 20
8.84696371009
 30
0.0
  0
VERTEX
  8
0
 10
-4.79091136824
 20
8.88775235744
 30
0.0
  0
VERTEX
  8
0
 10
-4.82116928765
 20
8.9275547046
 30
0.0
  0
VERTEX
  8
0
 10
-4.85273689789
 20
8.96632653086
 30
0.0
  0
VERTEX
  8
0
 10
-4.88557912708
 20
9.00402476038
 30
0.0
  0
VERTEX
  8
0
 10
-4.91965948723
 20
9.04060751012
 30
0.0
  0
VERTEX
  8
0
 10
-4.95494011479
 20
9.07603413635
 30
0.0
  0
VERTEX
  8
0
 10
-4.99138181269
 20
9.11026527979
 30
0.0
  0
VERTEX
  8
0
 10
-5.0289440939
 20
9.14326290937
 30
0.0
  0
VERTEX
  8
0
 10
-5.06758522641
 20
9.17499036444
 30
0.0
  0
VERTEX
  8
0
 10
-5.10726227961
 20
9.20541239554
 30
0.0
  0
VERTEX
  8
0
 10
-5.14793117197
 20
9.23449520354
 30
0.0
  0
VERTEX
  8
0
 10
-5.18954672001
 20
9.26220647721
 30
0.0
  0
VERTEX
  8
0
 10
-5.23206268852
 20
9.28851542909
 30
0.0
  0
VERTEX
  8
0
 10
-5.2754318419
 20
9.31339282972
 30
0.0
  0
VERTEX
  8
0
 10
-5.31960599668
 20
9.33681104009
 30
0.0
  0
VERTEX
  8
0
 10
-5.36453607499
 20
9.3587440424
 30
0.0
  0
VERTEX
  8
0
 10
-5.41017215915
 20
9.37916746888
 30
0.0
  0
VERTEX
  8
0
 10
-5.4564635471
 20
9.39805862895
 30
0.0
  0
VERTEX
  8
0
 10
-5.50335880872
 20
9.41539653437
 30
0.0
  0
VERTEX
  8
0
 10
-5.550805843
 20
9.43116192259
 30
0.0
  0
VERTEX
  8
0
 10
-5.59875193588
 20
9.44533727813
 30
0.0
  0
VERTEX
  8
0
 10
-5.64714381886
 20
9.45790685204
 30
0.0
  0
VERTEX
  8
0
 10
-5.69592772816
 20
9.46885667945
 30
0.0
  0
VERTEX
  8
0
 10
-5.74504946446
 20
9.47817459498
 30
0.0
  0
VERTEX
  8
0
 10
-5.79445445311
 20
9.48585024637
 30
0.0
  0
VERTEX
  8
0
 10
-5.84408780474
 20
9.4918751059
 30
0.0
  0
VERTEX
  8
0
 10
-5.89389437631
 20
9.49624247991
 30
0.0
  0
VERTEX
  8
0
 10
-5.9438188323
 20
9.49894751619
 30
0.0
  0
VERTEX
  8
0
 10
-5.99380570623
 20
9.49998720945
 30
0.0
  0
VERTEX
  8
0
 10
-6.00000017881
 20
9.5
 30
0.0
  0
SEQEND
  8
0
  0
LINE
  8
0
 62
0
 10
-29.0000001788
 20
-125.0
 30
0.0
 11
-29.0000001788
 21
-100.0
 31
0.0
  0
LINE
  8
0
 62
0
 10
-29.0000001788
 20
-100.0
 30
0.0
 11
-26.0000001788
 21
-100.0
 31
0.0
  0
LINE
  8
0
 62
0
 10
25.9999998212
 20
-125.0
 30
0.0
 11
25.9999998212
 21
-100.0
 31
0.0
  0
LINE
  8
0
 62
0
 10
25.9999998212
 20
-125.0
 30
0.0
 11
-29.0000001788
 21
-125.0
 31
0.0
  0
LINE
  8
0
 62
0
 10
25.9999998212
 20
-100.0
 30
0.0
 11
28.9999998212
 21
-100.0
 31
0.0
  0
LINE
  8
0
 62
0
 10
28.9999998212
 20
-60.0
 30
0.0
 11
28.9999998212
 21
-100.0
 31
0.0
  0
LINE
  8
0
 62
0
 10
28.9999998212
 20
-60.0
 30
0.0
 11
25.9999998212
 21
-60.0
 31
0.0
  0
LINE
  8
0
 62
0
 10
-26.0000001788
 20
-100.0
 30
0.0
 11
-26.0000001788
 21
-60.0
 31
0.0
  0
LINE
  8
0
 62
0
 10
25.9999998212
 20
-60.0
 30
0.0
 11
25.9999998212
 21
-20.0
 31
0.0
  0
LINE
  8
0
 62
0
 10
-26.0000001788
 20
-60.0
 30
0.0
 11
-29.0000001788
 21
-60.0
 31
0.0
  0
LINE
  8
0
 62
0
 10
25.9999998212
 20
-20.0
 30
0.0
 11
28.9999998212
 21
-20.0
 31
0.0
  0
LINE
  8
0
 62
0
 10
-29.0000001788
 20
-60.0
 30
0.0
 11
-29.0000001788
 21
-20.0
 31
0.0
  0
LINE
  8
0
 62
0
 10
28.9999998212
 20
20.0
 30
0.0
 11
28.9999998212
 21
-20.0
 31
0.0
  0
LINE
  8
0
 62
0
 10
-29.0000001788
 20
-20.0
 30
0.0
 11
-26.0000001788
 21
-20.0
 31
0.0
  0
LINE
  8
0
 62
0
 10
28.9999998212
 20
20.0
 30
0.0
 11
25.9999998212
 21
20.0
 31
0.0
  0
LINE
  8
0
 62
0
 10
-26.0000001788
 20
-20.0
 30
0.0
 11
-26.0000001788
 21
20.0
 31
0.0
  0
LINE
  8
0
 62
0
 10
25.9999998212
 20
20.0
 30
0.0
 11
25.9999998212
 21
60.0
 31
0.0
  0
LINE
  8
0
 62
0
 10
-26.0000001788
 20
20.0
 30
0.0
 11
-29.0000001788
 21
20.0
 31
0.0
  0
LINE
  8
0
 62
0
 10
25.9999998212
 20
60.0
 30
0.0
 11
28.9999998212
 21
60.0
 31
0.0
  0
LINE
  8
0
 62
0
 10
-29.0000001788
 20
20.0
 30
0.0
 11
-29.0000001788
 21
60.0
 31
0.0
  0
LINE
  8
0
 62
0
 10
28.9999998212
 20
100.0
 30
0.0
 11
28.9999998212
 21
60.0
 31
0.0
  0
LINE
  8
0
 62
0
 10
-29.0000001788
 20
60.0
 30
0.0
 11
-26.0000001788
 21
60.0
 31
0.0
  0
LINE
  8
0
 62
0
 10
28.9999998212
 20
100.0
 30
0.0
 11
25.9999998212
 21
100.0
 31
0.0
  0
LINE
  8
0
 62
0
 10
-26.0000001788
 20
60.0
 30
0.0
 11
-26.0000001788
 21
100.0
 31
0.0
  0
LINE
  8
0
 62
0
 10
25.9999998212
 20
100.0
 30
0.0
 11
25.9999998212
 21
125.0
 31
0.0
  0
LINE
  8
0
 62
0
 10
-26.0000001788
 20
100.0
 30
0.0
 11
-29.0000001788
 21
100.0
 31
0.0
  0
LINE
  8
0
 62
0
 10
-29.0000001788
 20
125.0
 30
0.0
 11
25.9999998212
 21
125.0
 31
0.0
  0
LINE
  8
0
 62
0
 10
-29.0000001788
 20
100.0
 30
0.0
 11
-29.0000001788
 21
125.0
 31
0.0
  0
LINE
  8
0
 62
0
 10
-9.00000017881
 20
-1.5
 30
0.0
 11
-6.00000017881
 21
-1.5
 31
0.0
  0
LINE
  8
0
 62
0
 10
-10.5000001788
 20
8.0
 30
0.0
 11
-10.5000001788
 21
1.02589705853e-15
 31
0.0
  0
LINE
  8
0
 62
0
 10
-6.00000017881
 20
9.5
 30
0.0
 11
-9.00000017881
 21
9.5
 31
0.0
  0
LINE
  8
0
 62
0
 10
-4.50000017881
 20
8.881784197e-16
 30
0.0
 11
-4.50000017881
 21
8.0
 31
0.0
  0
LINE
  8
0
 62
0
 10
-6.00000017881
 20
-2.5
 30
0.0
 11
-6.00000017881
 21
-34.44
 31
0.0
  0
LINE
  8
0
 62
0
 10
0.799999821186
 20
-2.5
 30
0.0
 11
-6.00000017881
 21
-2.5
 31
0.0
  0
LINE
  8
0
 62
0
 10
0.799999821186
 20
-34.44
 30
0.0
 11
0.799999821186
 21
-2.5
 31
0.0
  0
LINE
  8
0
 62
0
 10
-6.00000017881
 20
-34.44
 30
0.0
 11
0.799999821186
 21
-34.44
 31
0.0
  0
ENDBLK
  0
ENDSEC
  0
SECTION
  2
ENTITIES
  0
INSERT
  2
POCKET013
  8
0
 62
0
 10
0.0
 20
0.0
 30
0.0
  0
ENDSEC
  0
EOF
